<svg id="Layer_1" data-name="Layer 1" xmlns="http://www.w3.org/2000/svg" xmlns:xlink="http://www.w3.org/1999/xlink" viewBox="0 0 27.65 10.95"><defs><pattern id="mazpattern_ANDY" data-name="mazpattern_ANDY" width="27.74" height="21.88" patternUnits="userSpaceOnUse" viewBox="0 0 27.74 21.88"><rect width="27.74" height="21.88" style="fill:none"/><path d="M32.91,16.07s0-.08,0-.11a.16.16,0,0,0,0-.06s0,0-.06.07a2.27,2.27,0,0,1-.48.77,2,2,0,0,1-.72.52,2.6,2.6,0,0,0-1.31,1.45,2.27,2.27,0,0,1-.48.77,2.08,2.08,0,0,1-.72.52,2.51,2.51,0,0,0-.78.59,2.77,2.77,0,0,0-.53.86.9.9,0,0,0-.06.34,2.06,2.06,0,0,0,0,.36.32.32,0,0,0,0,.08s0,.07,0,.11,0,.05.05.05,0,0,.06-.07a2.27,2.27,0,0,1,.48-.77,2.14,2.14,0,0,1,.71-.52,2.56,2.56,0,0,0,.79-.59,2.77,2.77,0,0,0,.53-.86,2.38,2.38,0,0,1,.48-.77,2.29,2.29,0,0,1,.71-.52,2.42,2.42,0,0,0,.79-.58,2.89,2.89,0,0,0,.53-.86,1,1,0,0,0,.06-.35c0-.12,0-.24,0-.35A.28.28,0,0,0,32.91,16.07Zm-3.74,9.75a.6.6,0,0,0-.06-.27,2.77,2.77,0,0,0-.53-.86,2.68,2.68,0,0,0-.78-.59s0,0-.06.14a2.88,2.88,0,0,0,0,.33,2,2,0,0,0,0,.35.24.24,0,0,0,.11.21,3,3,0,0,1,.42.27,2.53,2.53,0,0,1,.37.36,2.68,2.68,0,0,0-.85,1.16.9.9,0,0,0-.06.34,2.06,2.06,0,0,0,0,.36.32.32,0,0,0,0,.08s0,.08,0,.11,0,.05.05.05,0,0,.06-.07a2.36,2.36,0,0,1,1.19-1.29s0,0,0,0l0,0a.26.26,0,0,0,.07-.15.68.68,0,0,0,0-.21A1.41,1.41,0,0,0,29.17,25.82Zm1.24-9.11a2,2,0,0,0,0-.35,1.63,1.63,0,0,0-.05-.33c0-.1,0-.14-.05-.13A2.53,2.53,0,0,0,29,17.34a2.42,2.42,0,0,1-.47.77,2.28,2.28,0,0,1-.72.52.25.25,0,0,0-.11.22,2,2,0,0,0,0,.35,2.4,2.4,0,0,0,0,.32c0,.1,0,.15.06.14a2.48,2.48,0,0,0,.78-.58,3,3,0,0,0,.53-.86,2.69,2.69,0,0,1,.48-.78,2.33,2.33,0,0,1,.72-.52C30.37,16.9,30.4,16.82,30.41,16.71Zm6.22,8.81s0,0,0,0h0a2,2,0,0,1-.72-.52,2.44,2.44,0,0,1-.48-.77q0-.08-.06-.06s0,0-.06.06a2.21,2.21,0,0,1-1.17,1.28,2.93,2.93,0,0,0-.53-.8,2.46,2.46,0,0,0-.75-.56,2.14,2.14,0,0,1-.72-.52,2.42,2.42,0,0,1-.47-.77s0-.06-.07-.06h0a2.25,2.25,0,0,0-.73.53,2.58,2.58,0,0,0-.52.79,2.71,2.71,0,0,0-.79-1,2.38,2.38,0,0,1,.36-.35,1.94,1.94,0,0,1,.43-.27,2.51,2.51,0,0,0,.78-.59,3,3,0,0,0,.54-.86,2.42,2.42,0,0,1,.47-.77,2.45,2.45,0,0,1,.72-.52,2.48,2.48,0,0,0,.78-.58,3.05,3.05,0,0,0,.54-.86,2.25,2.25,0,0,1,1.19-1.3c.06,0,.1-.1.11-.21a2,2,0,0,0,0-.35,2.88,2.88,0,0,0,0-.33c0-.1,0-.14-.06-.13A2.55,2.55,0,0,0,34,17.34a2.63,2.63,0,0,1-.48.77,2.18,2.18,0,0,1-.72.52,2.59,2.59,0,0,0-1.32,1.45,2.42,2.42,0,0,1-.47.77,2.45,2.45,0,0,1-.72.52,2.48,2.48,0,0,0-.78.58,2.92,2.92,0,0,0-.54.86,1.07,1.07,0,0,0-.06.27v.29a.51.51,0,0,0,.09.35s0,0,0,0v0a2.05,2.05,0,0,1,.72.51,2.32,2.32,0,0,1,.48.78q0,.09.06.06s0,0,.06-.06a2.24,2.24,0,0,1,1.17-1.28,2.93,2.93,0,0,0,.53.8,2.43,2.43,0,0,0,.75.55,2.33,2.33,0,0,1,.72.52,2.77,2.77,0,0,1,.48.77s0,.07.06.07h0a2.4,2.4,0,0,0,.73-.53,2.52,2.52,0,0,0,.52-.79,2.64,2.64,0,0,0,.8,1,3,3,0,0,1-.37.35,1.73,1.73,0,0,1-.43.27c-.06,0-.09.1-.1.21a2,2,0,0,0,0,.35,1.63,1.63,0,0,0,.05.33c0,.1,0,.15,0,.14a2.68,2.68,0,0,0,.79-.59,3,3,0,0,0,.53-.86,1,1,0,0,0,.06-.26v-.29A.62.62,0,0,0,36.63,25.52Zm-3.69,1.74a.9.9,0,0,0-.06-.34,2.77,2.77,0,0,0-.53-.86,2.44,2.44,0,0,0-.79-.59s0,0-.06.08a2.42,2.42,0,0,1-.47.77,2.28,2.28,0,0,1-.72.52.24.24,0,0,0-.11.21,2,2,0,0,0,0,.35,2.88,2.88,0,0,0,.05.33c0,.1.05.15.06.14a2.43,2.43,0,0,0,.75-.55,2.62,2.62,0,0,0,.52-.81,2.29,2.29,0,0,1,1.18,1.28c0,.05,0,.08.06.07s0,0,0-.05,0-.07,0-.11a.32.32,0,0,0,0-.08C32.93,27.51,32.94,27.39,32.94,27.26Zm5-11.19s0-.08,0-.11a.16.16,0,0,0,0-.06s0,0-.06.07a2.42,2.42,0,0,1-.47.77,2.14,2.14,0,0,1-.72.52,2.58,2.58,0,0,0-1.32,1.45,2.27,2.27,0,0,1-.48.77,2.14,2.14,0,0,1-.71.52,2.44,2.44,0,0,0-.79.59,2.77,2.77,0,0,0-.53.86.65.65,0,0,0,0,.21,1.77,1.77,0,0,0,0,.23,1.69,1.69,0,0,0,0,.23.59.59,0,0,0,0,.2,2.77,2.77,0,0,0,.53.86,2.6,2.6,0,0,0,.79.59s0,0,.06-.08a2.42,2.42,0,0,1,.47-.77,2.14,2.14,0,0,1,.72-.52,2.68,2.68,0,0,0,.79-.59,3,3,0,0,0,.53-.86,2.36,2.36,0,0,1,1.19-1.29.24.24,0,0,0,.11-.21,2,2,0,0,0,0-.35,2.88,2.88,0,0,0-.05-.33c0-.1,0-.15-.06-.14a2.57,2.57,0,0,0-1.31,1.45,2.63,2.63,0,0,1-.48.77,2.22,2.22,0,0,1-.72.52,2.43,2.43,0,0,0-.75.55,2.62,2.62,0,0,0-.52.81,2.36,2.36,0,0,1-1-.85,2.34,2.34,0,0,1,1-.85,2.51,2.51,0,0,0,.78-.59,2.77,2.77,0,0,0,.53-.86,2.56,2.56,0,0,1,.48-.77,2.22,2.22,0,0,1,.72-.52,2.48,2.48,0,0,0,.78-.58,2.89,2.89,0,0,0,.53-.86A1,1,0,0,0,38,16.5a2,2,0,0,0,0-.35A.28.28,0,0,0,37.93,16.07Zm0,5.47s0-.08,0-.11l0-.06s0,0-.06.08a2.53,2.53,0,0,1-.47.77,2.45,2.45,0,0,1-.72.52s0,0,0,0l0,0a.26.26,0,0,0-.07.15.68.68,0,0,0,0,.21,1.41,1.41,0,0,0,0,.29.6.6,0,0,0,.06.27,2.89,2.89,0,0,0,.53.86,2.48,2.48,0,0,0,.78.58s0,0,.06-.13a2.88,2.88,0,0,0,.05-.33,2,2,0,0,0,0-.35.25.25,0,0,0-.11-.22,2.26,2.26,0,0,1-.42-.26,3.15,3.15,0,0,1-.37-.36,2.74,2.74,0,0,0,.85-1.16A.93.93,0,0,0,38,22a2.06,2.06,0,0,0,0-.36A.32.32,0,0,0,37.93,21.54Z" style="fill:#231f20"/><path d="M5.17,16.07s0-.08,0-.11a.16.16,0,0,0,0-.06s0,0-.06.07a2.27,2.27,0,0,1-.48.77,2,2,0,0,1-.72.52,2.6,2.6,0,0,0-1.31,1.45,2.44,2.44,0,0,1-.48.77,2.08,2.08,0,0,1-.72.52,2.51,2.51,0,0,0-.78.59,2.77,2.77,0,0,0-.53.86.9.9,0,0,0-.06.34,2.06,2.06,0,0,0,0,.36.32.32,0,0,0,0,.08s0,.07,0,.11,0,.05,0,.05,0,0,.06-.07a2.27,2.27,0,0,1,.48-.77A2.14,2.14,0,0,1,1.31,21a2.56,2.56,0,0,0,.79-.59,2.77,2.77,0,0,0,.53-.86,2.38,2.38,0,0,1,.48-.77,2.29,2.29,0,0,1,.71-.52,2.42,2.42,0,0,0,.79-.58,2.89,2.89,0,0,0,.53-.86,1,1,0,0,0,.06-.35c0-.12,0-.24,0-.35A.28.28,0,0,0,5.17,16.07ZM1.43,25.82a.6.6,0,0,0-.06-.27,2.77,2.77,0,0,0-.53-.86,2.68,2.68,0,0,0-.78-.59s0,0-.06.14a2.88,2.88,0,0,0,0,.33,2,2,0,0,0,0,.35.24.24,0,0,0,.11.21,3,3,0,0,1,.42.27,2.53,2.53,0,0,1,.37.36A2.68,2.68,0,0,0,0,26.92a.9.9,0,0,0-.06.34,2.06,2.06,0,0,0,0,.36.32.32,0,0,0,0,.08s0,.08,0,.11,0,.05,0,.05,0,0,.06-.07A2.27,2.27,0,0,1,.6,27a2.29,2.29,0,0,1,.71-.52s0,0,0,0l0,0a.26.26,0,0,0,.07-.15.68.68,0,0,0,0-.21A1.41,1.41,0,0,0,1.43,25.82Zm1.24-9.11a2,2,0,0,0,0-.35,1.63,1.63,0,0,0,0-.33c0-.1,0-.14-.05-.13a2.53,2.53,0,0,0-1.32,1.44,2.42,2.42,0,0,1-.47.77,2.28,2.28,0,0,1-.72.52.25.25,0,0,0-.11.22,2,2,0,0,0,0,.35,2.4,2.4,0,0,0,.05.32c0,.1,0,.15.06.14a2.48,2.48,0,0,0,.78-.58,3,3,0,0,0,.53-.86,2.69,2.69,0,0,1,.48-.78,2.22,2.22,0,0,1,.72-.52C2.63,16.9,2.66,16.82,2.67,16.71Zm6.22,8.81s0,0,0,0h0A2,2,0,0,1,8.13,25a2.44,2.44,0,0,1-.48-.77q0-.08-.06-.06s0,0-.06.06a2.24,2.24,0,0,1-1.17,1.28,2.93,2.93,0,0,0-.53-.8,2.46,2.46,0,0,0-.75-.56,2.14,2.14,0,0,1-.72-.52,2.63,2.63,0,0,1-.48-.77s0-.06-.06-.06h0a2.25,2.25,0,0,0-.73.53,2.58,2.58,0,0,0-.52.79,2.71,2.71,0,0,0-.79-1,2.38,2.38,0,0,1,.36-.35,1.73,1.73,0,0,1,.43-.27,2.51,2.51,0,0,0,.78-.59A2.77,2.77,0,0,0,3.88,21a2.63,2.63,0,0,1,.48-.77,2.45,2.45,0,0,1,.72-.52,2.48,2.48,0,0,0,.78-.58,3.29,3.29,0,0,0,.54-.86,2.25,2.25,0,0,1,1.19-1.3c.06,0,.1-.1.11-.21a2,2,0,0,0,0-.35,2.88,2.88,0,0,0,0-.33c0-.1-.05-.14-.06-.13a2.55,2.55,0,0,0-1.31,1.44,2.63,2.63,0,0,1-.48.77,2.28,2.28,0,0,1-.72.52,2.59,2.59,0,0,0-1.32,1.45,2.42,2.42,0,0,1-.47.77,2.45,2.45,0,0,1-.72.52,2.48,2.48,0,0,0-.78.58,2.92,2.92,0,0,0-.54.86,1.07,1.07,0,0,0-.06.27v.29a.51.51,0,0,0,.09.35s0,0,0,0v0a2.05,2.05,0,0,1,.72.51,2.49,2.49,0,0,1,.48.78q0,.09.06.06s0,0,.06-.06A2.24,2.24,0,0,1,3.8,23.78a2.93,2.93,0,0,0,.53.8,2.43,2.43,0,0,0,.75.55,2.45,2.45,0,0,1,.72.52,2.77,2.77,0,0,1,.48.77s0,.07.06.07h0A2.4,2.4,0,0,0,7.07,26a2.52,2.52,0,0,0,.52-.79,2.64,2.64,0,0,0,.8,1,3,3,0,0,1-.37.35,1.73,1.73,0,0,1-.43.27c-.06,0-.09.1-.1.21a2,2,0,0,0,0,.35,1.63,1.63,0,0,0,0,.33c0,.1,0,.15,0,.14a2.51,2.51,0,0,0,.78-.59,2.79,2.79,0,0,0,.54-.86A1,1,0,0,0,9,26.16v-.29A.62.62,0,0,0,8.89,25.52ZM5.2,27.26a.9.9,0,0,0-.06-.34,2.77,2.77,0,0,0-.53-.86,2.44,2.44,0,0,0-.79-.59s0,0-.06.08a2.42,2.42,0,0,1-.47.77,2.28,2.28,0,0,1-.72.52.24.24,0,0,0-.11.21,2,2,0,0,0,0,.35,2.88,2.88,0,0,0,0,.33c0,.1.05.15.06.14a2.43,2.43,0,0,0,.75-.55,2.62,2.62,0,0,0,.52-.81A2.29,2.29,0,0,1,5,27.79c0,.05,0,.08.06.07s0,0,0-.05,0-.07,0-.11a.32.32,0,0,0,0-.08C5.19,27.51,5.2,27.39,5.2,27.26Zm5-11.19s0-.08,0-.11a.16.16,0,0,0-.05-.06s0,0-.06.07a2.42,2.42,0,0,1-.47.77,2.14,2.14,0,0,1-.72.52,2.58,2.58,0,0,0-1.32,1.45,2.27,2.27,0,0,1-.48.77,2.14,2.14,0,0,1-.71.52,2.44,2.44,0,0,0-.79.59,2.77,2.77,0,0,0-.53.86.65.65,0,0,0,0,.21,1.77,1.77,0,0,0,0,.23,1.69,1.69,0,0,0,0,.23.59.59,0,0,0,0,.2,2.77,2.77,0,0,0,.53.86,2.6,2.6,0,0,0,.79.59s0,0,.06-.08a2.42,2.42,0,0,1,.47-.77,2.14,2.14,0,0,1,.72-.52,2.51,2.51,0,0,0,.78-.59A2.79,2.79,0,0,0,8.91,21a2.42,2.42,0,0,1,.47-.77,2.45,2.45,0,0,1,.72-.52.24.24,0,0,0,.11-.21,2,2,0,0,0,0-.35,2.88,2.88,0,0,0-.05-.33c0-.1,0-.15-.06-.14a2.57,2.57,0,0,0-1.31,1.45,2.63,2.63,0,0,1-.48.77,2.22,2.22,0,0,1-.72.52,2.43,2.43,0,0,0-.75.55,2.62,2.62,0,0,0-.52.81,2.36,2.36,0,0,1-1-.85,2.34,2.34,0,0,1,1-.85,2.51,2.51,0,0,0,.78-.59,2.77,2.77,0,0,0,.53-.86,2.56,2.56,0,0,1,.48-.77,2.22,2.22,0,0,1,.72-.52,2.48,2.48,0,0,0,.78-.58,2.89,2.89,0,0,0,.53-.86,1,1,0,0,0,.06-.35,2,2,0,0,0,0-.35A.28.28,0,0,0,10.19,16.07Zm0,5.47s0-.08,0-.11l-.05-.06s0,0-.06.08a2.53,2.53,0,0,1-.47.77,2.45,2.45,0,0,1-.72.52s0,0,0,0l0,0a.26.26,0,0,0-.07.15.68.68,0,0,0,0,.21,1.41,1.41,0,0,0,0,.29.6.6,0,0,0,.06.27,2.89,2.89,0,0,0,.53.86,2.48,2.48,0,0,0,.78.58s0,0,.06-.13a2.88,2.88,0,0,0,.05-.33,2,2,0,0,0,0-.35.25.25,0,0,0-.11-.22,2.26,2.26,0,0,1-.42-.26,3.15,3.15,0,0,1-.37-.36,2.74,2.74,0,0,0,.85-1.16.93.93,0,0,0,.06-.34,2.06,2.06,0,0,0,0-.36A.32.32,0,0,0,10.19,21.54Z" style="fill:#231f20"/><path d="M15.21,16.07a.36.36,0,0,0,0-.11s0-.05-.05-.06,0,0,0,.07a2.63,2.63,0,0,1-.48.77,2.14,2.14,0,0,1-.72.52,2.63,2.63,0,0,0-.74.53,3,3,0,0,0-.52.8,2.74,2.74,0,0,0-.51-.8,2.63,2.63,0,0,0-.74-.53,2,2,0,0,1-.72-.52,2.63,2.63,0,0,1-.48-.77c0-.05,0-.07-.05-.07a.08.08,0,0,0,0,.06.36.36,0,0,0,0,.11.45.45,0,0,0,0,.08c0,.11,0,.23,0,.35a1,1,0,0,0,.06.35,2.92,2.92,0,0,0,.54.86,2.48,2.48,0,0,0,.78.58,2.45,2.45,0,0,1,.72.52,2.53,2.53,0,0,1,.47.77c0,.06,0,.08.06.07s0,0,.06-.07a2.77,2.77,0,0,1,.48-.77,2.45,2.45,0,0,1,.72-.52,2.48,2.48,0,0,0,.78-.58,3.14,3.14,0,0,0,.54-.86,1,1,0,0,0,.06-.35c0-.12,0-.24,0-.35A.45.45,0,0,0,15.21,16.07Zm-2.49,8.31a.46.46,0,0,0-.05-.2,2.89,2.89,0,0,0-.53-.86,2.48,2.48,0,0,0-.78-.58,2.22,2.22,0,0,1-.72-.52,2.77,2.77,0,0,1-.48-.77c0-.06,0-.08-.05-.08a.1.1,0,0,0,0,.06.36.36,0,0,0,0,.11s0,.07,0,.08,0,.23,0,.36a.93.93,0,0,0,.06.34,2.79,2.79,0,0,0,.54.86,2.68,2.68,0,0,0,.78.59,2.31,2.31,0,0,1,1,.85,2.31,2.31,0,0,1-1,.85,2.51,2.51,0,0,0-.78.59,2.79,2.79,0,0,0-.54.86.9.9,0,0,0-.06.34c0,.13,0,.25,0,.36l0,.08a.36.36,0,0,0,0,.11s0,.05,0,.05,0,0,.05-.07a2.63,2.63,0,0,1,.48-.77,2.22,2.22,0,0,1,.72-.52,2.48,2.48,0,0,0,.78-.58,2.89,2.89,0,0,0,.53-.86.54.54,0,0,0,.05-.22,2.65,2.65,0,0,0,0-.46Zm2.51-.08a.29.29,0,0,0-.1-.2,2,2,0,0,1-.72-.52,2.27,2.27,0,0,1-.48-.77A2.89,2.89,0,0,0,13.4,22a2.42,2.42,0,0,0-.79-.58,2.36,2.36,0,0,1-1.19-1.29,2.77,2.77,0,0,0-.53-.86,2.56,2.56,0,0,0-.79-.59s0,0,0,.14a1.63,1.63,0,0,0-.05.33,2,2,0,0,0,0,.35c0,.11,0,.18.1.21a2.22,2.22,0,0,1,.72.52,2.44,2.44,0,0,1,.48.77,2.77,2.77,0,0,0,.53.86,2.51,2.51,0,0,0,.78.59,2,2,0,0,1,.72.52,2.27,2.27,0,0,1,.48.77,2.44,2.44,0,0,0,.26.51,2,2,0,0,0,.34.42,2,2,0,0,0-.34.42,2.44,2.44,0,0,0-.26.51,2.27,2.27,0,0,1-.48.77,2.08,2.08,0,0,1-.72.52c-.06,0-.09.1-.1.21a2,2,0,0,0,0,.35,2.88,2.88,0,0,0,.05.33c0,.1,0,.15,0,.14a2.44,2.44,0,0,0,.79-.59,2.77,2.77,0,0,0,.53-.86,2.38,2.38,0,0,1,.48-.77,2.22,2.22,0,0,1,.72-.52.26.26,0,0,0,.1-.19,1.12,1.12,0,0,0,0-.32A1.11,1.11,0,0,0,15.23,24.3Zm0-2.51a.9.9,0,0,0-.06-.34,2.88,2.88,0,0,0-.86-1.17,3,3,0,0,1,.37-.35,1.73,1.73,0,0,1,.43-.27c.06,0,.09-.1.1-.21a2,2,0,0,0,0-.35,2.88,2.88,0,0,0-.05-.33c0-.1,0-.15,0-.14a2.44,2.44,0,0,0-.79.59,2.77,2.77,0,0,0-.53.86,1.07,1.07,0,0,0-.06.27,1.4,1.4,0,0,0,0,.29.54.54,0,0,0,.09.35l0,0h0a2.28,2.28,0,0,1,.72.52,2.63,2.63,0,0,1,.48.77c0,.05,0,.08,0,.07s0,0,.05-.05a.49.49,0,0,0,0-.11s0-.07,0-.08S15.25,21.92,15.25,21.79Z" style="fill:#231f20"/><path d="M17.69,19.52a1.43,1.43,0,0,0,0-.32,2,2,0,0,0,0-.35c0-.12,0-.19-.1-.22a2.11,2.11,0,0,1-.71-.51,2.39,2.39,0,0,1-.47-.75v0l0,0s0-.05,0-.05h0a2.14,2.14,0,0,1-.72-.52,2.42,2.42,0,0,1-.47-.77c0-.05,0-.07-.06-.07s0,0-.05.06a.36.36,0,0,0,0,.11.28.28,0,0,0,0,.08,2,2,0,0,0,0,.35,1,1,0,0,0,.07.35,2.53,2.53,0,0,0,1.28,1.42,2.56,2.56,0,0,0,1.29,1.39S17.67,19.62,17.69,19.52Zm0,4.78a.26.26,0,0,0-.1-.2,2.23,2.23,0,0,1-.71-.5,2.64,2.64,0,0,1-.47-.75v0s0,0,0,0,0,0,0,0a0,0,0,0,1,0,0,2.45,2.45,0,0,1-.72-.52,2.53,2.53,0,0,1-.47-.77c0-.06,0-.08-.06-.08s0,0-.05.06a.36.36,0,0,0,0,.11.32.32,0,0,0,0,.08A2,2,0,0,0,15,22a.94.94,0,0,0,.07.34,2.53,2.53,0,0,0,1.28,1.42,2.57,2.57,0,0,0,.57.88,2.63,2.63,0,0,0-.57.87,2.55,2.55,0,0,0-1.28,1.43.89.89,0,0,0-.07.34,2,2,0,0,0,0,.36.32.32,0,0,0,0,.08.36.36,0,0,0,0,.11s0,.05.05.05,0,0,.06-.07a2.42,2.42,0,0,1,.47-.77,2.45,2.45,0,0,1,.72-.52h0s0,0,.05,0a.13.13,0,0,0,0-.05,2.64,2.64,0,0,1,.47-.75,2.43,2.43,0,0,1,.71-.51.23.23,0,0,0,.1-.19,1.12,1.12,0,0,0,0-.32A1.11,1.11,0,0,0,17.74,24.3Zm0-2.51a.9.9,0,0,0-.06-.34A2.6,2.6,0,0,0,16.41,20a2.54,2.54,0,0,0-1.28-1.39s0,0-.06.14a2.88,2.88,0,0,0-.05.33,2,2,0,0,0,0,.35.24.24,0,0,0,.11.21,2.33,2.33,0,0,1,.7.51,2.44,2.44,0,0,1,.47.75l0,0a0,0,0,0,0,0,0s0,.05,0,.05,0,0,0,0a2.08,2.08,0,0,1,.72.52,2.63,2.63,0,0,1,.48.77c0,.05,0,.08.05.07s0,0,.05-.05a.49.49,0,0,0,0-.11s0-.07,0-.08S17.76,21.92,17.76,21.79Z" style="fill:#231f20"/><path d="M27.8,27.26a.9.9,0,0,0-.06-.34,2.77,2.77,0,0,0-.53-.86,2.51,2.51,0,0,0-.78-.59,2,2,0,0,1-.72-.52,2.27,2.27,0,0,1-.48-.77A2.83,2.83,0,0,0,24.38,23a2.38,2.38,0,0,1,.36-.35,1.94,1.94,0,0,1,.43-.27,2.46,2.46,0,0,0,.75-.56,2.79,2.79,0,0,0,.53-.8,2.24,2.24,0,0,1,1.17,1.28c0,.05,0,.08.06.07s0,0,.05-.05,0-.07,0-.11a.32.32,0,0,0,0-.08,2.06,2.06,0,0,0,0-.36.9.9,0,0,0-.06-.34,2.77,2.77,0,0,0-.53-.86,2.51,2.51,0,0,0-.78-.59,2.08,2.08,0,0,1-.72-.52,2.27,2.27,0,0,1-.48-.77c0-.05,0-.07-.06-.07s0,0-.06.07A2.26,2.26,0,0,1,23.93,20a2.69,2.69,0,0,0-1.27-1.36,2.46,2.46,0,0,0-.75.56,2.66,2.66,0,0,0-.53.8,2.24,2.24,0,0,1-1.17-1.28c0-.05,0-.08-.06-.07s0,0,0,.05,0,.07,0,.11a.32.32,0,0,0,0,.08,2.06,2.06,0,0,0,0,.36.9.9,0,0,0,.06.34,2.77,2.77,0,0,0,.53.86,2.51,2.51,0,0,0,.78.59s0,0,.06-.08a2.63,2.63,0,0,1,.48-.77,2.33,2.33,0,0,1,.72-.52,1.94,1.94,0,0,1,.43.27,2.38,2.38,0,0,1,.36.35,2.86,2.86,0,0,0-.85,1.17,2.38,2.38,0,0,1-.48.77,2.22,2.22,0,0,1-.72.52,2.55,2.55,0,0,0-1.31,1.44,2.63,2.63,0,0,1-.48.77,2,2,0,0,1-.72.52,2.51,2.51,0,0,0-.78.59,2.77,2.77,0,0,0-.53.86.9.9,0,0,0-.06.34,2.06,2.06,0,0,0,0,.36.32.32,0,0,0,0,.08s0,.08,0,.11,0,.05.05.05,0,0,.06-.07a2.42,2.42,0,0,1,.47-.77,2.45,2.45,0,0,1,.72-.52,2.65,2.65,0,0,0,.79-.58,3.11,3.11,0,0,0,.53-.86,2.32,2.32,0,0,1,.48-.78,2.11,2.11,0,0,1,.71-.51,2.6,2.6,0,0,0,.79-.59,2.77,2.77,0,0,0,.53-.86,2.27,2.27,0,0,1,.48-.77,2.08,2.08,0,0,1,.72-.52,2.4,2.4,0,0,0,.73-.53,2.63,2.63,0,0,0,.52-.8,2.64,2.64,0,0,0,.79,1,2.45,2.45,0,0,1-.36.36,1.94,1.94,0,0,1-.43.27,2.48,2.48,0,0,0-.78.58,2.89,2.89,0,0,0-.53.86.77.77,0,0,0-.07.27v.29a.57.57,0,0,0,.09.35s0,0,0,0v0a2.11,2.11,0,0,1,.71.51,2.32,2.32,0,0,1,.48.78,2.89,2.89,0,0,0,.53.86,2.53,2.53,0,0,0,.79.58,2.36,2.36,0,0,1,1.19,1.29c0,.05,0,.08.06.07s0,0,.05-.05,0-.07,0-.11a.32.32,0,0,0,0-.08A2.06,2.06,0,0,0,27.8,27.26ZM24,18.16a2.88,2.88,0,0,0,.05-.33,2,2,0,0,0,0-.35c0-.12,0-.19-.1-.22a2,2,0,0,1-.72-.52,2.27,2.27,0,0,1-.48-.77q0-.08-.06-.06s0,0-.06.06a2.23,2.23,0,0,1-1.18,1.28,2.69,2.69,0,0,0-.52-.8,2.28,2.28,0,0,0-.75-.55,2.53,2.53,0,0,0-1.32,1.44,2.42,2.42,0,0,1-.47.77,2.28,2.28,0,0,1-.72.52.26.26,0,0,0-.11.19,1.21,1.21,0,0,0,0,.33,1.14,1.14,0,0,0,0,.32c0,.1,0,.16.11.19a2.45,2.45,0,0,1,.72.52,2.42,2.42,0,0,1,.47.77,3.6,3.6,0,0,0,.26.52,2.3,2.3,0,0,0,.35.41,2.79,2.79,0,0,0-.35.42,3,3,0,0,0-.26.51,2.42,2.42,0,0,1-.47.77,2.14,2.14,0,0,1-.72.52.25.25,0,0,0-.11.22,2,2,0,0,0,0,.35,2.88,2.88,0,0,0,0,.33c0,.1,0,.14.06.13a2.48,2.48,0,0,0,.78-.58,2.89,2.89,0,0,0,.53-.86,2.63,2.63,0,0,1,.48-.77,2,2,0,0,1,.72-.52.25.25,0,0,0,.1-.19,1.19,1.19,0,0,0,0-.33,1.13,1.13,0,0,0,0-.32.23.23,0,0,0-.1-.19,2.22,2.22,0,0,1-.72-.52,2.63,2.63,0,0,1-.48-.77,2.81,2.81,0,0,0-.26-.52,2.25,2.25,0,0,0-.34-.41,2.72,2.72,0,0,0,.34-.42,2.44,2.44,0,0,0,.26-.51,2.69,2.69,0,0,1,.48-.78,2.22,2.22,0,0,1,.72-.52,2.25,2.25,0,0,1,1.19,1.3s0,.06.06.06h0a2.33,2.33,0,0,0,.74-.53,2.71,2.71,0,0,0,.52-.79,2.71,2.71,0,0,0,.52.79,2.33,2.33,0,0,0,.74.53S24,18.25,24,18.16Zm1.26,9.57a2.88,2.88,0,0,0,.05-.33,2,2,0,0,0,0-.35.24.24,0,0,0-.11-.21,2.28,2.28,0,0,1-.72-.52,2.42,2.42,0,0,1-.47-.77,3,3,0,0,0-.54-.86,2.68,2.68,0,0,0-.78-.59,2.62,2.62,0,0,0-1.32,1.45,2.42,2.42,0,0,1-.47.77,2.28,2.28,0,0,1-.72.52.24.24,0,0,0-.11.21,2,2,0,0,0,0,.35,2.88,2.88,0,0,0,.05.33c0,.1,0,.15.06.14a2.51,2.51,0,0,0,.78-.59,2.77,2.77,0,0,0,.53-.86,2.77,2.77,0,0,1,.48-.77,2.33,2.33,0,0,1,.72-.52,2.45,2.45,0,0,1,.72.52,2.77,2.77,0,0,1,.48.77,2.77,2.77,0,0,0,.53.86,2.51,2.51,0,0,0,.78.59S25.2,27.83,25.23,27.73Zm2.51-8.21a2.4,2.4,0,0,0,.05-.32,2,2,0,0,0,0-.35.25.25,0,0,0-.11-.22,2.28,2.28,0,0,1-.72-.52,2.42,2.42,0,0,1-.47-.77,2.92,2.92,0,0,0-.54-.86,2.48,2.48,0,0,0-.78-.58s0,0-.05.13a1.63,1.63,0,0,0-.05.33,2,2,0,0,0,0,.35c0,.11,0,.19.1.21a2.22,2.22,0,0,1,.72.52,2.69,2.69,0,0,1,.48.78,3,3,0,0,0,.53.86,2.48,2.48,0,0,0,.78.58S27.71,19.62,27.74,19.52Zm0,5.48a2.88,2.88,0,0,0,.05-.33,2,2,0,0,0,0-.35.25.25,0,0,0-.11-.22,2.14,2.14,0,0,1-.72-.52,2.42,2.42,0,0,1-.47-.77s0-.07-.06-.07,0,0-.05.06a.36.36,0,0,0,0,.11.28.28,0,0,0,0,.08,2,2,0,0,0,0,.35,1,1,0,0,0,.06.35,2.89,2.89,0,0,0,.53.86,2.48,2.48,0,0,0,.78.58S27.71,25.1,27.74,25Z" style="fill:#231f20"/><path d="M.06,27.26A.9.9,0,0,0,0,26.92a2.77,2.77,0,0,0-.53-.86,2.51,2.51,0,0,0-.78-.59A2,2,0,0,1-2,25a2.27,2.27,0,0,1-.48-.77A2.83,2.83,0,0,0-3.36,23,2.38,2.38,0,0,1-3,22.67a1.94,1.94,0,0,1,.43-.27,2.46,2.46,0,0,0,.75-.56,2.79,2.79,0,0,0,.53-.8A2.24,2.24,0,0,1-.12,22.32c0,.05,0,.08.06.07s0,0,0-.05,0-.07,0-.11a.32.32,0,0,0,0-.08,2.06,2.06,0,0,0,0-.36A.9.9,0,0,0,0,21.45a2.77,2.77,0,0,0-.53-.86A2.51,2.51,0,0,0-1.31,20,2.08,2.08,0,0,1-2,19.48a2.27,2.27,0,0,1-.48-.77c0-.05,0-.07-.06-.07s0,0-.06.07A2.26,2.26,0,0,1-3.81,20a2.46,2.46,0,0,0-.52-.8,2.46,2.46,0,0,0-.75-.56,2.46,2.46,0,0,0-.75.56,2.66,2.66,0,0,0-.53.8,2.24,2.24,0,0,1-1.17-1.28c0-.05,0-.08-.06-.07s0,0,0,.05,0,.07,0,.11a.32.32,0,0,0,0,.08,2.06,2.06,0,0,0,0,.36.9.9,0,0,0,.06.34,2.77,2.77,0,0,0,.53.86,2.51,2.51,0,0,0,.78.59s0,0,.06-.08a2.63,2.63,0,0,1,.48-.77,2.33,2.33,0,0,1,.72-.52,1.94,1.94,0,0,1,.43.27,2.38,2.38,0,0,1,.36.35,2.86,2.86,0,0,0-.85,1.17,2.56,2.56,0,0,1-.48.77,2.22,2.22,0,0,1-.72.52,2.55,2.55,0,0,0-1.31,1.44,2.63,2.63,0,0,1-.48.77,2,2,0,0,1-.72.52,2.51,2.51,0,0,0-.78.59,2.77,2.77,0,0,0-.53.86.9.9,0,0,0-.06.34,2.06,2.06,0,0,0,0,.36.32.32,0,0,0,0,.08.36.36,0,0,0,0,.11s0,.05.05.05,0,0,.06-.07A2.42,2.42,0,0,1-9.57,27a2.45,2.45,0,0,1,.72-.52,2.65,2.65,0,0,0,.79-.58,3.11,3.11,0,0,0,.53-.86A2.32,2.32,0,0,1-7,24.28a2.11,2.11,0,0,1,.71-.51,2.72,2.72,0,0,0,.79-.59A2.77,2.77,0,0,0-5,22.32a2.27,2.27,0,0,1,.48-.77A2.08,2.08,0,0,1-3.82,21a2.4,2.4,0,0,0,.73-.53,2.63,2.63,0,0,0,.52-.8,2.55,2.55,0,0,0,.79,1,2.45,2.45,0,0,1-.36.36,1.94,1.94,0,0,1-.43.27,2.48,2.48,0,0,0-.78.58,2.89,2.89,0,0,0-.53.86.77.77,0,0,0-.07.27v.29a.51.51,0,0,0,.09.35s0,0,0,0v0a2.11,2.11,0,0,1,.71.51,2.32,2.32,0,0,1,.48.78,2.89,2.89,0,0,0,.53.86,2.53,2.53,0,0,0,.79.58A2.29,2.29,0,0,1-.6,27a2.27,2.27,0,0,1,.48.77c0,.05,0,.08.06.07s0,0,0-.05,0-.07,0-.11a.32.32,0,0,0,0-.08A2.06,2.06,0,0,0,.06,27.26Zm-3.83-9.1a2.88,2.88,0,0,0,0-.33,2,2,0,0,0,0-.35.27.27,0,0,0-.1-.22,2,2,0,0,1-.72-.52A2.27,2.27,0,0,1-5,16q0-.08-.06-.06s0,0-.06.06a2.23,2.23,0,0,1-1.18,1.28,2.69,2.69,0,0,0-.52-.8,2.28,2.28,0,0,0-.75-.55,2.53,2.53,0,0,0-1.32,1.44,2.27,2.27,0,0,1-.48.77,2.14,2.14,0,0,1-.71.52.26.26,0,0,0-.11.19,1.21,1.21,0,0,0,0,.33,1.14,1.14,0,0,0,0,.32c0,.1.05.16.11.19a2.29,2.29,0,0,1,.71.52,2.27,2.27,0,0,1,.48.77,3.6,3.6,0,0,0,.26.52,2.74,2.74,0,0,0,.34.41,3.47,3.47,0,0,0-.34.42,3,3,0,0,0-.26.51,2.27,2.27,0,0,1-.48.77,2,2,0,0,1-.71.52.25.25,0,0,0-.11.22,2,2,0,0,0,0,.35,2.88,2.88,0,0,0,.05.33c0,.1,0,.14.06.13a2.48,2.48,0,0,0,.78-.58,2.89,2.89,0,0,0,.53-.86,2.63,2.63,0,0,1,.48-.77,2,2,0,0,1,.72-.52.25.25,0,0,0,.1-.19,1.19,1.19,0,0,0,0-.33,1.13,1.13,0,0,0,0-.32.23.23,0,0,0-.1-.19,2.22,2.22,0,0,1-.72-.52,2.63,2.63,0,0,1-.48-.77A2.81,2.81,0,0,0-9,19.56a2.25,2.25,0,0,0-.34-.41A2.72,2.72,0,0,0-9,18.73a2.44,2.44,0,0,0,.26-.51,2.69,2.69,0,0,1,.48-.78,2.22,2.22,0,0,1,.72-.52,2.45,2.45,0,0,1,.72.52,2.46,2.46,0,0,1,.47.78s0,.06.06.06h0a2.33,2.33,0,0,0,.74-.53A2.93,2.93,0,0,0-5.08,17a2.71,2.71,0,0,0,.52.79,2.33,2.33,0,0,0,.74.53S-3.79,18.25-3.77,18.16Zm1.26,9.57a2.88,2.88,0,0,0,0-.33,2,2,0,0,0,0-.35.24.24,0,0,0-.11-.21,2.28,2.28,0,0,1-.72-.52,2.63,2.63,0,0,1-.48-.77,2.77,2.77,0,0,0-.53-.86,2.68,2.68,0,0,0-.78-.59A2.58,2.58,0,0,0-6.4,25.55a2.42,2.42,0,0,1-.47.77,2.28,2.28,0,0,1-.72.52.24.24,0,0,0-.11.21,2,2,0,0,0,0,.35,2.88,2.88,0,0,0,0,.33c0,.1,0,.15.06.14a2.51,2.51,0,0,0,.78-.59,2.77,2.77,0,0,0,.53-.86,2.77,2.77,0,0,1,.48-.77,2.33,2.33,0,0,1,.72-.52,2.45,2.45,0,0,1,.72.52,2.77,2.77,0,0,1,.48.77,2.77,2.77,0,0,0,.53.86,2.51,2.51,0,0,0,.78.59S-2.54,27.83-2.51,27.73ZM0,19.52a2.4,2.4,0,0,0,.05-.32,2,2,0,0,0,0-.35.25.25,0,0,0-.11-.22,2.28,2.28,0,0,1-.72-.52,2.42,2.42,0,0,1-.47-.77,2.92,2.92,0,0,0-.54-.86,2.48,2.48,0,0,0-.78-.58s0,0-.05.13a2.79,2.79,0,0,0-.06.33,2,2,0,0,0,0,.35c0,.11.05.19.11.21a2.33,2.33,0,0,1,.72.52,2.69,2.69,0,0,1,.48.78,3,3,0,0,0,.53.86,2.48,2.48,0,0,0,.78.58S0,19.62,0,19.52ZM0,25a2.88,2.88,0,0,0,.05-.33,2,2,0,0,0,0-.35.25.25,0,0,0-.11-.22,2.14,2.14,0,0,1-.72-.52,2.42,2.42,0,0,1-.47-.77s0-.07-.06-.07,0,0-.05.06a.36.36,0,0,0,0,.11.28.28,0,0,0,0,.08,2,2,0,0,0,0,.35,1,1,0,0,0,.06.35,2.89,2.89,0,0,0,.53.86,2.48,2.48,0,0,0,.78.58S0,25.1,0,25Z" style="fill:#231f20"/><path d="M32.91,5.12s0-.07,0-.11,0,0,0,0,0,0-.06.07a2.27,2.27,0,0,1-.48.77,2,2,0,0,1-.72.52,2.57,2.57,0,0,0-1.31,1.45,2.27,2.27,0,0,1-.48.77,2.22,2.22,0,0,1-.72.52,2.65,2.65,0,0,0-.78.58,3,3,0,0,0-.53.86,1,1,0,0,0-.06.35,1.89,1.89,0,0,0,0,.35.34.34,0,0,0,0,.09s0,.07,0,.11,0,0,.05,0,0,0,.06-.07a2.27,2.27,0,0,1,.48-.77,2.14,2.14,0,0,1,.71-.52,2.56,2.56,0,0,0,.79-.59,2.77,2.77,0,0,0,.53-.86,2.36,2.36,0,0,1,1.19-1.29,2.42,2.42,0,0,0,.79-.58,2.89,2.89,0,0,0,.53-.86,1,1,0,0,0,.06-.35c0-.13,0-.24,0-.35A.34.34,0,0,0,32.91,5.12Zm-3.74,9.76a.6.6,0,0,0-.06-.27,2.77,2.77,0,0,0-.53-.86,2.51,2.51,0,0,0-.78-.59s0,0-.06.14a2.88,2.88,0,0,0,0,.33,2,2,0,0,0,0,.35.24.24,0,0,0,.11.21,1.88,1.88,0,0,1,.42.27,2.1,2.1,0,0,1,.37.36A2.68,2.68,0,0,0,27.74,16a.9.9,0,0,0-.06.34,2.06,2.06,0,0,0,0,.36.32.32,0,0,0,0,.08s0,.08,0,.11,0,.05.05.05,0,0,.06-.07a2.27,2.27,0,0,1,.48-.77,2.14,2.14,0,0,1,.71-.52h0l0,0a.26.26,0,0,0,.07-.15.68.68,0,0,0,0-.21A1.4,1.4,0,0,0,29.17,14.88Zm1.24-9.11a2,2,0,0,0,0-.35,1.63,1.63,0,0,0-.05-.33c0-.1,0-.14-.05-.14A2.58,2.58,0,0,0,29,6.4a2.42,2.42,0,0,1-.47.77,2.28,2.28,0,0,1-.72.52.24.24,0,0,0-.11.21,2,2,0,0,0,0,.35,2.88,2.88,0,0,0,0,.33c0,.1,0,.15.06.14a2.51,2.51,0,0,0,.78-.59,2.77,2.77,0,0,0,.53-.86,2.77,2.77,0,0,1,.48-.77A2.33,2.33,0,0,1,30.31,6C30.37,6,30.4,5.88,30.41,5.77Zm6.22,8.8,0,0a0,0,0,0,1,0,0h0a2.08,2.08,0,0,1-.72-.52,2.44,2.44,0,0,1-.48-.77c0-.05,0-.07-.06-.07s0,0-.06.07a2.24,2.24,0,0,1-1.17,1.28,2.79,2.79,0,0,0-.53-.8,2.46,2.46,0,0,0-.75-.56,2.14,2.14,0,0,1-.72-.52,2.42,2.42,0,0,1-.47-.77s0-.06-.07-.06v0a2.43,2.43,0,0,0-.73.54,2.58,2.58,0,0,0-.52.79,2.71,2.71,0,0,0-.79-1,3.06,3.06,0,0,1,.36-.36,2.34,2.34,0,0,1,.43-.26,2.68,2.68,0,0,0,.78-.59,3,3,0,0,0,.54-.86,2.42,2.42,0,0,1,.47-.77,2.28,2.28,0,0,1,.72-.52,2.51,2.51,0,0,0,.78-.59,2.79,2.79,0,0,0,.54-.86,2.53,2.53,0,0,1,.47-.77A2.45,2.45,0,0,1,35.33,6a.24.24,0,0,0,.11-.21,2,2,0,0,0,0-.35,2.88,2.88,0,0,0,0-.33c0-.1,0-.14-.06-.14A2.6,2.6,0,0,0,34,6.4a2.63,2.63,0,0,1-.48.77,2.18,2.18,0,0,1-.72.52A2.56,2.56,0,0,0,31.5,9.14a2.53,2.53,0,0,1-.47.77,2.45,2.45,0,0,1-.72.52,2.48,2.48,0,0,0-.78.58,2.92,2.92,0,0,0-.54.86,1.07,1.07,0,0,0-.06.27v.29a.53.53,0,0,0,.09.35l0,0h0a2.22,2.22,0,0,1,.72.52,2.32,2.32,0,0,1,.48.78c0,.05,0,.08.06.06s0,0,.06-.06a2.29,2.29,0,0,1,1.17-1.29,2.84,2.84,0,0,0,.53.81,2.43,2.43,0,0,0,.75.55,2.33,2.33,0,0,1,.72.52,2.77,2.77,0,0,1,.48.77s0,.07.06.07h0a2.4,2.4,0,0,0,.73-.53,2.52,2.52,0,0,0,.52-.79,2.71,2.71,0,0,0,.8,1,3,3,0,0,1-.37.35,1.73,1.73,0,0,1-.43.27c-.06,0-.09.1-.1.21a2,2,0,0,0,0,.35,1.63,1.63,0,0,0,.05.33c0,.1,0,.15,0,.14a2.68,2.68,0,0,0,.79-.59,3,3,0,0,0,.53-.86,1.1,1.1,0,0,0,.06-.26v-.29A.69.69,0,0,0,36.63,14.57Zm-3.69,1.75a.9.9,0,0,0-.06-.34,2.77,2.77,0,0,0-.53-.86,2.44,2.44,0,0,0-.79-.59s0,0-.06.08a2.42,2.42,0,0,1-.47.77,2.28,2.28,0,0,1-.72.52.24.24,0,0,0-.11.21,2,2,0,0,0,0,.35,2.88,2.88,0,0,0,.05.33c0,.1.05.15.06.14a2.43,2.43,0,0,0,.75-.55,2.62,2.62,0,0,0,.52-.81,2.26,2.26,0,0,1,1.18,1.28s0,.08.06.07,0,0,0-.05,0-.07,0-.11a.32.32,0,0,0,0-.08C32.93,16.57,32.94,16.45,32.94,16.32Zm5-11.2s0-.07,0-.11l0,0s0,0-.06.07a2.42,2.42,0,0,1-.47.77,2.14,2.14,0,0,1-.72.52,2.55,2.55,0,0,0-1.32,1.45,2.36,2.36,0,0,1-1.19,1.29,2.57,2.57,0,0,0-.79.58,3,3,0,0,0-.53.86.79.79,0,0,0,0,.22,2.65,2.65,0,0,0,0,.46.59.59,0,0,0,0,.2,2.89,2.89,0,0,0,.53.86,2.42,2.42,0,0,0,.79.58s0,0,.06-.07a2.42,2.42,0,0,1,.47-.77,2.14,2.14,0,0,1,.72-.52,2.86,2.86,0,0,0,.79-.59,3,3,0,0,0,.53-.86,2.27,2.27,0,0,1,.48-.77,2.14,2.14,0,0,1,.71-.52A.24.24,0,0,0,38,8.51a2,2,0,0,0,0-.35,2.88,2.88,0,0,0-.05-.33c0-.1,0-.15-.06-.14a2.54,2.54,0,0,0-1.31,1.45,2.77,2.77,0,0,1-.48.77,2.22,2.22,0,0,1-.72.52,2.43,2.43,0,0,0-.75.55,2.69,2.69,0,0,0-.52.8,2.33,2.33,0,0,1-1-.84,2.34,2.34,0,0,1,1-.85,2.51,2.51,0,0,0,.78-.59,2.77,2.77,0,0,0,.53-.86,2.44,2.44,0,0,1,.48-.77,2.22,2.22,0,0,1,.72-.52,2.48,2.48,0,0,0,.78-.58,2.89,2.89,0,0,0,.53-.86A1,1,0,0,0,38,5.56a1.94,1.94,0,0,0,0-.35A.34.34,0,0,0,37.93,5.12Zm0,5.48s0-.08,0-.11a.16.16,0,0,0,0-.06s0,0-.06.07a2.46,2.46,0,0,1-.47.78,2.25,2.25,0,0,1-.72.51s0,0,0,0l0,0a.21.21,0,0,0-.07.15.68.68,0,0,0,0,.21,1.4,1.4,0,0,0,0,.29.6.6,0,0,0,.06.27,2.89,2.89,0,0,0,.53.86,2.48,2.48,0,0,0,.78.58s0,0,.06-.13a2.88,2.88,0,0,0,.05-.33,2,2,0,0,0,0-.35.25.25,0,0,0-.11-.22,2.26,2.26,0,0,1-.42-.26,3.15,3.15,0,0,1-.37-.36,2.74,2.74,0,0,0,.85-1.16A1,1,0,0,0,38,11a2,2,0,0,0,0-.35A.28.28,0,0,0,37.93,10.6Z" style="fill:#231f20"/><path d="M5.17,5.12s0-.07,0-.11l0,0S5,5,5,5a2.27,2.27,0,0,1-.48.77,2,2,0,0,1-.72.52A2.57,2.57,0,0,0,2.51,7.77,2.44,2.44,0,0,1,2,8.54a2.22,2.22,0,0,1-.72.52,2.65,2.65,0,0,0-.78.58A3,3,0,0,0,0,10.5a1,1,0,0,0-.06.35,1.89,1.89,0,0,0,0,.35.34.34,0,0,0,0,.09s0,.07,0,.11l0,0s0,0,.06-.07a2.27,2.27,0,0,1,.48-.77,2.14,2.14,0,0,1,.71-.52A2.56,2.56,0,0,0,2.1,9.5a2.77,2.77,0,0,0,.53-.86A2.36,2.36,0,0,1,3.82,7.35a2.42,2.42,0,0,0,.79-.58,2.89,2.89,0,0,0,.53-.86,1,1,0,0,0,.06-.35c0-.13,0-.24,0-.35A.34.34,0,0,0,5.17,5.12ZM1.43,14.88a.6.6,0,0,0-.06-.27,2.77,2.77,0,0,0-.53-.86,2.51,2.51,0,0,0-.78-.59s0,0-.06.14a2.88,2.88,0,0,0,0,.33A2,2,0,0,0,0,14a.24.24,0,0,0,.11.21,1.88,1.88,0,0,1,.42.27,2.1,2.1,0,0,1,.37.36A2.68,2.68,0,0,0,0,16a.9.9,0,0,0-.06.34,2.06,2.06,0,0,0,0,.36.32.32,0,0,0,0,.08s0,.08,0,.11,0,.05,0,.05,0,0,.06-.07a2.27,2.27,0,0,1,.48-.77,2.14,2.14,0,0,1,.71-.52h0l0,0a.26.26,0,0,0,.07-.15.68.68,0,0,0,0-.21A1.4,1.4,0,0,0,1.43,14.88ZM2.67,5.77a2,2,0,0,0,0-.35,1.63,1.63,0,0,0,0-.33c0-.1,0-.14-.05-.14A2.58,2.58,0,0,0,1.25,6.4a2.42,2.42,0,0,1-.47.77,2.28,2.28,0,0,1-.72.52A.24.24,0,0,0,0,7.9a2,2,0,0,0,0,.35A2.88,2.88,0,0,0,0,8.58c0,.1,0,.15.06.14a2.51,2.51,0,0,0,.78-.59,2.77,2.77,0,0,0,.53-.86,2.77,2.77,0,0,1,.48-.77A2.22,2.22,0,0,1,2.57,6C2.63,6,2.66,5.88,2.67,5.77Zm6.22,8.8s0,0,0,0a0,0,0,0,1,0,0h0A2.08,2.08,0,0,1,8.13,14a2.44,2.44,0,0,1-.48-.77c0-.05,0-.07-.06-.07s0,0-.06.07a2.27,2.27,0,0,1-1.17,1.28,2.79,2.79,0,0,0-.53-.8,2.46,2.46,0,0,0-.75-.56,2.14,2.14,0,0,1-.72-.52,2.63,2.63,0,0,1-.48-.77s0-.06-.06-.06v0a2.43,2.43,0,0,0-.73.54,2.58,2.58,0,0,0-.52.79,2.71,2.71,0,0,0-.79-1,3.06,3.06,0,0,1,.36-.36,2.05,2.05,0,0,1,.43-.26,2.68,2.68,0,0,0,.78-.59A2.77,2.77,0,0,0,3.88,10a2.63,2.63,0,0,1,.48-.77,2.28,2.28,0,0,1,.72-.52,2.51,2.51,0,0,0,.78-.59,3,3,0,0,0,.54-.86,2.53,2.53,0,0,1,.47-.77A2.45,2.45,0,0,1,7.59,6a.24.24,0,0,0,.11-.21,2,2,0,0,0,0-.35,2.88,2.88,0,0,0,0-.33C7.62,5,7.6,5,7.59,5A2.6,2.6,0,0,0,6.28,6.4a2.63,2.63,0,0,1-.48.77,2.28,2.28,0,0,1-.72.52A2.56,2.56,0,0,0,3.76,9.14a2.53,2.53,0,0,1-.47.77,2.45,2.45,0,0,1-.72.52,2.48,2.48,0,0,0-.78.58,2.92,2.92,0,0,0-.54.86,1.07,1.07,0,0,0-.06.27v.29a.53.53,0,0,0,.09.35l0,0h0a2.22,2.22,0,0,1,.72.52,2.49,2.49,0,0,1,.48.78c0,.05,0,.08.06.06s0,0,.06-.06A2.29,2.29,0,0,1,3.8,12.83a2.84,2.84,0,0,0,.53.81,2.43,2.43,0,0,0,.75.55,2.45,2.45,0,0,1,.72.52,2.77,2.77,0,0,1,.48.77s0,.07.06.07h0A2.4,2.4,0,0,0,7.07,15a2.52,2.52,0,0,0,.52-.79,2.71,2.71,0,0,0,.8,1,3,3,0,0,1-.37.35,1.73,1.73,0,0,1-.43.27c-.06,0-.09.1-.1.21a2,2,0,0,0,0,.35,1.63,1.63,0,0,0,0,.33c0,.1,0,.15,0,.14a2.51,2.51,0,0,0,.78-.59,2.79,2.79,0,0,0,.54-.86A1.1,1.1,0,0,0,9,15.22v-.29A.69.69,0,0,0,8.89,14.57ZM5.2,16.32A.9.9,0,0,0,5.14,16a2.77,2.77,0,0,0-.53-.86,2.44,2.44,0,0,0-.79-.59s0,0-.06.08a2.42,2.42,0,0,1-.47.77,2.28,2.28,0,0,1-.72.52.24.24,0,0,0-.11.21,2,2,0,0,0,0,.35,2.88,2.88,0,0,0,0,.33c0,.1.05.15.06.14a2.43,2.43,0,0,0,.75-.55,2.62,2.62,0,0,0,.52-.81A2.26,2.26,0,0,1,5,16.85s0,.08.06.07,0,0,0-.05,0-.07,0-.11a.32.32,0,0,0,0-.08C5.19,16.57,5.2,16.45,5.2,16.32Zm5-11.2s0-.07,0-.11L10.1,5s0,0-.06.07a2.42,2.42,0,0,1-.47.77,2.14,2.14,0,0,1-.72.52A2.55,2.55,0,0,0,7.53,7.77,2.36,2.36,0,0,1,6.34,9.06a2.57,2.57,0,0,0-.79.58A3,3,0,0,0,5,10.5a.79.79,0,0,0,0,.22,2.65,2.65,0,0,0,0,.46.59.59,0,0,0,0,.2,2.89,2.89,0,0,0,.53.86,2.42,2.42,0,0,0,.79.58s0,0,.06-.07A2.42,2.42,0,0,1,6.87,12a2.14,2.14,0,0,1,.72-.52,2.68,2.68,0,0,0,.78-.59A2.79,2.79,0,0,0,8.91,10a2.42,2.42,0,0,1,.47-.77,2.28,2.28,0,0,1,.72-.52.24.24,0,0,0,.11-.21,2,2,0,0,0,0-.35,2.88,2.88,0,0,0-.05-.33c0-.1,0-.15-.06-.14A2.54,2.54,0,0,0,8.79,9.14a2.77,2.77,0,0,1-.48.77,2.22,2.22,0,0,1-.72.52,2.43,2.43,0,0,0-.75.55,2.69,2.69,0,0,0-.52.8,2.33,2.33,0,0,1-1-.84,2.34,2.34,0,0,1,1-.85,2.51,2.51,0,0,0,.78-.59,2.77,2.77,0,0,0,.53-.86,2.44,2.44,0,0,1,.48-.77,2.22,2.22,0,0,1,.72-.52,2.48,2.48,0,0,0,.78-.58,2.89,2.89,0,0,0,.53-.86,1,1,0,0,0,.06-.35,1.94,1.94,0,0,0,0-.35A.34.34,0,0,0,10.19,5.12Zm0,5.48s0-.08,0-.11a.16.16,0,0,0-.05-.06s0,0-.06.07a2.46,2.46,0,0,1-.47.78,2.25,2.25,0,0,1-.72.51s0,0,0,0l0,0a.21.21,0,0,0-.07.15.68.68,0,0,0,0,.21,1.4,1.4,0,0,0,0,.29.6.6,0,0,0,.06.27,2.89,2.89,0,0,0,.53.86,2.48,2.48,0,0,0,.78.58s0,0,.06-.13a2.88,2.88,0,0,0,.05-.33,2,2,0,0,0,0-.35.25.25,0,0,0-.11-.22,2.26,2.26,0,0,1-.42-.26,3.15,3.15,0,0,1-.37-.36,2.74,2.74,0,0,0,.85-1.16,1,1,0,0,0,.06-.35,2,2,0,0,0,0-.35A.28.28,0,0,0,10.19,10.6Z" style="fill:#231f20"/><path d="M15.21,5.12a.49.49,0,0,0,0-.11s0,0-.05,0,0,0,0,.07a2.63,2.63,0,0,1-.48.77,2.14,2.14,0,0,1-.72.52,2.45,2.45,0,0,0-.74.53,3,3,0,0,0-.52.8,2.74,2.74,0,0,0-.51-.8,2.45,2.45,0,0,0-.74-.53,2,2,0,0,1-.72-.52A2.63,2.63,0,0,1,10.16,5s0-.07-.05-.07,0,0,0,0a.49.49,0,0,0,0,.11.51.51,0,0,0,0,.09c0,.11,0,.22,0,.35a1,1,0,0,0,.06.35,2.92,2.92,0,0,0,.54.86,2.48,2.48,0,0,0,.78.58,2.45,2.45,0,0,1,.72.52,2.42,2.42,0,0,1,.47.77c0,.06,0,.08.06.07s0,0,.06-.07a2.63,2.63,0,0,1,.48-.77,2.45,2.45,0,0,1,.72-.52,2.48,2.48,0,0,0,.78-.58,3.14,3.14,0,0,0,.54-.86,1,1,0,0,0,.06-.35c0-.13,0-.24,0-.35A.51.51,0,0,0,15.21,5.12Zm-2.49,8.32a.42.42,0,0,0-.05-.2,2.89,2.89,0,0,0-.53-.86,2.68,2.68,0,0,0-.78-.59,2.05,2.05,0,0,1-.72-.51,2.69,2.69,0,0,1-.48-.78c0-.05,0-.07-.05-.07a.08.08,0,0,0,0,.06.36.36,0,0,0,0,.11.45.45,0,0,0,0,.08c0,.11,0,.23,0,.35a1,1,0,0,0,.06.35,2.92,2.92,0,0,0,.54.86,2.48,2.48,0,0,0,.78.58,2.34,2.34,0,0,1,1,.86,2.31,2.31,0,0,1-1,.85,2.51,2.51,0,0,0-.78.59A2.79,2.79,0,0,0,10,16a.9.9,0,0,0-.06.34c0,.13,0,.25,0,.36s0,0,0,.08a.36.36,0,0,0,0,.11s0,.05,0,.05,0,0,.05-.07a2.63,2.63,0,0,1,.48-.77,2.08,2.08,0,0,1,.72-.52,2.51,2.51,0,0,0,.78-.59,2.84,2.84,0,0,0,.53-.85.54.54,0,0,0,.05-.22,2.65,2.65,0,0,0,0-.46Zm2.51-.08a.29.29,0,0,0-.1-.2,2,2,0,0,1-.72-.52,2.27,2.27,0,0,1-.48-.77A2.89,2.89,0,0,0,13.4,11a2.42,2.42,0,0,0-.79-.58,2.29,2.29,0,0,1-.71-.52,2.38,2.38,0,0,1-.48-.77,2.77,2.77,0,0,0-.53-.86,2.56,2.56,0,0,0-.79-.59s0,0,0,.14a1.63,1.63,0,0,0-.05.33,2,2,0,0,0,0,.35c0,.11,0,.18.1.21a2.08,2.08,0,0,1,.72.52,2.44,2.44,0,0,1,.48.77,2.77,2.77,0,0,0,.53.86,2.68,2.68,0,0,0,.78.59,2,2,0,0,1,.72.52,2.27,2.27,0,0,1,.48.77,2.44,2.44,0,0,0,.26.51,2.31,2.31,0,0,0,.34.42,2.25,2.25,0,0,0-.34.41,2.81,2.81,0,0,0-.26.52,2.27,2.27,0,0,1-.48.77,2.08,2.08,0,0,1-.72.52c-.06,0-.09.1-.1.21a2,2,0,0,0,0,.35,2.88,2.88,0,0,0,.05.33c0,.1,0,.15,0,.14a2.44,2.44,0,0,0,.79-.59,2.77,2.77,0,0,0,.53-.86,2.38,2.38,0,0,1,.48-.77,2.22,2.22,0,0,1,.72-.52.26.26,0,0,0,.1-.19,1.13,1.13,0,0,0,0-.32A1.11,1.11,0,0,0,15.23,13.36Zm0-2.51a1,1,0,0,0-.06-.35,2.92,2.92,0,0,0-.86-1.16A3,3,0,0,1,14.7,9a1.73,1.73,0,0,1,.43-.27c.06,0,.09-.1.1-.21a2,2,0,0,0,0-.35,2.88,2.88,0,0,0-.05-.33c0-.1,0-.15,0-.14a2.44,2.44,0,0,0-.79.59,2.77,2.77,0,0,0-.53.86,1.1,1.1,0,0,0-.06.26,1.4,1.4,0,0,0,0,.29.51.51,0,0,0,.09.35s0,0,0,0h0a2.28,2.28,0,0,1,.72.52,2.63,2.63,0,0,1,.48.77s0,.07,0,.07,0,0,.05,0a.49.49,0,0,0,0-.11.51.51,0,0,0,0-.09A3.49,3.49,0,0,0,15.25,10.85Z" style="fill:#231f20"/><path d="M17.69,8.58a1.63,1.63,0,0,0,0-.33,2,2,0,0,0,0-.35c0-.11,0-.18-.1-.21a2.11,2.11,0,0,1-.71-.51,2.39,2.39,0,0,1-.47-.75,0,0,0,0,1,0,0l0,0s0,0,0,0h0a2.14,2.14,0,0,1-.72-.52A2.42,2.42,0,0,1,15.19,5s0-.07-.06-.07,0,0-.05,0a.49.49,0,0,0,0,.11.34.34,0,0,0,0,.09,1.9,1.9,0,0,0,0,.35,1,1,0,0,0,.07.35,2.56,2.56,0,0,0,1.28,1.42,2.56,2.56,0,0,0,1.29,1.39S17.67,8.68,17.69,8.58Zm0,4.78a.26.26,0,0,0-.1-.2,2.11,2.11,0,0,1-.71-.51,2.39,2.39,0,0,1-.47-.75v0l0,0s0,0,0,0,0,0,0,0a2.25,2.25,0,0,1-.72-.51,2.46,2.46,0,0,1-.47-.78c0-.05,0-.07-.06-.07s0,0-.05.06a.36.36,0,0,0,0,.11.28.28,0,0,0,0,.08A2,2,0,0,0,15,11a1,1,0,0,0,.07.35,2.53,2.53,0,0,0,1.28,1.42,2.57,2.57,0,0,0,.57.88,2.63,2.63,0,0,0-.57.87A2.55,2.55,0,0,0,15.07,16a.89.89,0,0,0-.07.34,2,2,0,0,0,0,.36.32.32,0,0,0,0,.08.36.36,0,0,0,0,.11s0,.05.05.05,0,0,.06-.07a2.42,2.42,0,0,1,.47-.77,2.28,2.28,0,0,1,.72-.52h0s0,0,.05-.05a.13.13,0,0,0,0-.05,2.64,2.64,0,0,1,.47-.75,2.43,2.43,0,0,1,.71-.51.23.23,0,0,0,.1-.19,1.13,1.13,0,0,0,0-.32A1.11,1.11,0,0,0,17.74,13.36Zm0-2.51a1,1,0,0,0-.06-.35,2.62,2.62,0,0,0-1.29-1.42,2.54,2.54,0,0,0-1.28-1.39s0,0-.06.14a2.88,2.88,0,0,0-.05.33,2,2,0,0,0,0,.35.24.24,0,0,0,.11.21,2.17,2.17,0,0,1,.7.51,2.22,2.22,0,0,1,.47.75l0,0v0s0,.05,0,.05h0a2.08,2.08,0,0,1,.72.52,2.63,2.63,0,0,1,.48.77s0,.07.05.07,0,0,.05,0a.49.49,0,0,0,0-.11.51.51,0,0,0,0-.09A3.49,3.49,0,0,0,17.76,10.85Z" style="fill:#231f20"/><path d="M27.8,16.32a.9.9,0,0,0-.06-.34,2.77,2.77,0,0,0-.53-.86,2.51,2.51,0,0,0-.78-.59,2.08,2.08,0,0,1-.72-.52,2.27,2.27,0,0,1-.48-.77,2.83,2.83,0,0,0-.85-1.16,3.06,3.06,0,0,1,.36-.36,2.34,2.34,0,0,1,.43-.26,2.46,2.46,0,0,0,.75-.56,2.79,2.79,0,0,0,.53-.8,2.21,2.21,0,0,1,1.17,1.28s0,.07.06.07,0,0,.05,0,0-.07,0-.11a.34.34,0,0,0,0-.09,1.89,1.89,0,0,0,0-.35,1,1,0,0,0-.06-.35,3,3,0,0,0-.53-.86,2.65,2.65,0,0,0-.78-.58,2.22,2.22,0,0,1-.72-.52,2.27,2.27,0,0,1-.48-.77s0-.08-.06-.07,0,0-.06.07a2.26,2.26,0,0,1-1.18,1.28,2.62,2.62,0,0,0-.52-.81,2.43,2.43,0,0,0-.75-.55,2.43,2.43,0,0,0-.75.55,2.84,2.84,0,0,0-.53.81,2.24,2.24,0,0,1-1.17-1.28s0-.08-.06-.07l0,0s0,.07,0,.11a.32.32,0,0,0,0,.08,2.06,2.06,0,0,0,0,.36.9.9,0,0,0,.06.34,2.77,2.77,0,0,0,.53.86,2.51,2.51,0,0,0,.78.59s0,0,.06-.08a2.63,2.63,0,0,1,.48-.77,2.18,2.18,0,0,1,.72-.52,1.94,1.94,0,0,1,.43.27,2.38,2.38,0,0,1,.36.35,2.89,2.89,0,0,0-.85,1.16,2.32,2.32,0,0,1-.48.78,2.05,2.05,0,0,1-.72.51,2.6,2.6,0,0,0-1.31,1.45,2.63,2.63,0,0,1-.48.77,2.08,2.08,0,0,1-.72.52,2.51,2.51,0,0,0-.78.59,2.77,2.77,0,0,0-.53.86.9.9,0,0,0-.06.34,2.06,2.06,0,0,0,0,.36.32.32,0,0,0,0,.08s0,.08,0,.11,0,.05.05.05,0,0,.06-.07a2.42,2.42,0,0,1,.47-.77,2.28,2.28,0,0,1,.72-.52,2.68,2.68,0,0,0,.79-.59,3.05,3.05,0,0,0,.53-.85,2.32,2.32,0,0,1,.48-.78,2.29,2.29,0,0,1,.71-.52,2.42,2.42,0,0,0,.79-.58,2.89,2.89,0,0,0,.53-.86,2.27,2.27,0,0,1,.48-.77,2.08,2.08,0,0,1,.72-.52,2.4,2.4,0,0,0,.73-.53,2.76,2.76,0,0,0,.52-.8,2.64,2.64,0,0,0,.79,1,3.06,3.06,0,0,1-.36.36,2.39,2.39,0,0,1-.43.27,2.48,2.48,0,0,0-.78.58,2.89,2.89,0,0,0-.53.86.77.77,0,0,0-.07.27v.29a.59.59,0,0,0,.09.35l0,0h0a2.29,2.29,0,0,1,.71.52,2.32,2.32,0,0,1,.48.78,2.84,2.84,0,0,0,.53.85,2.56,2.56,0,0,0,.79.59,2.14,2.14,0,0,1,.71.52,2.27,2.27,0,0,1,.48.77s0,.08.06.07,0,0,.05-.05,0-.07,0-.11a.32.32,0,0,0,0-.08A2.06,2.06,0,0,0,27.8,16.32ZM24,7.21A2.4,2.4,0,0,0,24,6.89a2,2,0,0,0,0-.35c0-.12,0-.19-.1-.22a2,2,0,0,1-.72-.52A2.27,2.27,0,0,1,22.72,5s0-.07-.06-.06,0,0-.06.06a2.23,2.23,0,0,1-1.18,1.28,2.69,2.69,0,0,0-.52-.8A2.46,2.46,0,0,0,20.15,5,2.58,2.58,0,0,0,18.83,6.4a2.42,2.42,0,0,1-.47.77,2.28,2.28,0,0,1-.72.52c-.06,0-.09.09-.11.19a1.21,1.21,0,0,0,0,.33,1.14,1.14,0,0,0,0,.32c0,.1,0,.16.11.19a2.28,2.28,0,0,1,.72.52,2.42,2.42,0,0,1,.47.77,3.6,3.6,0,0,0,.26.52,2.3,2.3,0,0,0,.35.41,2.37,2.37,0,0,0-.35.42,3,3,0,0,0-.26.51,2.42,2.42,0,0,1-.47.77,2.14,2.14,0,0,1-.72.52.25.25,0,0,0-.11.22,2,2,0,0,0,0,.35,2.88,2.88,0,0,0,0,.33c0,.09,0,.14.06.13a2.48,2.48,0,0,0,.78-.58,2.89,2.89,0,0,0,.53-.86,2.63,2.63,0,0,1,.48-.77,2,2,0,0,1,.72-.52.26.26,0,0,0,.1-.2,1.11,1.11,0,0,0,0-.32,1.13,1.13,0,0,0,0-.32.23.23,0,0,0-.1-.19,2.22,2.22,0,0,1-.72-.52A2.77,2.77,0,0,1,19,9.14a2.53,2.53,0,0,0-.26-.52,2.25,2.25,0,0,0-.34-.41,2.72,2.72,0,0,0,.34-.42A2.53,2.53,0,0,0,19,7.27a2.77,2.77,0,0,1,.48-.77A2.22,2.22,0,0,1,20.15,6a2.45,2.45,0,0,1,.72.52,2.53,2.53,0,0,1,.47.77c0,.05,0,.07.06.07h0a2.33,2.33,0,0,0,.74-.53A2.71,2.71,0,0,0,22.66,6a2.71,2.71,0,0,0,.52.79,2.33,2.33,0,0,0,.74.53S24,7.31,24,7.21Zm1.26,9.58a2.88,2.88,0,0,0,.05-.33,2,2,0,0,0,0-.35.24.24,0,0,0-.11-.21,2.28,2.28,0,0,1-.72-.52,2.42,2.42,0,0,1-.47-.77,3,3,0,0,0-.54-.86,2.51,2.51,0,0,0-.78-.59,2.62,2.62,0,0,0-1.32,1.45,2.42,2.42,0,0,1-.47.77,2.28,2.28,0,0,1-.72.52.24.24,0,0,0-.11.21,2,2,0,0,0,0,.35,2.88,2.88,0,0,0,.05.33c0,.1,0,.15.06.14a2.51,2.51,0,0,0,.78-.59,2.77,2.77,0,0,0,.53-.86,2.77,2.77,0,0,1,.48-.77,2.33,2.33,0,0,1,.72-.52,2.45,2.45,0,0,1,.72.52,2.77,2.77,0,0,1,.48.77,2.77,2.77,0,0,0,.53.86,2.51,2.51,0,0,0,.78.59S25.2,16.89,25.23,16.79Zm2.51-8.21a2.88,2.88,0,0,0,.05-.33,2,2,0,0,0,0-.35.24.24,0,0,0-.11-.21A2.28,2.28,0,0,1,27,7.17a2.42,2.42,0,0,1-.47-.77A2.79,2.79,0,0,0,26,5.54,2.68,2.68,0,0,0,25.17,5s0,0-.05.14a1.63,1.63,0,0,0-.05.33,2,2,0,0,0,0,.35c0,.11,0,.18.1.21a2.22,2.22,0,0,1,.72.52,2.77,2.77,0,0,1,.48.77,2.77,2.77,0,0,0,.53.86,2.51,2.51,0,0,0,.78.59S27.71,8.68,27.74,8.58Zm0,5.48a2.88,2.88,0,0,0,.05-.33,2,2,0,0,0,0-.35.25.25,0,0,0-.11-.22,2.14,2.14,0,0,1-.72-.52,2.42,2.42,0,0,1-.47-.77s0-.07-.06-.07,0,0-.05.06a.42.42,0,0,0,0,.1.39.39,0,0,0,0,.09,1.94,1.94,0,0,0,0,.35,1,1,0,0,0,.06.35,2.89,2.89,0,0,0,.53.86,2.48,2.48,0,0,0,.78.58S27.71,14.15,27.74,14.06Z" style="fill:#231f20"/><path d="M.06,16.32A.9.9,0,0,0,0,16a2.77,2.77,0,0,0-.53-.86,2.51,2.51,0,0,0-.78-.59A2.08,2.08,0,0,1-2,14a2.27,2.27,0,0,1-.48-.77,2.83,2.83,0,0,0-.85-1.16A3.06,3.06,0,0,1-3,11.72a2.34,2.34,0,0,1,.43-.26,2.46,2.46,0,0,0,.75-.56,2.79,2.79,0,0,0,.53-.8A2.21,2.21,0,0,1-.12,11.38s0,.07.06.07l0,0s0-.07,0-.11a.34.34,0,0,0,0-.09,1.89,1.89,0,0,0,0-.35A1,1,0,0,0,0,10.5a3,3,0,0,0-.53-.86,2.65,2.65,0,0,0-.78-.58A2.22,2.22,0,0,1-2,8.54a2.27,2.27,0,0,1-.48-.77s0-.08-.06-.07,0,0-.06.07A2.26,2.26,0,0,1-3.81,9.05a2.62,2.62,0,0,0-.52-.81,2.43,2.43,0,0,0-.75-.55,2.43,2.43,0,0,0-.75.55,2.84,2.84,0,0,0-.53.81A2.24,2.24,0,0,1-7.53,7.77s0-.08-.06-.07,0,0,0,0,0,.07,0,.11a.32.32,0,0,0,0,.08,2.06,2.06,0,0,0,0,.36.9.9,0,0,0,.06.34,2.77,2.77,0,0,0,.53.86,2.51,2.51,0,0,0,.78.59s0,0,.06-.08a2.63,2.63,0,0,1,.48-.77,2.18,2.18,0,0,1,.72-.52A1.94,1.94,0,0,1-4.65,9a2.38,2.38,0,0,1,.36.35,2.89,2.89,0,0,0-.85,1.16,2.49,2.49,0,0,1-.48.78,2.05,2.05,0,0,1-.72.51,2.6,2.6,0,0,0-1.31,1.45,2.63,2.63,0,0,1-.48.77,2.08,2.08,0,0,1-.72.52,2.51,2.51,0,0,0-.78.59,2.77,2.77,0,0,0-.53.86.9.9,0,0,0-.06.34,2.06,2.06,0,0,0,0,.36.32.32,0,0,0,0,.08.36.36,0,0,0,0,.11s0,.05.05.05,0,0,.06-.07a2.42,2.42,0,0,1,.47-.77,2.28,2.28,0,0,1,.72-.52A2.68,2.68,0,0,0-8.06,15a3.05,3.05,0,0,0,.53-.85A2.32,2.32,0,0,1-7,13.34a2.29,2.29,0,0,1,.71-.52,2.53,2.53,0,0,0,.79-.58A2.89,2.89,0,0,0-5,11.38a2.27,2.27,0,0,1,.48-.77,2.08,2.08,0,0,1,.72-.52,2.4,2.4,0,0,0,.73-.53,2.76,2.76,0,0,0,.52-.8,2.55,2.55,0,0,0,.79,1,3.06,3.06,0,0,1-.36.36,2.39,2.39,0,0,1-.43.27,2.48,2.48,0,0,0-.78.58,2.89,2.89,0,0,0-.53.86.77.77,0,0,0-.07.27v.29a.53.53,0,0,0,.09.35s0,0,0,0h0a2.29,2.29,0,0,1,.71.52,2.32,2.32,0,0,1,.48.78A2.84,2.84,0,0,0-2.1,15a2.56,2.56,0,0,0,.79.59,2.14,2.14,0,0,1,.71.52,2.27,2.27,0,0,1,.48.77s0,.08.06.07,0,0,0-.05,0-.07,0-.11a.32.32,0,0,0,0-.08A2.06,2.06,0,0,0,.06,16.32ZM-3.77,7.21a2.4,2.4,0,0,0,0-.32,2,2,0,0,0,0-.35.27.27,0,0,0-.1-.22,2,2,0,0,1-.72-.52A2.27,2.27,0,0,1-5,5s0-.07-.06-.06,0,0-.06.06A2.23,2.23,0,0,1-6.32,6.31a2.69,2.69,0,0,0-.52-.8A2.46,2.46,0,0,0-7.59,5,2.58,2.58,0,0,0-8.91,6.4a2.27,2.27,0,0,1-.48.77,2.14,2.14,0,0,1-.71.52c-.06,0-.09.09-.11.19a1.21,1.21,0,0,0,0,.33,1.14,1.14,0,0,0,0,.32c0,.1.05.16.11.19a2.14,2.14,0,0,1,.71.52,2.27,2.27,0,0,1,.48.77,3.6,3.6,0,0,0,.26.52,2.74,2.74,0,0,0,.34.41,2.83,2.83,0,0,0-.34.42,3,3,0,0,0-.26.51,2.27,2.27,0,0,1-.48.77,2,2,0,0,1-.71.52.25.25,0,0,0-.11.22,2,2,0,0,0,0,.35,2.88,2.88,0,0,0,.05.33c0,.09,0,.14.06.13a2.48,2.48,0,0,0,.78-.58,2.89,2.89,0,0,0,.53-.86A2.63,2.63,0,0,1-8.31,12a2,2,0,0,1,.72-.52.26.26,0,0,0,.1-.2,1.11,1.11,0,0,0,0-.32,1.13,1.13,0,0,0,0-.32.23.23,0,0,0-.1-.19,2.22,2.22,0,0,1-.72-.52,2.77,2.77,0,0,1-.48-.77A2.53,2.53,0,0,0-9,8.62a2.25,2.25,0,0,0-.34-.41A2.72,2.72,0,0,0-9,7.79a2.53,2.53,0,0,0,.26-.52,2.77,2.77,0,0,1,.48-.77A2.22,2.22,0,0,1-7.59,6a2.45,2.45,0,0,1,.72.52,2.53,2.53,0,0,1,.47.77c0,.05,0,.07.06.07h0a2.33,2.33,0,0,0,.74-.53A2.93,2.93,0,0,0-5.08,6a2.71,2.71,0,0,0,.52.79,2.33,2.33,0,0,0,.74.53S-3.79,7.31-3.77,7.21Zm1.26,9.58a2.88,2.88,0,0,0,0-.33,2,2,0,0,0,0-.35.24.24,0,0,0-.11-.21,2.28,2.28,0,0,1-.72-.52,2.63,2.63,0,0,1-.48-.77,2.77,2.77,0,0,0-.53-.86,2.51,2.51,0,0,0-.78-.59A2.58,2.58,0,0,0-6.4,14.61a2.42,2.42,0,0,1-.47.77,2.28,2.28,0,0,1-.72.52.24.24,0,0,0-.11.21,2,2,0,0,0,0,.35,2.88,2.88,0,0,0,0,.33c0,.1,0,.15.06.14a2.51,2.51,0,0,0,.78-.59,2.77,2.77,0,0,0,.53-.86,2.77,2.77,0,0,1,.48-.77,2.33,2.33,0,0,1,.72-.52,2.45,2.45,0,0,1,.72.52,2.77,2.77,0,0,1,.48.77,2.77,2.77,0,0,0,.53.86,2.51,2.51,0,0,0,.78.59S-2.54,16.89-2.51,16.79ZM0,8.58a2.88,2.88,0,0,0,.05-.33,2,2,0,0,0,0-.35.24.24,0,0,0-.11-.21,2.28,2.28,0,0,1-.72-.52,2.42,2.42,0,0,1-.47-.77,2.79,2.79,0,0,0-.54-.86A2.68,2.68,0,0,0-2.57,5s0,0-.05.14a2.79,2.79,0,0,0-.06.33,2,2,0,0,0,0,.35c0,.11.05.18.11.21a2.33,2.33,0,0,1,.72.52,2.77,2.77,0,0,1,.48.77,2.77,2.77,0,0,0,.53.86,2.51,2.51,0,0,0,.78.59S0,8.68,0,8.58Zm0,5.48a2.88,2.88,0,0,0,.05-.33,2,2,0,0,0,0-.35.25.25,0,0,0-.11-.22,2.14,2.14,0,0,1-.72-.52,2.42,2.42,0,0,1-.47-.77s0-.07-.06-.07,0,0-.05.06a.42.42,0,0,0,0,.1.39.39,0,0,0,0,.09,1.94,1.94,0,0,0,0,.35,1,1,0,0,0,.06.35,2.89,2.89,0,0,0,.53.86,2.48,2.48,0,0,0,.78.58S0,14.15,0,14.06Z" style="fill:#231f20"/><path d="M32.91-5.82s0-.07,0-.11,0-.05,0-.05,0,0-.06.07a2.27,2.27,0,0,1-.48.77,2.08,2.08,0,0,1-.72.52,2.54,2.54,0,0,0-1.31,1.45,2.27,2.27,0,0,1-.48.77,2.22,2.22,0,0,1-.72.52,2.48,2.48,0,0,0-.78.58,2.89,2.89,0,0,0-.53.86,1,1,0,0,0-.06.35,1.94,1.94,0,0,0,0,.35.34.34,0,0,0,0,.09,1,1,0,0,0,0,.1s0,.06.05.06,0,0,.06-.07a2.27,2.27,0,0,1,.48-.77,2,2,0,0,1,.71-.52,2.56,2.56,0,0,0,.79-.59,2.77,2.77,0,0,0,.53-.86,2.27,2.27,0,0,1,.48-.77,2.14,2.14,0,0,1,.71-.52,2.44,2.44,0,0,0,.79-.59A2.84,2.84,0,0,0,32.88-5a1,1,0,0,0,.06-.35c0-.13,0-.25,0-.36A.32.32,0,0,0,32.91-5.82ZM29.17,3.94a.6.6,0,0,0-.06-.27,2.77,2.77,0,0,0-.53-.86,2.51,2.51,0,0,0-.78-.59s0,0-.06.14a2.88,2.88,0,0,0,0,.33,2,2,0,0,0,0,.35.24.24,0,0,0,.11.21,1.88,1.88,0,0,1,.42.27,2.1,2.1,0,0,1,.37.36A2.71,2.71,0,0,0,27.74,5a1,1,0,0,0-.06.35,2.06,2.06,0,0,0,0,.36.32.32,0,0,0,0,.08s0,.07,0,.11,0,.05.05.05,0,0,.06-.07a2.27,2.27,0,0,1,.48-.77,2.14,2.14,0,0,1,.71-.52h0l0,0a.26.26,0,0,0,.07-.15.75.75,0,0,0,0-.22A1.31,1.31,0,0,0,29.17,3.94Zm1.24-9.11a2,2,0,0,0,0-.35,1.63,1.63,0,0,0-.05-.33c0-.1,0-.14-.05-.14A2.58,2.58,0,0,0,29-4.54a2.42,2.42,0,0,1-.47.77,2.28,2.28,0,0,1-.72.52.24.24,0,0,0-.11.21,2,2,0,0,0,0,.35,2.88,2.88,0,0,0,0,.33c0,.1,0,.15.06.14a2.51,2.51,0,0,0,.78-.59,2.77,2.77,0,0,0,.53-.86,2.63,2.63,0,0,1,.48-.77A2.33,2.33,0,0,1,30.31-5C30.37-5,30.4-5.06,30.41-5.17Zm6.22,8.8,0,0h0a2.08,2.08,0,0,1-.72-.52,2.44,2.44,0,0,1-.48-.77s0-.07-.06-.07,0,0-.06.07A2.24,2.24,0,0,1,34.1,3.58a2.79,2.79,0,0,0-.53-.8,2.46,2.46,0,0,0-.75-.56,2.28,2.28,0,0,1-.72-.52,2.42,2.42,0,0,1-.47-.77s0-.06-.07-.06v0a2.4,2.4,0,0,0-.73.53,2.76,2.76,0,0,0-.52.8,2.64,2.64,0,0,0-.79-1,3.06,3.06,0,0,1,.36-.36,2.34,2.34,0,0,1,.43-.26,2.68,2.68,0,0,0,.78-.59,3,3,0,0,0,.54-.86,2.42,2.42,0,0,1,.47-.77,2.28,2.28,0,0,1,.72-.52,2.51,2.51,0,0,0,.78-.59,2.79,2.79,0,0,0,.54-.86,2.42,2.42,0,0,1,.47-.77A2.45,2.45,0,0,1,35.33-5a.24.24,0,0,0,.11-.21,2,2,0,0,0,0-.35,2.88,2.88,0,0,0,0-.33c0-.1,0-.14-.06-.14A2.6,2.6,0,0,0,34-4.54a2.63,2.63,0,0,1-.48.77,2.18,2.18,0,0,1-.72.52A2.57,2.57,0,0,0,31.5-1.81,2.46,2.46,0,0,1,31-1a2.45,2.45,0,0,1-.72.52,2.48,2.48,0,0,0-.78.58A2.92,2.92,0,0,0,29,.93a1.07,1.07,0,0,0-.06.27v.29a.53.53,0,0,0,.09.35s0,0,0,0h0a2.22,2.22,0,0,1,.72.52,2.38,2.38,0,0,1,.48.77c0,.06,0,.08.06.07s0,0,.06-.07a2.3,2.3,0,0,1,1.17-1.28,2.84,2.84,0,0,0,.53.81,2.43,2.43,0,0,0,.75.55,2.18,2.18,0,0,1,.72.52,2.63,2.63,0,0,1,.48.77s0,.07.06.07h0a2.4,2.4,0,0,0,.73-.53,2.46,2.46,0,0,0,.52-.8,2.57,2.57,0,0,0,.8,1,3.12,3.12,0,0,1-.37.36,1.73,1.73,0,0,1-.43.27c-.06,0-.09.1-.1.21a2,2,0,0,0,0,.35,1.63,1.63,0,0,0,.05.33c0,.1,0,.14,0,.14a2.68,2.68,0,0,0,.79-.59,3,3,0,0,0,.53-.86,1.07,1.07,0,0,0,.06-.27V4A.65.65,0,0,0,36.63,3.63ZM32.94,5.38A1,1,0,0,0,32.88,5a2.84,2.84,0,0,0-.53-.85,2.44,2.44,0,0,0-.79-.59s0,0-.06.08a2.42,2.42,0,0,1-.47.77,2.45,2.45,0,0,1-.72.52.24.24,0,0,0-.11.21,2,2,0,0,0,0,.35,2.88,2.88,0,0,0,.05.33c0,.1.05.14.06.14a2.46,2.46,0,0,0,.75-.56,2.57,2.57,0,0,0,.52-.8,2.26,2.26,0,0,1,1.18,1.28s0,.08.06.07,0,0,0-.05,0-.07,0-.11a.32.32,0,0,0,0-.08C32.93,5.63,32.94,5.51,32.94,5.38Zm5-11.2s0-.07,0-.11l0-.05s0,0-.06.07a2.42,2.42,0,0,1-.47.77,2.28,2.28,0,0,1-.72.52,2.52,2.52,0,0,0-1.32,1.45,2.27,2.27,0,0,1-.48.77,2.29,2.29,0,0,1-.71.52,2.42,2.42,0,0,0-.79.58,2.89,2.89,0,0,0-.53.86.79.79,0,0,0,0,.22,1.69,1.69,0,0,0,0,.23,1.69,1.69,0,0,0,0,.23.65.65,0,0,0,0,.2,2.89,2.89,0,0,0,.53.86,2.42,2.42,0,0,0,.79.58s0,0,.06-.07A2.46,2.46,0,0,1,34.61,1a2.25,2.25,0,0,1,.72-.51,2.86,2.86,0,0,0,.79-.59,3,3,0,0,0,.53-.86,2.27,2.27,0,0,1,.48-.77,2.14,2.14,0,0,1,.71-.52A.25.25,0,0,0,38-2.44a2,2,0,0,0,0-.35,2.4,2.4,0,0,0-.05-.32c0-.1,0-.15-.06-.14a2.55,2.55,0,0,0-1.31,1.44,2.69,2.69,0,0,1-.48.78,2.22,2.22,0,0,1-.72.52,2.28,2.28,0,0,0-.75.55,2.69,2.69,0,0,0-.52.8,2.33,2.33,0,0,1-1-.84,2.34,2.34,0,0,1,1-.85,2.51,2.51,0,0,0,.78-.59,2.77,2.77,0,0,0,.53-.86,2.44,2.44,0,0,1,.48-.77,2.08,2.08,0,0,1,.72-.52,2.51,2.51,0,0,0,.78-.59A2.84,2.84,0,0,0,37.9-5,1,1,0,0,0,38-5.38a2.06,2.06,0,0,0,0-.36A.32.32,0,0,0,37.93-5.82Zm0,5.48s0-.08,0-.11a.16.16,0,0,0,0-.06s0,0-.06.07a2.42,2.42,0,0,1-.47.77,2.14,2.14,0,0,1-.72.52s0,0,0,0l0,0a.21.21,0,0,0-.07.14.78.78,0,0,0,0,.22,1.4,1.4,0,0,0,0,.29.6.6,0,0,0,.06.27,3,3,0,0,0,.53.86,2.65,2.65,0,0,0,.78.58s0,0,.06-.14A2.4,2.4,0,0,0,38,2.79a2,2,0,0,0,0-.35.25.25,0,0,0-.11-.22A1.88,1.88,0,0,1,37.42,2a2.44,2.44,0,0,1-.37-.35A2.8,2.8,0,0,0,37.9.44,1,1,0,0,0,38,.09a2,2,0,0,0,0-.35A.28.28,0,0,0,37.93-.34Z" style="fill:#231f20"/><path d="M5.17-5.82s0-.07,0-.11,0-.05,0-.05S5-6,5-5.91a2.27,2.27,0,0,1-.48.77,2.08,2.08,0,0,1-.72.52A2.54,2.54,0,0,0,2.51-3.17,2.44,2.44,0,0,1,2-2.4a2.22,2.22,0,0,1-.72.52,2.48,2.48,0,0,0-.78.58A2.89,2.89,0,0,0,0-.44a1,1,0,0,0-.06.35A1.94,1.94,0,0,0,0,.26.34.34,0,0,0,0,.35a1,1,0,0,0,0,.1s0,.06,0,.06S.1.49.12.44A2.27,2.27,0,0,1,.6-.33a2,2,0,0,1,.71-.52,2.56,2.56,0,0,0,.79-.59,2.77,2.77,0,0,0,.53-.86,2.27,2.27,0,0,1,.48-.77,2.14,2.14,0,0,1,.71-.52,2.44,2.44,0,0,0,.79-.59A2.84,2.84,0,0,0,5.14-5a1,1,0,0,0,.06-.35c0-.13,0-.25,0-.36A.32.32,0,0,0,5.17-5.82ZM1.43,3.94a.6.6,0,0,0-.06-.27,2.77,2.77,0,0,0-.53-.86,2.51,2.51,0,0,0-.78-.59s0,0-.06.14a2.88,2.88,0,0,0,0,.33A2,2,0,0,0,0,3a.24.24,0,0,0,.11.21,1.88,1.88,0,0,1,.42.27,2.1,2.1,0,0,1,.37.36A2.71,2.71,0,0,0,0,5a1,1,0,0,0-.06.35,2.06,2.06,0,0,0,0,.36.32.32,0,0,0,0,.08s0,.07,0,.11L.06,6s0,0,.06-.07A2.27,2.27,0,0,1,.6,5.14a2.14,2.14,0,0,1,.71-.52h0l0,0a.26.26,0,0,0,.07-.15.75.75,0,0,0,0-.22A1.31,1.31,0,0,0,1.43,3.94ZM2.67-5.17a2,2,0,0,0,0-.35,1.63,1.63,0,0,0,0-.33c0-.1,0-.14-.05-.14A2.58,2.58,0,0,0,1.25-4.54a2.42,2.42,0,0,1-.47.77,2.28,2.28,0,0,1-.72.52A.24.24,0,0,0,0-3a2,2,0,0,0,0,.35A2.88,2.88,0,0,0,0-2.36c0,.1,0,.15.06.14a2.51,2.51,0,0,0,.78-.59,2.77,2.77,0,0,0,.53-.86,2.63,2.63,0,0,1,.48-.77A2.22,2.22,0,0,1,2.57-5C2.63-5,2.66-5.06,2.67-5.17Zm6.22,8.8s0,0,0,0h0a2.08,2.08,0,0,1-.72-.52,2.44,2.44,0,0,1-.48-.77s0-.07-.06-.07,0,0-.06.07A2.27,2.27,0,0,1,6.36,3.58a2.79,2.79,0,0,0-.53-.8,2.46,2.46,0,0,0-.75-.56,2.28,2.28,0,0,1-.72-.52A2.63,2.63,0,0,1,3.88.93s0-.06-.06-.06v0a2.4,2.4,0,0,0-.73.53,2.76,2.76,0,0,0-.52.8,2.64,2.64,0,0,0-.79-1A3.06,3.06,0,0,1,2.14.78,2.05,2.05,0,0,1,2.57.52a2.68,2.68,0,0,0,.78-.59,2.77,2.77,0,0,0,.53-.86,2.63,2.63,0,0,1,.48-.77,2.28,2.28,0,0,1,.72-.52,2.51,2.51,0,0,0,.78-.59,3,3,0,0,0,.54-.86,2.42,2.42,0,0,1,.47-.77A2.45,2.45,0,0,1,7.59-5a.24.24,0,0,0,.11-.21,2,2,0,0,0,0-.35,2.88,2.88,0,0,0,0-.33c0-.1-.05-.14-.06-.14A2.6,2.6,0,0,0,6.28-4.54a2.63,2.63,0,0,1-.48.77,2.28,2.28,0,0,1-.72.52A2.57,2.57,0,0,0,3.76-1.81,2.46,2.46,0,0,1,3.29-1a2.45,2.45,0,0,1-.72.52,2.48,2.48,0,0,0-.78.58,2.92,2.92,0,0,0-.54.86,1.07,1.07,0,0,0-.06.27v.29a.53.53,0,0,0,.09.35s0,0,0,0h0A2.22,2.22,0,0,1,2,2.4a2.56,2.56,0,0,1,.48.77c0,.06,0,.08.06.07s0,0,.06-.07A2.3,2.3,0,0,1,3.8,1.89a2.84,2.84,0,0,0,.53.81,2.43,2.43,0,0,0,.75.55,2.28,2.28,0,0,1,.72.52,2.63,2.63,0,0,1,.48.77s0,.07.06.07h0a2.4,2.4,0,0,0,.73-.53,2.46,2.46,0,0,0,.52-.8,2.57,2.57,0,0,0,.8,1A3.12,3.12,0,0,1,8,4.69,1.73,1.73,0,0,1,7.59,5c-.06,0-.09.1-.1.21a2,2,0,0,0,0,.35,1.63,1.63,0,0,0,0,.33c0,.1,0,.14,0,.14a2.51,2.51,0,0,0,.78-.59,2.79,2.79,0,0,0,.54-.86A1.07,1.07,0,0,0,9,4.27V4A.65.65,0,0,0,8.89,3.63ZM5.2,5.38A1,1,0,0,0,5.14,5a2.84,2.84,0,0,0-.53-.85,2.44,2.44,0,0,0-.79-.59s0,0-.06.08a2.42,2.42,0,0,1-.47.77A2.45,2.45,0,0,1,2.57,5a.24.24,0,0,0-.11.21,2,2,0,0,0,0,.35,2.88,2.88,0,0,0,0,.33c0,.1.05.14.06.14a2.46,2.46,0,0,0,.75-.56,2.57,2.57,0,0,0,.52-.8A2.26,2.26,0,0,1,5,5.91s0,.08.06.07,0,0,0-.05,0-.07,0-.11a.32.32,0,0,0,0-.08C5.19,5.63,5.2,5.51,5.2,5.38Zm5-11.2s0-.07,0-.11,0-.05-.05-.05,0,0-.06.07a2.42,2.42,0,0,1-.47.77,2.28,2.28,0,0,1-.72.52A2.52,2.52,0,0,0,7.53-3.17a2.27,2.27,0,0,1-.48.77,2.29,2.29,0,0,1-.71.52,2.42,2.42,0,0,0-.79.58A2.89,2.89,0,0,0,5-.44.79.79,0,0,0,5-.22,1.69,1.69,0,0,0,5,0,1.69,1.69,0,0,0,5,.24a.65.65,0,0,0,0,.2,2.89,2.89,0,0,0,.53.86,2.42,2.42,0,0,0,.79.58s0,0,.06-.07A2.46,2.46,0,0,1,6.87,1,2.25,2.25,0,0,1,7.59.52a2.68,2.68,0,0,0,.78-.59,2.79,2.79,0,0,0,.54-.86,2.42,2.42,0,0,1,.47-.77,2.28,2.28,0,0,1,.72-.52.25.25,0,0,0,.11-.22,2,2,0,0,0,0-.35,2.4,2.4,0,0,0-.05-.32c0-.1,0-.15-.06-.14A2.55,2.55,0,0,0,8.79-1.81,2.69,2.69,0,0,1,8.31-1a2.22,2.22,0,0,1-.72.52A2.28,2.28,0,0,0,6.84,0a2.69,2.69,0,0,0-.52.8,2.33,2.33,0,0,1-1-.84,2.34,2.34,0,0,1,1-.85,2.51,2.51,0,0,0,.78-.59,2.77,2.77,0,0,0,.53-.86,2.44,2.44,0,0,1,.48-.77,2.08,2.08,0,0,1,.72-.52,2.51,2.51,0,0,0,.78-.59A2.84,2.84,0,0,0,10.16-5a1,1,0,0,0,.06-.35,2.06,2.06,0,0,0,0-.36A.32.32,0,0,0,10.19-5.82Zm0,5.48s0-.08,0-.11a.16.16,0,0,0-.05-.06s0,0-.06.07a2.42,2.42,0,0,1-.47.77,2.14,2.14,0,0,1-.72.52s0,0,0,0l0,0A.21.21,0,0,0,8.75,1a.78.78,0,0,0,0,.22,1.4,1.4,0,0,0,0,.29.6.6,0,0,0,.06.27,3,3,0,0,0,.53.86,2.65,2.65,0,0,0,.78.58s0,0,.06-.14a2.4,2.4,0,0,0,.05-.32,2,2,0,0,0,0-.35.25.25,0,0,0-.11-.22A1.88,1.88,0,0,1,9.68,2a2.44,2.44,0,0,1-.37-.35A2.8,2.8,0,0,0,10.16.44a1,1,0,0,0,.06-.35,2,2,0,0,0,0-.35A.28.28,0,0,0,10.19-.34Z" style="fill:#231f20"/><path d="M15.21-5.82a.49.49,0,0,0,0-.11s0-.05-.05-.05,0,0,0,.07a2.63,2.63,0,0,1-.48.77,2.28,2.28,0,0,1-.72.52,2.45,2.45,0,0,0-.74.53,2.83,2.83,0,0,0-.52.8,2.61,2.61,0,0,0-.51-.8,2.45,2.45,0,0,0-.74-.53,2.08,2.08,0,0,1-.72-.52,2.63,2.63,0,0,1-.48-.77s0-.07-.05-.07,0,0,0,.05a.49.49,0,0,0,0,.11l0,.08c0,.11,0,.23,0,.36A1,1,0,0,0,10-5a2.87,2.87,0,0,0,.54.85,2.51,2.51,0,0,0,.78.59,2.28,2.28,0,0,1,.72.52,2.42,2.42,0,0,1,.47.77c0,.06,0,.08.06.07s0,0,.06-.07a2.63,2.63,0,0,1,.48-.77,2.28,2.28,0,0,1,.72-.52,2.51,2.51,0,0,0,.78-.59A3.08,3.08,0,0,0,15.19-5a1,1,0,0,0,.06-.35c0-.13,0-.25,0-.36ZM12.72,2.5a.42.42,0,0,0-.05-.2,2.77,2.77,0,0,0-.53-.86,2.68,2.68,0,0,0-.78-.59,2,2,0,0,1-.72-.52,2.63,2.63,0,0,1-.48-.77s0-.07-.05-.07a.08.08,0,0,0,0,.06.36.36,0,0,0,0,.11.45.45,0,0,0,0,.08c0,.11,0,.23,0,.35A1,1,0,0,0,10,.44a2.92,2.92,0,0,0,.54.86,2.48,2.48,0,0,0,.78.58,2.34,2.34,0,0,1,1,.86,2.31,2.31,0,0,1-1,.85,2.51,2.51,0,0,0-.78.59A2.87,2.87,0,0,0,10,5a1,1,0,0,0-.06.35c0,.13,0,.25,0,.36l0,.08a.49.49,0,0,0,0,.11s0,.05,0,.05,0,0,.05-.07a2.63,2.63,0,0,1,.48-.77,2.08,2.08,0,0,1,.72-.52A2.51,2.51,0,0,0,12.14,4a2.77,2.77,0,0,0,.53-.86A.46.46,0,0,0,12.72,3a1.77,1.77,0,0,0,0-.23A1.62,1.62,0,0,0,12.72,2.5Zm2.51-.09a.29.29,0,0,0-.1-.19,2.08,2.08,0,0,1-.72-.52,2.27,2.27,0,0,1-.48-.77A2.89,2.89,0,0,0,13.4.07a2.42,2.42,0,0,0-.79-.58A2.29,2.29,0,0,1,11.9-1a2.32,2.32,0,0,1-.48-.78,2.84,2.84,0,0,0-.53-.85,2.56,2.56,0,0,0-.79-.59s0,0,0,.14a1.43,1.43,0,0,0-.05.32,2,2,0,0,0,0,.35c0,.12,0,.19.1.22a2.08,2.08,0,0,1,.72.52,2.44,2.44,0,0,1,.48.77,2.77,2.77,0,0,0,.53.86,2.68,2.68,0,0,0,.78.59,2.05,2.05,0,0,1,.72.51,2.32,2.32,0,0,1,.48.78,2.44,2.44,0,0,0,.26.51,2.72,2.72,0,0,0,.34.42,2.25,2.25,0,0,0-.34.41,2.81,2.81,0,0,0-.26.52,2.27,2.27,0,0,1-.48.77,2.22,2.22,0,0,1-.72.52c-.06,0-.09.1-.1.21a2,2,0,0,0,0,.35,2.88,2.88,0,0,0,.05.33c0,.1,0,.14,0,.14a2.44,2.44,0,0,0,.79-.59,2.77,2.77,0,0,0,.53-.86,2.27,2.27,0,0,1,.48-.77,2.08,2.08,0,0,1,.72-.52.26.26,0,0,0,.1-.19,1.13,1.13,0,0,0,0-.32A1.19,1.19,0,0,0,15.23,2.41Zm0-2.5a1,1,0,0,0-.06-.35,2.92,2.92,0,0,0-.86-1.16,3,3,0,0,1,.37-.35,1.73,1.73,0,0,1,.43-.27c.06,0,.09-.1.1-.22a2,2,0,0,0,0-.35,2.4,2.4,0,0,0-.05-.32c0-.1,0-.15,0-.14a2.44,2.44,0,0,0-.79.59,2.84,2.84,0,0,0-.53.85,1.07,1.07,0,0,0-.06.27,1.4,1.4,0,0,0,0,.29.51.51,0,0,0,.09.35s0,0,0,0h0a2.14,2.14,0,0,1,.72.52,2.63,2.63,0,0,1,.48.77s0,.07,0,.07,0,0,.05-.06a.3.3,0,0,0,0-.1.51.51,0,0,0,0-.09C15.24.15,15.25,0,15.25-.09Z" style="fill:#231f20"/><path d="M17.69-2.36a1.63,1.63,0,0,0,0-.33,2,2,0,0,0,0-.35c0-.11,0-.18-.1-.21a2.11,2.11,0,0,1-.71-.51,2.39,2.39,0,0,1-.47-.75,0,0,0,0,1,0,0l0,0s0-.05,0-.05h0a2.28,2.28,0,0,1-.72-.52,2.42,2.42,0,0,1-.47-.77s0-.07-.06-.07,0,0-.05.05a.49.49,0,0,0,0,.11.32.32,0,0,0,0,.08,2,2,0,0,0,0,.36,1,1,0,0,0,.07.35,2.56,2.56,0,0,0,1.28,1.42,2.56,2.56,0,0,0,1.29,1.39S17.67-2.26,17.69-2.36Zm0,4.77a.25.25,0,0,0-.1-.19,2.11,2.11,0,0,1-.71-.51A2.39,2.39,0,0,1,16.46,1a0,0,0,0,1,0,0l0,0s0,0,0,0,0,0,0,0a2.14,2.14,0,0,1-.72-.52,2.42,2.42,0,0,1-.47-.77s0-.07-.06-.07,0,0-.05.06a.36.36,0,0,0,0,.11.28.28,0,0,0,0,.08,2,2,0,0,0,0,.35,1,1,0,0,0,.07.35,2.53,2.53,0,0,0,1.28,1.42,2.67,2.67,0,0,0,.57.88,2.63,2.63,0,0,0-.57.87A2.56,2.56,0,0,0,15.07,5a1,1,0,0,0-.07.35,2,2,0,0,0,0,.36.32.32,0,0,0,0,.08.49.49,0,0,0,0,.11s0,.05.05.05,0,0,.06-.07a2.42,2.42,0,0,1,.47-.77,2.28,2.28,0,0,1,.72-.52h0s0,0,.05-.06,0,0,0,0a2.39,2.39,0,0,1,.47-.75,2.11,2.11,0,0,1,.71-.51.23.23,0,0,0,.1-.19,1.13,1.13,0,0,0,0-.32A1.19,1.19,0,0,0,17.74,2.41Zm0-2.5a1,1,0,0,0-.06-.35,2.58,2.58,0,0,0-1.29-1.42,2.54,2.54,0,0,0-1.28-1.39s0,0-.06.14a2.4,2.4,0,0,0-.05.32,2,2,0,0,0,0,.35.25.25,0,0,0,.11.22,2.17,2.17,0,0,1,.7.51A2.22,2.22,0,0,1,16.3-1s0,0,0,0a0,0,0,0,0,0,0s0,.05,0,.05,0,0,0,0a2,2,0,0,1,.72.52,2.63,2.63,0,0,1,.48.77s0,.07.05.07,0,0,.05-.06a.3.3,0,0,0,0-.1.51.51,0,0,0,0-.09C17.75.15,17.76,0,17.76-.09Z" style="fill:#231f20"/><path d="M27.8,5.38A1,1,0,0,0,27.74,5a2.84,2.84,0,0,0-.53-.85,2.51,2.51,0,0,0-.78-.59,2.08,2.08,0,0,1-.72-.52,2.27,2.27,0,0,1-.48-.77,2.76,2.76,0,0,0-.85-1.16,3.06,3.06,0,0,1,.36-.36,2.34,2.34,0,0,1,.43-.26A2.46,2.46,0,0,0,25.92,0a2.93,2.93,0,0,0,.53-.8A2.21,2.21,0,0,1,27.62.44s0,.07.06.07,0,0,.05-.06a1,1,0,0,0,0-.1.34.34,0,0,0,0-.09,1.94,1.94,0,0,0,0-.35,1,1,0,0,0-.06-.35,2.89,2.89,0,0,0-.53-.86,2.48,2.48,0,0,0-.78-.58,2.22,2.22,0,0,1-.72-.52,2.27,2.27,0,0,1-.48-.77c0-.06,0-.08-.06-.07s0,0-.06.07a2.29,2.29,0,0,1-1.18,1.28,2.62,2.62,0,0,0-.52-.81,2.43,2.43,0,0,0-.75-.55,2.43,2.43,0,0,0-.75.55,2.84,2.84,0,0,0-.53.81,2.27,2.27,0,0,1-1.17-1.28c0-.06,0-.08-.06-.07l0,.05s0,.07,0,.11a.32.32,0,0,0,0,.08,2.06,2.06,0,0,0,0,.36.93.93,0,0,0,.06.34,2.77,2.77,0,0,0,.53.86,2.51,2.51,0,0,0,.78.59s0,0,.06-.08a2.63,2.63,0,0,1,.48-.77,2.18,2.18,0,0,1,.72-.52,1.94,1.94,0,0,1,.43.27,2.38,2.38,0,0,1,.36.35A2.89,2.89,0,0,0,22.6-.44a2.27,2.27,0,0,1-.48.77,2,2,0,0,1-.72.52A2.6,2.6,0,0,0,20.09,2.3a2.63,2.63,0,0,1-.48.77,2.08,2.08,0,0,1-.72.52,2.51,2.51,0,0,0-.78.59,2.84,2.84,0,0,0-.53.85,1,1,0,0,0-.06.35,2.06,2.06,0,0,0,0,.36.32.32,0,0,0,0,.08s0,.07,0,.11,0,.05.05.05,0,0,.06-.07a2.42,2.42,0,0,1,.47-.77,2.28,2.28,0,0,1,.72-.52A2.68,2.68,0,0,0,19.68,4a3,3,0,0,0,.53-.86,2.38,2.38,0,0,1,.48-.77,2.29,2.29,0,0,1,.71-.52,2.42,2.42,0,0,0,.79-.58,2.89,2.89,0,0,0,.53-.86,2.27,2.27,0,0,1,.48-.77,2,2,0,0,1,.72-.52,2.4,2.4,0,0,0,.73-.53,2.76,2.76,0,0,0,.52-.8,2.64,2.64,0,0,0,.79,1,3.06,3.06,0,0,1-.36.36,3.12,3.12,0,0,1-.43.27,2.48,2.48,0,0,0-.78.58,2.89,2.89,0,0,0-.53.86.77.77,0,0,0-.07.27v.29a.59.59,0,0,0,.09.35s0,0,0,0h0a2.29,2.29,0,0,1,.71.52,2.38,2.38,0,0,1,.48.77,2.77,2.77,0,0,0,.53.86,2.56,2.56,0,0,0,.79.59,2.14,2.14,0,0,1,.71.52,2.27,2.27,0,0,1,.48.77s0,.08.06.07,0,0,.05-.05,0-.07,0-.11a.32.32,0,0,0,0-.08A2.06,2.06,0,0,0,27.8,5.38ZM24-3.73A2.57,2.57,0,0,0,24-4.06a2,2,0,0,0,0-.35c0-.11,0-.18-.1-.21a2.08,2.08,0,0,1-.72-.52,2.27,2.27,0,0,1-.48-.77s0-.07-.06-.07,0,0-.06.07a2.26,2.26,0,0,1-1.18,1.28,2.57,2.57,0,0,0-.52-.8A2.46,2.46,0,0,0,20.15-6a2.58,2.58,0,0,0-1.32,1.45,2.42,2.42,0,0,1-.47.77,2.28,2.28,0,0,1-.72.52c-.06,0-.09.09-.11.19a1.14,1.14,0,0,0,0,.32,1.21,1.21,0,0,0,0,.33c0,.1,0,.16.11.19a2.28,2.28,0,0,1,.72.52,2.42,2.42,0,0,1,.47.77,3,3,0,0,0,.26.51,2.06,2.06,0,0,0,.35.42,2.06,2.06,0,0,0-.35.42,3,3,0,0,0-.26.51,2.42,2.42,0,0,1-.47.77,2.28,2.28,0,0,1-.72.52.25.25,0,0,0-.11.22,2,2,0,0,0,0,.35,2.4,2.4,0,0,0,0,.32c0,.1,0,.15.06.14a2.65,2.65,0,0,0,.78-.58A3,3,0,0,0,19,1.81,2.69,2.69,0,0,1,19.43,1a2.05,2.05,0,0,1,.72-.51.26.26,0,0,0,.1-.2,1.12,1.12,0,0,0,0-.32,1.12,1.12,0,0,0,0-.32.23.23,0,0,0-.1-.19A2.22,2.22,0,0,1,19.43-1,2.69,2.69,0,0,1,19-1.81a2.44,2.44,0,0,0-.26-.51,2.72,2.72,0,0,0-.34-.42,2.25,2.25,0,0,0,.34-.41A2.81,2.81,0,0,0,19-3.67a2.63,2.63,0,0,1,.48-.77A2.22,2.22,0,0,1,20.15-5a2.45,2.45,0,0,1,.72.52,2.42,2.42,0,0,1,.47.77s0,.07.06.07h0a2.33,2.33,0,0,0,.74-.53,2.71,2.71,0,0,0,.52-.79,2.71,2.71,0,0,0,.52.79,2.33,2.33,0,0,0,.74.53S24-3.63,24-3.73Zm1.26,9.58a2.88,2.88,0,0,0,.05-.33,2,2,0,0,0,0-.35A.24.24,0,0,0,25.17,5a2.45,2.45,0,0,1-.72-.52A2.42,2.42,0,0,1,24,3.67a3,3,0,0,0-.54-.86,2.51,2.51,0,0,0-.78-.59,2.59,2.59,0,0,0-1.32,1.45,2.42,2.42,0,0,1-.47.77,2.45,2.45,0,0,1-.72.52.24.24,0,0,0-.11.21,2,2,0,0,0,0,.35,2.88,2.88,0,0,0,.05.33c0,.1,0,.14.06.14a2.51,2.51,0,0,0,.78-.59,2.77,2.77,0,0,0,.53-.86,2.63,2.63,0,0,1,.48-.77,2.18,2.18,0,0,1,.72-.52,2.28,2.28,0,0,1,.72.52,2.63,2.63,0,0,1,.48.77,2.77,2.77,0,0,0,.53.86,2.51,2.51,0,0,0,.78.59S25.2,6,25.23,5.85Zm2.51-8.21a2.88,2.88,0,0,0,.05-.33,2,2,0,0,0,0-.35.24.24,0,0,0-.11-.21A2.28,2.28,0,0,1,27-3.77a2.42,2.42,0,0,1-.47-.77A2.79,2.79,0,0,0,26-5.4,2.51,2.51,0,0,0,25.17-6s0,0-.05.14a1.63,1.63,0,0,0-.05.33,2,2,0,0,0,0,.35c0,.11,0,.18.1.21a2.22,2.22,0,0,1,.72.52,2.63,2.63,0,0,1,.48.77,2.77,2.77,0,0,0,.53.86,2.51,2.51,0,0,0,.78.59S27.71-2.26,27.74-2.36Zm0,5.47a2.4,2.4,0,0,0,.05-.32,2,2,0,0,0,0-.35.25.25,0,0,0-.11-.22A2.28,2.28,0,0,1,27,1.7a2.42,2.42,0,0,1-.47-.77c0-.05,0-.07-.06-.07s0,0-.05.05a.49.49,0,0,0,0,.11.34.34,0,0,0,0,.09,1.89,1.89,0,0,0,0,.35,1,1,0,0,0,.06.35,3,3,0,0,0,.53.86,2.65,2.65,0,0,0,.78.58S27.71,3.21,27.74,3.11Z" style="fill:#231f20"/><path d="M.06,5.38A1,1,0,0,0,0,5a2.84,2.84,0,0,0-.53-.85,2.51,2.51,0,0,0-.78-.59A2.08,2.08,0,0,1-2,3.07a2.27,2.27,0,0,1-.48-.77,2.76,2.76,0,0,0-.85-1.16A3.06,3.06,0,0,1-3,.78,2.34,2.34,0,0,1-2.57.52,2.46,2.46,0,0,0-1.82,0a2.93,2.93,0,0,0,.53-.8A2.21,2.21,0,0,1-.12.44s0,.07.06.07,0,0,0-.06a1,1,0,0,0,0-.1A.34.34,0,0,0,0,.26a1.94,1.94,0,0,0,0-.35A1,1,0,0,0,0-.44,2.89,2.89,0,0,0-.53-1.3a2.48,2.48,0,0,0-.78-.58A2.22,2.22,0,0,1-2-2.4a2.27,2.27,0,0,1-.48-.77c0-.06,0-.08-.06-.07s0,0-.06.07A2.29,2.29,0,0,1-3.81-1.89a2.62,2.62,0,0,0-.52-.81,2.43,2.43,0,0,0-.75-.55,2.43,2.43,0,0,0-.75.55,2.84,2.84,0,0,0-.53.81A2.27,2.27,0,0,1-7.53-3.17c0-.06,0-.08-.06-.07s0,0,0,.05,0,.07,0,.11a.32.32,0,0,0,0,.08,2.06,2.06,0,0,0,0,.36.93.93,0,0,0,.06.34,2.77,2.77,0,0,0,.53.86,2.51,2.51,0,0,0,.78.59s0,0,.06-.08A2.63,2.63,0,0,1-5.8-1.7a2.18,2.18,0,0,1,.72-.52,1.94,1.94,0,0,1,.43.27,2.38,2.38,0,0,1,.36.35A2.89,2.89,0,0,0-5.14-.44a2.44,2.44,0,0,1-.48.77,2,2,0,0,1-.72.52A2.6,2.6,0,0,0-7.65,2.3a2.63,2.63,0,0,1-.48.77,2.08,2.08,0,0,1-.72.52,2.51,2.51,0,0,0-.78.59,2.84,2.84,0,0,0-.53.85,1,1,0,0,0-.06.35,2.06,2.06,0,0,0,0,.36.32.32,0,0,0,0,.08.49.49,0,0,0,0,.11s0,.05.05.05,0,0,.06-.07a2.42,2.42,0,0,1,.47-.77,2.28,2.28,0,0,1,.72-.52A2.68,2.68,0,0,0-8.06,4a3,3,0,0,0,.53-.86A2.38,2.38,0,0,1-7,2.4a2.29,2.29,0,0,1,.71-.52,2.53,2.53,0,0,0,.79-.58A2.89,2.89,0,0,0-5,.44a2.27,2.27,0,0,1,.48-.77,2,2,0,0,1,.72-.52,2.4,2.4,0,0,0,.73-.53,2.76,2.76,0,0,0,.52-.8,2.55,2.55,0,0,0,.79,1,3.06,3.06,0,0,1-.36.36,3.12,3.12,0,0,1-.43.27,2.48,2.48,0,0,0-.78.58,2.89,2.89,0,0,0-.53.86.77.77,0,0,0-.07.27v.29a.53.53,0,0,0,.09.35s0,0,0,0h0a2.29,2.29,0,0,1,.71.52,2.38,2.38,0,0,1,.48.77A2.77,2.77,0,0,0-2.1,4a2.56,2.56,0,0,0,.79.59,2.14,2.14,0,0,1,.71.52,2.27,2.27,0,0,1,.48.77s0,.08.06.07l0-.05s0-.07,0-.11a.32.32,0,0,0,0-.08A2.06,2.06,0,0,0,.06,5.38ZM-3.77-3.73a2.57,2.57,0,0,0,0-.33,2,2,0,0,0,0-.35.26.26,0,0,0-.1-.21,2.08,2.08,0,0,1-.72-.52A2.27,2.27,0,0,1-5-5.91s0-.07-.06-.07,0,0-.06.07A2.26,2.26,0,0,1-6.32-4.63a2.57,2.57,0,0,0-.52-.8A2.46,2.46,0,0,0-7.59-6,2.58,2.58,0,0,0-8.91-4.54a2.27,2.27,0,0,1-.48.77,2.14,2.14,0,0,1-.71.52c-.06,0-.09.09-.11.19a1.14,1.14,0,0,0,0,.32,1.21,1.21,0,0,0,0,.33c0,.1.05.16.11.19a2.14,2.14,0,0,1,.71.52,2.27,2.27,0,0,1,.48.77,3,3,0,0,0,.26.51A2.4,2.4,0,0,0-8.31,0a2.4,2.4,0,0,0-.34.42,3,3,0,0,0-.26.51,2.27,2.27,0,0,1-.48.77,2.14,2.14,0,0,1-.71.52.25.25,0,0,0-.11.22,2,2,0,0,0,0,.35,2.4,2.4,0,0,0,.05.32c0,.1,0,.15.06.14a2.65,2.65,0,0,0,.78-.58,3,3,0,0,0,.53-.86A2.69,2.69,0,0,1-8.31,1,2.05,2.05,0,0,1-7.59.52a.26.26,0,0,0,.1-.2,1.12,1.12,0,0,0,0-.32,1.12,1.12,0,0,0,0-.32.23.23,0,0,0-.1-.19A2.22,2.22,0,0,1-8.31-1a2.69,2.69,0,0,1-.48-.78A2.44,2.44,0,0,0-9-2.32a2.72,2.72,0,0,0-.34-.42A2.25,2.25,0,0,0-9-3.15a2.81,2.81,0,0,0,.26-.52,2.63,2.63,0,0,1,.48-.77A2.22,2.22,0,0,1-7.59-5a2.45,2.45,0,0,1,.72.52,2.42,2.42,0,0,1,.47.77s0,.07.06.07h0a2.33,2.33,0,0,0,.74-.53,2.93,2.93,0,0,0,.52-.79,2.71,2.71,0,0,0,.52.79,2.33,2.33,0,0,0,.74.53S-3.79-3.63-3.77-3.73Zm1.26,9.58a2.88,2.88,0,0,0,0-.33,2,2,0,0,0,0-.35A.24.24,0,0,0-2.57,5a2.45,2.45,0,0,1-.72-.52,2.63,2.63,0,0,1-.48-.77,2.77,2.77,0,0,0-.53-.86,2.51,2.51,0,0,0-.78-.59A2.55,2.55,0,0,0-6.4,3.67a2.42,2.42,0,0,1-.47.77A2.45,2.45,0,0,1-7.59,5a.24.24,0,0,0-.11.21,2,2,0,0,0,0,.35,2.88,2.88,0,0,0,0,.33c0,.1,0,.14.06.14a2.51,2.51,0,0,0,.78-.59,2.77,2.77,0,0,0,.53-.86,2.63,2.63,0,0,1,.48-.77,2.18,2.18,0,0,1,.72-.52,2.28,2.28,0,0,1,.72.52,2.63,2.63,0,0,1,.48.77,2.77,2.77,0,0,0,.53.86A2.51,2.51,0,0,0-2.57,6S-2.54,6-2.51,5.85ZM0-2.36a2.88,2.88,0,0,0,.05-.33A2,2,0,0,0,.05-3a.24.24,0,0,0-.11-.21,2.28,2.28,0,0,1-.72-.52,2.42,2.42,0,0,1-.47-.77,2.79,2.79,0,0,0-.54-.86A2.51,2.51,0,0,0-2.57-6s0,0-.05.14a2.79,2.79,0,0,0-.06.33,2,2,0,0,0,0,.35c0,.11.05.18.11.21a2.33,2.33,0,0,1,.72.52,2.63,2.63,0,0,1,.48.77,2.77,2.77,0,0,0,.53.86,2.51,2.51,0,0,0,.78.59S0-2.26,0-2.36ZM0,3.11a2.4,2.4,0,0,0,.05-.32,2,2,0,0,0,0-.35.25.25,0,0,0-.11-.22A2.28,2.28,0,0,1-.78,1.7,2.42,2.42,0,0,1-1.25.93c0-.05,0-.07-.06-.07s0,0-.05.05A.49.49,0,0,0-1.4,1a.34.34,0,0,0,0,.09,1.89,1.89,0,0,0,0,.35,1,1,0,0,0,.06.35,3,3,0,0,0,.53.86,2.65,2.65,0,0,0,.78.58S0,3.21,0,3.11Z" style="fill:#231f20"/></pattern></defs><title>pattern</title><rect width="27.65" height="10.95" style="fill:url(#mazpattern_ANDY)"/></svg>