<svg id="Layer_1" data-name="Layer 1" xmlns="http://www.w3.org/2000/svg" xmlns:xlink="http://www.w3.org/1999/xlink" viewBox="0 0 25 25"><defs><pattern id="maze_3" data-name="maze_3" width="25.14" height="25.98" patternUnits="userSpaceOnUse" viewBox="0 0 25.14 25.98"><rect width="25.14" height="25.98" style="fill:none"/><path d="M37.81,32.3a.5.5,0,0,0-.05-.13.17.17,0,0,0-.06-.06s0,0-.07.08a2.75,2.75,0,0,1-1.49,1.48,3.06,3.06,0,0,0-.93.61,3.17,3.17,0,0,0-.64.91,3,3,0,0,0-1-1.19,3,3,0,0,1,.46-.41,3.07,3.07,0,0,1,.53-.31,3.16,3.16,0,0,0,1-.67,3.52,3.52,0,0,0,.66-1,2.65,2.65,0,0,1,.6-.88,2.54,2.54,0,0,1,.9-.6c.07,0,.11-.11.13-.24a2.8,2.8,0,0,0,0-.41,3.49,3.49,0,0,0-.07-.37c0-.11-.05-.17-.06-.16a3.08,3.08,0,0,0-1.65,1.66,2.78,2.78,0,0,1-.59.88,2.9,2.9,0,0,1-.9.6,3,3,0,0,0-1.65,1.65,2.78,2.78,0,0,1-.59.88,2.73,2.73,0,0,1-.9.6,3.23,3.23,0,0,0-.94.63,3.19,3.19,0,0,0-.65.92,2.67,2.67,0,0,1-1.47-1.46c0-.06-.05-.09-.08-.08s-.05,0-.07.08a2.65,2.65,0,0,1-.6.88,2.91,2.91,0,0,1-.89.6,2.94,2.94,0,0,0-1,.67,3.22,3.22,0,0,0-.67,1,1,1,0,0,0-.07.39,2.62,2.62,0,0,0,0,.41.84.84,0,0,0,0,.1.61.61,0,0,0,.05.12s0,.06.06.06.05,0,.07-.08a2.65,2.65,0,0,1,.6-.88,2.68,2.68,0,0,1,.9-.6,3.18,3.18,0,0,0,.92-.6,3.11,3.11,0,0,0,.64-.91,3.34,3.34,0,0,0,.65.91,3,3,0,0,0,.92.6s.05,0,.08-.08a2.82,2.82,0,0,1,.59-.89,2.87,2.87,0,0,1,.9-.59,3.07,3.07,0,0,0,.94-.64,3.22,3.22,0,0,0,.66-.92,2.7,2.7,0,0,1,1.46,1.47c0,.07,0,.09.08.07s0,0,.07-.07a2.7,2.7,0,0,1,.6-.88,2.54,2.54,0,0,1,.9-.6,3.34,3.34,0,0,0,1-.67,3.52,3.52,0,0,0,.66-1,1,1,0,0,0,.08-.4,2.63,2.63,0,0,0,0-.41Zm-4.68-.83a2.67,2.67,0,0,0,0-.4,1.91,1.91,0,0,0-.06-.37c0-.12,0-.17-.07-.16a3.06,3.06,0,0,0-1.57,1.52,3,3,0,0,0-1.57-1.52,2.59,2.59,0,0,1-.89-.6,2.65,2.65,0,0,1-.6-.88c0-.06-.05-.08-.08-.08s-.05,0-.07.08a2.65,2.65,0,0,1-.6.88,2.59,2.59,0,0,1-.89.6,3.1,3.1,0,0,0-1,.67,3.34,3.34,0,0,0-.67,1,1,1,0,0,0-.07.4A2.75,2.75,0,0,0,25,33l0,.09a.33.33,0,0,0,.05.12.14.14,0,0,0,.06.07s.05,0,.07-.08a2.69,2.69,0,0,1,.6-.89,2.66,2.66,0,0,1,.9-.59,3.21,3.21,0,0,0,.92-.61,3.11,3.11,0,0,0,.64-.91,3.34,3.34,0,0,0,.65.91,3.08,3.08,0,0,0,.92.61,2.81,2.81,0,0,1,1.21,1,2.86,2.86,0,0,1-1.18,1,3.39,3.39,0,0,0-.65-.92,3.09,3.09,0,0,0-.95-.63,3,3,0,0,0-1.64,1.65,2.65,2.65,0,0,1-.6.88,2.59,2.59,0,0,1-.89.6c-.08,0-.12.11-.13.24a1.34,1.34,0,0,0,0,.4,2,2,0,0,0,.06.38c0,.11.05.16.07.16a3.34,3.34,0,0,0,1-.67,3.43,3.43,0,0,0,.66-1,2.65,2.65,0,0,1,.6-.88,2.74,2.74,0,0,1,.89-.6,2.68,2.68,0,0,1,.9.6,2.65,2.65,0,0,1,.6.88c0,.05,0,.08.07.08h0a3.1,3.1,0,0,0,1-.67,3.34,3.34,0,0,0,.67-1,2.82,2.82,0,0,1,.59-.89,2.87,2.87,0,0,1,.9-.59A.27.27,0,0,0,33.13,31.47ZM31.54,26a.61.61,0,0,0-.05-.12s0-.06-.06-.06-.05,0-.07.08a2.73,2.73,0,0,1-1.47,1.46,3.56,3.56,0,0,0-.65-.92,3.28,3.28,0,0,0-.95-.63,3,3,0,0,0-1.64,1.65A2.75,2.75,0,0,1,25.16,29a.27.27,0,0,0-.13.25,1.34,1.34,0,0,0,0,.4,1.91,1.91,0,0,0,.06.37c0,.12.05.17.07.16a3.34,3.34,0,0,0,1-.67,3.52,3.52,0,0,0,.66-1A2.75,2.75,0,0,1,28.29,27a2.66,2.66,0,0,1,.9.59,2.69,2.69,0,0,1,.6.89c0,.05,0,.07.07.07h0a2.94,2.94,0,0,0,1-.67,3.22,3.22,0,0,0,.67-1,1,1,0,0,0,.07-.4c0-.14,0-.28,0-.4A.84.84,0,0,0,31.54,26Zm6.3,10.14a2.67,2.67,0,0,0,0-.4,3.06,3.06,0,0,0-.07-.37c0-.12-.05-.17-.06-.16a3,3,0,0,0-1.65,1.65,2.82,2.82,0,0,1-.59.89,2.87,2.87,0,0,1-.9.59,2.87,2.87,0,0,1-.9-.59,2.82,2.82,0,0,1-.59-.89s0-.07-.08-.07h0a3.15,3.15,0,0,0-1.64,1.65,1,1,0,0,0-.08.39,2.54,2.54,0,0,0,0,.41.46.46,0,0,0,0,.1l.05.12s.05.06.07.06,0,0,.07-.08A2.68,2.68,0,0,1,33,38a3.37,3.37,0,0,0,.66.92,3.1,3.1,0,0,0,.94.63,3.34,3.34,0,0,0,1-.67,3.52,3.52,0,0,0,.66-1,2.69,2.69,0,0,1,.6-.89,2.66,2.66,0,0,1,.9-.59A.32.32,0,0,0,37.84,36.17Zm0-10.14a.61.61,0,0,0-.05-.12s0-.06-.06-.06,0,0-.07.08a2.65,2.65,0,0,1-.6.88,2.74,2.74,0,0,1-.89.6,3.23,3.23,0,0,0-.93.6,3.31,3.31,0,0,0-.64.91,3.14,3.14,0,0,0-.65-.91,3,3,0,0,0-.92-.6s0,0-.08.08a2.82,2.82,0,0,1-.59.89,2.87,2.87,0,0,1-.9.59.29.29,0,0,0-.13.25,2.67,2.67,0,0,0,0,.4,1.91,1.91,0,0,0,.06.37c0,.12.05.17.07.16a3.23,3.23,0,0,0,.94-.63A3.37,3.37,0,0,0,33,28.6a2.68,2.68,0,0,1,1.46,1.46c0,.07,0,.09.08.08s0,0,.07-.08a2.81,2.81,0,0,1,.6-.88,2.68,2.68,0,0,1,.9-.6,3.16,3.16,0,0,0,1-.67,3.38,3.38,0,0,0,.66-1,1,1,0,0,0,.08-.4,2.5,2.5,0,0,0,0-.4A.84.84,0,0,0,37.81,26Z" style="fill:#231f20"/><path d="M12.67,32.3a.5.5,0,0,0-.05-.13.17.17,0,0,0-.06-.06s0,0-.07.08A2.75,2.75,0,0,1,11,33.67a2.9,2.9,0,0,0-.92.61,3,3,0,0,0-.65.91,3,3,0,0,0-1-1.19,3,3,0,0,1,.46-.41,3.07,3.07,0,0,1,.53-.31,3,3,0,0,0,1-.67,3.31,3.31,0,0,0,.66-1,2.65,2.65,0,0,1,.6-.88,2.54,2.54,0,0,1,.9-.6.26.26,0,0,0,.13-.24,2.8,2.8,0,0,0,0-.41,2,2,0,0,0-.07-.37c0-.11-.05-.17-.06-.16a3.08,3.08,0,0,0-1.65,1.66,2.78,2.78,0,0,1-.59.88,2.9,2.9,0,0,1-.9.6,3,3,0,0,0-1.64,1.65,3,3,0,0,1-.6.88,2.63,2.63,0,0,1-.9.6,3.23,3.23,0,0,0-.94.63,3.19,3.19,0,0,0-.65.92,2.67,2.67,0,0,1-1.47-1.46c0-.06,0-.09-.07-.08s-.06,0-.08.08a2.65,2.65,0,0,1-.6.88,2.91,2.91,0,0,1-.89.6,2.94,2.94,0,0,0-1,.67,3.22,3.22,0,0,0-.67,1,1,1,0,0,0-.07.39c0,.15,0,.29,0,.41a.84.84,0,0,0,0,.1.61.61,0,0,0,0,.12s0,.06.06.06.05,0,.07-.08a2.81,2.81,0,0,1,.6-.88,2.68,2.68,0,0,1,.9-.6,3,3,0,0,0,.92-.6,3.34,3.34,0,0,0,.65-.91,3.11,3.11,0,0,0,.64.91,3,3,0,0,0,.92.6s0,0,.08-.08A2.82,2.82,0,0,1,5.39,37a2.87,2.87,0,0,1,.9-.59,3,3,0,0,0,.94-.64,3.22,3.22,0,0,0,.66-.92,2.7,2.7,0,0,1,1.46,1.47c0,.07.05.09.08.07s.05,0,.07-.07a2.86,2.86,0,0,1,.6-.88,2.63,2.63,0,0,1,.9-.6,3.34,3.34,0,0,0,1-.67,3.52,3.52,0,0,0,.66-1,1,1,0,0,0,.08-.4,2.63,2.63,0,0,0,0-.41A.23.23,0,0,0,12.67,32.3ZM8,31.47a2.67,2.67,0,0,0,0-.4,1.91,1.91,0,0,0-.06-.37c0-.12,0-.17-.07-.16a3.06,3.06,0,0,0-1.57,1.52,3,3,0,0,0-1.57-1.52,2.59,2.59,0,0,1-.89-.6,2.65,2.65,0,0,1-.6-.88c0-.06,0-.08-.07-.08s-.06,0-.08.08a2.65,2.65,0,0,1-.6.88,2.59,2.59,0,0,1-.89.6,3.1,3.1,0,0,0-1,.67,3.34,3.34,0,0,0-.67,1,1,1,0,0,0-.07.4c0,.14,0,.28,0,.41l0,.09a.33.33,0,0,0,0,.12.14.14,0,0,0,.06.07s.05,0,.07-.08a2.85,2.85,0,0,1,.6-.89,2.66,2.66,0,0,1,.9-.59,3.08,3.08,0,0,0,.92-.61,3.34,3.34,0,0,0,.65-.91,3.11,3.11,0,0,0,.64.91,3.08,3.08,0,0,0,.92.61,2.81,2.81,0,0,1,1.21,1,2.86,2.86,0,0,1-1.18,1,3.39,3.39,0,0,0-.65-.92,3.17,3.17,0,0,0-.94-.63,3,3,0,0,0-1.65,1.65,2.78,2.78,0,0,1-.59.88,2.73,2.73,0,0,1-.9.6c-.08,0-.12.11-.13.24a1.34,1.34,0,0,0,0,.4,2,2,0,0,0,.06.38c0,.11.05.16.07.16a3.34,3.34,0,0,0,1-.67,3.43,3.43,0,0,0,.66-1,2.65,2.65,0,0,1,.6-.88,2.68,2.68,0,0,1,.9-.6,2.74,2.74,0,0,1,.89.6,2.65,2.65,0,0,1,.6.88c0,.05,0,.08.07.08h0a3.1,3.1,0,0,0,1-.67,3.34,3.34,0,0,0,.67-1A2.82,2.82,0,0,1,7,32.31a2.87,2.87,0,0,1,.9-.59A.27.27,0,0,0,8,31.47ZM6.4,26a.61.61,0,0,0-.05-.12s0-.06-.06-.06,0,0-.07.08a2.73,2.73,0,0,1-1.47,1.46,3.56,3.56,0,0,0-.65-.92,3.37,3.37,0,0,0-.94-.63,3,3,0,0,0-1.65,1.65,2.82,2.82,0,0,1-.59.89A2.87,2.87,0,0,1,0,29a.27.27,0,0,0-.13.25,1.34,1.34,0,0,0,0,.4A1.91,1.91,0,0,0,0,30c0,.12.05.17.07.16a3.34,3.34,0,0,0,1-.67,3.52,3.52,0,0,0,.66-1,2.69,2.69,0,0,1,.6-.89,2.66,2.66,0,0,1,.9-.59,2.71,2.71,0,0,1,.89.59,2.69,2.69,0,0,1,.6.89c0,.05,0,.07.07.07h0a2.94,2.94,0,0,0,1-.67,3.22,3.22,0,0,0,.67-1,1,1,0,0,0,.07-.4c0-.14,0-.28,0-.4A.84.84,0,0,0,6.4,26Zm6.3,10.14a2.67,2.67,0,0,0,0-.4,1.87,1.87,0,0,0-.07-.37c0-.12-.05-.17-.06-.16a3,3,0,0,0-1.65,1.65,2.82,2.82,0,0,1-.59.89,2.87,2.87,0,0,1-.9.59,2.87,2.87,0,0,1-.9-.59,2.82,2.82,0,0,1-.59-.89s-.05-.07-.08-.07h0a3,3,0,0,0-1,.67,3.19,3.19,0,0,0-.66,1,1,1,0,0,0-.08.39,2.54,2.54,0,0,0,0,.41.24.24,0,0,0,0,.1.31.31,0,0,0,0,.12s0,.06.06.06,0,0,.07-.08A2.67,2.67,0,0,1,7.84,38a3.14,3.14,0,0,0,.65.92,3.23,3.23,0,0,0,.94.63,3.22,3.22,0,0,0,1-.67,3.31,3.31,0,0,0,.66-1,2.69,2.69,0,0,1,.6-.89,2.66,2.66,0,0,1,.9-.59A.29.29,0,0,0,12.7,36.17Zm0-10.14a.61.61,0,0,0-.05-.12s0-.06-.06-.06,0,0-.07.08a2.65,2.65,0,0,1-.6.88,2.74,2.74,0,0,1-.89.6,3,3,0,0,0-.92.6,3.14,3.14,0,0,0-.65.91A3.14,3.14,0,0,0,8.78,28a3,3,0,0,0-.92-.6s-.05,0-.07.08a3,3,0,0,1-.6.89,2.76,2.76,0,0,1-.9.59.29.29,0,0,0-.13.25,2.67,2.67,0,0,0,0,.4,1.91,1.91,0,0,0,.06.37c0,.12.06.17.07.16a3.1,3.1,0,0,0,.94-.63,3.37,3.37,0,0,0,.66-.92,2.68,2.68,0,0,1,1.46,1.46c0,.07.05.09.08.08s.05,0,.07-.08a3,3,0,0,1,.6-.88,2.78,2.78,0,0,1,.9-.6,3.16,3.16,0,0,0,1-.67,3.38,3.38,0,0,0,.66-1,1,1,0,0,0,.08-.4,2.5,2.5,0,0,0,0-.4A.24.24,0,0,0,12.67,26Z" style="fill:#231f20"/><path d="M25.27,38.85a1,1,0,0,0-.08-.39,3.38,3.38,0,0,0-.66-1,3.16,3.16,0,0,0-1-.67,2.84,2.84,0,0,1-.9-.6,2.81,2.81,0,0,1-.6-.88A3.21,3.21,0,0,0,21,34a3.47,3.47,0,0,1,.45-.41,3.16,3.16,0,0,1,.54-.31,3.23,3.23,0,0,0,.94-.63,3.19,3.19,0,0,0,.65-.92A2.65,2.65,0,0,1,25,33.2s.05.08.07.08a.14.14,0,0,0,.06-.07.33.33,0,0,0,0-.12l0-.09a2.73,2.73,0,0,0,0-.41,1,1,0,0,0-.08-.4,3.52,3.52,0,0,0-.66-1,3.34,3.34,0,0,0-1-.67,2.54,2.54,0,0,1-.9-.6,2.81,2.81,0,0,1-.6-.88C22,29,22,29,22,29s-.05,0-.08.08a2.68,2.68,0,0,1-1.47,1.47,3.18,3.18,0,0,0-.65-.93,3.23,3.23,0,0,0-.94-.63,3.23,3.23,0,0,0-.94.63,3.18,3.18,0,0,0-.65.93,2.68,2.68,0,0,1-1.47-1.47c0-.06,0-.09-.07-.08s0,0-.06.06a.5.5,0,0,0-.05.13.18.18,0,0,0,0,.09,2.63,2.63,0,0,0,0,.41,1,1,0,0,0,.08.39,3.43,3.43,0,0,0,.66,1,3.34,3.34,0,0,0,1,.67s.05,0,.08-.09a2.78,2.78,0,0,1,.59-.88,2.73,2.73,0,0,1,.9-.6,2.54,2.54,0,0,1,.53.31,2.93,2.93,0,0,1,.46.4,3.25,3.25,0,0,0-1.06,1.33,3,3,0,0,1-.6.89,2.76,2.76,0,0,1-.9.59,3,3,0,0,0-1.64,1.66,2.65,2.65,0,0,1-.6.88,2.84,2.84,0,0,1-.9.6,3,3,0,0,0-1,.67,3.22,3.22,0,0,0-.67,1,1,1,0,0,0-.07.39,2.62,2.62,0,0,0,0,.41.84.84,0,0,0,0,.1.61.61,0,0,0,0,.12s0,.06.06.06,0,0,.07-.08a2.65,2.65,0,0,1,.6-.88,2.74,2.74,0,0,1,.89-.6,2.94,2.94,0,0,0,1-.67,3.22,3.22,0,0,0,.67-1,2.55,2.55,0,0,1,.6-.88,2.59,2.59,0,0,1,.89-.6,3.1,3.1,0,0,0,1-.67,3.34,3.34,0,0,0,.67-1,2.82,2.82,0,0,1,.59-.89,2.87,2.87,0,0,1,.9-.59,3.08,3.08,0,0,0,.92-.61A3.14,3.14,0,0,0,22,30.2a3,3,0,0,0,1,1.19,3.55,3.55,0,0,1-.46.41,3.07,3.07,0,0,1-.53.31,2.94,2.94,0,0,0-1,.67,3.22,3.22,0,0,0-.67,1,.94.94,0,0,0-.07.31,1.82,1.82,0,0,0,0,.33.6.6,0,0,0,.11.4s0,0,0,0h0a2.73,2.73,0,0,1,.9.6,2.67,2.67,0,0,1,.59.88,3.22,3.22,0,0,0,.67,1,2.94,2.94,0,0,0,1,.67,2.74,2.74,0,0,1,.89.6,2.65,2.65,0,0,1,.6.88c0,.06.05.09.07.08s0,0,.06-.06a.61.61,0,0,0,0-.12.84.84,0,0,0,0-.1A2.54,2.54,0,0,0,25.27,38.85ZM20.48,28.43a2.16,2.16,0,0,0,.06-.38,2.67,2.67,0,0,0,0-.4.26.26,0,0,0-.13-.24,2.9,2.9,0,0,1-.9-.6,2.78,2.78,0,0,1-.59-.88c0-.06-.05-.09-.08-.08s-.05,0-.07.08a2.73,2.73,0,0,1-1.47,1.46,3.56,3.56,0,0,0-.65-.92,3.28,3.28,0,0,0-.95-.63,3,3,0,0,0-1.64,1.65A2.75,2.75,0,0,1,12.57,29a.29.29,0,0,0-.13.22.91.91,0,0,0,0,.37.91.91,0,0,0,0,.37.27.27,0,0,0,.13.22,2.59,2.59,0,0,1,.89.6,2.65,2.65,0,0,1,.6.88,2.81,2.81,0,0,0,.33.59,2.67,2.67,0,0,0,.42.47,3.14,3.14,0,0,0-.42.48,2.81,2.81,0,0,0-.33.59,2.65,2.65,0,0,1-.6.88,2.59,2.59,0,0,1-.89.6c-.08,0-.12.11-.13.24a1.34,1.34,0,0,0,0,.4,2,2,0,0,0,.06.38c0,.11.05.16.07.16a3.17,3.17,0,0,0,1-.67,3.26,3.26,0,0,0,.67-1,2.65,2.65,0,0,1,.6-.88,2.74,2.74,0,0,1,.89-.6c.07,0,.11-.1.14-.22a1.14,1.14,0,0,0,0-.37,1.15,1.15,0,0,0,0-.37c0-.11-.07-.18-.14-.21a2.74,2.74,0,0,1-.89-.6,2.65,2.65,0,0,1-.6-.88,2.58,2.58,0,0,0-.33-.59,2.41,2.41,0,0,0-.42-.48,2.41,2.41,0,0,0,.42-.48,2.73,2.73,0,0,0,.33-.58A2.75,2.75,0,0,1,15.7,27a2.66,2.66,0,0,1,.9.59,2.85,2.85,0,0,1,.6.89c0,.05,0,.07.07.07h0a3,3,0,0,0,.92-.6,3.14,3.14,0,0,0,.65-.91,3.14,3.14,0,0,0,.65.91,3,3,0,0,0,.92.6S20.45,28.54,20.48,28.43Zm1.57,11a2,2,0,0,0,.06-.37,2.67,2.67,0,0,0,0-.4.29.29,0,0,0-.13-.25,2.76,2.76,0,0,1-.9-.59,3,3,0,0,1-.6-.89,3.13,3.13,0,0,0-.66-1,3.22,3.22,0,0,0-1-.67,3,3,0,0,0-1.64,1.65,2.85,2.85,0,0,1-.6.89,2.66,2.66,0,0,1-.9.59.29.29,0,0,0-.13.25,2.67,2.67,0,0,0,0,.4,2,2,0,0,0,.07.37c0,.12,0,.17.06.16a3.1,3.1,0,0,0,1-.67,3.34,3.34,0,0,0,.67-1,2.82,2.82,0,0,1,.59-.89,2.87,2.87,0,0,1,.9-.59,2.87,2.87,0,0,1,.9.59,2.82,2.82,0,0,1,.59.89,3.34,3.34,0,0,0,.67,1,3.1,3.1,0,0,0,1,.67S22,39.51,22.05,39.39ZM25.18,30a3.06,3.06,0,0,0,.07-.37,2.67,2.67,0,0,0,0-.4.32.32,0,0,0-.13-.25,2.66,2.66,0,0,1-.9-.59,2.69,2.69,0,0,1-.6-.89,3.52,3.52,0,0,0-.66-1,3.34,3.34,0,0,0-1-.67s0,0-.07.16a1.91,1.91,0,0,0-.06.37,1.34,1.34,0,0,0,0,.4A.27.27,0,0,0,22,27a2.75,2.75,0,0,1,1.49,1.48,3.34,3.34,0,0,0,.67,1,3.1,3.1,0,0,0,1,.67S25.15,30.11,25.18,30Zm0,6.27a3.25,3.25,0,0,0,.07-.38,2.67,2.67,0,0,0,0-.4c0-.13-.06-.21-.13-.24a2.54,2.54,0,0,1-.9-.6,2.65,2.65,0,0,1-.6-.88c0-.06-.05-.09-.07-.08s0,0-.06.06a.78.78,0,0,0-.07.22,2.68,2.68,0,0,0,0,.41,1,1,0,0,0,.07.39,3.26,3.26,0,0,0,.67,1,3.1,3.1,0,0,0,1,.67S25.15,36.37,25.18,36.26Z" style="fill:#231f20"/><path d="M.13,38.85a1,1,0,0,0-.08-.39,3.38,3.38,0,0,0-.66-1,3.16,3.16,0,0,0-1-.67,3,3,0,0,1-.9-.6,2.81,2.81,0,0,1-.6-.88A3.21,3.21,0,0,0-4.15,34a3,3,0,0,1,.46-.41,3.07,3.07,0,0,1,.53-.31,3.23,3.23,0,0,0,.94-.63,3.19,3.19,0,0,0,.65-.92A2.65,2.65,0,0,1-.1,33.2s.05.08.07.08A.14.14,0,0,0,0,33.21a.33.33,0,0,0,.05-.12L.1,33a2.73,2.73,0,0,0,0-.41,1,1,0,0,0-.08-.4,3.52,3.52,0,0,0-.66-1,3.34,3.34,0,0,0-1-.67,2.63,2.63,0,0,1-.9-.6,2.81,2.81,0,0,1-.6-.88c0-.06-.05-.08-.07-.08s0,0-.08.08a2.68,2.68,0,0,1-1.47,1.47,3.18,3.18,0,0,0-.65-.93A3.23,3.23,0,0,0-6.3,29a3.23,3.23,0,0,0-.94.63,3.18,3.18,0,0,0-.65.93,2.68,2.68,0,0,1-1.47-1.47c0-.06-.05-.09-.07-.08s0,0-.06.06a.5.5,0,0,0,0,.13.51.51,0,0,0,0,.09,2.63,2.63,0,0,0,0,.41,1,1,0,0,0,.08.39,3.43,3.43,0,0,0,.66,1,3.34,3.34,0,0,0,1,.67s0,0,.08-.09a2.78,2.78,0,0,1,.59-.88,2.73,2.73,0,0,1,.9-.6,2.54,2.54,0,0,1,.53.31,2.93,2.93,0,0,1,.46.4,3.34,3.34,0,0,0-1.06,1.33,2.85,2.85,0,0,1-.6.89,2.76,2.76,0,0,1-.9.59,3.07,3.07,0,0,0-1.64,1.66,2.65,2.65,0,0,1-.6.88,2.91,2.91,0,0,1-.89.6,2.94,2.94,0,0,0-1,.67,3.22,3.22,0,0,0-.67,1,1,1,0,0,0-.07.39c0,.15,0,.29,0,.41a.84.84,0,0,0,0,.1.61.61,0,0,0,0,.12s0,.06.06.06.05,0,.07-.08a2.65,2.65,0,0,1,.6-.88A2.68,2.68,0,0,1-11,38a3.16,3.16,0,0,0,1-.67,3.38,3.38,0,0,0,.66-1,2.55,2.55,0,0,1,.6-.88,2.59,2.59,0,0,1,.89-.6,3.1,3.1,0,0,0,1-.67,3.34,3.34,0,0,0,.67-1,2.82,2.82,0,0,1,.59-.89,2.87,2.87,0,0,1,.9-.59,3.08,3.08,0,0,0,.92-.61,3.14,3.14,0,0,0,.65-.91,3,3,0,0,0,1,1.19,3,3,0,0,1-.46.41,3.07,3.07,0,0,1-.53.31,3,3,0,0,0-1,.67,3.22,3.22,0,0,0-.67,1,.94.94,0,0,0-.07.31,1.82,1.82,0,0,0,0,.33.6.6,0,0,0,.11.4s0,0,0,0h0a2.73,2.73,0,0,1,.9.6,2.67,2.67,0,0,1,.59.88,3.22,3.22,0,0,0,.67,1,2.94,2.94,0,0,0,1,.67,2.74,2.74,0,0,1,.89.6,2.65,2.65,0,0,1,.6.88c0,.06.05.09.07.08s0,0,.06-.06a.61.61,0,0,0,.05-.12.84.84,0,0,0,0-.1A2.54,2.54,0,0,0,.13,38.85ZM-4.66,28.43a2.16,2.16,0,0,0,.06-.38,2.67,2.67,0,0,0,0-.4c0-.13-.05-.21-.13-.24a2.9,2.9,0,0,1-.9-.6,2.78,2.78,0,0,1-.59-.88c0-.06,0-.09-.08-.08s0,0-.07.08a2.73,2.73,0,0,1-1.47,1.46,3.56,3.56,0,0,0-.65-.92,3.28,3.28,0,0,0-.95-.63,3,3,0,0,0-1.64,1.65,2.69,2.69,0,0,1-.6.89,2.71,2.71,0,0,1-.89.59.29.29,0,0,0-.13.22,1.13,1.13,0,0,0,0,.37,1.13,1.13,0,0,0,0,.37.27.27,0,0,0,.13.22,2.59,2.59,0,0,1,.89.6,2.65,2.65,0,0,1,.6.88,2.81,2.81,0,0,0,.33.59,2.67,2.67,0,0,0,.42.47,3.14,3.14,0,0,0-.42.48,2.81,2.81,0,0,0-.33.59,2.65,2.65,0,0,1-.6.88,2.59,2.59,0,0,1-.89.6c-.08,0-.12.11-.13.24a1.34,1.34,0,0,0,0,.4,2,2,0,0,0,.06.38c0,.11.05.16.07.16a3.34,3.34,0,0,0,1-.67,3.43,3.43,0,0,0,.66-1,2.65,2.65,0,0,1,.6-.88,2.74,2.74,0,0,1,.89-.6c.07,0,.11-.1.14-.22a1.14,1.14,0,0,0,0-.37,1.15,1.15,0,0,0,0-.37c0-.11-.07-.18-.14-.21a2.74,2.74,0,0,1-.89-.6,2.65,2.65,0,0,1-.6-.88,2.58,2.58,0,0,0-.33-.59,2.41,2.41,0,0,0-.42-.48,2.41,2.41,0,0,0,.42-.48,2.73,2.73,0,0,0,.33-.58,2.69,2.69,0,0,1,.6-.89A2.71,2.71,0,0,1-9.44,27a2.66,2.66,0,0,1,.9.59,2.85,2.85,0,0,1,.6.89c0,.05,0,.07.07.07h0a3.23,3.23,0,0,0,.93-.6,3.31,3.31,0,0,0,.64-.91,3.14,3.14,0,0,0,.65.91,3,3,0,0,0,.92.6S-4.69,28.54-4.66,28.43Zm1.57,11A2,2,0,0,0-3,39a2.67,2.67,0,0,0,0-.4.29.29,0,0,0-.13-.25,2.87,2.87,0,0,1-.9-.59,2.82,2.82,0,0,1-.59-.89,3.34,3.34,0,0,0-.67-1,3.22,3.22,0,0,0-1-.67,3,3,0,0,0-1.64,1.65,2.85,2.85,0,0,1-.6.89,2.66,2.66,0,0,1-.9.59.32.32,0,0,0-.13.25,2.67,2.67,0,0,0,0,.4,3.49,3.49,0,0,0,.07.37c0,.12.05.17.06.16a3.1,3.1,0,0,0,1-.67,3.34,3.34,0,0,0,.67-1A2.82,2.82,0,0,1-7.2,37a2.87,2.87,0,0,1,.9-.59,2.87,2.87,0,0,1,.9.59,2.82,2.82,0,0,1,.59.89,3.34,3.34,0,0,0,.67,1,3.22,3.22,0,0,0,1,.67S-3.12,39.51-3.09,39.39ZM0,30a3.06,3.06,0,0,0,.07-.37,2.67,2.67,0,0,0,0-.4A.32.32,0,0,0,0,29a2.66,2.66,0,0,1-.9-.59,2.69,2.69,0,0,1-.6-.89,3.52,3.52,0,0,0-.66-1,3.34,3.34,0,0,0-1-.67s0,0-.07.16a1.91,1.91,0,0,0-.06.37,1.34,1.34,0,0,0,0,.4.27.27,0,0,0,.13.25,2.87,2.87,0,0,1,.9.59,2.82,2.82,0,0,1,.59.89,3.34,3.34,0,0,0,.67,1,3.1,3.1,0,0,0,1,.67S0,30.11,0,30Zm0,6.27a3.25,3.25,0,0,0,.07-.38,2.67,2.67,0,0,0,0-.4c0-.13-.06-.21-.13-.24a2.54,2.54,0,0,1-.9-.6,2.65,2.65,0,0,1-.6-.88c0-.06-.05-.09-.07-.08s0,0-.06.06a.5.5,0,0,0-.05.13.51.51,0,0,0,0,.09,2.68,2.68,0,0,0,0,.41,1,1,0,0,0,.07.39,3.26,3.26,0,0,0,.67,1,3.1,3.1,0,0,0,1,.67S0,36.37,0,36.26Z" style="fill:#231f20"/><path d="M37.81,6.32a.43.43,0,0,0-.05-.12.14.14,0,0,0-.06-.07s0,0-.07.09a2.75,2.75,0,0,1-.6.88,2.71,2.71,0,0,1-.89.59,3.48,3.48,0,0,0-.93.61,3.31,3.31,0,0,0-.64.91,3,3,0,0,0-1-1.19A3,3,0,0,1,34,7.61a2.5,2.5,0,0,1,.53-.3,3.34,3.34,0,0,0,1-.67,3.43,3.43,0,0,0,.66-1,2.65,2.65,0,0,1,.6-.88,2.68,2.68,0,0,1,.9-.6c.07,0,.11-.11.13-.24a2.67,2.67,0,0,0,0-.4,3.25,3.25,0,0,0-.07-.38c0-.11-.05-.16-.06-.15a3,3,0,0,0-1.65,1.65,2.78,2.78,0,0,1-.59.88,2.73,2.73,0,0,1-.9.6,3,3,0,0,0-1.65,1.65,2.82,2.82,0,0,1-.59.89,2.87,2.87,0,0,1-.9.59,3.08,3.08,0,0,0-1.59,1.56,2.72,2.72,0,0,1-1.47-1.47c0-.06-.05-.08-.08-.08s-.05,0-.07.08a2.65,2.65,0,0,1-.6.88,2.59,2.59,0,0,1-.89.6,2.94,2.94,0,0,0-1,.67,3.34,3.34,0,0,0-.67,1,1,1,0,0,0-.07.4,2.55,2.55,0,0,0,0,.4.84.84,0,0,0,0,.1.43.43,0,0,0,.05.12.14.14,0,0,0,.06.07s.05,0,.07-.08a2.69,2.69,0,0,1,.6-.89,2.66,2.66,0,0,1,.9-.59,3.21,3.21,0,0,0,.92-.61,3.11,3.11,0,0,0,.64-.91,3.34,3.34,0,0,0,.65.91,3.08,3.08,0,0,0,.92.61s.05,0,.08-.09a2.82,2.82,0,0,1,.59-.89,2.87,2.87,0,0,1,.9-.59,3.23,3.23,0,0,0,.94-.63A3.37,3.37,0,0,0,33,8.89a2.68,2.68,0,0,1,1.46,1.46c0,.07,0,.09.08.08s0,0,.07-.08a2.81,2.81,0,0,1,.6-.88,2.54,2.54,0,0,1,.9-.6,3.16,3.16,0,0,0,1-.67,3.52,3.52,0,0,0,.66-1,1,1,0,0,0,.08-.4,2.5,2.5,0,0,0,0-.4A.84.84,0,0,0,37.81,6.32ZM33.13,5.5a2.8,2.8,0,0,0,0-.41,2,2,0,0,0-.06-.37c0-.11,0-.17-.07-.16a2.9,2.9,0,0,0-.92.61,3,3,0,0,0-.65.91,3.17,3.17,0,0,0-.64-.91,3.06,3.06,0,0,0-.93-.61,2.75,2.75,0,0,1-1.49-1.48c0-.06-.05-.08-.08-.07s-.05,0-.07.07a2.75,2.75,0,0,1-1.49,1.48,3.1,3.1,0,0,0-1,.67,3.26,3.26,0,0,0-.67,1,.94.94,0,0,0-.07.39A2.68,2.68,0,0,0,25,7a.81.81,0,0,0,0,.09.5.5,0,0,0,.05.13s0,.06.06.06.05,0,.07-.08a2.81,2.81,0,0,1,1.5-1.48,3,3,0,0,0,1.56-1.52,3.2,3.2,0,0,0,.65.91,2.9,2.9,0,0,0,.92.61,2.84,2.84,0,0,1,1.21,1,2.84,2.84,0,0,1-1.18,1,3.39,3.39,0,0,0-.65-.92,3.28,3.28,0,0,0-.95-.63,3,3,0,0,0-1.64,1.65,2.75,2.75,0,0,1-1.49,1.48c-.08,0-.12.12-.13.25a1.34,1.34,0,0,0,0,.4,2,2,0,0,0,.06.37c0,.12.05.17.07.16a3.34,3.34,0,0,0,1-.67,3.43,3.43,0,0,0,.66-1,2.75,2.75,0,0,1,.6-.88,2.71,2.71,0,0,1,.89-.59,2.66,2.66,0,0,1,.9.59,2.75,2.75,0,0,1,.6.88c0,.06,0,.08.07.08h0a2.94,2.94,0,0,0,1-.67,3.34,3.34,0,0,0,.67-1,2.67,2.67,0,0,1,.59-.88,2.73,2.73,0,0,1,.9-.6C33.08,5.71,33.12,5.62,33.13,5.5ZM31.54.06a.5.5,0,0,0-.05-.13s0-.06-.06-.06-.05,0-.07.08a2.78,2.78,0,0,1-1.47,1.47,3.45,3.45,0,0,0-.65-.93,3.28,3.28,0,0,0-.95-.63,3.07,3.07,0,0,0-1.64,1.66,2.75,2.75,0,0,1-.6.88,2.91,2.91,0,0,1-.89.6c-.08,0-.12.11-.13.24a1.34,1.34,0,0,0,0,.4,2.16,2.16,0,0,0,.06.38c0,.11.05.16.07.15a3.16,3.16,0,0,0,1-.67,3.52,3.52,0,0,0,.66-1A2.75,2.75,0,0,1,28.29,1a2.66,2.66,0,0,1,.9.59,2.69,2.69,0,0,1,.6.89s0,.07.07.07v0a3.1,3.1,0,0,0,1-.67,3.26,3.26,0,0,0,.67-1,1,1,0,0,0,.07-.39c0-.15,0-.28,0-.41A.51.51,0,0,0,31.54.06Zm6.3,10.13a2.67,2.67,0,0,0,0-.4,3.49,3.49,0,0,0-.07-.37c0-.11-.05-.17-.06-.16a3.08,3.08,0,0,0-1.65,1.66,2.69,2.69,0,0,1-1.49,1.47,2.69,2.69,0,0,1-1.49-1.47c0-.05,0-.08-.08-.08h0a3,3,0,0,0-1,.67,3.13,3.13,0,0,0-.66,1,1,1,0,0,0-.08.4,2.5,2.5,0,0,0,0,.4.46.46,0,0,0,0,.1s0,.09.05.12a.22.22,0,0,0,.07.07s0,0,.07-.08A2.67,2.67,0,0,1,33,12a3.22,3.22,0,0,0,.66.92,3.1,3.1,0,0,0,.94.63,3.16,3.16,0,0,0,1-.67,3.52,3.52,0,0,0,.66-1,2.69,2.69,0,0,1,.6-.89,2.66,2.66,0,0,1,.9-.59C37.78,10.41,37.82,10.32,37.84,10.19Zm0-10.13a.5.5,0,0,0-.05-.13s0-.06-.06-.06,0,0-.07.08a2.65,2.65,0,0,1-.6.88,2.59,2.59,0,0,1-.89.6,3.06,3.06,0,0,0-.93.61,3.12,3.12,0,0,0-.64.9,3,3,0,0,0-.65-.9A2.9,2.9,0,0,0,33,1.43s0,0-.08.09a2.89,2.89,0,0,1-.59.88,3.08,3.08,0,0,1-.9.6.26.26,0,0,0-.13.24,2.67,2.67,0,0,0,0,.4,2.16,2.16,0,0,0,.06.38c0,.11.05.16.07.15a3.23,3.23,0,0,0,.94-.63A3.22,3.22,0,0,0,33,2.62a2.67,2.67,0,0,1,1.46,1.47c0,.06,0,.09.08.07s0,0,.07-.07a2.85,2.85,0,0,1,.6-.89,2.66,2.66,0,0,1,.9-.59,3.34,3.34,0,0,0,1-.67,3.43,3.43,0,0,0,.66-1,1,1,0,0,0,.08-.39,2.63,2.63,0,0,0,0-.41A.51.51,0,0,0,37.81.06Z" style="fill:#231f20"/><path d="M25,25.83a.81.81,0,0,0,0,.09s0,.09,0,.13.05.06.07.06,0,0,.07-.08a2.82,2.82,0,0,1,.59-.89,2.87,2.87,0,0,1,.9-.59,3.1,3.1,0,0,0,1-.67,3.26,3.26,0,0,0,.67-1,2.69,2.69,0,0,1,1.49-1.47l0,0,0,0A.56.56,0,0,0,30,21a1.82,1.82,0,0,0,0-.33.73.73,0,0,0-.07-.3,3.26,3.26,0,0,0-.67-1,3.1,3.1,0,0,0-1-.67,2.17,2.17,0,0,1-.53-.31,2.93,2.93,0,0,1-.46-.4,3,3,0,0,0,1-1.19,3.34,3.34,0,0,0,.65.91,3,3,0,0,0,.92.6,2.54,2.54,0,0,1,.9.6,2.65,2.65,0,0,1,.6.88,3.26,3.26,0,0,0,.67,1,3.17,3.17,0,0,0,1,.67,2.66,2.66,0,0,1,.9.59,2.75,2.75,0,0,1,.6.88,3.26,3.26,0,0,0,.67,1,3.1,3.1,0,0,0,1,.67,2.87,2.87,0,0,1,.9.59,2.82,2.82,0,0,1,.59.89c0,.06,0,.08.07.08s0,0,.07-.06,0-.08,0-.13a.39.39,0,0,0,0-.09,2.63,2.63,0,0,0,0-.41.93.93,0,0,0-.08-.39,3.24,3.24,0,0,0-.66-1,3.34,3.34,0,0,0-1-.67,2.66,2.66,0,0,1-.9-.59,2.69,2.69,0,0,1-.6-.89A3,3,0,0,0,33,20.24a2.59,2.59,0,0,1-.89-.6,2.65,2.65,0,0,1-.6-.88,3.23,3.23,0,0,0-1.07-1.33,3.55,3.55,0,0,1,.46-.41,2.5,2.5,0,0,1,.53-.3,2.66,2.66,0,0,1,.9.59,2.69,2.69,0,0,1,.6.89c0,.05,0,.08.07.08a3.09,3.09,0,0,0,1-.67,3.52,3.52,0,0,0,.66-1,1,1,0,0,0,.08-.4,2.5,2.5,0,0,0,0-.4.24.24,0,0,0,0-.1.43.43,0,0,0-.05-.12.14.14,0,0,0-.06-.07s0,0-.07.09A2.67,2.67,0,0,1,33,17.09a3.19,3.19,0,0,0-.65-.92,3.28,3.28,0,0,0-.95-.63,3.23,3.23,0,0,0-.94.63,3.19,3.19,0,0,0-.65.92,2.67,2.67,0,0,1-1.47-1.46c0-.06-.05-.09-.08-.08s-.05,0-.07.08a2.93,2.93,0,0,1-.6.88,2.87,2.87,0,0,1-.9.59,3.28,3.28,0,0,0-1.65,1.66,1,1,0,0,0-.07.39c0,.15,0,.29,0,.41a.51.51,0,0,0,0,.09c0,.05,0,.09,0,.13a.1.1,0,0,0,.07.06s0,0,.07-.08a2.67,2.67,0,0,1,1.47-1.46,3.14,3.14,0,0,0,.65.92,3.23,3.23,0,0,0,.94.63,2.61,2.61,0,0,1,.54.31,4.25,4.25,0,0,1,.46.4,3.21,3.21,0,0,0-1.07,1.33,2.72,2.72,0,0,1-1.5,1.48,3.22,3.22,0,0,0-1,.67,3.26,3.26,0,0,0-.67,1,.94.94,0,0,0-.07.39C25,25.57,25,25.7,25,25.83Zm4.84-10.68a2.94,2.94,0,0,0,.93-.61,3,3,0,0,0,.64-.91,3.2,3.2,0,0,0,.65.91,3,3,0,0,0,.92.61h0s.06,0,.08-.08a2.65,2.65,0,0,1,.6-.88,2.54,2.54,0,0,1,.9-.6,2.59,2.59,0,0,1,.89.6,2.65,2.65,0,0,1,.6.88,2.58,2.58,0,0,0,.33.59,2.46,2.46,0,0,0,.43.48,2.73,2.73,0,0,0-.43.47,3.08,3.08,0,0,0-.33.59,2.75,2.75,0,0,1-1.49,1.48c-.07,0-.11.11-.14.22a1.15,1.15,0,0,0,0,.37,1.15,1.15,0,0,0,0,.37c0,.11.07.19.14.22a2.75,2.75,0,0,1,1.49,1.48,3.34,3.34,0,0,0,.67,1,2.94,2.94,0,0,0,1,.67s0,0,.07-.15a2.16,2.16,0,0,0,.06-.38,2.67,2.67,0,0,0,0-.4.29.29,0,0,0-.13-.25,2.87,2.87,0,0,1-.9-.59,2.93,2.93,0,0,1-.6-.88,3,3,0,0,0-.32-.59,2.83,2.83,0,0,0-.43-.48,2.83,2.83,0,0,0,.43-.48,3.22,3.22,0,0,0,.32-.58,2.72,2.72,0,0,1,1.5-1.48.29.29,0,0,0,.13-.22,1.51,1.51,0,0,0,0-.37,1.48,1.48,0,0,0,0-.37c0-.12-.06-.19-.13-.22a2.73,2.73,0,0,1-.9-.6,2.81,2.81,0,0,1-.6-.88,3,3,0,0,0-1.64-1.66,3.12,3.12,0,0,0-1,.64A3.39,3.39,0,0,0,33,14a2.65,2.65,0,0,1-1.47-1.47c0-.06-.05-.08-.08-.07s-.05,0-.07.07a2.69,2.69,0,0,1-.6.89,2.66,2.66,0,0,1-.9.59.28.28,0,0,0-.13.25,2.67,2.67,0,0,0,0,.4,3.58,3.58,0,0,0,.06.37C29.81,15.11,29.84,15.16,29.85,15.15Zm-1.57,11a3.1,3.1,0,0,0,1-.67,3.26,3.26,0,0,0,.67-1,2.65,2.65,0,0,1,.6-.88,2.59,2.59,0,0,1,.89-.6,2.54,2.54,0,0,1,.9.6,2.65,2.65,0,0,1,.6.88,3.26,3.26,0,0,0,.67,1,3.1,3.1,0,0,0,1,.67s0-.05.07-.16a3.38,3.38,0,0,0,.06-.38,2.67,2.67,0,0,0,0-.4.26.26,0,0,0-.13-.24,2.54,2.54,0,0,1-.9-.6,2.65,2.65,0,0,1-.6-.88,3.05,3.05,0,0,0-1.65-1.66,3.55,3.55,0,0,0-1,.67,3.43,3.43,0,0,0-.66,1,2.65,2.65,0,0,1-.6.88,2.54,2.54,0,0,1-.9.6.26.26,0,0,0-.13.24,2.67,2.67,0,0,0,0,.4,2,2,0,0,0,.06.38C28.24,26.07,28.27,26.12,28.28,26.12Zm-3.14-9.4a3.22,3.22,0,0,0,1-.67,3.26,3.26,0,0,0,.67-1,2.78,2.78,0,0,1,.59-.88,2.73,2.73,0,0,1,.9-.6c.08,0,.12-.11.13-.24a1.34,1.34,0,0,0,0-.4,2,2,0,0,0-.06-.38c0-.11-.05-.16-.07-.16a3.37,3.37,0,0,0-1,.68,3.19,3.19,0,0,0-.66,1,3,3,0,0,1-.6.88,2.73,2.73,0,0,1-.9.6c-.08,0-.12.11-.13.24a1.34,1.34,0,0,0,0,.4,2,2,0,0,0,.06.38C25.1,16.67,25.12,16.72,25.14,16.72Zm0,6.26a3,3,0,0,0,1-.67,3.34,3.34,0,0,0,.67-1,1,1,0,0,0,.07-.4c0-.14,0-.28,0-.4a.84.84,0,0,0,0-.1.43.43,0,0,0-.05-.12.12.12,0,0,0-.07-.07s0,0-.06.09a3.12,3.12,0,0,1-.6.88,2.87,2.87,0,0,1-.9.59.27.27,0,0,0-.13.25,1.34,1.34,0,0,0,0,.4,2.16,2.16,0,0,0,.06.38C25.1,22.94,25.12,23,25.14,23Z" style="fill:#231f20"/><path d="M12.67,6.32a.43.43,0,0,0-.05-.12.14.14,0,0,0-.06-.07s0,0-.07.09a2.75,2.75,0,0,1-.6.88,2.71,2.71,0,0,1-.89.59,3.28,3.28,0,0,0-.92.61,3.14,3.14,0,0,0-.65.91A3,3,0,0,0,8.44,8a3,3,0,0,1,.46-.41,2.5,2.5,0,0,1,.53-.3,3.12,3.12,0,0,0,1.64-1.66,2.65,2.65,0,0,1,.6-.88,2.68,2.68,0,0,1,.9-.6.26.26,0,0,0,.13-.24,2.67,2.67,0,0,0,0-.4,2,2,0,0,0-.07-.38c0-.11-.05-.16-.06-.15a3,3,0,0,0-1.65,1.65,2.78,2.78,0,0,1-.59.88,2.73,2.73,0,0,1-.9.6A3,3,0,0,0,7.79,7.78a3,3,0,0,1-.6.89,2.76,2.76,0,0,1-.9.59A3.08,3.08,0,0,0,4.7,10.82,2.72,2.72,0,0,1,3.23,9.35c0-.06,0-.08-.07-.08s-.06,0-.08.08a2.65,2.65,0,0,1-.6.88,2.59,2.59,0,0,1-.89.6,2.94,2.94,0,0,0-1,.67,3.34,3.34,0,0,0-.67,1,1,1,0,0,0-.07.4c0,.14,0,.28,0,.4a.84.84,0,0,0,0,.1.43.43,0,0,0,0,.12.14.14,0,0,0,.06.07s.05,0,.07-.08a2.85,2.85,0,0,1,.6-.89,2.66,2.66,0,0,1,.9-.59,3.08,3.08,0,0,0,.92-.61,3.34,3.34,0,0,0,.65-.91,3.11,3.11,0,0,0,.64.91,3.08,3.08,0,0,0,.92.61s0,0,.08-.09A2.82,2.82,0,0,1,5.39,11a2.87,2.87,0,0,1,.9-.59,3.1,3.1,0,0,0,.94-.63,3.37,3.37,0,0,0,.66-.92,2.68,2.68,0,0,1,1.46,1.46c0,.07.05.09.08.08s.05,0,.07-.08a3,3,0,0,1,.6-.88,2.63,2.63,0,0,1,.9-.6,3.16,3.16,0,0,0,1-.67,3.52,3.52,0,0,0,.66-1,1,1,0,0,0,.08-.4,2.5,2.5,0,0,0,0-.4A.24.24,0,0,0,12.67,6.32ZM8,5.5a2.8,2.8,0,0,0,0-.41,2,2,0,0,0-.06-.37c0-.11,0-.17-.07-.16a2.9,2.9,0,0,0-.92.61,3,3,0,0,0-.65.91,3.17,3.17,0,0,0-.64-.91,3.06,3.06,0,0,0-.93-.61A2.75,2.75,0,0,1,3.23,3.08c0-.06,0-.08-.07-.07s-.06,0-.08.07a2.69,2.69,0,0,1-.6.89,2.71,2.71,0,0,1-.89.59,3.1,3.1,0,0,0-1,.67,3.26,3.26,0,0,0-.67,1,.94.94,0,0,0-.07.39c0,.15,0,.28,0,.41a.81.81,0,0,0,0,.09.5.5,0,0,0,0,.13S0,7.3,0,7.3s.05,0,.07-.08a2.7,2.7,0,0,1,.6-.88,2.54,2.54,0,0,1,.9-.6,2.9,2.9,0,0,0,.92-.61,3.2,3.2,0,0,0,.65-.91,3,3,0,0,0,.64.91,2.9,2.9,0,0,0,.92.61,2.84,2.84,0,0,1,1.21,1,2.84,2.84,0,0,1-1.18,1,3.39,3.39,0,0,0-.65-.92,3.37,3.37,0,0,0-.94-.63A3,3,0,0,0,1.51,7.78a2.82,2.82,0,0,1-.59.89,2.87,2.87,0,0,1-.9.59c-.08,0-.12.12-.13.25a1.34,1.34,0,0,0,0,.4,2,2,0,0,0,.06.37c0,.12.05.17.07.16a3.34,3.34,0,0,0,1-.67,3.43,3.43,0,0,0,.66-1,2.75,2.75,0,0,1,.6-.88,2.66,2.66,0,0,1,.9-.59,2.71,2.71,0,0,1,.89.59,2.75,2.75,0,0,1,.6.88c0,.06,0,.08.07.08h0a2.94,2.94,0,0,0,1-.67,3.34,3.34,0,0,0,.67-1A2.67,2.67,0,0,1,7,6.34a2.73,2.73,0,0,1,.9-.6C7.94,5.71,8,5.62,8,5.5ZM6.4.06a.5.5,0,0,0-.05-.13s0-.06-.06-.06,0,0-.07.08A2.78,2.78,0,0,1,4.75,1.42,3.45,3.45,0,0,0,4.1.49a3.37,3.37,0,0,0-.94-.63A3.08,3.08,0,0,0,1.51,1.52a2.89,2.89,0,0,1-.59.88A3.08,3.08,0,0,1,0,3c-.08,0-.12.11-.13.24a1.34,1.34,0,0,0,0,.4A2.16,2.16,0,0,0,0,4c0,.11.05.16.07.15A3.16,3.16,0,0,0,1,3.5a3.52,3.52,0,0,0,.66-1,2.69,2.69,0,0,1,.6-.89A2.66,2.66,0,0,1,3.16,1a2.71,2.71,0,0,1,.89.59,2.69,2.69,0,0,1,.6.89s0,.07.07.07v0a3.1,3.1,0,0,0,1-.67,3.26,3.26,0,0,0,.67-1A1,1,0,0,0,6.44.56c0-.15,0-.28,0-.41A.51.51,0,0,0,6.4.06Zm6.3,10.13a2.67,2.67,0,0,0,0-.4,2,2,0,0,0-.07-.37c0-.11-.05-.17-.06-.16a3.08,3.08,0,0,0-1.65,1.66,2.69,2.69,0,0,1-1.49,1.47,2.69,2.69,0,0,1-1.49-1.47c0-.05-.05-.08-.08-.08h0a3,3,0,0,0-1,.67,3.31,3.31,0,0,0-.66,1,1,1,0,0,0-.08.4,2.5,2.5,0,0,0,0,.4.24.24,0,0,0,0,.1.26.26,0,0,0,0,.12.14.14,0,0,0,.06.07s0,0,.07-.08A2.65,2.65,0,0,1,7.84,12a3,3,0,0,0,.65.92,3.23,3.23,0,0,0,.94.63,3,3,0,0,0,1-.67,3.31,3.31,0,0,0,.66-1,2.69,2.69,0,0,1,.6-.89,2.66,2.66,0,0,1,.9-.59A.28.28,0,0,0,12.7,10.19Zm0-10.13a.5.5,0,0,0-.05-.13s0-.06-.06-.06,0,0-.07.08a2.65,2.65,0,0,1-.6.88,2.59,2.59,0,0,1-.89.6,2.9,2.9,0,0,0-.92.61,3,3,0,0,0-.65.9A3,3,0,0,0,8.78,2a2.9,2.9,0,0,0-.92-.61s-.05,0-.07.09a3.12,3.12,0,0,1-.6.88,3,3,0,0,1-.9.6.26.26,0,0,0-.13.24,2.67,2.67,0,0,0,0,.4A2.16,2.16,0,0,0,6.22,4c0,.11.06.16.07.15a3.1,3.1,0,0,0,.94-.63,3.22,3.22,0,0,0,.66-.92A2.67,2.67,0,0,1,9.35,4.09c0,.06.05.09.08.07s.05,0,.07-.07a3,3,0,0,1,.6-.89,2.76,2.76,0,0,1,.9-.59,3.34,3.34,0,0,0,1-.67,3.43,3.43,0,0,0,.66-1,1,1,0,0,0,.08-.39,2.63,2.63,0,0,0,0-.41A.18.18,0,0,0,12.67.06Z" style="fill:#231f20"/><path d="M25.27,12.88a1,1,0,0,0-.08-.4,3.52,3.52,0,0,0-.66-1,3.16,3.16,0,0,0-1-.67,2.54,2.54,0,0,1-.9-.6,2.81,2.81,0,0,1-.6-.88A3.21,3.21,0,0,0,21,8a3.47,3.47,0,0,1,.45-.41,2.58,2.58,0,0,1,.54-.3,3.07,3.07,0,0,0,.94-.64,3.19,3.19,0,0,0,.65-.92A2.65,2.65,0,0,1,25,7.22c0,.06.05.08.07.08s0,0,.06-.06a.5.5,0,0,0,0-.13.81.81,0,0,0,0-.09,2.63,2.63,0,0,0,0-.41.93.93,0,0,0-.08-.39,3.43,3.43,0,0,0-.66-1,3.34,3.34,0,0,0-1-.67,2.66,2.66,0,0,1-.9-.59,2.85,2.85,0,0,1-.6-.89C22,3,22,3,22,3s-.05,0-.08.07a2.65,2.65,0,0,1-1.47,1.47,3,3,0,0,0-.65-.92A2.88,2.88,0,0,0,18.84,3a2.88,2.88,0,0,0-.94.63,3,3,0,0,0-.65.92,2.65,2.65,0,0,1-1.47-1.47c0-.06,0-.08-.07-.08a.17.17,0,0,0-.06.06.5.5,0,0,0-.05.13.23.23,0,0,0,0,.09,2.63,2.63,0,0,0,0,.41,1,1,0,0,0,.08.4,3.52,3.52,0,0,0,.66,1,3.34,3.34,0,0,0,1,.67s.05,0,.08-.09a2.78,2.78,0,0,1,.59-.88,2.9,2.9,0,0,1,.9-.6,3.07,3.07,0,0,1,.53.31,3,3,0,0,1,.46.41,3.13,3.13,0,0,0-1.06,1.33,3.12,3.12,0,0,1-.6.88,2.76,2.76,0,0,1-.9.59,3,3,0,0,0-1.64,1.66,2.65,2.65,0,0,1-.6.88,2.54,2.54,0,0,1-.9.6,3,3,0,0,0-1,.67,3.34,3.34,0,0,0-.67,1,1,1,0,0,0-.07.4,2.55,2.55,0,0,0,0,.4.84.84,0,0,0,0,.1.43.43,0,0,0,0,.12.14.14,0,0,0,.06.07s0,0,.07-.08A2.75,2.75,0,0,1,14.13,12a3.1,3.1,0,0,0,1-.67,3.26,3.26,0,0,0,.67-1,2.65,2.65,0,0,1,.6-.88,2.59,2.59,0,0,1,.89-.6,2.94,2.94,0,0,0,1-.67,3.34,3.34,0,0,0,.67-1,2.67,2.67,0,0,1,.59-.88,2.73,2.73,0,0,1,.9-.6,2.9,2.9,0,0,0,.92-.61A3,3,0,0,0,22,4.22a3,3,0,0,0,1,1.19,3.55,3.55,0,0,1-.46.41,3.07,3.07,0,0,1-.53.31,3.1,3.1,0,0,0-1,.67,3.34,3.34,0,0,0-.67,1,1,1,0,0,0-.07.31,1.82,1.82,0,0,0,0,.33.58.58,0,0,0,.11.4l0,0h0a2.73,2.73,0,0,1,.9.6,2.78,2.78,0,0,1,.59.88,3.26,3.26,0,0,0,.67,1,3.1,3.1,0,0,0,1,.67A2.75,2.75,0,0,1,25,13.49s.05.08.07.08a.14.14,0,0,0,.06-.07.43.43,0,0,0,0-.12.84.84,0,0,0,0-.1A2.5,2.5,0,0,0,25.27,12.88ZM20.48,2.45a2,2,0,0,0,.06-.38,2.67,2.67,0,0,0,0-.4.26.26,0,0,0-.13-.24,2.73,2.73,0,0,1-.9-.6A2.78,2.78,0,0,1,18.92,0c0-.06-.05-.08-.08-.08s-.05,0-.07.08A2.78,2.78,0,0,1,17.3,1.42a3.45,3.45,0,0,0-.65-.93,3.28,3.28,0,0,0-.95-.63,3.07,3.07,0,0,0-1.64,1.66,2.75,2.75,0,0,1-.6.88,2.91,2.91,0,0,1-.89.6.25.25,0,0,0-.13.21.92.92,0,0,0,0,.37.91.91,0,0,0,0,.37c0,.12.06.19.13.22a2.74,2.74,0,0,1,.89.6,2.65,2.65,0,0,1,.6.88,2.58,2.58,0,0,0,.33.59,2.41,2.41,0,0,0,.42.48,2.67,2.67,0,0,0-.42.47,3.08,3.08,0,0,0-.33.59,2.75,2.75,0,0,1-1.49,1.48c-.08,0-.12.12-.13.25a1.34,1.34,0,0,0,0,.4,2,2,0,0,0,.06.37c0,.12.05.17.07.16a3.17,3.17,0,0,0,1-.67,3.26,3.26,0,0,0,.67-1,2.75,2.75,0,0,1,.6-.88,2.71,2.71,0,0,1,.89-.59.33.33,0,0,0,.14-.22,1.15,1.15,0,0,0,0-.37,1.14,1.14,0,0,0,0-.37c0-.12-.07-.19-.14-.22a2.59,2.59,0,0,1-.89-.6,2.65,2.65,0,0,1-.6-.88,2.81,2.81,0,0,0-.33-.59,2.73,2.73,0,0,0-.42-.48,2.67,2.67,0,0,0,.42-.47,2.81,2.81,0,0,0,.33-.59A2.75,2.75,0,0,1,15.7,1a2.66,2.66,0,0,1,.9.59,2.85,2.85,0,0,1,.6.89s0,.07.07.07v0A3.08,3.08,0,0,0,18.19,2a3.14,3.14,0,0,0,.65-.91,3.14,3.14,0,0,0,.65.91,3.08,3.08,0,0,0,.92.61S20.45,2.56,20.48,2.45Zm1.57,11a2.16,2.16,0,0,0,.06-.38,2.67,2.67,0,0,0,0-.4.29.29,0,0,0-.13-.25,2.76,2.76,0,0,1-.9-.59,3.12,3.12,0,0,1-.6-.88,3.07,3.07,0,0,0-.66-1,3.22,3.22,0,0,0-1-.67,3,3,0,0,0-1.64,1.66,2.93,2.93,0,0,1-.6.88,2.66,2.66,0,0,1-.9.59.29.29,0,0,0-.13.25,2.67,2.67,0,0,0,0,.4,2.14,2.14,0,0,0,.07.38c0,.11,0,.16.06.15a2.94,2.94,0,0,0,1-.67,3.34,3.34,0,0,0,.67-1,2.82,2.82,0,0,1,.59-.89,2.87,2.87,0,0,1,.9-.59,2.87,2.87,0,0,1,.9.59,2.82,2.82,0,0,1,.59.89,3.34,3.34,0,0,0,.67,1,2.94,2.94,0,0,0,1,.67S22,13.53,22.05,13.42ZM25.18,4a3.7,3.7,0,0,0,.07-.38,2.67,2.67,0,0,0,0-.4c0-.13-.06-.21-.13-.24a2.84,2.84,0,0,1-.9-.6,2.75,2.75,0,0,1-.6-.88,3.43,3.43,0,0,0-.66-1,3.34,3.34,0,0,0-1-.67s0,.05-.07.16a2,2,0,0,0-.06.37,1.41,1.41,0,0,0,0,.41c0,.13,0,.21.13.24a2.75,2.75,0,0,1,1.49,1.48,3.34,3.34,0,0,0,.67,1,2.94,2.94,0,0,0,1,.67S25.15,4.13,25.18,4Zm0,6.26a3.49,3.49,0,0,0,.07-.37,2.67,2.67,0,0,0,0-.4c0-.13-.06-.22-.13-.25a2.66,2.66,0,0,1-.9-.59,2.69,2.69,0,0,1-.6-.89c0-.06-.05-.08-.07-.08l-.06.06a.5.5,0,0,0,0,.13c0,.05,0,.08,0,.09a2.68,2.68,0,0,0,0,.41.94.94,0,0,0,.07.39,3.26,3.26,0,0,0,.67,1,3.1,3.1,0,0,0,1,.67S25.15,10.4,25.18,10.28Z" style="fill:#231f20"/><path d="M12.44,19c0,.12,0,.26,0,.41a1,1,0,0,0,.07.39,3.26,3.26,0,0,0,.67,1,3.22,3.22,0,0,0,1,.67A2.87,2.87,0,0,1,15,22a2.93,2.93,0,0,1,.6.88c0,.07,0,.1.07.08s0,0,.08-.08a2.67,2.67,0,0,1,1.47-1.46,3.19,3.19,0,0,0,.65.92,3.23,3.23,0,0,0,.94.63,2.54,2.54,0,0,1,.9.6,2.65,2.65,0,0,1,.6.88c0,.06,0,.09.08.09a2.9,2.9,0,0,0,.92-.61A3.2,3.2,0,0,0,22,23a3,3,0,0,0,.64.91,3.06,3.06,0,0,0,.93.61,2.87,2.87,0,0,1,.9.59,2.82,2.82,0,0,1,.59.89c0,.06.05.08.07.08s0,0,.07-.06,0-.08.05-.13a.39.39,0,0,0,0-.09,2.63,2.63,0,0,0,0-.41.93.93,0,0,0-.08-.39,3.24,3.24,0,0,0-.66-1,3.34,3.34,0,0,0-1-.67,2.66,2.66,0,0,1-.9-.59,2.69,2.69,0,0,1-.6-.89c0-.06-.05-.08-.07-.07s-.05,0-.08.07a2.65,2.65,0,0,1-1.47,1.47,3.19,3.19,0,0,0-.65-.92,3.12,3.12,0,0,0-.95-.64,2.71,2.71,0,0,1-.89-.59,2.75,2.75,0,0,1-.6-.88,3.08,3.08,0,0,0-1.65-1.66,2.87,2.87,0,0,1-.9-.59,2.82,2.82,0,0,1-.59-.89,3,3,0,0,0-1.65-1.65s0,0-.07.15a2.16,2.16,0,0,0-.06.38,1.34,1.34,0,0,0,0,.4.27.27,0,0,0,.13.25,2.87,2.87,0,0,1,.9.59,3,3,0,0,1,.6.89,3.15,3.15,0,0,0,1.64,1.65,2.9,2.9,0,0,1,.54.31,4.25,4.25,0,0,1,.46.4,3.16,3.16,0,0,0-1,1.19,3,3,0,0,0-.65-.9,2.9,2.9,0,0,0-.92-.61,2.73,2.73,0,0,1-.9-.6,2.78,2.78,0,0,1-.59-.88c0-.06-.05-.09-.07-.08a.1.1,0,0,0-.07.06s0,.08,0,.13A.51.51,0,0,0,12.44,19Zm4.84-.68a2.54,2.54,0,0,1,.9.6,2.65,2.65,0,0,1,.6.88,3.43,3.43,0,0,0,.66,1,3.26,3.26,0,0,0,1,.67v0s.05,0,.07-.07a2.69,2.69,0,0,1,.6-.89,2.66,2.66,0,0,1,.9-.59,2.87,2.87,0,0,1,.9.59,2.82,2.82,0,0,1,.59.89,3.34,3.34,0,0,0,.67,1,2.94,2.94,0,0,0,1,.67s0,0,.07-.15a2.16,2.16,0,0,0,.06-.38,2.67,2.67,0,0,0,0-.4.29.29,0,0,0-.13-.25,2.87,2.87,0,0,1-.9-.59,2.93,2.93,0,0,1-.6-.88A3,3,0,0,0,22,18.67a3.28,3.28,0,0,0-.95.63,3.45,3.45,0,0,0-.65.93,2.8,2.8,0,0,1-1.18-1,2.91,2.91,0,0,1,1.21-1,3,3,0,0,0,.92-.6,3.34,3.34,0,0,0,.65-.91,3.11,3.11,0,0,0,.64.91,3.23,3.23,0,0,0,.93.6,2.73,2.73,0,0,1,.9.6,2.78,2.78,0,0,1,.59.88c0,.06.05.09.07.08s0,0,.07-.06,0-.08.05-.13a.34.34,0,0,0,0-.09,2.54,2.54,0,0,0,0-.41,1,1,0,0,0-.08-.39,3.19,3.19,0,0,0-.66-1,3.37,3.37,0,0,0-1-.68,2.66,2.66,0,0,1-.9-.59,2.75,2.75,0,0,1-.6-.88c0-.06-.05-.09-.07-.08s-.05,0-.08.08a2.75,2.75,0,0,1-.6.88,2.71,2.71,0,0,1-.89.59,3,3,0,0,0-1.58,1.52,3.11,3.11,0,0,0-.64-.91,3.48,3.48,0,0,0-.93-.61s0,0-.07.16a2,2,0,0,0-.06.38,2.67,2.67,0,0,0,0,.4A.26.26,0,0,0,17.28,18.28Zm1.45-5.59a2.63,2.63,0,0,0,0,.41.93.93,0,0,0,.08.39,3.43,3.43,0,0,0,.66,1,3.26,3.26,0,0,0,1,.67h0s.05,0,.07-.08a2.65,2.65,0,0,1,.6-.88,2.54,2.54,0,0,1,.9-.6,2.73,2.73,0,0,1,.9.6,2.78,2.78,0,0,1,.59.88,3.26,3.26,0,0,0,.67,1,3.1,3.1,0,0,0,1,.67s0,0,.07-.16a2,2,0,0,0,.06-.38,2.67,2.67,0,0,0,0-.4.26.26,0,0,0-.13-.24,2.73,2.73,0,0,1-.9-.6,2.81,2.81,0,0,1-.6-.88A3,3,0,0,0,22,12.4a3.12,3.12,0,0,0-.95.64,3.39,3.39,0,0,0-.65.92,2.65,2.65,0,0,1-1.47-1.47c0-.06-.05-.08-.07-.08a.17.17,0,0,0-.06.06.5.5,0,0,0-.05.13A.23.23,0,0,0,18.73,12.69ZM12.57,23a2.73,2.73,0,0,1,.9.6,3,3,0,0,1,.6.88,3.24,3.24,0,0,0,.66,1,3.34,3.34,0,0,0,1,.67,3,3,0,0,0,.94-.64,3.22,3.22,0,0,0,.66-.92A2.65,2.65,0,0,1,18.78,26c0,.06,0,.08.07.08s0,0,.06-.06a.5.5,0,0,0,.05-.13.81.81,0,0,0,0-.09,2.68,2.68,0,0,0,0-.41.94.94,0,0,0-.07-.39,3.26,3.26,0,0,0-.67-1,3.1,3.1,0,0,0-1-.67h0s-.06,0-.07.08a2.65,2.65,0,0,1-.6.88,2.54,2.54,0,0,1-.9.6,2.73,2.73,0,0,1-.9-.6,2.78,2.78,0,0,1-.59-.88,3.08,3.08,0,0,0-1.65-1.66s0,.05-.07.16a2,2,0,0,0-.06.38,1.34,1.34,0,0,0,0,.4C12.45,22.87,12.49,23,12.57,23Zm-.13-10.29c0,.13,0,.26,0,.41a.94.94,0,0,0,.07.39,3.26,3.26,0,0,0,.67,1,3.22,3.22,0,0,0,1,.67,2.72,2.72,0,0,1,1.5,1.48c0,.07,0,.09.07.07s0,0,.08-.07a2.65,2.65,0,0,1,1.47-1.47,3.19,3.19,0,0,0,.65.92,3.07,3.07,0,0,0,.94.64s0,0,.07-.16a3.25,3.25,0,0,0,.07-.38,2.67,2.67,0,0,0,0-.4c0-.13-.06-.21-.14-.24a2.59,2.59,0,0,1-.89-.6,2.65,2.65,0,0,1-.6-.88c0-.06-.05-.09-.08-.09a2.9,2.9,0,0,0-.92.61,3.2,3.2,0,0,0-.65.91,3,3,0,0,0-.65-.91,2.9,2.9,0,0,0-.92-.61,2.87,2.87,0,0,1-.9-.59,2.82,2.82,0,0,1-.59-.89c0-.06-.05-.08-.07-.08a.19.19,0,0,0-.07.06s0,.08,0,.13Z" style="fill:#231f20"/><path d="M-.13,25.83a.81.81,0,0,0,0,.09s0,.09.05.13,0,.06.07.06,0,0,.07-.08a2.82,2.82,0,0,1,.59-.89,2.87,2.87,0,0,1,.9-.59,3.1,3.1,0,0,0,1-.67,3.26,3.26,0,0,0,.67-1,2.75,2.75,0,0,1,.6-.88,2.71,2.71,0,0,1,.89-.59l0,0,0,0A.56.56,0,0,0,4.86,21a1.82,1.82,0,0,0,0-.33.73.73,0,0,0-.07-.3,3.26,3.26,0,0,0-.67-1,3.1,3.1,0,0,0-1-.67,2.17,2.17,0,0,1-.53-.31,3.47,3.47,0,0,1-.46-.4,3,3,0,0,0,1-1.19,3.34,3.34,0,0,0,.65.91,3,3,0,0,0,.92.6,2.54,2.54,0,0,1,.9.6,2.65,2.65,0,0,1,.6.88,3.26,3.26,0,0,0,.67,1,3.1,3.1,0,0,0,1,.67,2.71,2.71,0,0,1,.89.59,2.75,2.75,0,0,1,.6.88,3.26,3.26,0,0,0,.67,1,3.1,3.1,0,0,0,1,.67,2.87,2.87,0,0,1,.9.59,2.82,2.82,0,0,1,.59.89c0,.06,0,.08.07.08s0,0,.07-.06,0-.08,0-.13a.81.81,0,0,0,0-.09c0-.13,0-.26,0-.41a.8.8,0,0,0-.08-.39A3.07,3.07,0,0,0,12,24a3.22,3.22,0,0,0-1-.67,2.72,2.72,0,0,1-1.5-1.48,3,3,0,0,0-1.64-1.65,2.54,2.54,0,0,1-.9-.6,2.65,2.65,0,0,1-.6-.88,3.15,3.15,0,0,0-1.07-1.33A3.55,3.55,0,0,1,5.75,17a2.5,2.5,0,0,1,.53-.3,2.66,2.66,0,0,1,.9.59,2.69,2.69,0,0,1,.6.89c0,.05,0,.08.08.08a3.16,3.16,0,0,0,1-.67,3.31,3.31,0,0,0,.66-1,1,1,0,0,0,.08-.4,2.5,2.5,0,0,0,0-.4.24.24,0,0,0,0-.1.43.43,0,0,0,0-.12.14.14,0,0,0-.06-.07s0,0-.07.09a2.67,2.67,0,0,1-1.47,1.46,3.19,3.19,0,0,0-.65-.92,3.15,3.15,0,0,0-1-.63,3.23,3.23,0,0,0-.94.63,3.19,3.19,0,0,0-.65.92,2.67,2.67,0,0,1-1.47-1.46c0-.06-.05-.09-.08-.08s-.05,0-.07.08a2.75,2.75,0,0,1-1.5,1.47,3.25,3.25,0,0,0-1,.68,3.22,3.22,0,0,0-.67,1,1,1,0,0,0-.07.39c0,.15,0,.29,0,.41a.51.51,0,0,0,0,.09c0,.05,0,.09.05.13a.1.1,0,0,0,.07.06s0,0,.07-.08A2.67,2.67,0,0,1,1.55,18.3a3.14,3.14,0,0,0,.65.92,3.23,3.23,0,0,0,.94.63,2.61,2.61,0,0,1,.54.31,4.25,4.25,0,0,1,.46.4,3.21,3.21,0,0,0-1.07,1.33,2.69,2.69,0,0,1-.6.89,2.76,2.76,0,0,1-.9.59,3.22,3.22,0,0,0-1,.67,3.26,3.26,0,0,0-.67,1,.94.94,0,0,0-.07.39C-.15,25.57-.14,25.7-.13,25.83ZM4.71,15.15a2.94,2.94,0,0,0,.93-.61,3,3,0,0,0,.64-.91,3.2,3.2,0,0,0,.65.91,2.94,2.94,0,0,0,.93.61h0s.06,0,.07-.08a2.65,2.65,0,0,1,.6-.88,2.54,2.54,0,0,1,.9-.6,2.73,2.73,0,0,1,.9.6,2.78,2.78,0,0,1,.59.88,3,3,0,0,0,.33.59,2.83,2.83,0,0,0,.43.48,3.2,3.2,0,0,0-.43.47,3.74,3.74,0,0,0-.33.59,2.82,2.82,0,0,1-.59.89,2.87,2.87,0,0,1-.9.59c-.07,0-.11.11-.14.22a1.15,1.15,0,0,0,0,.37,1.15,1.15,0,0,0,0,.37c0,.11.07.19.14.22a2.87,2.87,0,0,1,.9.59,2.82,2.82,0,0,1,.59.89,3.34,3.34,0,0,0,.67,1,3,3,0,0,0,1,.67s0,0,.07-.15a2.16,2.16,0,0,0,.06-.38,2.67,2.67,0,0,0,0-.4.29.29,0,0,0-.13-.25,2.87,2.87,0,0,1-.9-.59,3.12,3.12,0,0,1-.6-.88,3,3,0,0,0-.32-.59,2.83,2.83,0,0,0-.43-.48,2.83,2.83,0,0,0,.43-.48,3.22,3.22,0,0,0,.32-.58,3,3,0,0,1,.6-.89,2.87,2.87,0,0,1,.9-.59.29.29,0,0,0,.13-.22,1.51,1.51,0,0,0,0-.37,1.48,1.48,0,0,0,0-.37c0-.12-.06-.19-.13-.22a2.73,2.73,0,0,1-.9-.6,3,3,0,0,1-.6-.88A3,3,0,0,0,9.43,12.4a3.12,3.12,0,0,0-.95.64,3.39,3.39,0,0,0-.65.92,2.65,2.65,0,0,1-1.47-1.47c0-.06-.05-.08-.08-.07s0,0-.07.07a2.69,2.69,0,0,1-.6.89,2.66,2.66,0,0,1-.9.59.28.28,0,0,0-.13.25,2.67,2.67,0,0,0,0,.4,3.58,3.58,0,0,0,.06.37C4.67,15.11,4.7,15.16,4.71,15.15Zm-1.57,11a3.1,3.1,0,0,0,1-.67,3.26,3.26,0,0,0,.67-1,2.65,2.65,0,0,1,.6-.88,2.59,2.59,0,0,1,.89-.6,2.54,2.54,0,0,1,.9.6,2.65,2.65,0,0,1,.6.88,3.26,3.26,0,0,0,.67,1,3.1,3.1,0,0,0,1,.67s0-.05.07-.16a2,2,0,0,0,.06-.38,2.67,2.67,0,0,0,0-.4.26.26,0,0,0-.13-.24,2.54,2.54,0,0,1-.9-.6,2.65,2.65,0,0,1-.6-.88A3.05,3.05,0,0,0,6.28,21.8a3.55,3.55,0,0,0-1,.67,3.43,3.43,0,0,0-.66,1,2.65,2.65,0,0,1-.6.88,2.54,2.54,0,0,1-.9.6.26.26,0,0,0-.13.24,2.67,2.67,0,0,0,0,.4,2,2,0,0,0,.06.38C3.1,26.07,3.13,26.12,3.14,26.12ZM0,16.72a3.22,3.22,0,0,0,1-.67,3.26,3.26,0,0,0,.67-1,2.78,2.78,0,0,1,.59-.88,2.73,2.73,0,0,1,.9-.6c.08,0,.12-.11.13-.24a1.34,1.34,0,0,0,0-.4,2,2,0,0,0-.06-.38c0-.11,0-.16-.07-.16a3.37,3.37,0,0,0-1,.68,3.19,3.19,0,0,0-.66,1,2.81,2.81,0,0,1-.6.88,2.73,2.73,0,0,1-.9.6c-.08,0-.12.11-.13.24a2.67,2.67,0,0,0,0,.4,2,2,0,0,0,.06.38C0,16.67,0,16.72,0,16.72ZM0,23a3,3,0,0,0,1-.67,3.34,3.34,0,0,0,.67-1,1,1,0,0,0,.07-.4c0-.14,0-.28,0-.4a.84.84,0,0,0,0-.1.43.43,0,0,0-.05-.12.14.14,0,0,0-.06-.07s-.05,0-.07.09a2.93,2.93,0,0,1-.6.88,2.87,2.87,0,0,1-.9.59.27.27,0,0,0-.13.25,2.67,2.67,0,0,0,0,.4,2.16,2.16,0,0,0,.06.38C0,22.94,0,23,0,23Z" style="fill:#231f20"/><path d="M.13,12.88a1,1,0,0,0-.08-.4,3.52,3.52,0,0,0-.66-1,3.16,3.16,0,0,0-1-.67,2.63,2.63,0,0,1-.9-.6,2.81,2.81,0,0,1-.6-.88A3.21,3.21,0,0,0-4.15,8a3,3,0,0,1,.46-.41,2.5,2.5,0,0,1,.53-.3,3.07,3.07,0,0,0,.94-.64,3.19,3.19,0,0,0,.65-.92A2.65,2.65,0,0,1-.1,7.22c0,.06.05.08.07.08s0,0,.06-.06a.5.5,0,0,0,.05-.13A.81.81,0,0,0,.1,7a2.63,2.63,0,0,0,0-.41.93.93,0,0,0-.08-.39,3.43,3.43,0,0,0-.66-1,3.34,3.34,0,0,0-1-.67A2.76,2.76,0,0,1-2.49,4a2.85,2.85,0,0,1-.6-.89C-3.11,3-3.14,3-3.16,3s0,0-.08.07A2.65,2.65,0,0,1-4.71,4.55a3,3,0,0,0-.65-.92A2.88,2.88,0,0,0-6.3,3a2.88,2.88,0,0,0-.94.63,3,3,0,0,0-.65.92A2.65,2.65,0,0,1-9.36,3.08C-9.39,3-9.41,3-9.43,3a.17.17,0,0,0-.06.06.5.5,0,0,0,0,.13l0,.09a2.63,2.63,0,0,0,0,.41,1,1,0,0,0,.08.4,3.52,3.52,0,0,0,.66,1,3.34,3.34,0,0,0,1,.67s0,0,.08-.09a2.78,2.78,0,0,1,.59-.88,2.9,2.9,0,0,1,.9-.6,3.07,3.07,0,0,1,.53.31,3,3,0,0,1,.46.41A3.21,3.21,0,0,0-6.37,6.22,2.93,2.93,0,0,1-7,7.1a2.76,2.76,0,0,1-.9.59A3.07,3.07,0,0,0-9.51,9.35a2.65,2.65,0,0,1-.6.88,2.59,2.59,0,0,1-.89.6,2.94,2.94,0,0,0-1,.67,3.34,3.34,0,0,0-.67,1,1,1,0,0,0-.07.4c0,.14,0,.28,0,.4a.84.84,0,0,0,0,.1.43.43,0,0,0,0,.12.14.14,0,0,0,.06.07s.05,0,.07-.08a2.69,2.69,0,0,1,.6-.89A2.66,2.66,0,0,1-11,12a3.34,3.34,0,0,0,1-.67,3.43,3.43,0,0,0,.66-1,2.65,2.65,0,0,1,.6-.88,2.59,2.59,0,0,1,.89-.6,2.94,2.94,0,0,0,1-.67,3.34,3.34,0,0,0,.67-1,2.67,2.67,0,0,1,.59-.88,2.73,2.73,0,0,1,.9-.6,2.9,2.9,0,0,0,.92-.61,3,3,0,0,0,.65-.91,3,3,0,0,0,1,1.19,3,3,0,0,1-.46.41,3.07,3.07,0,0,1-.53.31,3.22,3.22,0,0,0-1,.67,3.34,3.34,0,0,0-.67,1,1,1,0,0,0-.07.31,1.82,1.82,0,0,0,0,.33.58.58,0,0,0,.11.4l0,0h0a2.73,2.73,0,0,1,.9.6,2.78,2.78,0,0,1,.59.88,3.26,3.26,0,0,0,.67,1,3.1,3.1,0,0,0,1,.67,2.71,2.71,0,0,1,.89.59,2.69,2.69,0,0,1,.6.89s.05.08.07.08A.14.14,0,0,0,0,13.5a.43.43,0,0,0,.05-.12.84.84,0,0,0,0-.1A2.5,2.5,0,0,0,.13,12.88ZM-4.66,2.45a2,2,0,0,0,.06-.38,2.67,2.67,0,0,0,0-.4c0-.13-.05-.21-.13-.24a2.73,2.73,0,0,1-.9-.6A2.78,2.78,0,0,1-6.22,0c0-.06,0-.08-.08-.08s0,0-.07.08A2.78,2.78,0,0,1-7.84,1.42,3.45,3.45,0,0,0-8.49.49a3.28,3.28,0,0,0-.95-.63,3.07,3.07,0,0,0-1.64,1.66,2.75,2.75,0,0,1-.6.88,2.91,2.91,0,0,1-.89.6.25.25,0,0,0-.13.21,1.14,1.14,0,0,0,0,.37,1.12,1.12,0,0,0,0,.37c0,.12.06.19.13.22a2.74,2.74,0,0,1,.89.6,2.65,2.65,0,0,1,.6.88,2.58,2.58,0,0,0,.33.59,2.41,2.41,0,0,0,.42.48,2.67,2.67,0,0,0-.42.47,3.08,3.08,0,0,0-.33.59,2.69,2.69,0,0,1-.6.89,2.71,2.71,0,0,1-.89.59c-.08,0-.12.12-.13.25a1.34,1.34,0,0,0,0,.4,2,2,0,0,0,.06.37c0,.12.05.17.07.16a3.34,3.34,0,0,0,1-.67,3.43,3.43,0,0,0,.66-1,2.75,2.75,0,0,1,.6-.88,2.71,2.71,0,0,1,.89-.59.33.33,0,0,0,.14-.22,1.15,1.15,0,0,0,0-.37,1.14,1.14,0,0,0,0-.37c0-.12-.07-.19-.14-.22a2.59,2.59,0,0,1-.89-.6,2.65,2.65,0,0,1-.6-.88,2.81,2.81,0,0,0-.33-.59,2.73,2.73,0,0,0-.42-.48,2.67,2.67,0,0,0,.42-.47,2.81,2.81,0,0,0,.33-.59,2.69,2.69,0,0,1,.6-.89A2.71,2.71,0,0,1-9.44,1a2.66,2.66,0,0,1,.9.59,2.85,2.85,0,0,1,.6.89s0,.07.07.07v0A3.26,3.26,0,0,0-6.94,2a3.31,3.31,0,0,0,.64-.91A3.14,3.14,0,0,0-5.65,2a3.08,3.08,0,0,0,.92.61S-4.69,2.56-4.66,2.45Zm1.57,11A2.16,2.16,0,0,0-3,13a2.67,2.67,0,0,0,0-.4.29.29,0,0,0-.13-.25,2.87,2.87,0,0,1-.9-.59,2.89,2.89,0,0,1-.59-.88,3.26,3.26,0,0,0-.67-1,3.22,3.22,0,0,0-1-.67,3,3,0,0,0-1.64,1.66,2.93,2.93,0,0,1-.6.88,2.66,2.66,0,0,1-.9.59.32.32,0,0,0-.13.25,2.67,2.67,0,0,0,0,.4,3.7,3.7,0,0,0,.07.38c0,.11.05.16.06.15a2.94,2.94,0,0,0,1-.67,3.34,3.34,0,0,0,.67-1A2.82,2.82,0,0,1-7.2,11a2.87,2.87,0,0,1,.9-.59,2.87,2.87,0,0,1,.9.59,2.82,2.82,0,0,1,.59.89,3.34,3.34,0,0,0,.67,1,3,3,0,0,0,1,.67S-3.12,13.53-3.09,13.42ZM0,4a3.7,3.7,0,0,0,.07-.38,2.67,2.67,0,0,0,0-.4C.09,3.11.05,3,0,3a2.84,2.84,0,0,1-.9-.6,2.75,2.75,0,0,1-.6-.88,3.43,3.43,0,0,0-.66-1,3.34,3.34,0,0,0-1-.67s0,.05-.07.16a2,2,0,0,0-.06.37,1.41,1.41,0,0,0,0,.41c0,.13,0,.21.13.24a2.87,2.87,0,0,1,.9.59,2.82,2.82,0,0,1,.59.89A3.34,3.34,0,0,0-1,3.5a2.94,2.94,0,0,0,1,.67S0,4.13,0,4Zm0,6.26a3.49,3.49,0,0,0,.07-.37,2.67,2.67,0,0,0,0-.4c0-.13-.06-.22-.13-.25a2.66,2.66,0,0,1-.9-.59,2.69,2.69,0,0,1-.6-.89c0-.06-.05-.08-.07-.08l-.06.06a.5.5,0,0,0-.05.13c0,.05,0,.08,0,.09a2.68,2.68,0,0,0,0,.41.94.94,0,0,0,.07.39,3.26,3.26,0,0,0,.67,1,3.1,3.1,0,0,0,1,.67S0,10.4,0,10.28Z" style="fill:#231f20"/><path d="M-12.7,19c0,.12,0,.26,0,.41a1,1,0,0,0,.07.39,3.26,3.26,0,0,0,.67,1,3.22,3.22,0,0,0,1,.67,2.76,2.76,0,0,1,.9.59,2.75,2.75,0,0,1,.6.88c0,.07.05.1.07.08s0,0,.08-.08a2.67,2.67,0,0,1,1.47-1.46,3.19,3.19,0,0,0,.65.92,3.23,3.23,0,0,0,.94.63,2.54,2.54,0,0,1,.9.6,2.65,2.65,0,0,1,.6.88c0,.06,0,.09.08.09a2.9,2.9,0,0,0,.92-.61A3.2,3.2,0,0,0-3.14,23a3,3,0,0,0,.64.91,3.06,3.06,0,0,0,.93.61,2.87,2.87,0,0,1,.9.59A2.82,2.82,0,0,1-.08,26c0,.06.05.08.07.08s0,0,.07-.06,0-.08.05-.13a.81.81,0,0,0,0-.09c0-.13,0-.26,0-.41A.8.8,0,0,0,.07,25a3.07,3.07,0,0,0-.66-1,3.22,3.22,0,0,0-1-.67,2.66,2.66,0,0,1-.9-.59,2.85,2.85,0,0,1-.6-.89c0-.06-.05-.08-.07-.07s0,0-.08.07a2.65,2.65,0,0,1-1.47,1.47,3.19,3.19,0,0,0-.65-.92,3,3,0,0,0-1-.64,2.71,2.71,0,0,1-.89-.59,2.75,2.75,0,0,1-.6-.88,3.08,3.08,0,0,0-1.65-1.66,2.87,2.87,0,0,1-.9-.59,2.82,2.82,0,0,1-.59-.89,3,3,0,0,0-1.65-1.65s0,0-.07.15a2.16,2.16,0,0,0-.06.38,2.67,2.67,0,0,0,0,.4.27.27,0,0,0,.13.25,2.87,2.87,0,0,1,.9.59,2.85,2.85,0,0,1,.6.89,3.31,3.31,0,0,0,.66,1,3.34,3.34,0,0,0,1,.67,2.61,2.61,0,0,1,.54.31,4.25,4.25,0,0,1,.46.4,3.16,3.16,0,0,0-1,1.19,2.94,2.94,0,0,0-.64-.9,3.06,3.06,0,0,0-.93-.61,2.73,2.73,0,0,1-.9-.6,2.78,2.78,0,0,1-.59-.88c0-.06,0-.09-.07-.08a.1.1,0,0,0-.07.06s0,.08,0,.13A.51.51,0,0,0-12.7,19Zm4.84-.68a2.54,2.54,0,0,1,.9.6,2.65,2.65,0,0,1,.6.88,3.26,3.26,0,0,0,.67,1,3.1,3.1,0,0,0,1,.67v0s0,0,.07-.07a2.69,2.69,0,0,1,.6-.89,2.66,2.66,0,0,1,.9-.59,2.87,2.87,0,0,1,.9.59,2.82,2.82,0,0,1,.59.89,3.34,3.34,0,0,0,.67,1A3,3,0,0,0,0,23s0,0,.07-.15a2.16,2.16,0,0,0,.06-.38,2.67,2.67,0,0,0,0-.4A.29.29,0,0,0,0,21.8a2.87,2.87,0,0,1-.9-.59,3.12,3.12,0,0,1-.6-.88,3,3,0,0,0-1.64-1.66,3.28,3.28,0,0,0-.95.63,3.45,3.45,0,0,0-.65.93,2.8,2.8,0,0,1-1.18-1,2.91,2.91,0,0,1,1.21-1,3,3,0,0,0,.92-.6,3.34,3.34,0,0,0,.65-.91,3.11,3.11,0,0,0,.64.91,3.23,3.23,0,0,0,.93.6,2.73,2.73,0,0,1,.9.6,2.78,2.78,0,0,1,.59.88c0,.06.05.09.07.08s0,0,.07-.06,0-.08.05-.13a.51.51,0,0,0,0-.09c0-.12,0-.26,0-.41a.85.85,0,0,0-.08-.39,3,3,0,0,0-.66-1,3.25,3.25,0,0,0-1-.68,2.66,2.66,0,0,1-.9-.59,2.93,2.93,0,0,1-.6-.88c0-.06-.05-.09-.07-.08s0,0-.08.08a2.75,2.75,0,0,1-.6.88,2.71,2.71,0,0,1-.89.59,3.33,3.33,0,0,0-.93.61,3.34,3.34,0,0,0-.65.91,3.11,3.11,0,0,0-.64-.91,3.33,3.33,0,0,0-.93-.61s0,0-.07.16a3.38,3.38,0,0,0-.06.38A2.67,2.67,0,0,0-8,18,.26.26,0,0,0-7.86,18.28Zm1.45-5.59a2.63,2.63,0,0,0,0,.41.93.93,0,0,0,.08.39,3.26,3.26,0,0,0,.67,1,3.1,3.1,0,0,0,1,.67h0s0,0,.07-.08a2.65,2.65,0,0,1,.6-.88,2.54,2.54,0,0,1,.9-.6,2.73,2.73,0,0,1,.9.6,2.78,2.78,0,0,1,.59.88,3.26,3.26,0,0,0,.67,1,3.22,3.22,0,0,0,1,.67s0,0,.07-.16a2,2,0,0,0,.06-.38,2.67,2.67,0,0,0,0-.4A.26.26,0,0,0,0,15.54a2.73,2.73,0,0,1-.9-.6,3,3,0,0,1-.6-.88A3,3,0,0,0-3.14,12.4a3.12,3.12,0,0,0-.95.64,3.39,3.39,0,0,0-.65.92,2.65,2.65,0,0,1-1.47-1.47c0-.06,0-.08-.07-.08a.17.17,0,0,0-.06.06.5.5,0,0,0,0,.13ZM-12.57,23a2.73,2.73,0,0,1,.9.6,2.81,2.81,0,0,1,.6.88,3.24,3.24,0,0,0,.66,1,3.34,3.34,0,0,0,1,.67,3.12,3.12,0,0,0,.95-.64,3.39,3.39,0,0,0,.65-.92A2.65,2.65,0,0,1-6.36,26c0,.06.05.08.07.08s0,0,.06-.06a.5.5,0,0,0,.05-.13.81.81,0,0,0,0-.09,2.63,2.63,0,0,0,0-.41A.93.93,0,0,0-6.21,25a3.26,3.26,0,0,0-.67-1,3.1,3.1,0,0,0-1-.67h0s0,0-.07.08a2.65,2.65,0,0,1-.6.88,2.54,2.54,0,0,1-.9.6,2.73,2.73,0,0,1-.9-.6,2.78,2.78,0,0,1-.59-.88,3.08,3.08,0,0,0-1.65-1.66s0,.05-.07.16a2,2,0,0,0-.06.38,2.67,2.67,0,0,0,0,.4C-12.69,22.87-12.65,23-12.57,23Zm-.13-10.29c0,.13,0,.26,0,.41a.94.94,0,0,0,.07.39,3.26,3.26,0,0,0,.67,1,3.22,3.22,0,0,0,1,.67,2.76,2.76,0,0,1,.9.59,2.69,2.69,0,0,1,.6.89c0,.07.05.09.07.07s0,0,.08-.07a2.65,2.65,0,0,1,1.47-1.47,3.19,3.19,0,0,0,.65.92,3.07,3.07,0,0,0,.94.64s0,0,.07-.16a3.25,3.25,0,0,0,.07-.38,2.67,2.67,0,0,0,0-.4c0-.13-.06-.21-.14-.24a2.59,2.59,0,0,1-.89-.6,2.65,2.65,0,0,1-.6-.88c0-.06,0-.09-.08-.09a2.9,2.9,0,0,0-.92.61,3.2,3.2,0,0,0-.65.91,3,3,0,0,0-.64-.91A3.06,3.06,0,0,0-11,14a2.87,2.87,0,0,1-.9-.59,2.82,2.82,0,0,1-.59-.89c0-.06,0-.08-.07-.08a.19.19,0,0,0-.07.06s0,.08,0,.13Z" style="fill:#231f20"/><path d="M25-.15a.51.51,0,0,0,0,.09s0,.09,0,.13a.1.1,0,0,0,.07.06s0,0,.07-.08a2.78,2.78,0,0,1,.59-.88,2.73,2.73,0,0,1,.9-.6,3.1,3.1,0,0,0,1-.67,3.34,3.34,0,0,0,.67-1A2.82,2.82,0,0,1,29-4a2.87,2.87,0,0,1,.9-.59h0s0,0,0,0A.55.55,0,0,0,30-5a1.82,1.82,0,0,0,0-.33.74.74,0,0,0-.07-.31,3.26,3.26,0,0,0-.67-1,3.1,3.1,0,0,0-1-.67,2.5,2.5,0,0,1-.53-.3A3,3,0,0,1,27.29-8a3,3,0,0,0,1-1.19,3.34,3.34,0,0,0,.65.91,3.08,3.08,0,0,0,.92.61,2.66,2.66,0,0,1,.9.59,2.75,2.75,0,0,1,.6.88,3.26,3.26,0,0,0,.67,1,3.17,3.17,0,0,0,1,.67,2.66,2.66,0,0,1,.9.59,2.69,2.69,0,0,1,.6.89,3.34,3.34,0,0,0,.67,1,3.1,3.1,0,0,0,1,.67,2.73,2.73,0,0,1,.9.6,2.78,2.78,0,0,1,.59.88c0,.06,0,.09.07.08s0,0,.07-.06,0-.08,0-.13a.34.34,0,0,0,0-.09,2.63,2.63,0,0,0,0-.41,1,1,0,0,0-.08-.39,3.24,3.24,0,0,0-.66-1,3.34,3.34,0,0,0-1-.67,2.66,2.66,0,0,1-.9-.59,2.69,2.69,0,0,1-.6-.89A3,3,0,0,0,33-5.74a2.71,2.71,0,0,1-.89-.59,2.69,2.69,0,0,1-.6-.89,3.3,3.3,0,0,0-1.07-1.33,3.47,3.47,0,0,1,.46-.4,2.17,2.17,0,0,1,.53-.31,2.66,2.66,0,0,1,.9.59,2.69,2.69,0,0,1,.6.89c0,.06,0,.09.07.09a3.46,3.46,0,0,0,1-.67,3.43,3.43,0,0,0,.66-1,1,1,0,0,0,.08-.39,2.54,2.54,0,0,0,0-.41.24.24,0,0,0,0-.1.61.61,0,0,0-.05-.12s0-.06-.06-.06,0,0-.07.08A2.67,2.67,0,0,1,33-8.89a3.33,3.33,0,0,0-.65-.92,3.28,3.28,0,0,0-.95-.63,3.23,3.23,0,0,0-.94.63,3.33,3.33,0,0,0-.65.92,2.67,2.67,0,0,1-1.47-1.46c0-.06-.05-.08-.08-.08s-.05,0-.07.08a2.81,2.81,0,0,1-.6.88,2.73,2.73,0,0,1-.9.6,3,3,0,0,0-1,.67,3.34,3.34,0,0,0-.67,1,1,1,0,0,0-.07.4c0,.14,0,.28,0,.4a.84.84,0,0,0,0,.1s0,.09,0,.12a.15.15,0,0,0,.07.07s0,0,.07-.09a2.67,2.67,0,0,1,1.47-1.46,3,3,0,0,0,.65.92,3.23,3.23,0,0,0,.94.63,3.16,3.16,0,0,1,.54.31,4.36,4.36,0,0,1,.46.41,3.19,3.19,0,0,0-1.07,1.32,2.85,2.85,0,0,1-.6.89,2.87,2.87,0,0,1-.9.59,3.22,3.22,0,0,0-1,.67,3.26,3.26,0,0,0-.67,1A1,1,0,0,0,25-.56C25-.41,25-.28,25-.15Zm4.84-10.68a2.94,2.94,0,0,0,.93-.61,2.94,2.94,0,0,0,.64-.9,3.15,3.15,0,0,0,.65.9,3,3,0,0,0,.92.61h0s.06,0,.08-.08a2.75,2.75,0,0,1,.6-.88,2.66,2.66,0,0,1,.9-.59,2.71,2.71,0,0,1,.89.59,2.75,2.75,0,0,1,.6.88,2.58,2.58,0,0,0,.33.59,2.46,2.46,0,0,0,.43.48,2.46,2.46,0,0,0-.43.48,2.58,2.58,0,0,0-.33.59,2.75,2.75,0,0,1-.6.88,2.71,2.71,0,0,1-.89.59.33.33,0,0,0-.14.22,1.15,1.15,0,0,0,0,.37,1.14,1.14,0,0,0,0,.37c0,.12.07.19.14.22a2.59,2.59,0,0,1,.89.6,2.65,2.65,0,0,1,.6.88,3.22,3.22,0,0,0,.67,1,3.13,3.13,0,0,0,1,.68s0,0,.07-.16a2,2,0,0,0,.06-.38,2.67,2.67,0,0,0,0-.4.26.26,0,0,0-.13-.24,2.73,2.73,0,0,1-.9-.6,2.81,2.81,0,0,1-.6-.88,3,3,0,0,0-.32-.59,3.28,3.28,0,0,0-.43-.48,3.2,3.2,0,0,0,.43-.47,3.31,3.31,0,0,0,.32-.59,2.85,2.85,0,0,1,.6-.89,2.87,2.87,0,0,1,.9-.59.27.27,0,0,0,.13-.22,1.5,1.5,0,0,0,0-.37,1.5,1.5,0,0,0,0-.37.27.27,0,0,0-.13-.22,2.87,2.87,0,0,1-.9-.59,2.85,2.85,0,0,1-.6-.89,3,3,0,0,0-1.64-1.65,3.28,3.28,0,0,0-1,.63A3.39,3.39,0,0,0,33-12a2.67,2.67,0,0,1-1.47-1.46c0-.06-.05-.09-.08-.08s-.05,0-.07.08a2.75,2.75,0,0,1-.6.88,2.66,2.66,0,0,1-.9.59.29.29,0,0,0-.13.25,2.67,2.67,0,0,0,0,.4,3.79,3.79,0,0,0,.06.38C29.81-10.87,29.84-10.82,29.85-10.83ZM28.28.14a3.1,3.1,0,0,0,1-.67,3.26,3.26,0,0,0,.67-1,2.75,2.75,0,0,1,.6-.88A2.71,2.71,0,0,1,31.42-3a2.66,2.66,0,0,1,.9.59,2.75,2.75,0,0,1,.6.88,3.26,3.26,0,0,0,.67,1,3.1,3.1,0,0,0,1,.67s0-.05.07-.16a3.58,3.58,0,0,0,.06-.37,2.8,2.8,0,0,0,0-.41A.27.27,0,0,0,34.57-1a2.66,2.66,0,0,1-.9-.59,2.69,2.69,0,0,1-.6-.89,3,3,0,0,0-1.65-1.65,3.16,3.16,0,0,0-1,.67,3.52,3.52,0,0,0-.66,1,2.69,2.69,0,0,1-.6.89,2.66,2.66,0,0,1-.9.59.27.27,0,0,0-.13.24,2.8,2.8,0,0,0,0,.41,2,2,0,0,0,.06.37C28.24.09,28.27.15,28.28.14Zm-3.14-9.4a3.22,3.22,0,0,0,1-.67,3.26,3.26,0,0,0,.67-1,2.89,2.89,0,0,1,.59-.88,2.87,2.87,0,0,1,.9-.59.27.27,0,0,0,.13-.25,1.34,1.34,0,0,0,0-.4,2.16,2.16,0,0,0-.06-.38c0-.11-.05-.16-.07-.15a3.16,3.16,0,0,0-1,.67,3.31,3.31,0,0,0-.66,1A3,3,0,0,1,26-11a2.87,2.87,0,0,1-.9.59c-.08,0-.12.12-.13.25a1.34,1.34,0,0,0,0,.4,2,2,0,0,0,.06.37C25.1-9.31,25.12-9.25,25.14-9.26Zm0,6.27a3.25,3.25,0,0,0,1-.68,3.22,3.22,0,0,0,.67-1A1,1,0,0,0,26.86-5c0-.15,0-.29,0-.41a.84.84,0,0,0,0-.1.61.61,0,0,0-.05-.12s0-.06-.07-.06,0,0-.06.08a3,3,0,0,1-.6.88,2.73,2.73,0,0,1-.9.6c-.08,0-.12.11-.13.24a1.34,1.34,0,0,0,0,.4,2,2,0,0,0,.06.38C25.1-3,25.12-3,25.14-3Z" style="fill:#231f20"/><path d="M12.44-7c0,.13,0,.26,0,.41a.94.94,0,0,0,.07.39,3.26,3.26,0,0,0,.67,1,3.22,3.22,0,0,0,1,.67A2.87,2.87,0,0,1,15-4a2.85,2.85,0,0,1,.6.89c0,.06,0,.09.07.07s0,0,.08-.07a2.65,2.65,0,0,1,1.47-1.47,3.19,3.19,0,0,0,.65.92,3.07,3.07,0,0,0,.94.64,2.66,2.66,0,0,1,.9.59,2.75,2.75,0,0,1,.6.88c0,.06,0,.09.08.09A2.9,2.9,0,0,0,21.35-2a3.15,3.15,0,0,0,.65-.9,2.94,2.94,0,0,0,.64.9,3.06,3.06,0,0,0,.93.61,2.73,2.73,0,0,1,.9.6,2.78,2.78,0,0,1,.59.88c0,.06.05.09.07.08s0,0,.07-.06,0-.08.05-.13a.34.34,0,0,0,0-.09,2.63,2.63,0,0,0,0-.41,1,1,0,0,0-.08-.39,3.24,3.24,0,0,0-.66-1,3.34,3.34,0,0,0-1-.67,2.66,2.66,0,0,1-.9-.59,2.69,2.69,0,0,1-.6-.89S22-4.17,22-4.16s-.05,0-.08.07a2.65,2.65,0,0,1-1.47,1.47,3.19,3.19,0,0,0-.65-.92,3.28,3.28,0,0,0-.95-.63,2.59,2.59,0,0,1-.89-.6,2.65,2.65,0,0,1-.6-.88,3.08,3.08,0,0,0-1.65-1.66,2.87,2.87,0,0,1-.9-.59,2.89,2.89,0,0,1-.59-.88,3.05,3.05,0,0,0-1.65-1.66s0,0-.07.16a2,2,0,0,0-.06.37,1.34,1.34,0,0,0,0,.4c0,.13.05.22.13.25a2.87,2.87,0,0,1,.9.59,3,3,0,0,1,.6.89,3.31,3.31,0,0,0,.66,1,3.34,3.34,0,0,0,1,.67,3.6,3.6,0,0,1,.54.31,4.36,4.36,0,0,1,.46.41,3.08,3.08,0,0,0-1,1.19,3,3,0,0,0-.65-.91,2.9,2.9,0,0,0-.92-.61,2.87,2.87,0,0,1-.9-.59,2.82,2.82,0,0,1-.59-.89c0-.06-.05-.08-.07-.08s-.05,0-.07.06,0,.08,0,.13A.81.81,0,0,0,12.44-7Zm4.84-.67a2.66,2.66,0,0,1,.9.59,2.75,2.75,0,0,1,.6.88,3.43,3.43,0,0,0,.66,1,3.26,3.26,0,0,0,1,.67h0s.05,0,.07-.08a2.65,2.65,0,0,1,.6-.88,2.54,2.54,0,0,1,.9-.6,2.73,2.73,0,0,1,.9.6,2.78,2.78,0,0,1,.59.88,3.22,3.22,0,0,0,.67,1,3.13,3.13,0,0,0,1,.68s0,0,.07-.16a2,2,0,0,0,.06-.38,2.67,2.67,0,0,0,0-.4.26.26,0,0,0-.13-.24,2.73,2.73,0,0,1-.9-.6,2.81,2.81,0,0,1-.6-.88A3,3,0,0,0,22-7.31a3.12,3.12,0,0,0-.95.64,3.39,3.39,0,0,0-.65.92,2.8,2.8,0,0,1-1.18-1,2.81,2.81,0,0,1,1.21-1,3.08,3.08,0,0,0,.92-.61A3.34,3.34,0,0,0,22-9.21a3.11,3.11,0,0,0,.64.91,3.26,3.26,0,0,0,.93.61,2.87,2.87,0,0,1,.9.59,2.89,2.89,0,0,1,.59.88c0,.06.05.09.07.09a.22.22,0,0,0,.07-.07s0-.08.05-.12a.46.46,0,0,0,0-.1,2.5,2.5,0,0,0,0-.4,1,1,0,0,0-.08-.4,3.31,3.31,0,0,0-.66-1,3.16,3.16,0,0,0-1-.67,2.54,2.54,0,0,1-.9-.6,2.65,2.65,0,0,1-.6-.88c0-.06-.05-.08-.07-.08s-.05,0-.08.08a2.65,2.65,0,0,1-.6.88,2.59,2.59,0,0,1-.89.6,2.94,2.94,0,0,0-.93.61,3.15,3.15,0,0,0-.65.9,2.94,2.94,0,0,0-.64-.9,3.06,3.06,0,0,0-.93-.61s0,0-.07.15a2.16,2.16,0,0,0-.06.38,2.67,2.67,0,0,0,0,.4A.29.29,0,0,0,17.28-7.69Zm1.45-5.59a2.5,2.5,0,0,0,0,.4,1,1,0,0,0,.08.4,3.52,3.52,0,0,0,.66,1,3.09,3.09,0,0,0,1,.67h0s.05,0,.07-.08a2.75,2.75,0,0,1,.6-.88,2.66,2.66,0,0,1,.9-.59,2.87,2.87,0,0,1,.9.59,2.89,2.89,0,0,1,.59.88,3.26,3.26,0,0,0,.67,1,3.1,3.1,0,0,0,1,.67s0-.05.07-.16a2,2,0,0,0,.06-.37,2.67,2.67,0,0,0,0-.4.28.28,0,0,0-.13-.25,2.87,2.87,0,0,1-.9-.59,2.85,2.85,0,0,1-.6-.89A3,3,0,0,0,22-13.57a3.28,3.28,0,0,0-.95.63,3.39,3.39,0,0,0-.65.92,2.67,2.67,0,0,1-1.47-1.46c0-.06-.05-.09-.07-.09a.14.14,0,0,0-.06.07.43.43,0,0,0-.05.12A.24.24,0,0,0,18.73-13.28ZM12.57-3a2.87,2.87,0,0,1,.9.59,3.12,3.12,0,0,1,.6.88,3.24,3.24,0,0,0,.66,1,3.34,3.34,0,0,0,1,.67,3.1,3.1,0,0,0,.94-.63,3.27,3.27,0,0,0,.66-.93A2.72,2.72,0,0,1,18.78.05c0,.06,0,.09.07.08s0,0,.06-.06A.5.5,0,0,0,19-.06a.51.51,0,0,0,0-.09,2.68,2.68,0,0,0,0-.41,1,1,0,0,0-.07-.39,3.26,3.26,0,0,0-.67-1,3.1,3.1,0,0,0-1-.67v0s-.06,0-.07.07a2.69,2.69,0,0,1-.6.89,2.66,2.66,0,0,1-.9.59,2.87,2.87,0,0,1-.9-.59,2.82,2.82,0,0,1-.59-.89,3,3,0,0,0-1.65-1.65s0,0-.07.15a2.16,2.16,0,0,0-.06.38,1.34,1.34,0,0,0,0,.4A.27.27,0,0,0,12.57-3Zm-.13-10.29c0,.12,0,.26,0,.4a1,1,0,0,0,.07.4,3.34,3.34,0,0,0,.67,1,3,3,0,0,0,1,.67,2.73,2.73,0,0,1,.9.6,2.81,2.81,0,0,1,.6.88c0,.07,0,.09.07.08s0,0,.08-.08a2.72,2.72,0,0,1,1.47-1.47,3.24,3.24,0,0,0,.65.93,3.23,3.23,0,0,0,.94.63s0-.05.07-.16A3.49,3.49,0,0,0,19-9.79a2.67,2.67,0,0,0,0-.4c0-.13-.06-.22-.14-.25A2.71,2.71,0,0,1,18-11a2.69,2.69,0,0,1-.6-.89c0-.06-.05-.09-.08-.09a3.08,3.08,0,0,0-.92.61,3.34,3.34,0,0,0-.65.91,3.14,3.14,0,0,0-.65-.91,3.08,3.08,0,0,0-.92-.61,2.87,2.87,0,0,1-.9-.59,2.89,2.89,0,0,1-.59-.88c0-.06-.05-.09-.07-.09a.15.15,0,0,0-.07.07s0,.08,0,.12A.84.84,0,0,0,12.44-13.28Z" style="fill:#231f20"/><path d="M-.13-.15a.51.51,0,0,0,0,.09s0,.09.05.13A.1.1,0,0,0,0,.13s0,0,.07-.08A2.78,2.78,0,0,1,.67-.83a2.73,2.73,0,0,1,.9-.6,3.1,3.1,0,0,0,1-.67,3.34,3.34,0,0,0,.67-1A2.69,2.69,0,0,1,3.82-4a2.71,2.71,0,0,1,.89-.59h0s0,0,0,0A.55.55,0,0,0,4.86-5a1.82,1.82,0,0,0,0-.33.74.74,0,0,0-.07-.31,3.26,3.26,0,0,0-.67-1,3.1,3.1,0,0,0-1-.67,2.5,2.5,0,0,1-.53-.3A3.55,3.55,0,0,1,2.15-8a3,3,0,0,0,1-1.19,3.34,3.34,0,0,0,.65.91,3.08,3.08,0,0,0,.92.61,2.66,2.66,0,0,1,.9.59,2.75,2.75,0,0,1,.6.88,3.26,3.26,0,0,0,.67,1,3.1,3.1,0,0,0,1,.67A2.71,2.71,0,0,1,8.75-4a2.69,2.69,0,0,1,.6.89,3.34,3.34,0,0,0,.67,1,3.1,3.1,0,0,0,1,.67,2.73,2.73,0,0,1,.9.6,2.78,2.78,0,0,1,.59.88c0,.06,0,.09.07.08a.1.1,0,0,0,.07-.06s0-.08,0-.13a.51.51,0,0,0,0-.09c0-.13,0-.26,0-.41a.85.85,0,0,0-.08-.39,3.07,3.07,0,0,0-.66-1,3.22,3.22,0,0,0-1-.67,2.87,2.87,0,0,1-.9-.59,2.85,2.85,0,0,1-.6-.89A3,3,0,0,0,7.86-5.74,2.66,2.66,0,0,1,7-6.33a2.69,2.69,0,0,1-.6-.89A3.21,3.21,0,0,0,5.29-8.55a3.47,3.47,0,0,1,.46-.4,2.17,2.17,0,0,1,.53-.31,2.66,2.66,0,0,1,.9.59,2.69,2.69,0,0,1,.6.89c0,.06,0,.09.08.09a3.55,3.55,0,0,0,1-.67,3.24,3.24,0,0,0,.66-1,1,1,0,0,0,.08-.39,2.54,2.54,0,0,0,0-.41.24.24,0,0,0,0-.1.61.61,0,0,0,0-.12s0-.06-.06-.06,0,0-.07.08A2.67,2.67,0,0,1,7.88-8.89a3.33,3.33,0,0,0-.65-.92,3.15,3.15,0,0,0-1-.63,3.23,3.23,0,0,0-.94.63,3.33,3.33,0,0,0-.65.92,2.67,2.67,0,0,1-1.47-1.46c0-.06-.05-.08-.08-.08s-.05,0-.07.08a2.65,2.65,0,0,1-.6.88,2.63,2.63,0,0,1-.9.6,3,3,0,0,0-1,.67,3.34,3.34,0,0,0-.67,1,1,1,0,0,0-.07.4c0,.14,0,.28,0,.4a.84.84,0,0,0,0,.1s0,.09.05.12A.15.15,0,0,0,0-6.13s0,0,.07-.09A2.67,2.67,0,0,1,1.55-7.68a3,3,0,0,0,.65.92,3.23,3.23,0,0,0,.94.63,3.16,3.16,0,0,1,.54.31,4.36,4.36,0,0,1,.46.41A3.19,3.19,0,0,0,3.07-4.09a2.69,2.69,0,0,1-.6.89,2.76,2.76,0,0,1-.9.59,3.22,3.22,0,0,0-1,.67,3.26,3.26,0,0,0-.67,1,1,1,0,0,0-.07.39C-.15-.41-.14-.28-.13-.15ZM4.71-10.83a2.94,2.94,0,0,0,.93-.61,2.94,2.94,0,0,0,.64-.9,3.15,3.15,0,0,0,.65.9,2.94,2.94,0,0,0,.93.61h0s.06,0,.07-.08a2.75,2.75,0,0,1,.6-.88,2.66,2.66,0,0,1,.9-.59,2.87,2.87,0,0,1,.9.59,2.89,2.89,0,0,1,.59.88,3,3,0,0,0,.33.59,2.83,2.83,0,0,0,.43.48,2.83,2.83,0,0,0-.43.48,3,3,0,0,0-.33.59,2.89,2.89,0,0,1-.59.88,2.87,2.87,0,0,1-.9.59.33.33,0,0,0-.14.22,1.15,1.15,0,0,0,0,.37,1.14,1.14,0,0,0,0,.37c0,.12.07.19.14.22a2.73,2.73,0,0,1,.9.6,2.78,2.78,0,0,1,.59.88,3.22,3.22,0,0,0,.67,1,3.25,3.25,0,0,0,1,.68s0,0,.07-.16a2,2,0,0,0,.06-.38,2.67,2.67,0,0,0,0-.4.26.26,0,0,0-.13-.24,2.73,2.73,0,0,1-.9-.6,3,3,0,0,1-.6-.88,3,3,0,0,0-.32-.59,3.28,3.28,0,0,0-.43-.48,3.2,3.2,0,0,0,.43-.47,3.31,3.31,0,0,0,.32-.59,3,3,0,0,1,.6-.89,2.87,2.87,0,0,1,.9-.59.27.27,0,0,0,.13-.22,1.5,1.5,0,0,0,0-.37,1.5,1.5,0,0,0,0-.37.27.27,0,0,0-.13-.22,2.87,2.87,0,0,1-.9-.59,3,3,0,0,1-.6-.89,3,3,0,0,0-1.64-1.65,3.28,3.28,0,0,0-.95.63,3.39,3.39,0,0,0-.65.92,2.67,2.67,0,0,1-1.47-1.46c0-.06-.05-.09-.08-.08s0,0-.07.08a2.75,2.75,0,0,1-.6.88,2.66,2.66,0,0,1-.9.59.29.29,0,0,0-.13.25,2.67,2.67,0,0,0,0,.4,3.79,3.79,0,0,0,.06.38C4.67-10.87,4.7-10.82,4.71-10.83ZM3.14.14a3.1,3.1,0,0,0,1-.67,3.26,3.26,0,0,0,.67-1,2.75,2.75,0,0,1,.6-.88A2.71,2.71,0,0,1,6.28-3a2.66,2.66,0,0,1,.9.59,2.75,2.75,0,0,1,.6.88,3.26,3.26,0,0,0,.67,1,3.1,3.1,0,0,0,1,.67s0-.05.07-.16a2,2,0,0,0,.06-.37,2.8,2.8,0,0,0,0-.41A.27.27,0,0,0,9.43-1a2.66,2.66,0,0,1-.9-.59,2.69,2.69,0,0,1-.6-.89A3,3,0,0,0,6.28-4.17a3.16,3.16,0,0,0-1,.67,3.52,3.52,0,0,0-.66,1,2.69,2.69,0,0,1-.6.89,2.66,2.66,0,0,1-.9.59A.27.27,0,0,0,3-.8,2.8,2.8,0,0,0,3-.39,2,2,0,0,0,3.07,0C3.1.09,3.13.15,3.14.14ZM0-9.26a3.22,3.22,0,0,0,1-.67,3.26,3.26,0,0,0,.67-1,2.89,2.89,0,0,1,.59-.88,2.87,2.87,0,0,1,.9-.59.27.27,0,0,0,.13-.25,1.34,1.34,0,0,0,0-.4,2.16,2.16,0,0,0-.06-.38c0-.11,0-.16-.07-.15a3.16,3.16,0,0,0-1,.67,3.31,3.31,0,0,0-.66,1A2.85,2.85,0,0,1,.9-11a2.87,2.87,0,0,1-.9.59c-.08,0-.12.12-.13.25a2.67,2.67,0,0,0,0,.4,2,2,0,0,0,.06.37C0-9.31,0-9.25,0-9.26ZM0-3a3.25,3.25,0,0,0,1-.68,3.22,3.22,0,0,0,.67-1A1,1,0,0,0,1.72-5c0-.15,0-.29,0-.41a.84.84,0,0,0,0-.1.61.61,0,0,0-.05-.12s0-.06-.06-.06-.05,0-.07.08a2.81,2.81,0,0,1-.6.88,2.73,2.73,0,0,1-.9.6c-.08,0-.12.11-.13.24a2.67,2.67,0,0,0,0,.4,2,2,0,0,0,.06.38C0-3,0-3,0-3Z" style="fill:#231f20"/><path d="M-12.7-7c0,.13,0,.26,0,.41a.94.94,0,0,0,.07.39,3.26,3.26,0,0,0,.67,1,3.22,3.22,0,0,0,1,.67,2.76,2.76,0,0,1,.9.59,2.69,2.69,0,0,1,.6.89c0,.06.05.09.07.07s0,0,.08-.07A2.65,2.65,0,0,1-7.88-4.55a3.19,3.19,0,0,0,.65.92A3.07,3.07,0,0,0-6.29-3a2.66,2.66,0,0,1,.9.59,2.75,2.75,0,0,1,.6.88c0,.06,0,.09.08.09A2.9,2.9,0,0,0-3.79-2a3.15,3.15,0,0,0,.65-.9A2.94,2.94,0,0,0-2.5-2a3.06,3.06,0,0,0,.93.61,2.73,2.73,0,0,1,.9.6A2.78,2.78,0,0,1-.08.05C0,.11,0,.14,0,.13S0,.11.06.07s0-.08.05-.13a.51.51,0,0,0,0-.09c0-.13,0-.26,0-.41A.85.85,0,0,0,.07-.95a3.07,3.07,0,0,0-.66-1,3.22,3.22,0,0,0-1-.67,2.66,2.66,0,0,1-.9-.59,2.85,2.85,0,0,1-.6-.89s-.05-.08-.07-.07,0,0-.08.07A2.65,2.65,0,0,1-4.69-2.62a3.19,3.19,0,0,0-.65-.92,3.15,3.15,0,0,0-1-.63,2.59,2.59,0,0,1-.89-.6,2.65,2.65,0,0,1-.6-.88A3.08,3.08,0,0,0-9.43-7.31a2.87,2.87,0,0,1-.9-.59,2.89,2.89,0,0,1-.59-.88,3.05,3.05,0,0,0-1.65-1.66s0,0-.07.16a2,2,0,0,0-.06.37,2.67,2.67,0,0,0,0,.4c0,.13,0,.22.13.25a2.87,2.87,0,0,1,.9.59,2.85,2.85,0,0,1,.6.89,3.31,3.31,0,0,0,.66,1,3.34,3.34,0,0,0,1,.67,3.16,3.16,0,0,1,.54.31,4.36,4.36,0,0,1,.46.41,3.08,3.08,0,0,0-1,1.19,3,3,0,0,0-.64-.91A3.06,3.06,0,0,0-11-5.74a2.87,2.87,0,0,1-.9-.59,2.82,2.82,0,0,1-.59-.89c0-.06,0-.08-.07-.08s0,0-.07.06,0,.08,0,.13A.81.81,0,0,0-12.7-7Zm4.84-.67A2.66,2.66,0,0,1-7-7.1a2.75,2.75,0,0,1,.6.88,3.26,3.26,0,0,0,.67,1,3.1,3.1,0,0,0,1,.67h0s0,0,.07-.08A2.65,2.65,0,0,1-4-5.53a2.54,2.54,0,0,1,.9-.6,2.73,2.73,0,0,1,.9.6,2.78,2.78,0,0,1,.59.88,3.22,3.22,0,0,0,.67,1A3.25,3.25,0,0,0,0-3s0,0,.07-.16a2,2,0,0,0,.06-.38,2.67,2.67,0,0,0,0-.4A.26.26,0,0,0,0-4.17a2.73,2.73,0,0,1-.9-.6,3,3,0,0,1-.6-.88A3,3,0,0,0-3.14-7.31a3.12,3.12,0,0,0-.95.64,3.39,3.39,0,0,0-.65.92,2.8,2.8,0,0,1-1.18-1,2.81,2.81,0,0,1,1.21-1,3.08,3.08,0,0,0,.92-.61,3.34,3.34,0,0,0,.65-.91,3.11,3.11,0,0,0,.64.91,3.26,3.26,0,0,0,.93.61,2.87,2.87,0,0,1,.9.59,2.89,2.89,0,0,1,.59.88c0,.06.05.09.07.09A.22.22,0,0,0,.06-6.2s0-.08.05-.12a.84.84,0,0,0,0-.1c0-.12,0-.26,0-.4a.87.87,0,0,0-.08-.4,3.13,3.13,0,0,0-.66-1,3,3,0,0,0-1-.67,2.54,2.54,0,0,1-.9-.6,2.81,2.81,0,0,1-.6-.88c0-.06-.05-.08-.07-.08s0,0-.08.08a2.65,2.65,0,0,1-.6.88,2.59,2.59,0,0,1-.89.6,2.94,2.94,0,0,0-.93.61,3.15,3.15,0,0,0-.65.9,2.94,2.94,0,0,0-.64-.9,2.94,2.94,0,0,0-.93-.61s0,0-.07.15A3.79,3.79,0,0,0-8-8.34a2.67,2.67,0,0,0,0,.4A.29.29,0,0,0-7.86-7.69Zm1.45-5.59a2.5,2.5,0,0,0,0,.4,1,1,0,0,0,.08.4,3.34,3.34,0,0,0,.67,1,2.94,2.94,0,0,0,1,.67h0s0,0,.07-.08A2.75,2.75,0,0,1-4-11.8a2.66,2.66,0,0,1,.9-.59,2.87,2.87,0,0,1,.9.59,2.89,2.89,0,0,1,.59.88,3.26,3.26,0,0,0,.67,1,3.22,3.22,0,0,0,1,.67s0-.05.07-.16a2,2,0,0,0,.06-.37,2.67,2.67,0,0,0,0-.4A.28.28,0,0,0,0-10.44,2.87,2.87,0,0,1-.9-11a3,3,0,0,1-.6-.89,3,3,0,0,0-1.64-1.65,3.28,3.28,0,0,0-.95.63,3.39,3.39,0,0,0-.65.92,2.67,2.67,0,0,1-1.47-1.46c0-.06,0-.09-.07-.09a.14.14,0,0,0-.06.07.43.43,0,0,0,0,.12A.84.84,0,0,0-6.41-13.28ZM-12.57-3a2.87,2.87,0,0,1,.9.59,2.93,2.93,0,0,1,.6.88,3.24,3.24,0,0,0,.66,1,3.34,3.34,0,0,0,1,.67,3.28,3.28,0,0,0,.95-.63,3.45,3.45,0,0,0,.65-.93A2.72,2.72,0,0,1-6.36.05c0,.06.05.09.07.08s0,0,.06-.06a.5.5,0,0,0,.05-.13.51.51,0,0,0,0-.09,2.63,2.63,0,0,0,0-.41,1,1,0,0,0-.08-.39,3.26,3.26,0,0,0-.67-1,3.1,3.1,0,0,0-1-.67v0s0,0-.07.07a2.69,2.69,0,0,1-.6.89,2.66,2.66,0,0,1-.9.59,2.87,2.87,0,0,1-.9-.59,2.82,2.82,0,0,1-.59-.89,3,3,0,0,0-1.65-1.65s0,0-.07.15a2.16,2.16,0,0,0-.06.38,2.67,2.67,0,0,0,0,.4A.27.27,0,0,0-12.57-3Zm-.13-10.29c0,.12,0,.26,0,.4a1,1,0,0,0,.07.4,3.34,3.34,0,0,0,.67,1,3,3,0,0,0,1,.67,2.63,2.63,0,0,1,.9.6,2.65,2.65,0,0,1,.6.88c0,.07.05.09.07.08s0,0,.08-.08a2.72,2.72,0,0,1,1.47-1.47,3.24,3.24,0,0,0,.65.93,3.23,3.23,0,0,0,.94.63s0-.05.07-.16a3.49,3.49,0,0,0,.07-.37,2.67,2.67,0,0,0,0-.4c0-.13-.06-.22-.14-.25A2.71,2.71,0,0,1-7.18-11a2.69,2.69,0,0,1-.6-.89c0-.06,0-.09-.08-.09a3.08,3.08,0,0,0-.92.61,3.34,3.34,0,0,0-.65.91,3.11,3.11,0,0,0-.64-.91A3.26,3.26,0,0,0-11-12a2.87,2.87,0,0,1-.9-.59,2.89,2.89,0,0,1-.59-.88c0-.06,0-.09-.07-.09a.15.15,0,0,0-.07.07s0,.08,0,.12A.84.84,0,0,0-12.7-13.28Z" style="fill:#231f20"/></pattern></defs><title>pattern4</title><rect width="25" height="25" style="fill:url(#maze_3)"/></svg>