<svg id="Layer_1" data-name="Layer 1" xmlns="http://www.w3.org/2000/svg" xmlns:xlink="http://www.w3.org/1999/xlink" viewBox="0 0 30.24 10.95"><defs><pattern id="mazepattern_drdr" data-name="mazepattern_drdr" width="100%" height="200%" patternUnits="userSpaceOnUse" viewBox="0 0 30.24 21.88"><rect width="100%" height="100%" style="fill:none"/><path d="M35.36,16.07s0-.08,0-.11l0-.05s0,0-.06.07a2.27,2.27,0,0,1-.48.77,2.22,2.22,0,0,1-.72.52,2.53,2.53,0,0,0-1.32,1.44,2.44,2.44,0,0,1-.48.77,2.28,2.28,0,0,1-.72.52,2.56,2.56,0,0,0-.79.59,2.77,2.77,0,0,0-.53.86.9.9,0,0,0-.06.34,2.06,2.06,0,0,0,0,.36.32.32,0,0,0,0,.08s0,.07,0,.11,0,.05.05.05,0,0,.06-.07a2.27,2.27,0,0,1,.48-.77,2.08,2.08,0,0,1,.72-.52,2.68,2.68,0,0,0,.79-.59,2.84,2.84,0,0,0,.53-.85,2.18,2.18,0,0,1,.48-.77A2,2,0,0,1,34,18.3a2.72,2.72,0,0,0,.79-.59,2.77,2.77,0,0,0,.53-.86.9.9,0,0,0,.06-.34,2.06,2.06,0,0,0,0-.36A.32.32,0,0,0,35.36,16.07Zm-3.75,9.74a1.1,1.1,0,0,0-.06-.26,2.79,2.79,0,0,0-.54-.86,2.51,2.51,0,0,0-.78-.59s0,0-.06.14a2.88,2.88,0,0,0-.05.33,2,2,0,0,0,0,.35.24.24,0,0,0,.11.21,1.94,1.94,0,0,1,.43.27,2.38,2.38,0,0,1,.36.35,2.89,2.89,0,0,0-.85,1.16,1,1,0,0,0-.06.35,1.94,1.94,0,0,0,0,.35.34.34,0,0,0,0,.09s0,.07,0,.11,0,.05.05.05,0,0,.06-.07a2.27,2.27,0,0,1,.48-.77,2,2,0,0,1,.72-.52,0,0,0,0,0,0,0l0,0a.35.35,0,0,0,.07-.15,1.38,1.38,0,0,0,0-.22A1.4,1.4,0,0,0,31.61,25.81Zm1.25-9.09a2,2,0,0,0,0-.35,2.88,2.88,0,0,0,0-.33c0-.1-.05-.15-.06-.14a2.53,2.53,0,0,0-1.32,1.44,2.69,2.69,0,0,1-.48.78,2.25,2.25,0,0,1-.72.51.25.25,0,0,0-.11.22,2,2,0,0,0,0,.35,2.88,2.88,0,0,0,.05.33c0,.09,0,.14.06.13a2.48,2.48,0,0,0,.78-.58,2.92,2.92,0,0,0,.54-.86,2.27,2.27,0,0,1,.48-.77,2.08,2.08,0,0,1,.72-.52A.24.24,0,0,0,32.86,16.72Zm6.24,8.79,0,0h0a2.28,2.28,0,0,1-.72-.52,2.63,2.63,0,0,1-.48-.77c0-.05,0-.07-.06-.07s0,0-.06.07a2.26,2.26,0,0,1-1.18,1.28,2.76,2.76,0,0,0-.52-.8,2.63,2.63,0,0,0-.76-.56,2.14,2.14,0,0,1-.72-.52,2.63,2.63,0,0,1-.48-.77s0-.06-.06-.06h0a2.29,2.29,0,0,0-.74.53,2.58,2.58,0,0,0-.52.79,2.64,2.64,0,0,0-.8-1,4.17,4.17,0,0,1,.37-.36,2.34,2.34,0,0,1,.43-.26,2.68,2.68,0,0,0,.79-.59,2.77,2.77,0,0,0,.53-.86,2.63,2.63,0,0,1,.48-.77,2.45,2.45,0,0,1,.72-.52,2.53,2.53,0,0,0,.79-.58,2.89,2.89,0,0,0,.53-.86,2.63,2.63,0,0,1,.48-.77,2.28,2.28,0,0,1,.72-.52.24.24,0,0,0,.11-.21,2,2,0,0,0,0-.35,2.88,2.88,0,0,0,0-.33c0-.1,0-.15-.06-.14a2.57,2.57,0,0,0-1.32,1.44,2.32,2.32,0,0,1-.48.78,2.05,2.05,0,0,1-.72.51A2.58,2.58,0,0,0,34,20.08a2.27,2.27,0,0,1-.48.77,2.22,2.22,0,0,1-.72.52A2.69,2.69,0,0,0,32,22a2.89,2.89,0,0,0-.53.86.6.6,0,0,0-.06.27,1.4,1.4,0,0,0,0,.29.53.53,0,0,0,.09.35s0,0,0,0h0a2.45,2.45,0,0,1,.72.52,2.56,2.56,0,0,1,.48.77c0,.06,0,.09.06.07s0,0,.06-.07A2.27,2.27,0,0,1,34,23.78a2.93,2.93,0,0,0,.53.8,2.43,2.43,0,0,0,.75.55,2.08,2.08,0,0,1,.72.52,2.27,2.27,0,0,1,.48.77s0,.07.06.07h0a2.33,2.33,0,0,0,.74-.53,2.57,2.57,0,0,0,.52-.8,2.57,2.57,0,0,0,.8,1,2.51,2.51,0,0,1-.37.36,2.09,2.09,0,0,1-.43.27c-.06,0-.09.1-.1.21a2,2,0,0,0,0,.35,1.63,1.63,0,0,0,.05.33c0,.1,0,.14,0,.13a2.42,2.42,0,0,0,.79-.58,3,3,0,0,0,.54-.86,1.07,1.07,0,0,0,.06-.27v-.29A.65.65,0,0,0,39.1,25.51Zm-3.71,1.75a1,1,0,0,0-.06-.35,2.84,2.84,0,0,0-.53-.85,2.56,2.56,0,0,0-.79-.59s0,0-.06.08a2.27,2.27,0,0,1-.48.77,2.22,2.22,0,0,1-.72.52.24.24,0,0,0-.11.21,2,2,0,0,0,0,.35,2.88,2.88,0,0,0,0,.33c0,.1.05.14.06.13a2.43,2.43,0,0,0,.76-.55,2.76,2.76,0,0,0,.52-.8,2.23,2.23,0,0,1,1.18,1.28c0,.05,0,.07.06.07l0-.05s0-.07,0-.11a.34.34,0,0,0,0-.09A1.94,1.94,0,0,0,35.39,27.26Zm5-11.19a.36.36,0,0,0,0-.11s0-.05,0-.05,0,0-.05.07a2.63,2.63,0,0,1-.48.77,2.37,2.37,0,0,1-.73.52,2.6,2.6,0,0,0-1.32,1.44,2.27,2.27,0,0,1-.48.77,2.08,2.08,0,0,1-.72.52,2.51,2.51,0,0,0-.78.59,2.79,2.79,0,0,0-.54.86.65.65,0,0,0-.05.21,1.77,1.77,0,0,0,0,.23,1.69,1.69,0,0,0,0,.23.59.59,0,0,0,.05.2,2.92,2.92,0,0,0,.54.86,2.48,2.48,0,0,0,.78.58s0,0,.06-.07a2.63,2.63,0,0,1,.48-.77,2.14,2.14,0,0,1,.72-.52,2.44,2.44,0,0,0,.79-.59,3,3,0,0,0,.54-.86,2.42,2.42,0,0,1,.47-.77,2.37,2.37,0,0,1,.73-.52c.06,0,.09-.1.1-.21a2,2,0,0,0,0-.35,2.88,2.88,0,0,0-.05-.33c0-.1,0-.14,0-.14A2.63,2.63,0,0,0,39,20.08a2.42,2.42,0,0,1-.47.77,2.37,2.37,0,0,1-.73.52,2.43,2.43,0,0,0-.75.55,2.93,2.93,0,0,0-.53.8,2.32,2.32,0,0,1-.95-.84,2.4,2.4,0,0,1,1-.85,2.44,2.44,0,0,0,.79-.59,2.84,2.84,0,0,0,.53-.85,2.51,2.51,0,0,1,.48-.77,2.14,2.14,0,0,1,.72-.52,2.6,2.6,0,0,0,.79-.59,3,3,0,0,0,.54-.86.9.9,0,0,0,.06-.34c0-.13,0-.25,0-.36Zm0,5.47a.36.36,0,0,0,0-.11s0-.05,0-.06,0,0-.05.08a2.77,2.77,0,0,1-.48.77,2.37,2.37,0,0,1-.73.52h0l0,0a.42.42,0,0,0-.07.15,1.25,1.25,0,0,0,0,.21v.29a1.07,1.07,0,0,0,.06.27,3.14,3.14,0,0,0,.54.86,2.42,2.42,0,0,0,.79.58s0,0,0-.14a2.4,2.4,0,0,0,.05-.32,2,2,0,0,0,0-.35c0-.12,0-.19-.1-.22a2.05,2.05,0,0,1-.43-.26,3.15,3.15,0,0,1-.37-.36,2.85,2.85,0,0,0,.86-1.16.93.93,0,0,0,.06-.34c0-.13,0-.25,0-.36S40.41,21.58,40.4,21.54Z" style="fill:#231f20"/><path d="M5.12,16.07s0-.08,0-.11l0-.05s0,0-.06.07a2.27,2.27,0,0,1-.48.77,2.22,2.22,0,0,1-.72.52,2.53,2.53,0,0,0-1.32,1.44,2.44,2.44,0,0,1-.48.77,2.28,2.28,0,0,1-.72.52,2.56,2.56,0,0,0-.79.59,2.77,2.77,0,0,0-.53.86.9.9,0,0,0-.06.34,2.06,2.06,0,0,0,0,.36.32.32,0,0,0,0,.08s0,.07,0,.11,0,.05,0,.05,0,0,.06-.07a2.27,2.27,0,0,1,.48-.77A2.08,2.08,0,0,1,1.25,21,2.68,2.68,0,0,0,2,20.44a2.84,2.84,0,0,0,.53-.85,2.18,2.18,0,0,1,.48-.77,2,2,0,0,1,.72-.52,2.72,2.72,0,0,0,.79-.59,2.77,2.77,0,0,0,.53-.86.9.9,0,0,0,.06-.34,2.06,2.06,0,0,0,0-.36A.32.32,0,0,0,5.12,16.07ZM1.37,25.81a1.1,1.1,0,0,0-.06-.26,2.79,2.79,0,0,0-.54-.86A2.51,2.51,0,0,0,0,24.1s0,0-.06.14a2.88,2.88,0,0,0,0,.33,2,2,0,0,0,0,.35.24.24,0,0,0,.11.21,2.2,2.2,0,0,1,.43.27,2.38,2.38,0,0,1,.36.35,2.8,2.8,0,0,0-.85,1.16,1,1,0,0,0-.06.35,1.94,1.94,0,0,0,0,.35.34.34,0,0,0,0,.09s0,.07,0,.11,0,.05,0,.05,0,0,.06-.07A2.27,2.27,0,0,1,.53,27a2,2,0,0,1,.72-.52h0l0,0a.35.35,0,0,0,.07-.15,1.38,1.38,0,0,0,0-.22A1.4,1.4,0,0,0,1.37,25.81Zm1.25-9.09a2,2,0,0,0,0-.35A2.88,2.88,0,0,0,2.57,16c0-.1,0-.15-.06-.14a2.53,2.53,0,0,0-1.32,1.44,2.69,2.69,0,0,1-.48.78,2.25,2.25,0,0,1-.72.51.25.25,0,0,0-.11.22,2,2,0,0,0,0,.35,2.88,2.88,0,0,0,0,.33c0,.09,0,.14.06.13a2.48,2.48,0,0,0,.78-.58,2.92,2.92,0,0,0,.54-.86,2.27,2.27,0,0,1,.48-.77,2.08,2.08,0,0,1,.72-.52A.24.24,0,0,0,2.62,16.72Zm6.24,8.79,0,0h0A2.28,2.28,0,0,1,8.09,25a2.63,2.63,0,0,1-.48-.77c0-.05,0-.07-.06-.07s0,0-.06.07a2.26,2.26,0,0,1-1.18,1.28,2.76,2.76,0,0,0-.52-.8A2.63,2.63,0,0,0,5,24.1a2.14,2.14,0,0,1-.72-.52,2.44,2.44,0,0,1-.48-.77s0-.06-.06-.06h0a2.29,2.29,0,0,0-.74.53,2.58,2.58,0,0,0-.52.79,2.64,2.64,0,0,0-.8-1,4.17,4.17,0,0,1,.37-.36,2.05,2.05,0,0,1,.43-.26,2.68,2.68,0,0,0,.79-.59A2.77,2.77,0,0,0,3.83,21,2.33,2.33,0,0,1,5,19.66a2.53,2.53,0,0,0,.79-.58,2.89,2.89,0,0,0,.53-.86,2.63,2.63,0,0,1,.48-.77,2.28,2.28,0,0,1,.72-.52.24.24,0,0,0,.11-.21,2,2,0,0,0,0-.35,2.88,2.88,0,0,0,0-.33c0-.1,0-.15-.06-.14a2.53,2.53,0,0,0-1.32,1.44,2.32,2.32,0,0,1-.48.78,2.05,2.05,0,0,1-.72.51,2.58,2.58,0,0,0-1.32,1.45,2.27,2.27,0,0,1-.48.77,2.22,2.22,0,0,1-.72.52,2.69,2.69,0,0,0-.79.58,2.89,2.89,0,0,0-.53.86.6.6,0,0,0-.06.27,1.4,1.4,0,0,0,0,.29.53.53,0,0,0,.09.35s0,0,0,0h0a2.45,2.45,0,0,1,.72.52,2.56,2.56,0,0,1,.48.77c0,.06,0,.09.06.07s0,0,.06-.07a2.27,2.27,0,0,1,1.18-1.27,2.9,2.9,0,0,0,.52.8,2.6,2.6,0,0,0,.76.55,2.08,2.08,0,0,1,.72.52,2.27,2.27,0,0,1,.48.77s0,.07.06.07h0A2.45,2.45,0,0,0,7,26a2.57,2.57,0,0,0,.52-.8,2.57,2.57,0,0,0,.8,1,2.51,2.51,0,0,1-.37.36,2.09,2.09,0,0,1-.43.27c-.06,0-.09.1-.1.21a2,2,0,0,0,0,.35,1.63,1.63,0,0,0,0,.33c0,.1,0,.14,0,.13a2.42,2.42,0,0,0,.79-.58,3,3,0,0,0,.54-.86,1.07,1.07,0,0,0,.06-.27v-.29A.65.65,0,0,0,8.86,25.51ZM5.15,27.26a1,1,0,0,0-.06-.35,2.84,2.84,0,0,0-.53-.85,2.56,2.56,0,0,0-.79-.59s0,0-.06.08a2.27,2.27,0,0,1-.48.77,2.22,2.22,0,0,1-.72.52.24.24,0,0,0-.11.21,2,2,0,0,0,0,.35,2.88,2.88,0,0,0,.05.33c0,.1,0,.14.06.13a2.43,2.43,0,0,0,.76-.55,2.76,2.76,0,0,0,.52-.8A2.23,2.23,0,0,1,5,27.79c0,.05,0,.07.06.07s0,0,0-.05,0-.07,0-.11a.34.34,0,0,0,0-.09A1.94,1.94,0,0,0,5.15,27.26Zm5-11.19a.36.36,0,0,0,0-.11s0-.05,0-.05,0,0-.05.07a2.63,2.63,0,0,1-.48.77,2.37,2.37,0,0,1-.73.52,2.6,2.6,0,0,0-1.32,1.44,2.27,2.27,0,0,1-.48.77,2.08,2.08,0,0,1-.72.52,2.51,2.51,0,0,0-.78.59,2.79,2.79,0,0,0-.54.86.65.65,0,0,0,0,.21,1.77,1.77,0,0,0,0,.23,1.69,1.69,0,0,0,0,.23.59.59,0,0,0,0,.2,2.92,2.92,0,0,0,.54.86,2.48,2.48,0,0,0,.78.58s0,0,.06-.07a2.63,2.63,0,0,1,.48-.77,2.14,2.14,0,0,1,.72-.52,2.44,2.44,0,0,0,.79-.59A3,3,0,0,0,8.88,21a2.42,2.42,0,0,1,.47-.77,2.37,2.37,0,0,1,.73-.52c.06,0,.09-.1.1-.21a2,2,0,0,0,0-.35,2.88,2.88,0,0,0,0-.33c0-.1,0-.14-.05-.14a2.63,2.63,0,0,0-1.33,1.45,2.27,2.27,0,0,1-.48.77,2.22,2.22,0,0,1-.72.52,2.43,2.43,0,0,0-.75.55,2.93,2.93,0,0,0-.53.8,2.32,2.32,0,0,1-.95-.84,2.4,2.4,0,0,1,1-.85,2.44,2.44,0,0,0,.79-.59,2.84,2.84,0,0,0,.53-.85,2.51,2.51,0,0,1,.48-.77,2.14,2.14,0,0,1,.72-.52,2.6,2.6,0,0,0,.79-.59,3,3,0,0,0,.54-.86.9.9,0,0,0,.06-.34c0-.13,0-.25,0-.36Zm0,5.47a.36.36,0,0,0,0-.11s0-.05,0-.06,0,0-.05.08a2.77,2.77,0,0,1-.48.77,2.37,2.37,0,0,1-.73.52,0,0,0,0,0,0,0l0,0a.42.42,0,0,0-.07.15,1.25,1.25,0,0,0,0,.21v.29a1.07,1.07,0,0,0,.06.27,3.14,3.14,0,0,0,.54.86,2.42,2.42,0,0,0,.79.58s0,0,.05-.14a2.4,2.4,0,0,0,0-.32,2,2,0,0,0,0-.35c0-.12,0-.19-.1-.22a2.05,2.05,0,0,1-.43-.26,3.15,3.15,0,0,1-.37-.36,2.85,2.85,0,0,0,.86-1.16A.93.93,0,0,0,10.2,22c0-.13,0-.25,0-.36S10.17,21.58,10.16,21.54Z" style="fill:#231f20"/><path d="M15.21,16.07s0-.08,0-.11,0-.05-.06-.05,0,0,0,.07a2.63,2.63,0,0,1-.48.77,2.33,2.33,0,0,1-.72.52,2.45,2.45,0,0,0-.74.53,2.58,2.58,0,0,0-.52.79,2.78,2.78,0,0,0-.52-.79,2.45,2.45,0,0,0-.74-.53,2.22,2.22,0,0,1-.72-.52,2.27,2.27,0,0,1-.48-.77c0-.05,0-.08-.06-.07s0,0-.05.05a.36.36,0,0,0,0,.11l0,.08c0,.11,0,.23,0,.36a.74.74,0,0,0,.07.34,2.77,2.77,0,0,0,.53.86,2.6,2.6,0,0,0,.79.59,2.14,2.14,0,0,1,.72.52,2.51,2.51,0,0,1,.48.77c0,.05,0,.08.06.06s0,0,.06-.06a2.18,2.18,0,0,1,.48-.77,2,2,0,0,1,.72-.52,2.86,2.86,0,0,0,.79-.59,2.77,2.77,0,0,0,.53-.86.9.9,0,0,0,.06-.34c0-.13,0-.25,0-.36A.32.32,0,0,0,15.21,16.07Zm-2.5,8.31a.59.59,0,0,0-.05-.2,2.92,2.92,0,0,0-.54-.86,2.48,2.48,0,0,0-.78-.58,2.22,2.22,0,0,1-.72-.52,2.38,2.38,0,0,1-.48-.77c0-.06,0-.08-.06-.08s0,0-.05.06a.36.36,0,0,0,0,.11s0,.07,0,.08,0,.23,0,.36a.77.77,0,0,0,.07.34,2.89,2.89,0,0,0,.53.86,2.42,2.42,0,0,0,.79.58,2.43,2.43,0,0,1,1,.86,2.4,2.4,0,0,1-1,.85,2.44,2.44,0,0,0-.79.59,2.84,2.84,0,0,0-.53.85.81.81,0,0,0-.07.35c0,.13,0,.24,0,.35a.51.51,0,0,0,0,.09.49.49,0,0,0,0,.11s0,.05.05.05,0,0,.06-.07a2.27,2.27,0,0,1,.48-.77,2,2,0,0,1,.72-.52,2.51,2.51,0,0,0,.78-.59,2.79,2.79,0,0,0,.54-.86.65.65,0,0,0,.05-.21,1.77,1.77,0,0,0,0-.23A1.69,1.69,0,0,0,12.71,24.38Zm2.52-.09a.29.29,0,0,0-.11-.19,2,2,0,0,1-.72-.52,2.27,2.27,0,0,1-.48-.77,2.92,2.92,0,0,0-.54-.86,2.65,2.65,0,0,0-.78-.58,2.22,2.22,0,0,1-.72-.52,2.27,2.27,0,0,1-.48-.77,3,3,0,0,0-.54-.86,2.68,2.68,0,0,0-.78-.59s0,0-.06.14a2.88,2.88,0,0,0,0,.33,2,2,0,0,0,0,.35.24.24,0,0,0,.11.21,2.45,2.45,0,0,1,.72.52,2.63,2.63,0,0,1,.48.77,2.77,2.77,0,0,0,.53.86,2.56,2.56,0,0,0,.79.59,2.14,2.14,0,0,1,.72.52,2.63,2.63,0,0,1,.48.77,2.44,2.44,0,0,0,.26.51,3.47,3.47,0,0,0,.34.42,2.74,2.74,0,0,0-.34.41,2.81,2.81,0,0,0-.26.52,2.63,2.63,0,0,1-.48.77,2.45,2.45,0,0,1-.72.52.24.24,0,0,0-.11.21,2,2,0,0,0,0,.35,2.88,2.88,0,0,0,0,.33c0,.1,0,.14.06.13a2.48,2.48,0,0,0,.78-.58,2.79,2.79,0,0,0,.54-.86,2.27,2.27,0,0,1,.48-.77,2.08,2.08,0,0,1,.72-.52.27.27,0,0,0,.11-.19,1.71,1.71,0,0,0,0-.32A1.82,1.82,0,0,0,15.23,24.29Zm0-2.5a.9.9,0,0,0-.06-.34,2.7,2.7,0,0,0-.86-1.16,2.43,2.43,0,0,1,.8-.63.24.24,0,0,0,.11-.21,2,2,0,0,0,0-.35,2.88,2.88,0,0,0-.05-.33c0-.1,0-.14-.06-.14a2.86,2.86,0,0,0-.79.59,2.77,2.77,0,0,0-.53.86.6.6,0,0,0-.06.27,1.4,1.4,0,0,0,0,.29.54.54,0,0,0,.09.35l0,0h0a2.18,2.18,0,0,1,.72.52,2.63,2.63,0,0,1,.48.77c0,.05,0,.08,0,.07s0,0,.06-.05,0-.07,0-.11a.32.32,0,0,0,0-.08C15.23,22,15.24,21.92,15.24,21.79Z" style="fill:#231f20"/><path d="M20.25,16.07a.36.36,0,0,0,0-.11s0-.05-.05-.05,0,0-.06.07a2.27,2.27,0,0,1-.48.77,2.22,2.22,0,0,1-.72.52,2.53,2.53,0,0,0-1.32,1.44,2.27,2.27,0,0,1-.48.77,2.08,2.08,0,0,1-.72.52,2.68,2.68,0,0,0-.79.59,2.77,2.77,0,0,0-.53.86.9.9,0,0,0-.06.34c0,.13,0,.25,0,.36a.32.32,0,0,0,0,.08s0,.07,0,.11,0,.05,0,.05,0,0,.06-.07a2.27,2.27,0,0,1,.48-.77,2.18,2.18,0,0,1,.72-.52,2.56,2.56,0,0,0,.79-.59,2.84,2.84,0,0,0,.53-.85,2.51,2.51,0,0,1,.48-.77,2.14,2.14,0,0,1,.72-.52,2.6,2.6,0,0,0,.79-.59,2.77,2.77,0,0,0,.53-.86.89.89,0,0,0,.07-.34,2,2,0,0,0,0-.36A.32.32,0,0,0,20.25,16.07ZM16.5,25.81a.58.58,0,0,0-.06-.26,2.77,2.77,0,0,0-.53-.86,2.68,2.68,0,0,0-.79-.59s0,0-.06.14a2.88,2.88,0,0,0-.05.33,2,2,0,0,0,0,.35.24.24,0,0,0,.11.21,1.94,1.94,0,0,1,.43.27,3,3,0,0,1,.37.35,2.83,2.83,0,0,0-.86,1.16,1,1,0,0,0-.06.35c0,.13,0,.24,0,.35a.34.34,0,0,0,0,.09s0,.07,0,.11,0,.05,0,.05,0,0,.06-.07a2.27,2.27,0,0,1,.48-.77,2,2,0,0,1,.72-.52,0,0,0,0,0,0,0l0,0a.35.35,0,0,0,.07-.15.75.75,0,0,0,0-.22A1.4,1.4,0,0,0,16.5,25.81Zm1.25-9.09a2,2,0,0,0,0-.35A2.88,2.88,0,0,0,17.7,16c0-.1,0-.15-.06-.14a2.53,2.53,0,0,0-1.32,1.44,2.32,2.32,0,0,1-.48.78,2.05,2.05,0,0,1-.72.51.25.25,0,0,0-.11.22,2,2,0,0,0,0,.35,2.88,2.88,0,0,0,.05.33c0,.09,0,.14.06.13a2.65,2.65,0,0,0,.79-.58,2.89,2.89,0,0,0,.53-.86,2.63,2.63,0,0,1,.48-.77,2.28,2.28,0,0,1,.72-.52A.24.24,0,0,0,17.75,16.72ZM24,25.51s0,0,0,0h0a2.08,2.08,0,0,1-.72-.52,2.27,2.27,0,0,1-.48-.77c0-.05,0-.07-.06-.07s0,0-.06.07a2.27,2.27,0,0,1-1.19,1.28,2.57,2.57,0,0,0-.52-.8,2.63,2.63,0,0,0-.76-.56,2.14,2.14,0,0,1-.72-.52,2.63,2.63,0,0,1-.48-.77s0-.06-.06-.06h0a2.29,2.29,0,0,0-.74.53,2.78,2.78,0,0,0-.52.79,2.55,2.55,0,0,0-.8-1,4.17,4.17,0,0,1,.37-.36,2.34,2.34,0,0,1,.43-.26,2.56,2.56,0,0,0,.79-.59A2.77,2.77,0,0,0,19,21a2.63,2.63,0,0,1,.48-.77,2.45,2.45,0,0,1,.72-.52,2.42,2.42,0,0,0,.79-.58,3.14,3.14,0,0,0,.54-.86,2.42,2.42,0,0,1,.47-.77,2.22,2.22,0,0,1,.73-.52c.06,0,.09-.1.1-.21a2,2,0,0,0,0-.35,2.88,2.88,0,0,0-.05-.33c0-.1,0-.15,0-.14a2.53,2.53,0,0,0-1.32,1.44,2.69,2.69,0,0,1-.48.78,2.19,2.19,0,0,1-.73.51,2.62,2.62,0,0,0-1.32,1.45,2.27,2.27,0,0,1-.48.77,2.22,2.22,0,0,1-.72.52,2.83,2.83,0,0,0-.79.58,2.89,2.89,0,0,0-.53.86,1.07,1.07,0,0,0-.06.27,1.4,1.4,0,0,0,0,.29.53.53,0,0,0,.09.35s0,0,0,0h0a2.22,2.22,0,0,1,.72.52,2.38,2.38,0,0,1,.48.77c0,.06,0,.09.06.07s0,0,.06-.07a2.27,2.27,0,0,1,1.18-1.27,2.93,2.93,0,0,0,.53.8,2.43,2.43,0,0,0,.75.55,2.22,2.22,0,0,1,.73.52,2.63,2.63,0,0,1,.48.77s0,.07.06.07h0a2.45,2.45,0,0,0,.74-.53,3,3,0,0,0,.52-.8,2.55,2.55,0,0,0,.79,1,2.1,2.1,0,0,1-.37.36,2.31,2.31,0,0,1-.42.27.24.24,0,0,0-.11.21,2,2,0,0,0,0,.35,2.88,2.88,0,0,0,.05.33c0,.1,0,.14.06.13a2.48,2.48,0,0,0,.78-.58,3,3,0,0,0,.54-.86,1.07,1.07,0,0,0,.06-.27,1.4,1.4,0,0,0,0-.29A.65.65,0,0,0,24,25.51Zm-3.7,1.75a1,1,0,0,0-.07-.35,2.84,2.84,0,0,0-.53-.85,2.44,2.44,0,0,0-.79-.59s0,0-.06.08a2.27,2.27,0,0,1-.48.77,2.22,2.22,0,0,1-.72.52c-.06,0-.09.1-.1.21a2,2,0,0,0,0,.35,1.63,1.63,0,0,0,.05.33c0,.1,0,.14.05.13a2.43,2.43,0,0,0,.76-.55,2.76,2.76,0,0,0,.52-.8,2.23,2.23,0,0,1,1.18,1.28c0,.05,0,.07.06.07s0,0,.05-.05a.49.49,0,0,0,0-.11.34.34,0,0,0,0-.09A1.9,1.9,0,0,0,20.29,27.26Zm5-11.19a.36.36,0,0,0,0-.11s0-.05-.05-.05,0,0-.05.07a2.63,2.63,0,0,1-.48.77,2.45,2.45,0,0,1-.72.52,2.53,2.53,0,0,0-1.32,1.44,2.63,2.63,0,0,1-.48.77,2.28,2.28,0,0,1-.72.52,2.44,2.44,0,0,0-.79.59,3,3,0,0,0-.54.86,1.08,1.08,0,0,0-.05.21c0,.08,0,.15,0,.23s0,.16,0,.23a1,1,0,0,0,.05.2,3.14,3.14,0,0,0,.54.86,2.42,2.42,0,0,0,.79.58s0,0,.06-.07a2.42,2.42,0,0,1,.47-.77,2.08,2.08,0,0,1,.73-.52,2.51,2.51,0,0,0,.78-.59A3,3,0,0,0,24,21a2.27,2.27,0,0,1,.48-.77,2.22,2.22,0,0,1,.72-.52c.06,0,.09-.1.1-.21a2,2,0,0,0,0-.35,1.63,1.63,0,0,0,0-.33c0-.1,0-.14-.05-.14a2.58,2.58,0,0,0-1.32,1.45,2.63,2.63,0,0,1-.48.77,2.45,2.45,0,0,1-.72.52,2.47,2.47,0,0,0-.76.55,2.69,2.69,0,0,0-.52.8,2.26,2.26,0,0,1-.95-.84,2.28,2.28,0,0,1,1-.85,2.51,2.51,0,0,0,.78-.59,3.08,3.08,0,0,0,.54-.85,2.18,2.18,0,0,1,.48-.77A2,2,0,0,1,24,18.3a2.68,2.68,0,0,0,.78-.59,2.79,2.79,0,0,0,.54-.86.9.9,0,0,0,.06-.34c0-.13,0-.25,0-.36Zm0,5.47a.36.36,0,0,0,0-.11.1.1,0,0,0-.05-.06s0,0-.05.08a2.77,2.77,0,0,1-.48.77,2.45,2.45,0,0,1-.72.52s0,0,0,0l0,0a.24.24,0,0,0-.07.15.68.68,0,0,0,0,.21,1.4,1.4,0,0,0,0,.29.6.6,0,0,0,.06.27,2.89,2.89,0,0,0,.53.86,2.53,2.53,0,0,0,.79.58s0,0,.05-.14a1.43,1.43,0,0,0,0-.32,2,2,0,0,0,0-.35c0-.12,0-.19-.1-.22a2.05,2.05,0,0,1-.43-.26,4.17,4.17,0,0,1-.37-.36,2.85,2.85,0,0,0,.86-1.16.93.93,0,0,0,.06-.34c0-.13,0-.25,0-.36S25.3,21.58,25.29,21.54Z" style="fill:#231f20"/><path d="M30.34,16.07s0-.08,0-.11,0-.05-.05-.05,0,0-.06.07a2.27,2.27,0,0,1-.48.77,2.22,2.22,0,0,1-.72.52,2.45,2.45,0,0,0-.74.53,2.58,2.58,0,0,0-.52.79,2.58,2.58,0,0,0-.52-.79,2.45,2.45,0,0,0-.74-.53,2.22,2.22,0,0,1-.72-.52,2.27,2.27,0,0,1-.48-.77c0-.05,0-.08-.06-.07s0,0-.05.05,0,.07,0,.11a.32.32,0,0,0,0,.08,2.06,2.06,0,0,0,0,.36.9.9,0,0,0,.06.34,2.77,2.77,0,0,0,.53.86,2.72,2.72,0,0,0,.79.59,2,2,0,0,1,.72.52,2.33,2.33,0,0,1,.48.77c0,.05,0,.08.06.06s0,0,.06-.06a2.33,2.33,0,0,1,.48-.77A2.14,2.14,0,0,1,29,18.3a2.72,2.72,0,0,0,.79-.59,2.77,2.77,0,0,0,.53-.86.9.9,0,0,0,.06-.34,2.06,2.06,0,0,0,0-.36A.32.32,0,0,0,30.34,16.07Zm-2.5,8.31a.59.59,0,0,0-.05-.2,2.89,2.89,0,0,0-.53-.86,2.65,2.65,0,0,0-.79-.58,2.22,2.22,0,0,1-.72-.52,2.38,2.38,0,0,1-.48-.77c0-.06,0-.08-.06-.08l-.05.06s0,.07,0,.11a.32.32,0,0,0,0,.08,2.06,2.06,0,0,0,0,.36.93.93,0,0,0,.06.34,2.89,2.89,0,0,0,.53.86,2.53,2.53,0,0,0,.79.58,2.36,2.36,0,0,1,1,.86,2.34,2.34,0,0,1-1,.85,2.56,2.56,0,0,0-.79.59,2.84,2.84,0,0,0-.53.85,1,1,0,0,0-.06.35,1.94,1.94,0,0,0,0,.35.34.34,0,0,0,0,.09s0,.07,0,.11,0,.05.05.05,0,0,.06-.07a2.27,2.27,0,0,1,.48-.77,2,2,0,0,1,.72-.52,2.68,2.68,0,0,0,.79-.59,2.77,2.77,0,0,0,.53-.86.65.65,0,0,0,.05-.21,1.77,1.77,0,0,0,0-.23A1.69,1.69,0,0,0,27.84,24.38Zm2.52-.09a.26.26,0,0,0-.11-.19,2.14,2.14,0,0,1-.72-.52,2.63,2.63,0,0,1-.48-.77,2.89,2.89,0,0,0-.53-.86,2.83,2.83,0,0,0-.79-.58,2.22,2.22,0,0,1-.72-.52,2.27,2.27,0,0,1-.48-.77,2.77,2.77,0,0,0-.53-.86,2.86,2.86,0,0,0-.79-.59s0,0-.06.14a2.88,2.88,0,0,0,0,.33,2,2,0,0,0,0,.35.24.24,0,0,0,.11.21,2.45,2.45,0,0,1,.72.52,2.63,2.63,0,0,1,.48.77,2.77,2.77,0,0,0,.53.86,2.68,2.68,0,0,0,.79.59,2,2,0,0,1,.72.52,2.27,2.27,0,0,1,.48.77,3,3,0,0,0,.26.51,2.79,2.79,0,0,0,.35.42,2.3,2.3,0,0,0-.35.41,3.6,3.6,0,0,0-.26.52,2.27,2.27,0,0,1-.48.77,2.22,2.22,0,0,1-.72.52.24.24,0,0,0-.11.21,2,2,0,0,0,0,.35,1.61,1.61,0,0,0,.06.33c0,.1,0,.14.05.13a2.65,2.65,0,0,0,.79-.58,2.77,2.77,0,0,0,.53-.86,2.63,2.63,0,0,1,.48-.77,2.28,2.28,0,0,1,.72-.52c.06,0,.09-.09.11-.19a1.14,1.14,0,0,0,0-.32A1.21,1.21,0,0,0,30.36,24.29Zm0-2.5a.9.9,0,0,0-.06-.34,2.76,2.76,0,0,0-.85-1.16,2.45,2.45,0,0,1,.36-.36,3.12,3.12,0,0,1,.43-.27.24.24,0,0,0,.11-.21,2,2,0,0,0,0-.35,2.88,2.88,0,0,0-.05-.33c0-.1,0-.14-.06-.14a2.68,2.68,0,0,0-.78.59,2.79,2.79,0,0,0-.54.86,1.07,1.07,0,0,0-.06.27,1.4,1.4,0,0,0,0,.29A.54.54,0,0,0,29,21l0,0h0a2.08,2.08,0,0,1,.72.52,2.27,2.27,0,0,1,.48.77c0,.05,0,.08.06.07s0,0,.05-.05,0-.07,0-.11a.32.32,0,0,0,0-.08A2.06,2.06,0,0,0,30.37,21.79Z" style="fill:#231f20"/><path d="M.1,16.07s0-.08,0-.11,0-.05,0-.05,0,0-.06.07a2.27,2.27,0,0,1-.48.77,2.22,2.22,0,0,1-.72.52A2.45,2.45,0,0,0-2,17.8a2.58,2.58,0,0,0-.52.79A2.58,2.58,0,0,0-3,17.8a2.45,2.45,0,0,0-.74-.53,2.22,2.22,0,0,1-.72-.52A2.27,2.27,0,0,1-5,16c0-.05,0-.08-.06-.07l0,.05s0,.07,0,.11a.32.32,0,0,0,0,.08,2.06,2.06,0,0,0,0,.36.9.9,0,0,0,.06.34,2.77,2.77,0,0,0,.53.86,2.72,2.72,0,0,0,.79.59,2,2,0,0,1,.72.52,2.33,2.33,0,0,1,.48.77c0,.05,0,.08.06.06s0,0,.06-.06A2.33,2.33,0,0,1-2,18.82a2,2,0,0,1,.72-.52,2.72,2.72,0,0,0,.79-.59,2.77,2.77,0,0,0,.53-.86.9.9,0,0,0,.06-.34,2.06,2.06,0,0,0,0-.36A.32.32,0,0,0,.1,16.07Zm-2.5,8.31a.59.59,0,0,0-.05-.2A2.89,2.89,0,0,0-3,23.32a2.65,2.65,0,0,0-.79-.58,2.22,2.22,0,0,1-.72-.52A2.38,2.38,0,0,1-5,21.45c0-.06,0-.08-.06-.08l0,.06s0,.07,0,.11a.32.32,0,0,0,0,.08,2.06,2.06,0,0,0,0,.36.93.93,0,0,0,.06.34,2.89,2.89,0,0,0,.53.86,2.53,2.53,0,0,0,.79.58,2.36,2.36,0,0,1,1,.86,2.34,2.34,0,0,1-1,.85,2.56,2.56,0,0,0-.79.59,2.84,2.84,0,0,0-.53.85,1,1,0,0,0-.06.35,1.94,1.94,0,0,0,0,.35.34.34,0,0,0,0,.09s0,.07,0,.11,0,.05,0,.05,0,0,.06-.07A2.27,2.27,0,0,1-4.49,27a2,2,0,0,1,.72-.52A2.68,2.68,0,0,0-3,25.91a2.77,2.77,0,0,0,.53-.86.65.65,0,0,0,.05-.21,1.77,1.77,0,0,0,0-.23A1.69,1.69,0,0,0-2.4,24.38Zm2.52-.09A.26.26,0,0,0,0,24.1a2.14,2.14,0,0,1-.72-.52,2.63,2.63,0,0,1-.48-.77A2.89,2.89,0,0,0-1.72,22a2.83,2.83,0,0,0-.79-.58,2.22,2.22,0,0,1-.72-.52,2.27,2.27,0,0,1-.48-.77,2.77,2.77,0,0,0-.53-.86A2.86,2.86,0,0,0-5,18.63s0,0-.06.14a2.88,2.88,0,0,0,0,.33,2,2,0,0,0,0,.35.24.24,0,0,0,.11.21,2.45,2.45,0,0,1,.72.52,2.63,2.63,0,0,1,.48.77,2.77,2.77,0,0,0,.53.86,2.68,2.68,0,0,0,.79.59,2,2,0,0,1,.72.52,2.27,2.27,0,0,1,.48.77A2.44,2.44,0,0,0-1,24.2a2.79,2.79,0,0,0,.35.42A2.3,2.3,0,0,0-1,25a2.81,2.81,0,0,0-.26.52,2.27,2.27,0,0,1-.48.77,2.22,2.22,0,0,1-.72.52.24.24,0,0,0-.11.21,2,2,0,0,0,0,.35,2.88,2.88,0,0,0,.05.33c0,.1,0,.14.06.13a2.65,2.65,0,0,0,.79-.58,2.77,2.77,0,0,0,.53-.86,2.63,2.63,0,0,1,.48-.77A2.28,2.28,0,0,1,0,25.13c.06,0,.09-.09.11-.19a1.14,1.14,0,0,0,0-.32A1.21,1.21,0,0,0,.12,24.29Zm0-2.5a.9.9,0,0,0-.06-.34,2.76,2.76,0,0,0-.85-1.16,2.45,2.45,0,0,1,.36-.36A3.12,3.12,0,0,1,0,19.66a.24.24,0,0,0,.11-.21,2,2,0,0,0,0-.35,2.88,2.88,0,0,0,0-.33c0-.1,0-.14-.06-.14a2.68,2.68,0,0,0-.78.59,2.79,2.79,0,0,0-.54.86,1.07,1.07,0,0,0-.06.27,1.4,1.4,0,0,0,0,.29.54.54,0,0,0,.09.35l0,0h0a2.08,2.08,0,0,1,.72.52,2.27,2.27,0,0,1,.48.77c0,.05,0,.08.06.07s0,0,0-.05,0-.07,0-.11a.32.32,0,0,0,0-.08A2.06,2.06,0,0,0,.13,21.79Z" style="fill:#231f20"/><path d="M35.36,5.13s0-.08,0-.11l0,0s0,0-.06.07a2.38,2.38,0,0,1-.48.77,2.22,2.22,0,0,1-.72.52,2.53,2.53,0,0,0-1.32,1.44,2.44,2.44,0,0,1-.48.77,2.28,2.28,0,0,1-.72.52,2.56,2.56,0,0,0-.79.59,2.84,2.84,0,0,0-.53.85,1,1,0,0,0-.06.35,1.94,1.94,0,0,0,0,.35.34.34,0,0,0,0,.09s0,.07,0,.11,0,0,.05,0,0,0,.06-.07a2.27,2.27,0,0,1,.48-.77,2.08,2.08,0,0,1,.72-.52,2.68,2.68,0,0,0,.79-.59,2.77,2.77,0,0,0,.53-.86,2.38,2.38,0,0,1,.48-.77A2.22,2.22,0,0,1,34,7.35a2.53,2.53,0,0,0,.79-.58,2.77,2.77,0,0,0,.53-.86.93.93,0,0,0,.06-.34,2.06,2.06,0,0,0,0-.36A.32.32,0,0,0,35.36,5.13Zm-3.75,9.74a1.18,1.18,0,0,0-.06-.27,2.87,2.87,0,0,0-.54-.85,2.51,2.51,0,0,0-.78-.59s0,0-.06.14a2.88,2.88,0,0,0-.05.33,2,2,0,0,0,0,.35.24.24,0,0,0,.11.21,1.94,1.94,0,0,1,.43.27,2.38,2.38,0,0,1,.36.35A2.89,2.89,0,0,0,30.17,16a1,1,0,0,0-.06.35,2,2,0,0,0,0,.35.28.28,0,0,0,0,.08s0,.08,0,.11,0,.06.05.06,0,0,.06-.07a2.27,2.27,0,0,1,.48-.77,2,2,0,0,1,.72-.52h0l0,0a.26.26,0,0,0,.07-.14,1.5,1.5,0,0,0,0-.22A1.4,1.4,0,0,0,31.61,14.87Zm1.25-9.1a2,2,0,0,0,0-.35,2.4,2.4,0,0,0,0-.32c0-.1-.05-.15-.06-.14A2.53,2.53,0,0,0,31.43,6.4a2.63,2.63,0,0,1-.48.77,2.14,2.14,0,0,1-.72.52.25.25,0,0,0-.11.22,2,2,0,0,0,0,.35,2.88,2.88,0,0,0,.05.33c0,.09,0,.14.06.13A2.48,2.48,0,0,0,31,8.14a2.92,2.92,0,0,0,.54-.86A2.27,2.27,0,0,1,32,6.51,2,2,0,0,1,32.75,6,.25.25,0,0,0,32.86,5.77Zm6.24,8.8,0,0h0a2.28,2.28,0,0,1-.72-.52,2.63,2.63,0,0,1-.48-.77c0-.05,0-.07-.06-.07s0,0-.06.07a2.26,2.26,0,0,1-1.18,1.28,2.81,2.81,0,0,0-.52-.81,2.6,2.6,0,0,0-.76-.55,2.14,2.14,0,0,1-.72-.52,2.63,2.63,0,0,1-.48-.77s0-.06-.06-.06v0a2.48,2.48,0,0,0-.74.54,2.58,2.58,0,0,0-.52.79,2.57,2.57,0,0,0-.8-1,4.17,4.17,0,0,1,.37-.36,2.34,2.34,0,0,1,.43-.26,2.86,2.86,0,0,0,.79-.59,2.77,2.77,0,0,0,.53-.86,2.63,2.63,0,0,1,.48-.77,2.45,2.45,0,0,1,.72-.52,2.53,2.53,0,0,0,.79-.58,2.89,2.89,0,0,0,.53-.86,2.63,2.63,0,0,1,.48-.77A2.14,2.14,0,0,1,37.79,6a.25.25,0,0,0,.11-.22,2,2,0,0,0,0-.35,2.4,2.4,0,0,0,0-.32c0-.1,0-.15-.06-.14A2.57,2.57,0,0,0,36.47,6.4a2.27,2.27,0,0,1-.48.77,2,2,0,0,1-.72.52A2.58,2.58,0,0,0,34,9.14a2.27,2.27,0,0,1-.48.77,2.22,2.22,0,0,1-.72.52A2.53,2.53,0,0,0,32,11a2.89,2.89,0,0,0-.53.86.6.6,0,0,0-.06.27,1.41,1.41,0,0,0,0,.29.53.53,0,0,0,.09.35l0,0h0a2.33,2.33,0,0,1,1.2,1.29c0,.06,0,.08.06.07s0,0,.06-.07A2.32,2.32,0,0,1,34,12.83a2.84,2.84,0,0,0,.53.81,2.43,2.43,0,0,0,.75.55,2.08,2.08,0,0,1,.72.52,2.27,2.27,0,0,1,.48.77s0,.07.06.07h0a2.33,2.33,0,0,0,.74-.53,2.57,2.57,0,0,0,.52-.8,2.57,2.57,0,0,0,.8,1,3.15,3.15,0,0,1-.37.36,2.62,2.62,0,0,1-.43.27c-.06,0-.09.1-.1.21a2,2,0,0,0,0,.35,1.63,1.63,0,0,0,.05.33c0,.1,0,.14,0,.13a2.42,2.42,0,0,0,.79-.58,3.14,3.14,0,0,0,.54-.86,1.07,1.07,0,0,0,.06-.27v-.29A.65.65,0,0,0,39.1,14.57Zm-3.71,1.75a1,1,0,0,0-.06-.35,2.89,2.89,0,0,0-.53-.86,2.53,2.53,0,0,0-.79-.58s0,0-.06.07a2.32,2.32,0,0,1-.48.78,2.22,2.22,0,0,1-.72.52.24.24,0,0,0-.11.21,2,2,0,0,0,0,.35,2.88,2.88,0,0,0,0,.33c0,.1.05.14.06.13a2.43,2.43,0,0,0,.76-.55,2.9,2.9,0,0,0,.52-.8,2.23,2.23,0,0,1,1.18,1.28s0,.07.06.07,0,0,0-.06,0-.07,0-.11a.28.28,0,0,0,0-.08A2,2,0,0,0,35.39,16.32Zm5-11.19a.36.36,0,0,0,0-.11s0,0,0,0,0,0-.05.07a2.77,2.77,0,0,1-.48.77,2.37,2.37,0,0,1-.73.52,2.6,2.6,0,0,0-1.32,1.44,2.27,2.27,0,0,1-.48.77,2.08,2.08,0,0,1-.72.52,2.51,2.51,0,0,0-.78.59,2.87,2.87,0,0,0-.54.85.79.79,0,0,0-.05.22,2.65,2.65,0,0,0,0,.46.59.59,0,0,0,.05.2,2.92,2.92,0,0,0,.54.86,2.48,2.48,0,0,0,.78.58s0,0,.06-.07a2.51,2.51,0,0,1,.48-.77,2.14,2.14,0,0,1,.72-.52,2.6,2.6,0,0,0,.79-.59,3,3,0,0,0,.54-.86,2.42,2.42,0,0,1,.47-.77,2.37,2.37,0,0,1,.73-.52c.06,0,.09-.1.1-.21a2,2,0,0,0,0-.35,2.88,2.88,0,0,0-.05-.33c0-.1,0-.14,0-.14A2.63,2.63,0,0,0,39,9.14a2.42,2.42,0,0,1-.47.77,2.37,2.37,0,0,1-.73.52A2.43,2.43,0,0,0,37,11a2.93,2.93,0,0,0-.53.8,2.4,2.4,0,0,1-.95-.84,2.4,2.4,0,0,1,1-.85,2.44,2.44,0,0,0,.79-.59,2.77,2.77,0,0,0,.53-.86,2.77,2.77,0,0,1,.48-.77,2.45,2.45,0,0,1,.72-.52,2.42,2.42,0,0,0,.79-.58,3,3,0,0,0,.54-.86.93.93,0,0,0,.06-.34c0-.13,0-.25,0-.36Zm0,5.47a.36.36,0,0,0,0-.11s0-.05,0-.06,0,0-.05.07a2.69,2.69,0,0,1-.48.78,2.19,2.19,0,0,1-.73.51v0l0,0A.35.35,0,0,0,39,12a1.25,1.25,0,0,0,0,.21v.29a1.07,1.07,0,0,0,.06.27,3.08,3.08,0,0,0,.54.85,2.44,2.44,0,0,0,.79.59s0,0,0-.14a2.57,2.57,0,0,0,.05-.33,2,2,0,0,0,0-.35c0-.11,0-.18-.1-.21a1.73,1.73,0,0,1-.43-.27,2.44,2.44,0,0,1-.37-.35,2.85,2.85,0,0,0,.86-1.16,1,1,0,0,0,.06-.35c0-.12,0-.24,0-.35A.45.45,0,0,0,40.4,10.6Z" style="fill:#231f20"/><path d="M5.12,5.13s0-.08,0-.11L5,5S5,5,5,5a2.38,2.38,0,0,1-.48.77,2.22,2.22,0,0,1-.72.52A2.53,2.53,0,0,0,2.45,7.77,2.44,2.44,0,0,1,2,8.54a2.28,2.28,0,0,1-.72.52,2.56,2.56,0,0,0-.79.59,2.84,2.84,0,0,0-.53.85,1,1,0,0,0-.06.35,1.94,1.94,0,0,0,0,.35.34.34,0,0,0,0,.09s0,.07,0,.11l0,0s0,0,.06-.07a2.27,2.27,0,0,1,.48-.77,2.08,2.08,0,0,1,.72-.52A2.68,2.68,0,0,0,2,9.5a2.77,2.77,0,0,0,.53-.86,2.38,2.38,0,0,1,.48-.77,2.22,2.22,0,0,1,.72-.52,2.53,2.53,0,0,0,.79-.58,2.77,2.77,0,0,0,.53-.86.93.93,0,0,0,.06-.34,2.06,2.06,0,0,0,0-.36A.32.32,0,0,0,5.12,5.13ZM1.37,14.87a1.18,1.18,0,0,0-.06-.27,2.87,2.87,0,0,0-.54-.85A2.51,2.51,0,0,0,0,13.16s0,0-.06.14a2.88,2.88,0,0,0,0,.33,2,2,0,0,0,0,.35.24.24,0,0,0,.11.21,2.2,2.2,0,0,1,.43.27,2.38,2.38,0,0,1,.36.35A2.8,2.8,0,0,0-.07,16a1,1,0,0,0-.06.35,2,2,0,0,0,0,.35.28.28,0,0,0,0,.08s0,.08,0,.11,0,.06,0,.06,0,0,.06-.07a2.27,2.27,0,0,1,.48-.77,2,2,0,0,1,.72-.52h0l0,0a.26.26,0,0,0,.07-.14,1.5,1.5,0,0,0,0-.22A1.4,1.4,0,0,0,1.37,14.87Zm1.25-9.1a2,2,0,0,0,0-.35,2.4,2.4,0,0,0-.05-.32c0-.1,0-.15-.06-.14A2.53,2.53,0,0,0,1.19,6.4a2.63,2.63,0,0,1-.48.77A2.14,2.14,0,0,1,0,7.69a.25.25,0,0,0-.11.22,2,2,0,0,0,0,.35,2.88,2.88,0,0,0,0,.33c0,.09,0,.14.06.13a2.48,2.48,0,0,0,.78-.58,2.92,2.92,0,0,0,.54-.86,2.27,2.27,0,0,1,.48-.77A2,2,0,0,1,2.51,6,.25.25,0,0,0,2.62,5.77Zm6.24,8.8,0,0h0A2.28,2.28,0,0,1,8.09,14a2.63,2.63,0,0,1-.48-.77c0-.05,0-.07-.06-.07s0,0-.06.07a2.26,2.26,0,0,1-1.18,1.28,2.81,2.81,0,0,0-.52-.81A2.6,2.6,0,0,0,5,13.16a2.14,2.14,0,0,1-.72-.52,2.44,2.44,0,0,1-.48-.77s0-.06-.06-.06v0a2.48,2.48,0,0,0-.74.54,2.58,2.58,0,0,0-.52.79,2.57,2.57,0,0,0-.8-1,4.17,4.17,0,0,1,.37-.36,2.05,2.05,0,0,1,.43-.26,2.86,2.86,0,0,0,.79-.59A2.77,2.77,0,0,0,3.83,10,2.33,2.33,0,0,1,5,8.72a2.53,2.53,0,0,0,.79-.58,2.89,2.89,0,0,0,.53-.86,2.63,2.63,0,0,1,.48-.77A2.14,2.14,0,0,1,7.55,6a.25.25,0,0,0,.11-.22,2,2,0,0,0,0-.35,2.4,2.4,0,0,0,0-.32c0-.1,0-.15-.06-.14A2.53,2.53,0,0,0,6.23,6.4a2.27,2.27,0,0,1-.48.77A2,2,0,0,1,5,7.69,2.58,2.58,0,0,0,3.71,9.14a2.27,2.27,0,0,1-.48.77,2.22,2.22,0,0,1-.72.52,2.53,2.53,0,0,0-.79.58,2.89,2.89,0,0,0-.53.86.6.6,0,0,0-.06.27,1.41,1.41,0,0,0,0,.29.53.53,0,0,0,.09.35s0,0,0,0h0a2.45,2.45,0,0,1,.72.52,2.44,2.44,0,0,1,.48.77c0,.06,0,.08.06.07s0,0,.06-.07a2.32,2.32,0,0,1,1.18-1.28,2.81,2.81,0,0,0,.52.81,2.6,2.6,0,0,0,.76.55,2.08,2.08,0,0,1,.72.52,2.27,2.27,0,0,1,.48.77s0,.07.06.07h0A2.45,2.45,0,0,0,7,15a2.57,2.57,0,0,0,.52-.8,2.57,2.57,0,0,0,.8,1,3.15,3.15,0,0,1-.37.36,2.62,2.62,0,0,1-.43.27c-.06,0-.09.1-.1.21a2,2,0,0,0,0,.35,1.63,1.63,0,0,0,0,.33c0,.1,0,.14,0,.13a2.42,2.42,0,0,0,.79-.58,3.14,3.14,0,0,0,.54-.86,1.07,1.07,0,0,0,.06-.27v-.29A.65.65,0,0,0,8.86,14.57ZM5.15,16.32A1,1,0,0,0,5.09,16a2.89,2.89,0,0,0-.53-.86,2.53,2.53,0,0,0-.79-.58s0,0-.06.07a2.32,2.32,0,0,1-.48.78,2.22,2.22,0,0,1-.72.52.24.24,0,0,0-.11.21,2,2,0,0,0,0,.35,2.88,2.88,0,0,0,.05.33c0,.1,0,.14.06.13a2.43,2.43,0,0,0,.76-.55,2.9,2.9,0,0,0,.52-.8A2.23,2.23,0,0,1,5,16.85s0,.07.06.07,0,0,0-.06,0-.07,0-.11a.28.28,0,0,0,0-.08A2,2,0,0,0,5.15,16.32Zm5-11.19a.36.36,0,0,0,0-.11s0,0,0,0S10,5,10,5a2.77,2.77,0,0,1-.48.77,2.37,2.37,0,0,1-.73.52A2.6,2.6,0,0,0,7.49,7.77,2.27,2.27,0,0,1,7,8.54a2.08,2.08,0,0,1-.72.52,2.51,2.51,0,0,0-.78.59A2.87,2.87,0,0,0,5,10.5a.79.79,0,0,0,0,.22,2.65,2.65,0,0,0,0,.46.59.59,0,0,0,0,.2,2.92,2.92,0,0,0,.54.86,2.48,2.48,0,0,0,.78.58s0,0,.06-.07A2.51,2.51,0,0,1,6.83,12a2.14,2.14,0,0,1,.72-.52,2.6,2.6,0,0,0,.79-.59A3,3,0,0,0,8.88,10a2.42,2.42,0,0,1,.47-.77,2.37,2.37,0,0,1,.73-.52c.06,0,.09-.1.1-.21a2,2,0,0,0,0-.35,2.88,2.88,0,0,0,0-.33c0-.1,0-.14-.05-.14A2.63,2.63,0,0,0,8.75,9.14a2.27,2.27,0,0,1-.48.77,2.22,2.22,0,0,1-.72.52A2.43,2.43,0,0,0,6.8,11a2.93,2.93,0,0,0-.53.8,2.4,2.4,0,0,1-.95-.84,2.4,2.4,0,0,1,1-.85,2.44,2.44,0,0,0,.79-.59,2.77,2.77,0,0,0,.53-.86,2.77,2.77,0,0,1,.48-.77,2.45,2.45,0,0,1,.72-.52,2.42,2.42,0,0,0,.79-.58,3,3,0,0,0,.54-.86.93.93,0,0,0,.06-.34c0-.13,0-.25,0-.36Zm0,5.47a.36.36,0,0,0,0-.11s0-.05,0-.06,0,0-.05.07a2.69,2.69,0,0,1-.48.78,2.19,2.19,0,0,1-.73.51v0l0,0a.35.35,0,0,0-.07.15,1.25,1.25,0,0,0,0,.21v.29a1.07,1.07,0,0,0,.06.27,3.08,3.08,0,0,0,.54.85,2.44,2.44,0,0,0,.79.59s0,0,.05-.14a2.57,2.57,0,0,0,0-.33,2,2,0,0,0,0-.35c0-.11,0-.18-.1-.21a1.73,1.73,0,0,1-.43-.27,2.44,2.44,0,0,1-.37-.35,2.85,2.85,0,0,0,.86-1.16A1,1,0,0,0,10.2,11c0-.12,0-.24,0-.35A.45.45,0,0,0,10.16,10.6Z" style="fill:#231f20"/><path d="M15.21,5.13s0-.08,0-.11,0,0-.06,0,0,0,0,.07a2.77,2.77,0,0,1-.48.77,2.33,2.33,0,0,1-.72.52,2.29,2.29,0,0,0-.74.53,2.58,2.58,0,0,0-.52.79,2.78,2.78,0,0,0-.52-.79,2.29,2.29,0,0,0-.74-.53,2.22,2.22,0,0,1-.72-.52A2.38,2.38,0,0,1,10.14,5c0-.06,0-.08-.06-.07s0,0-.05,0a.36.36,0,0,0,0,.11l0,.08c0,.11,0,.23,0,.36a.77.77,0,0,0,.07.34,2.77,2.77,0,0,0,.53.86,2.42,2.42,0,0,0,.79.58,2.45,2.45,0,0,1,.72.52,2.77,2.77,0,0,1,.48.77c0,.06,0,.09.06.07s0,0,.06-.07a2.38,2.38,0,0,1,.48-.77,2.22,2.22,0,0,1,.72-.52,2.65,2.65,0,0,0,.79-.58,2.77,2.77,0,0,0,.53-.86.93.93,0,0,0,.06-.34c0-.13,0-.25,0-.36A.32.32,0,0,0,15.21,5.13Zm-2.5,8.31a.59.59,0,0,0-.05-.2,2.79,2.79,0,0,0-.54-.86,2.68,2.68,0,0,0-.78-.59,2.05,2.05,0,0,1-.72-.51,2.32,2.32,0,0,1-.48-.78c0-.05,0-.07-.06-.07s0,0-.05.06a.36.36,0,0,0,0,.11.45.45,0,0,0,0,.08c0,.11,0,.23,0,.35a.78.78,0,0,0,.07.35,2.89,2.89,0,0,0,.53.86,2.42,2.42,0,0,0,.79.58,2.43,2.43,0,0,1,1,.86,2.48,2.48,0,0,1-1,.85,2.42,2.42,0,0,0-.79.58A2.89,2.89,0,0,0,10,16a.78.78,0,0,0-.07.35c0,.12,0,.24,0,.35a.45.45,0,0,0,0,.08.36.36,0,0,0,0,.11s0,.06.05.06,0,0,.06-.07a2.27,2.27,0,0,1,.48-.77,2,2,0,0,1,.72-.52,2.51,2.51,0,0,0,.78-.59,2.79,2.79,0,0,0,.54-.86.65.65,0,0,0,.05-.21,1.77,1.77,0,0,0,0-.23A1.69,1.69,0,0,0,12.71,13.44Zm2.52-.09a.27.27,0,0,0-.11-.19,2,2,0,0,1-.72-.52,2.27,2.27,0,0,1-.48-.77,2.92,2.92,0,0,0-.54-.86,2.48,2.48,0,0,0-.78-.58,2.22,2.22,0,0,1-.72-.52,2.27,2.27,0,0,1-.48-.77,3,3,0,0,0-.54-.86,2.51,2.51,0,0,0-.78-.59s0,0-.06.14a2.88,2.88,0,0,0,0,.33,2,2,0,0,0,0,.35.24.24,0,0,0,.11.21,2.45,2.45,0,0,1,.72.52,2.63,2.63,0,0,1,.48.77,2.77,2.77,0,0,0,.53.86,2.72,2.72,0,0,0,.79.59,2.14,2.14,0,0,1,.72.52,2.51,2.51,0,0,1,.48.77,2.44,2.44,0,0,0,.26.51,3.47,3.47,0,0,0,.34.42,2.74,2.74,0,0,0-.34.41,2.71,2.71,0,0,0-.26.51,2.69,2.69,0,0,1-.48.78,2.45,2.45,0,0,1-.72.52.24.24,0,0,0-.11.21,2,2,0,0,0,0,.35,2.88,2.88,0,0,0,0,.33c0,.1,0,.14.06.13a2.48,2.48,0,0,0,.78-.58,2.92,2.92,0,0,0,.54-.86,2.27,2.27,0,0,1,.48-.77,2.08,2.08,0,0,1,.72-.52.27.27,0,0,0,.11-.19,1.71,1.71,0,0,0,0-.32A1.82,1.82,0,0,0,15.23,13.35Zm0-2.5a1,1,0,0,0-.06-.35,2.83,2.83,0,0,0-.86-1.16A4,4,0,0,1,14.69,9a1.94,1.94,0,0,1,.43-.27.24.24,0,0,0,.11-.21,2,2,0,0,0,0-.35,2.88,2.88,0,0,0-.05-.33c0-.1,0-.14-.06-.14a2.68,2.68,0,0,0-.79.59,2.77,2.77,0,0,0-.53.86.6.6,0,0,0-.06.27,1.31,1.31,0,0,0,0,.28.56.56,0,0,0,.09.36l0,0h0a2.18,2.18,0,0,1,.72.52,2.63,2.63,0,0,1,.48.77s0,.07,0,.07,0,0,.06,0,0-.07,0-.11a.34.34,0,0,0,0-.09C15.23,11.09,15.24,11,15.24,10.85Z" style="fill:#231f20"/><path d="M20.25,5.13a.36.36,0,0,0,0-.11s0,0-.05,0,0,0-.06.07a2.38,2.38,0,0,1-.48.77,2.22,2.22,0,0,1-.72.52,2.53,2.53,0,0,0-1.32,1.44,2.27,2.27,0,0,1-.48.77,2.08,2.08,0,0,1-.72.52,2.68,2.68,0,0,0-.79.59,2.84,2.84,0,0,0-.53.85,1,1,0,0,0-.06.35c0,.13,0,.24,0,.35a.34.34,0,0,0,0,.09s0,.07,0,.11l0,0s0,0,.06-.07a2.27,2.27,0,0,1,.48-.77,2.18,2.18,0,0,1,.72-.52,2.56,2.56,0,0,0,.79-.59,2.77,2.77,0,0,0,.53-.86,2.77,2.77,0,0,1,.48-.77,2.45,2.45,0,0,1,.72-.52,2.42,2.42,0,0,0,.79-.58,2.77,2.77,0,0,0,.53-.86.94.94,0,0,0,.07-.34,2,2,0,0,0,0-.36A.32.32,0,0,0,20.25,5.13ZM16.5,14.87a.63.63,0,0,0-.06-.27,2.84,2.84,0,0,0-.53-.85,2.68,2.68,0,0,0-.79-.59s0,0-.06.14a2.88,2.88,0,0,0-.05.33A2,2,0,0,0,15,14a.24.24,0,0,0,.11.21,1.94,1.94,0,0,1,.43.27,3,3,0,0,1,.37.35A2.83,2.83,0,0,0,15.06,16a1,1,0,0,0-.06.35c0,.12,0,.24,0,.35a.28.28,0,0,0,0,.08s0,.08,0,.11,0,.06,0,.06,0,0,.06-.07a2.27,2.27,0,0,1,.48-.77,2,2,0,0,1,.72-.52h0l0,0a.26.26,0,0,0,.07-.14.78.78,0,0,0,0-.22A1.4,1.4,0,0,0,16.5,14.87Zm1.25-9.1a2,2,0,0,0,0-.35,2.4,2.4,0,0,0-.05-.32c0-.1,0-.15-.06-.14A2.53,2.53,0,0,0,16.32,6.4a2.27,2.27,0,0,1-.48.77,2,2,0,0,1-.72.52.25.25,0,0,0-.11.22,2,2,0,0,0,0,.35,2.88,2.88,0,0,0,.05.33c0,.09,0,.14.06.13a2.65,2.65,0,0,0,.79-.58,2.89,2.89,0,0,0,.53-.86,2.63,2.63,0,0,1,.48-.77A2.14,2.14,0,0,1,17.64,6,.25.25,0,0,0,17.75,5.77ZM24,14.57s0,0,0,0a0,0,0,0,1,0,0h0a2.08,2.08,0,0,1-.72-.52,2.27,2.27,0,0,1-.48-.77c0-.05,0-.07-.06-.07s0,0-.06.07a2.27,2.27,0,0,1-1.19,1.28,2.56,2.56,0,0,0-1.28-1.36,2.14,2.14,0,0,1-.72-.52,2.63,2.63,0,0,1-.48-.77s0-.06-.06-.06v0a2.48,2.48,0,0,0-.74.54,2.78,2.78,0,0,0-.52.79,2.49,2.49,0,0,0-.8-1,4.17,4.17,0,0,1,.37-.36,2.34,2.34,0,0,1,.43-.26,2.72,2.72,0,0,0,.79-.59A2.77,2.77,0,0,0,19,10a2.63,2.63,0,0,1,.48-.77,2.45,2.45,0,0,1,.72-.52A2.42,2.42,0,0,0,21,8.14a3.14,3.14,0,0,0,.54-.86A2.42,2.42,0,0,1,22,6.51,2.08,2.08,0,0,1,22.69,6c.06,0,.09-.1.1-.22a2,2,0,0,0,0-.35,2.4,2.4,0,0,0-.05-.32c0-.1,0-.15,0-.14A2.53,2.53,0,0,0,21.37,6.4a2.63,2.63,0,0,1-.48.77,2.08,2.08,0,0,1-.73.52,2.62,2.62,0,0,0-1.32,1.45,2.27,2.27,0,0,1-.48.77,2.22,2.22,0,0,1-.72.52,2.65,2.65,0,0,0-.79.58,2.89,2.89,0,0,0-.53.86,1.07,1.07,0,0,0-.06.27,1.41,1.41,0,0,0,0,.29.53.53,0,0,0,.09.35l0,0h0a2.22,2.22,0,0,1,.72.52,2.27,2.27,0,0,1,.48.77c0,.06,0,.08.06.07s0,0,.06-.07a2.32,2.32,0,0,1,1.18-1.28,2.84,2.84,0,0,0,.53.81,2.43,2.43,0,0,0,.75.55,2.22,2.22,0,0,1,.73.52,2.63,2.63,0,0,1,.48.77s0,.07.06.07h0a2.45,2.45,0,0,0,.74-.53,3,3,0,0,0,.52-.8,2.55,2.55,0,0,0,.79,1,2.53,2.53,0,0,1-.37.36,3,3,0,0,1-.42.27.24.24,0,0,0-.11.21,2,2,0,0,0,0,.35,2.88,2.88,0,0,0,.05.33c0,.1,0,.14.06.13a2.48,2.48,0,0,0,.78-.58,3.14,3.14,0,0,0,.54-.86,1.07,1.07,0,0,0,.06-.27,1.41,1.41,0,0,0,0-.29A.65.65,0,0,0,24,14.57Zm-3.7,1.75a1,1,0,0,0-.07-.35,2.89,2.89,0,0,0-.53-.86,2.42,2.42,0,0,0-.79-.58s0,0-.06.07a2.32,2.32,0,0,1-.48.78,2.22,2.22,0,0,1-.72.52c-.06,0-.09.1-.1.21a2,2,0,0,0,0,.35,1.63,1.63,0,0,0,.05.33c0,.1,0,.14.05.13a2.43,2.43,0,0,0,.76-.55,2.9,2.9,0,0,0,.52-.8,2.23,2.23,0,0,1,1.18,1.28s0,.07.06.07,0,0,.05-.06a.36.36,0,0,0,0-.11.28.28,0,0,0,0-.08A2,2,0,0,0,20.29,16.32Zm5-11.19a.36.36,0,0,0,0-.11s0,0-.05,0,0,0-.05.07a2.77,2.77,0,0,1-.48.77,2.45,2.45,0,0,1-.72.52,2.53,2.53,0,0,0-1.32,1.44,2.63,2.63,0,0,1-.48.77,2.28,2.28,0,0,1-.72.52,2.44,2.44,0,0,0-.79.59,3.08,3.08,0,0,0-.54.85,1.42,1.42,0,0,0-.05.22c0,.07,0,.15,0,.23s0,.16,0,.23a1,1,0,0,0,.05.2,3.14,3.14,0,0,0,.54.86,2.42,2.42,0,0,0,.79.58s0,0,.06-.07A2.31,2.31,0,0,1,22,12a2.08,2.08,0,0,1,.73-.52,2.68,2.68,0,0,0,.78-.59A3,3,0,0,0,24,10a2.27,2.27,0,0,1,.48-.77,2.22,2.22,0,0,1,.72-.52c.06,0,.09-.1.1-.21a2,2,0,0,0,0-.35,1.63,1.63,0,0,0,0-.33c0-.1,0-.14-.05-.14a2.58,2.58,0,0,0-1.32,1.45,2.63,2.63,0,0,1-.48.77,2.45,2.45,0,0,1-.72.52,2.47,2.47,0,0,0-.76.55,2.69,2.69,0,0,0-.52.8,2.33,2.33,0,0,1-.95-.84,2.28,2.28,0,0,1,1-.85,2.51,2.51,0,0,0,.78-.59,3,3,0,0,0,.54-.86,2.38,2.38,0,0,1,.48-.77A2.22,2.22,0,0,1,24,7.35a2.48,2.48,0,0,0,.78-.58,2.79,2.79,0,0,0,.54-.86.93.93,0,0,0,.06-.34c0-.13,0-.25,0-.36Zm0,5.47a.36.36,0,0,0,0-.11.1.1,0,0,0-.05-.06s0,0-.05.07a2.69,2.69,0,0,1-.48.78,2.25,2.25,0,0,1-.72.51s0,0,0,0l0,0a.21.21,0,0,0-.07.15.68.68,0,0,0,0,.21,1.4,1.4,0,0,0,0,.29.6.6,0,0,0,.06.27,2.84,2.84,0,0,0,.53.85,2.56,2.56,0,0,0,.79.59s0,0,.05-.14a1.53,1.53,0,0,0,0-.33,2,2,0,0,0,0-.35c0-.11,0-.18-.1-.21a1.73,1.73,0,0,1-.43-.27,3,3,0,0,1-.37-.35,2.85,2.85,0,0,0,.86-1.16,1,1,0,0,0,.06-.35c0-.12,0-.24,0-.35A.45.45,0,0,0,25.29,10.6Z" style="fill:#231f20"/><path d="M30.34,5.13s0-.08,0-.11,0,0-.05,0,0,0-.06.07a2.38,2.38,0,0,1-.48.77,2.22,2.22,0,0,1-.72.52,2.29,2.29,0,0,0-.74.53,2.58,2.58,0,0,0-.52.79,2.58,2.58,0,0,0-.52-.79,2.29,2.29,0,0,0-.74-.53,2.22,2.22,0,0,1-.72-.52A2.38,2.38,0,0,1,25.27,5c0-.06,0-.08-.06-.07s0,0-.05,0,0,.07,0,.11a.32.32,0,0,0,0,.08,2.06,2.06,0,0,0,0,.36.93.93,0,0,0,.06.34,2.77,2.77,0,0,0,.53.86,2.53,2.53,0,0,0,.79.58,2.22,2.22,0,0,1,.72.52,2.56,2.56,0,0,1,.48.77c0,.06,0,.09.06.07s0,0,.06-.07a2.56,2.56,0,0,1,.48-.77A2.45,2.45,0,0,1,29,7.35a2.53,2.53,0,0,0,.79-.58,2.77,2.77,0,0,0,.53-.86.93.93,0,0,0,.06-.34,2.06,2.06,0,0,0,0-.36A.32.32,0,0,0,30.34,5.13Zm-2.5,8.31a.59.59,0,0,0-.05-.2,2.77,2.77,0,0,0-.53-.86,2.86,2.86,0,0,0-.79-.59,2.05,2.05,0,0,1-.72-.51,2.32,2.32,0,0,1-.48-.78c0-.05,0-.07-.06-.07l-.05.06s0,.07,0,.11a.28.28,0,0,0,0,.08,2,2,0,0,0,0,.35,1,1,0,0,0,.06.35,2.89,2.89,0,0,0,.53.86,2.53,2.53,0,0,0,.79.58,2.36,2.36,0,0,1,1,.86,2.41,2.41,0,0,1-1,.85,2.53,2.53,0,0,0-.79.58,2.89,2.89,0,0,0-.53.86,1,1,0,0,0-.06.35,2,2,0,0,0,0,.35.28.28,0,0,0,0,.08s0,.08,0,.11,0,.06.05.06,0,0,.06-.07a2.27,2.27,0,0,1,.48-.77,2,2,0,0,1,.72-.52,2.68,2.68,0,0,0,.79-.59,2.77,2.77,0,0,0,.53-.86.65.65,0,0,0,.05-.21,1.77,1.77,0,0,0,0-.23A1.69,1.69,0,0,0,27.84,13.44Zm2.52-.09c0-.1-.05-.16-.11-.19a2.14,2.14,0,0,1-.72-.52,2.63,2.63,0,0,1-.48-.77,2.89,2.89,0,0,0-.53-.86,2.65,2.65,0,0,0-.79-.58A2.22,2.22,0,0,1,27,9.91a2.27,2.27,0,0,1-.48-.77A2.77,2.77,0,0,0,26,8.28a2.68,2.68,0,0,0-.79-.59s0,0-.06.14a2.88,2.88,0,0,0,0,.33,2,2,0,0,0,0,.35.24.24,0,0,0,.11.21,2.45,2.45,0,0,1,.72.52,2.63,2.63,0,0,1,.48.77,2.77,2.77,0,0,0,.53.86,2.86,2.86,0,0,0,.79.59,2,2,0,0,1,.72.52,2.18,2.18,0,0,1,.48.77,3,3,0,0,0,.26.51,2.79,2.79,0,0,0,.35.42,2.3,2.3,0,0,0-.35.41,3.48,3.48,0,0,0-.26.51,2.32,2.32,0,0,1-.48.78,2.22,2.22,0,0,1-.72.52.24.24,0,0,0-.11.21,2,2,0,0,0,0,.35,1.61,1.61,0,0,0,.06.33c0,.1,0,.14.05.13a2.65,2.65,0,0,0,.79-.58,2.89,2.89,0,0,0,.53-.86,2.63,2.63,0,0,1,.48-.77,2.28,2.28,0,0,1,.72-.52c.06,0,.09-.09.11-.19a1.14,1.14,0,0,0,0-.32A1.21,1.21,0,0,0,30.36,13.35Zm0-2.5a1,1,0,0,0-.06-.35,2.89,2.89,0,0,0-.85-1.16A3,3,0,0,1,29.82,9a1.94,1.94,0,0,1,.43-.27.24.24,0,0,0,.11-.21,2,2,0,0,0,0-.35,2.88,2.88,0,0,0-.05-.33c0-.1,0-.14-.06-.14a2.51,2.51,0,0,0-.78.59,2.79,2.79,0,0,0-.54.86,1.07,1.07,0,0,0-.06.27,1.31,1.31,0,0,0,0,.28.56.56,0,0,0,.09.36l0,0h0a2.08,2.08,0,0,1,.72.52,2.27,2.27,0,0,1,.48.77s0,.07.06.07,0,0,.05,0,0-.07,0-.11a.34.34,0,0,0,0-.09A1.94,1.94,0,0,0,30.37,10.85Z" style="fill:#231f20"/><path d="M.1,5.13s0-.08,0-.11L0,5S0,5,0,5a2.38,2.38,0,0,1-.48.77,2.22,2.22,0,0,1-.72.52A2.29,2.29,0,0,0-2,6.86a2.58,2.58,0,0,0-.52.79A2.58,2.58,0,0,0-3,6.86a2.29,2.29,0,0,0-.74-.53,2.22,2.22,0,0,1-.72-.52A2.38,2.38,0,0,1-5,5C-5,5-5,5-5,5l0,0s0,.07,0,.11a.32.32,0,0,0,0,.08,2.06,2.06,0,0,0,0,.36.93.93,0,0,0,.06.34,2.77,2.77,0,0,0,.53.86,2.53,2.53,0,0,0,.79.58A2.33,2.33,0,0,1-3,7.87a2.56,2.56,0,0,1,.48.77c0,.06,0,.09.06.07s0,0,.06-.07A2.56,2.56,0,0,1-2,7.87a2.33,2.33,0,0,1,.72-.52,2.53,2.53,0,0,0,.79-.58,2.77,2.77,0,0,0,.53-.86.93.93,0,0,0,.06-.34,2.06,2.06,0,0,0,0-.36A.32.32,0,0,0,.1,5.13Zm-2.5,8.31a.59.59,0,0,0-.05-.2A2.77,2.77,0,0,0-3,12.38a2.86,2.86,0,0,0-.79-.59,2.05,2.05,0,0,1-.72-.51A2.32,2.32,0,0,1-5,10.5c0-.05,0-.07-.06-.07l0,.06s0,.07,0,.11a.28.28,0,0,0,0,.08,2,2,0,0,0,0,.35,1,1,0,0,0,.06.35,2.89,2.89,0,0,0,.53.86,2.53,2.53,0,0,0,.79.58,2.36,2.36,0,0,1,1,.86,2.41,2.41,0,0,1-1,.85,2.53,2.53,0,0,0-.79.58,2.89,2.89,0,0,0-.53.86,1,1,0,0,0-.06.35,2,2,0,0,0,0,.35.28.28,0,0,0,0,.08s0,.08,0,.11,0,.06,0,.06,0,0,.06-.07a2.27,2.27,0,0,1,.48-.77,2,2,0,0,1,.72-.52A2.68,2.68,0,0,0-3,15a2.77,2.77,0,0,0,.53-.86.65.65,0,0,0,.05-.21,1.77,1.77,0,0,0,0-.23A1.69,1.69,0,0,0-2.4,13.44Zm2.52-.09c0-.1,0-.16-.11-.19a2.14,2.14,0,0,1-.72-.52,2.63,2.63,0,0,1-.48-.77A2.89,2.89,0,0,0-1.72,11a2.65,2.65,0,0,0-.79-.58,2.22,2.22,0,0,1-.72-.52,2.27,2.27,0,0,1-.48-.77,2.77,2.77,0,0,0-.53-.86A2.68,2.68,0,0,0-5,7.69s0,0-.06.14a2.88,2.88,0,0,0,0,.33,2,2,0,0,0,0,.35A.24.24,0,0,0-5,8.72a2.45,2.45,0,0,1,.72.52,2.63,2.63,0,0,1,.48.77,2.77,2.77,0,0,0,.53.86,2.86,2.86,0,0,0,.79.59,2,2,0,0,1,.72.52,2.18,2.18,0,0,1,.48.77,2.44,2.44,0,0,0,.26.51,2.79,2.79,0,0,0,.35.42,2.3,2.3,0,0,0-.35.41,2.71,2.71,0,0,0-.26.51,2.32,2.32,0,0,1-.48.78,2.22,2.22,0,0,1-.72.52.24.24,0,0,0-.11.21,2,2,0,0,0,0,.35,2.88,2.88,0,0,0,.05.33c0,.1,0,.14.06.13a2.65,2.65,0,0,0,.79-.58,2.89,2.89,0,0,0,.53-.86,2.63,2.63,0,0,1,.48-.77A2.28,2.28,0,0,1,0,14.19c.06,0,.09-.09.11-.19a1.14,1.14,0,0,0,0-.32A1.21,1.21,0,0,0,.12,13.35Zm0-2.5a1,1,0,0,0-.06-.35A2.89,2.89,0,0,0-.78,9.34,3,3,0,0,1-.42,9,1.94,1.94,0,0,1,0,8.72a.24.24,0,0,0,.11-.21,2,2,0,0,0,0-.35,2.88,2.88,0,0,0,0-.33c0-.1,0-.14-.06-.14a2.51,2.51,0,0,0-.78.59,2.79,2.79,0,0,0-.54.86,1.07,1.07,0,0,0-.06.27,1.31,1.31,0,0,0,0,.28.56.56,0,0,0,.09.36l0,0h0a2.08,2.08,0,0,1,.72.52,2.27,2.27,0,0,1,.48.77s0,.07.06.07l0,0s0-.07,0-.11a.34.34,0,0,0,0-.09A1.94,1.94,0,0,0,.13,10.85Z" style="fill:#231f20"/><path d="M35.36-5.81s0-.08,0-.11l0-.06s0,0-.06.07a2.32,2.32,0,0,1-.48.78,2.05,2.05,0,0,1-.72.51,2.58,2.58,0,0,0-1.32,1.45,2.44,2.44,0,0,1-.48.77,2.28,2.28,0,0,1-.72.52,2.69,2.69,0,0,0-.79.58,2.89,2.89,0,0,0-.53.86,1,1,0,0,0-.06.35,1.94,1.94,0,0,0,0,.35.28.28,0,0,0,0,.08s0,.08,0,.11,0,.06.05.06,0,0,.06-.07a2.27,2.27,0,0,1,.48-.77,2,2,0,0,1,.72-.52,2.68,2.68,0,0,0,.79-.59,2.77,2.77,0,0,0,.53-.86,2.38,2.38,0,0,1,.48-.77A2.22,2.22,0,0,1,34-3.59a2.53,2.53,0,0,0,.79-.58A2.89,2.89,0,0,0,35.33-5a.93.93,0,0,0,.06-.34,2.06,2.06,0,0,0,0-.36A.28.28,0,0,0,35.36-5.81ZM31.61,3.93a1.07,1.07,0,0,0-.06-.27A2.87,2.87,0,0,0,31,2.81a2.51,2.51,0,0,0-.78-.59s0,0-.06.14a2.57,2.57,0,0,0-.05.33,2,2,0,0,0,0,.35.24.24,0,0,0,.11.21,1.94,1.94,0,0,1,.43.27,2.38,2.38,0,0,1,.36.35A2.83,2.83,0,0,0,30.17,5a1,1,0,0,0-.06.35,2,2,0,0,0,0,.35.28.28,0,0,0,0,.08s0,.08,0,.11a.16.16,0,0,0,.05.06s0,0,.06-.07a2.18,2.18,0,0,1,.48-.77,2,2,0,0,1,.72-.52s0,0,0,0l0,0a.26.26,0,0,0,.07-.15,1.25,1.25,0,0,0,0-.21A1.4,1.4,0,0,0,31.61,3.93Zm1.25-9.1a2,2,0,0,0,0-.35,2.88,2.88,0,0,0,0-.33c0-.09-.05-.14-.06-.13a2.53,2.53,0,0,0-1.32,1.44,2.63,2.63,0,0,1-.48.77,2.14,2.14,0,0,1-.72.52.25.25,0,0,0-.11.22,2,2,0,0,0,0,.35,2.69,2.69,0,0,0,.05.32c0,.1,0,.15.06.14A2.65,2.65,0,0,0,31-2.8a3.05,3.05,0,0,0,.54-.86A2.18,2.18,0,0,1,32-4.43a2,2,0,0,1,.72-.52A.25.25,0,0,0,32.86-5.17Zm6.24,8.8,0,0h0a2.45,2.45,0,0,1-.72-.52,2.63,2.63,0,0,1-.48-.77s0-.08-.06-.07,0,0-.06.07a2.29,2.29,0,0,1-1.18,1.28A2.81,2.81,0,0,0,36,2.77a2.6,2.6,0,0,0-.76-.55,2.28,2.28,0,0,1-.72-.52,2.63,2.63,0,0,1-.48-.77S34,.86,34,.86h0a2.63,2.63,0,0,0-.74.53,2.76,2.76,0,0,0-.52.8,2.57,2.57,0,0,0-.8-1,4.17,4.17,0,0,1,.37-.36,3.12,3.12,0,0,1,.43-.27,2.65,2.65,0,0,0,.79-.58,2.77,2.77,0,0,0,.53-.86,2.63,2.63,0,0,1,.48-.77,2.28,2.28,0,0,1,.72-.52,2.69,2.69,0,0,0,.79-.58,3,3,0,0,0,.53-.86,2.51,2.51,0,0,1,.48-.77,2.14,2.14,0,0,1,.72-.52.25.25,0,0,0,.11-.22,2,2,0,0,0,0-.35,2.88,2.88,0,0,0,0-.33c0-.09,0-.14-.06-.13a2.57,2.57,0,0,0-1.32,1.44,2.27,2.27,0,0,1-.48.77,2,2,0,0,1-.72.52A2.55,2.55,0,0,0,34-1.8a2.38,2.38,0,0,1-.48.77,2.22,2.22,0,0,1-.72.52A2.53,2.53,0,0,0,32,.07a2.89,2.89,0,0,0-.53.86.6.6,0,0,0-.06.27,1.41,1.41,0,0,0,0,.29.53.53,0,0,0,.09.35l0,0h0a2.45,2.45,0,0,1,.72.52,2.44,2.44,0,0,1,.48.77c0,.06,0,.08.06.07s0,0,.06-.07A2.29,2.29,0,0,1,34,1.89a2.84,2.84,0,0,0,.53.81,2.43,2.43,0,0,0,.75.55,2.08,2.08,0,0,1,.72.52,2.27,2.27,0,0,1,.48.77s0,.06.06.06v0a2.49,2.49,0,0,0,.74-.53,2.57,2.57,0,0,0,.52-.8,2.57,2.57,0,0,0,.8,1,3.15,3.15,0,0,1-.37.36,2.05,2.05,0,0,1-.43.26c-.06,0-.09.1-.1.22a2,2,0,0,0,0,.35,1.63,1.63,0,0,0,.05.33c0,.09,0,.14,0,.13a2.42,2.42,0,0,0,.79-.58,3.14,3.14,0,0,0,.54-.86,1.07,1.07,0,0,0,.06-.27V4A.62.62,0,0,0,39.1,3.63ZM35.39,5.38A1,1,0,0,0,35.33,5a2.89,2.89,0,0,0-.53-.86A2.53,2.53,0,0,0,34,3.59s0,0-.06.07a2.18,2.18,0,0,1-.48.77,2,2,0,0,1-.72.52.25.25,0,0,0-.11.22,2,2,0,0,0,0,.35,2.88,2.88,0,0,0,0,.33c0,.09.05.14.06.13a2.6,2.6,0,0,0,.76-.55,2.9,2.9,0,0,0,.52-.8,2.23,2.23,0,0,1,1.18,1.28s0,.07.06.07a.16.16,0,0,0,0-.06s0-.07,0-.11a.28.28,0,0,0,0-.08A2,2,0,0,0,35.39,5.38Zm5-11.19a.36.36,0,0,0,0-.11s0,0,0-.06,0,0-.05.07a2.69,2.69,0,0,1-.48.78,2.19,2.19,0,0,1-.73.51,2.65,2.65,0,0,0-1.32,1.45,2.27,2.27,0,0,1-.48.77,2.08,2.08,0,0,1-.72.52,2.65,2.65,0,0,0-.78.58,2.92,2.92,0,0,0-.54.86.79.79,0,0,0-.05.22,1.69,1.69,0,0,0,0,.23,1.69,1.69,0,0,0,0,.23.65.65,0,0,0,.05.2,2.92,2.92,0,0,0,.54.86,2.48,2.48,0,0,0,.78.58s0,0,.06-.07A2.69,2.69,0,0,1,37.07,1a2.45,2.45,0,0,1,.72-.52,2.42,2.42,0,0,0,.79-.58,3,3,0,0,0,.54-.86,2.42,2.42,0,0,1,.47-.77,2.22,2.22,0,0,1,.73-.52c.06,0,.09-.1.1-.21a2,2,0,0,0,0-.35,2.88,2.88,0,0,0-.05-.33c0-.1,0-.14,0-.14A2.6,2.6,0,0,0,39-1.8a2.53,2.53,0,0,1-.47.77,2.37,2.37,0,0,1-.73.52A2.28,2.28,0,0,0,37,0a2.93,2.93,0,0,0-.53.8A2.4,2.4,0,0,1,35.56,0a2.4,2.4,0,0,1,1-.85,2.44,2.44,0,0,0,.79-.59,2.77,2.77,0,0,0,.53-.86,2.77,2.77,0,0,1,.48-.77,2.45,2.45,0,0,1,.72-.52,2.42,2.42,0,0,0,.79-.58A3.14,3.14,0,0,0,40.38-5a.93.93,0,0,0,.06-.34c0-.13,0-.25,0-.36A.45.45,0,0,0,40.4-5.81Zm0,5.47a.36.36,0,0,0,0-.11s0,0,0-.06,0,0-.05.07a2.63,2.63,0,0,1-.48.77,2.08,2.08,0,0,1-.73.52h0l0,0A.37.37,0,0,0,39,1a1.5,1.5,0,0,0,0,.22v.29a1.07,1.07,0,0,0,.06.27,3.08,3.08,0,0,0,.54.85,2.44,2.44,0,0,0,.79.59s0,0,0-.14a2.88,2.88,0,0,0,.05-.33,2,2,0,0,0,0-.35c0-.11,0-.18-.1-.21A1.73,1.73,0,0,1,39.89,2a2.44,2.44,0,0,1-.37-.35A2.92,2.92,0,0,0,40.38.44a1,1,0,0,0,.06-.35c0-.12,0-.24,0-.35A.45.45,0,0,0,40.4-.34Z" style="fill:#231f20"/><path d="M5.12-5.81s0-.08,0-.11L5-6S5-6,5-5.91a2.32,2.32,0,0,1-.48.78,2.05,2.05,0,0,1-.72.51A2.58,2.58,0,0,0,2.45-3.17,2.44,2.44,0,0,1,2-2.4a2.28,2.28,0,0,1-.72.52,2.69,2.69,0,0,0-.79.58,2.89,2.89,0,0,0-.53.86,1,1,0,0,0-.06.35,1.94,1.94,0,0,0,0,.35A.28.28,0,0,0-.1.34s0,.08,0,.11S0,.51,0,.51,0,.49.05.44A2.27,2.27,0,0,1,.53-.33a2,2,0,0,1,.72-.52A2.68,2.68,0,0,0,2-1.44a2.77,2.77,0,0,0,.53-.86,2.38,2.38,0,0,1,.48-.77,2.22,2.22,0,0,1,.72-.52,2.53,2.53,0,0,0,.79-.58A2.89,2.89,0,0,0,5.09-5a.93.93,0,0,0,.06-.34,2.06,2.06,0,0,0,0-.36A.28.28,0,0,0,5.12-5.81ZM1.37,3.93a1.07,1.07,0,0,0-.06-.27,2.87,2.87,0,0,0-.54-.85A2.51,2.51,0,0,0,0,2.22s0,0-.06.14a2.57,2.57,0,0,0,0,.33A2,2,0,0,0-.12,3,.24.24,0,0,0,0,3.25a2.2,2.2,0,0,1,.43.27,2.38,2.38,0,0,1,.36.35A2.74,2.74,0,0,0-.07,5a1,1,0,0,0-.06.35,2,2,0,0,0,0,.35.28.28,0,0,0,0,.08s0,.08,0,.11A.16.16,0,0,0,0,6s0,0,.06-.07a2.18,2.18,0,0,1,.48-.77,2,2,0,0,1,.72-.52,0,0,0,0,0,0,0l0,0a.26.26,0,0,0,.07-.15,1.25,1.25,0,0,0,0-.21A1.4,1.4,0,0,0,1.37,3.93Zm1.25-9.1a2,2,0,0,0,0-.35,2.88,2.88,0,0,0-.05-.33c0-.09,0-.14-.06-.13A2.53,2.53,0,0,0,1.19-4.54a2.63,2.63,0,0,1-.48.77A2.14,2.14,0,0,1,0-3.25.25.25,0,0,0-.12-3a2,2,0,0,0,0,.35,2.69,2.69,0,0,0,0,.32c0,.1,0,.15.06.14A2.65,2.65,0,0,0,.77-2.8a3.05,3.05,0,0,0,.54-.86,2.18,2.18,0,0,1,.48-.77,2,2,0,0,1,.72-.52A.25.25,0,0,0,2.62-5.17Zm6.24,8.8,0,0h0a2.45,2.45,0,0,1-.72-.52,2.63,2.63,0,0,1-.48-.77s0-.08-.06-.07,0,0-.06.07A2.29,2.29,0,0,1,6.31,3.58a2.81,2.81,0,0,0-.52-.81A2.6,2.6,0,0,0,5,2.22a2.28,2.28,0,0,1-.72-.52A2.44,2.44,0,0,1,3.83.93s0-.07-.06-.07h0A2.63,2.63,0,0,0,3,1.38a2.76,2.76,0,0,0-.52.8,2.57,2.57,0,0,0-.8-1A4.17,4.17,0,0,1,2.08.78,2.62,2.62,0,0,1,2.51.51,2.65,2.65,0,0,0,3.3-.07a2.77,2.77,0,0,0,.53-.86,2.44,2.44,0,0,1,.48-.77A2.28,2.28,0,0,1,5-2.22a2.69,2.69,0,0,0,.79-.58,3,3,0,0,0,.53-.86,2.51,2.51,0,0,1,.48-.77,2.14,2.14,0,0,1,.72-.52.25.25,0,0,0,.11-.22,2,2,0,0,0,0-.35,2.88,2.88,0,0,0,0-.33c0-.09,0-.14-.06-.13A2.53,2.53,0,0,0,6.23-4.54a2.27,2.27,0,0,1-.48.77A2,2,0,0,1,5-3.25,2.55,2.55,0,0,0,3.71-1.8,2.38,2.38,0,0,1,3.23-1a2.22,2.22,0,0,1-.72.52,2.53,2.53,0,0,0-.79.58,2.89,2.89,0,0,0-.53.86.6.6,0,0,0-.06.27,1.41,1.41,0,0,0,0,.29.53.53,0,0,0,.09.35,0,0,0,0,0,0,0h0A2.45,2.45,0,0,1,2,2.4a2.44,2.44,0,0,1,.48.77c0,.06,0,.08.06.07s0,0,.06-.07A2.29,2.29,0,0,1,3.75,1.89a2.81,2.81,0,0,0,.52.81A2.6,2.6,0,0,0,5,3.25a2.08,2.08,0,0,1,.72.52,2.27,2.27,0,0,1,.48.77s0,.06.06.06v0A2.63,2.63,0,0,0,7,4.09a2.57,2.57,0,0,0,.52-.8,2.57,2.57,0,0,0,.8,1A3.15,3.15,0,0,1,8,4.69,2.05,2.05,0,0,1,7.55,5c-.06,0-.09.1-.1.22a2,2,0,0,0,0,.35,1.63,1.63,0,0,0,0,.33c0,.09,0,.14,0,.13a2.42,2.42,0,0,0,.79-.58,3.14,3.14,0,0,0,.54-.86,1.07,1.07,0,0,0,.06-.27V4A.62.62,0,0,0,8.86,3.63ZM5.15,5.38A1,1,0,0,0,5.09,5a2.89,2.89,0,0,0-.53-.86,2.53,2.53,0,0,0-.79-.58s0,0-.06.07a2.18,2.18,0,0,1-.48.77A2,2,0,0,1,2.51,5a.25.25,0,0,0-.11.22,2,2,0,0,0,0,.35,2.88,2.88,0,0,0,.05.33c0,.09,0,.14.06.13a2.6,2.6,0,0,0,.76-.55,2.9,2.9,0,0,0,.52-.8A2.23,2.23,0,0,1,5,5.91S5,6,5,6a.16.16,0,0,0,0-.06s0-.07,0-.11a.28.28,0,0,0,0-.08A2,2,0,0,0,5.15,5.38Zm5-11.19a.36.36,0,0,0,0-.11s0,0,0-.06,0,0-.05.07a2.69,2.69,0,0,1-.48.78,2.19,2.19,0,0,1-.73.51A2.65,2.65,0,0,0,7.49-3.17,2.27,2.27,0,0,1,7-2.4a2.08,2.08,0,0,1-.72.52,2.65,2.65,0,0,0-.78.58A2.92,2.92,0,0,0,5-.44a.79.79,0,0,0,0,.22,1.69,1.69,0,0,0,0,.23,1.69,1.69,0,0,0,0,.23.65.65,0,0,0,0,.2,2.92,2.92,0,0,0,.54.86,2.48,2.48,0,0,0,.78.58s0,0,.06-.07A2.69,2.69,0,0,1,6.83,1,2.45,2.45,0,0,1,7.55.51a2.42,2.42,0,0,0,.79-.58,3,3,0,0,0,.54-.86,2.42,2.42,0,0,1,.47-.77,2.22,2.22,0,0,1,.73-.52c.06,0,.09-.1.1-.21a2,2,0,0,0,0-.35,2.88,2.88,0,0,0,0-.33c0-.1,0-.14-.05-.14A2.6,2.6,0,0,0,8.75-1.8,2.38,2.38,0,0,1,8.27-1a2.22,2.22,0,0,1-.72.52A2.28,2.28,0,0,0,6.8,0a2.93,2.93,0,0,0-.53.8A2.4,2.4,0,0,1,5.32,0a2.4,2.4,0,0,1,1-.85,2.44,2.44,0,0,0,.79-.59,2.77,2.77,0,0,0,.53-.86,2.77,2.77,0,0,1,.48-.77,2.45,2.45,0,0,1,.72-.52,2.42,2.42,0,0,0,.79-.58A3.14,3.14,0,0,0,10.14-5a.93.93,0,0,0,.06-.34c0-.13,0-.25,0-.36A.45.45,0,0,0,10.16-5.81Zm0,5.47a.36.36,0,0,0,0-.11s0,0,0-.06,0,0-.05.07a2.63,2.63,0,0,1-.48.77,2.08,2.08,0,0,1-.73.52h0l0,0A.37.37,0,0,0,8.71,1a1.5,1.5,0,0,0,0,.22v.29a1.07,1.07,0,0,0,.06.27,3.08,3.08,0,0,0,.54.85,2.44,2.44,0,0,0,.79.59s0,0,.05-.14a2.88,2.88,0,0,0,0-.33,2,2,0,0,0,0-.35c0-.11,0-.18-.1-.21A1.73,1.73,0,0,1,9.65,2a2.44,2.44,0,0,1-.37-.35A2.92,2.92,0,0,0,10.14.44,1,1,0,0,0,10.2.09c0-.12,0-.24,0-.35A.45.45,0,0,0,10.16-.34Z" style="fill:#231f20"/><path d="M15.21-5.81s0-.08,0-.11A.17.17,0,0,0,15.11-6s0,0,0,.07a2.69,2.69,0,0,1-.48.78,2.15,2.15,0,0,1-.72.51,2.48,2.48,0,0,0-.74.54,2.58,2.58,0,0,0-.52.79,2.78,2.78,0,0,0-.52-.79,2.48,2.48,0,0,0-.74-.54,2.05,2.05,0,0,1-.72-.51,2.32,2.32,0,0,1-.48-.78s0-.07-.06-.07,0,0-.05.06a.36.36,0,0,0,0,.11.45.45,0,0,0,0,.08c0,.11,0,.23,0,.36A.77.77,0,0,0,10-5a2.89,2.89,0,0,0,.53.86,2.42,2.42,0,0,0,.79.58,2.45,2.45,0,0,1,.72.52,2.77,2.77,0,0,1,.48.77c0,.06,0,.08.06.07s0,0,.06-.07a2.38,2.38,0,0,1,.48-.77,2.22,2.22,0,0,1,.72-.52,2.65,2.65,0,0,0,.79-.58A2.89,2.89,0,0,0,15.18-5a.93.93,0,0,0,.06-.34c0-.13,0-.25,0-.36A.28.28,0,0,0,15.21-5.81Zm-2.5,8.3a.59.59,0,0,0-.05-.19,2.79,2.79,0,0,0-.54-.86,2.51,2.51,0,0,0-.78-.59,2,2,0,0,1-.72-.52,2.27,2.27,0,0,1-.48-.77s0-.07-.06-.07,0,0-.05.06a.36.36,0,0,0,0,.11.45.45,0,0,0,0,.08c0,.11,0,.23,0,.35A.78.78,0,0,0,10,.44a2.89,2.89,0,0,0,.53.86,2.42,2.42,0,0,0,.79.58,2.48,2.48,0,0,1,1,.85,2.43,2.43,0,0,1-1,.86,2.42,2.42,0,0,0-.79.58A2.89,2.89,0,0,0,10,5a.78.78,0,0,0-.07.35c0,.12,0,.24,0,.35a.45.45,0,0,0,0,.08.36.36,0,0,0,0,.11s0,0,.05.06,0,0,.06-.07a2.18,2.18,0,0,1,.48-.77,2,2,0,0,1,.72-.52A2.68,2.68,0,0,0,12.12,4a2.79,2.79,0,0,0,.54-.86A.65.65,0,0,0,12.71,3a1.93,1.93,0,0,0,0-.24A1.77,1.77,0,0,0,12.71,2.49Zm2.52-.08a.27.27,0,0,0-.11-.19,2.08,2.08,0,0,1-.72-.52,2.27,2.27,0,0,1-.48-.77,2.92,2.92,0,0,0-.54-.86,2.48,2.48,0,0,0-.78-.58A2.22,2.22,0,0,1,11.88-1a2.38,2.38,0,0,1-.48-.77,3,3,0,0,0-.54-.86,2.51,2.51,0,0,0-.78-.59s0,0-.06.14a2.88,2.88,0,0,0,0,.33,2,2,0,0,0,0,.35.24.24,0,0,0,.11.21,2.28,2.28,0,0,1,.72.52,2.63,2.63,0,0,1,.48.77,2.77,2.77,0,0,0,.53.86,2.53,2.53,0,0,0,.79.58,2.45,2.45,0,0,1,.72.52,2.69,2.69,0,0,1,.48.78,2.71,2.71,0,0,0,.26.51,2.74,2.74,0,0,0,.34.41,3.47,3.47,0,0,0-.34.42,2.44,2.44,0,0,0-.26.51,2.51,2.51,0,0,1-.48.77A2.14,2.14,0,0,1,12.6,5a.25.25,0,0,0-.11.22,2,2,0,0,0,0,.35,2.88,2.88,0,0,0,0,.33c0,.09,0,.14.06.13a2.48,2.48,0,0,0,.78-.58,2.92,2.92,0,0,0,.54-.86,2.27,2.27,0,0,1,.48-.77,2.08,2.08,0,0,1,.72-.52.27.27,0,0,0,.11-.19,1.82,1.82,0,0,0,0-.33A1.71,1.71,0,0,0,15.23,2.41Zm0-2.5a1,1,0,0,0-.06-.35,2.83,2.83,0,0,0-.86-1.16,3,3,0,0,1,.37-.35,1.94,1.94,0,0,1,.43-.27.24.24,0,0,0,.11-.21,2,2,0,0,0,0-.35,2.88,2.88,0,0,0-.05-.33c0-.1,0-.14-.06-.14a2.68,2.68,0,0,0-.79.59,2.77,2.77,0,0,0-.53.86.58.58,0,0,0-.06.26,1.4,1.4,0,0,0,0,.29.51.51,0,0,0,.09.35s0,0,0,0h0a2,2,0,0,1,.72.52,2.63,2.63,0,0,1,.48.77s0,.07,0,.07,0,0,.06-.06,0-.07,0-.11a.28.28,0,0,0,0-.08C15.23.15,15.24,0,15.24-.09Z" style="fill:#231f20"/><path d="M20.25-5.81a.36.36,0,0,0,0-.11s0,0-.05-.06,0,0-.06.07a2.32,2.32,0,0,1-.48.78,2.05,2.05,0,0,1-.72.51,2.58,2.58,0,0,0-1.32,1.45,2.27,2.27,0,0,1-.48.77,2.08,2.08,0,0,1-.72.52,2.83,2.83,0,0,0-.79.58,2.89,2.89,0,0,0-.53.86A1,1,0,0,0,15-.09c0,.13,0,.24,0,.35a.28.28,0,0,0,0,.08s0,.08,0,.11,0,.06,0,.06,0,0,.06-.07a2.27,2.27,0,0,1,.48-.77,2,2,0,0,1,.72-.52,2.56,2.56,0,0,0,.79-.59,2.77,2.77,0,0,0,.53-.86,2.77,2.77,0,0,1,.48-.77,2.45,2.45,0,0,1,.72-.52,2.42,2.42,0,0,0,.79-.58A2.89,2.89,0,0,0,20.22-5a.94.94,0,0,0,.07-.34,2,2,0,0,0,0-.36A.28.28,0,0,0,20.25-5.81ZM16.5,3.93a.6.6,0,0,0-.06-.27,2.84,2.84,0,0,0-.53-.85,2.68,2.68,0,0,0-.79-.59s0,0-.06.14a2.57,2.57,0,0,0-.05.33A2,2,0,0,0,15,3a.24.24,0,0,0,.11.21,1.94,1.94,0,0,1,.43.27,3,3,0,0,1,.37.35A2.76,2.76,0,0,0,15.06,5a1,1,0,0,0-.06.35c0,.12,0,.24,0,.35a.28.28,0,0,0,0,.08s0,.08,0,.11a.16.16,0,0,0,0,.06s0,0,.06-.07a2.18,2.18,0,0,1,.48-.77,2,2,0,0,1,.72-.52s0,0,0,0l0,0a.26.26,0,0,0,.07-.15.68.68,0,0,0,0-.21A1.4,1.4,0,0,0,16.5,3.93Zm1.25-9.1a2,2,0,0,0,0-.35,2.88,2.88,0,0,0-.05-.33c0-.09,0-.14-.06-.13a2.53,2.53,0,0,0-1.32,1.44,2.27,2.27,0,0,1-.48.77,2,2,0,0,1-.72.52A.25.25,0,0,0,15-3a2,2,0,0,0,0,.35,2.69,2.69,0,0,0,.05.32c0,.1,0,.15.06.14a2.83,2.83,0,0,0,.79-.58,3,3,0,0,0,.53-.86,2.51,2.51,0,0,1,.48-.77,2.14,2.14,0,0,1,.72-.52A.25.25,0,0,0,17.75-5.17ZM24,3.63s0,0,0,0h0a2.22,2.22,0,0,1-.72-.52,2.27,2.27,0,0,1-.48-.77s0-.08-.06-.07,0,0-.06.07a2.3,2.3,0,0,1-1.19,1.28,2.56,2.56,0,0,0-1.28-1.36,2.28,2.28,0,0,1-.72-.52A2.63,2.63,0,0,1,19,.93s0-.07-.06-.07h0a2.63,2.63,0,0,0-.74.53,3,3,0,0,0-.52.8,2.49,2.49,0,0,0-.8-1,4.17,4.17,0,0,1,.37-.36,3.12,3.12,0,0,1,.43-.27,2.53,2.53,0,0,0,.79-.58A2.77,2.77,0,0,0,19-.93a2.63,2.63,0,0,1,.48-.77,2.28,2.28,0,0,1,.72-.52A2.57,2.57,0,0,0,21-2.8a3.29,3.29,0,0,0,.54-.86A2.31,2.31,0,0,1,22-4.43a2.08,2.08,0,0,1,.73-.52c.06,0,.09-.1.1-.22a2,2,0,0,0,0-.35,2.88,2.88,0,0,0-.05-.33c0-.09,0-.14,0-.13a2.53,2.53,0,0,0-1.32,1.44,2.63,2.63,0,0,1-.48.77,2.08,2.08,0,0,1-.73.52A2.59,2.59,0,0,0,18.84-1.8a2.38,2.38,0,0,1-.48.77,2.22,2.22,0,0,1-.72.52,2.65,2.65,0,0,0-.79.58,2.89,2.89,0,0,0-.53.86,1.07,1.07,0,0,0-.06.27,1.41,1.41,0,0,0,0,.29.53.53,0,0,0,.09.35l0,0h0a2.22,2.22,0,0,1,.72.52,2.27,2.27,0,0,1,.48.77c0,.06,0,.08.06.07s0,0,.06-.07a2.29,2.29,0,0,1,1.18-1.28,2.84,2.84,0,0,0,.53.81,2.43,2.43,0,0,0,.75.55,2.22,2.22,0,0,1,.73.52,2.63,2.63,0,0,1,.48.77s0,.06.06.06v0a2.63,2.63,0,0,0,.74-.53,3,3,0,0,0,.52-.8,2.55,2.55,0,0,0,.79,1,2.53,2.53,0,0,1-.37.36,2.26,2.26,0,0,1-.42.26.25.25,0,0,0-.11.22,2,2,0,0,0,0,.35,2.88,2.88,0,0,0,.05.33c0,.09,0,.14.06.13a2.48,2.48,0,0,0,.78-.58A3.14,3.14,0,0,0,24,4.54a1.07,1.07,0,0,0,.06-.27,1.41,1.41,0,0,0,0-.29A.62.62,0,0,0,24,3.63Zm-3.7,1.75A1,1,0,0,0,20.22,5a2.89,2.89,0,0,0-.53-.86,2.42,2.42,0,0,0-.79-.58s0,0-.06.07a2.18,2.18,0,0,1-.48.77,2,2,0,0,1-.72.52c-.06,0-.09.1-.1.22a2,2,0,0,0,0,.35,1.63,1.63,0,0,0,.05.33c0,.09,0,.14.05.13a2.6,2.6,0,0,0,.76-.55,2.9,2.9,0,0,0,.52-.8A2.23,2.23,0,0,1,20.1,5.91s0,.07.06.07,0,0,.05-.06a.36.36,0,0,0,0-.11.28.28,0,0,0,0-.08A2,2,0,0,0,20.29,5.38Zm5-11.19a.36.36,0,0,0,0-.11A.1.1,0,0,0,25.2-6s0,0-.05.07a2.69,2.69,0,0,1-.48.78,2.25,2.25,0,0,1-.72.51,2.58,2.58,0,0,0-1.32,1.45,2.63,2.63,0,0,1-.48.77,2.28,2.28,0,0,1-.72.52,2.57,2.57,0,0,0-.79.58,3.14,3.14,0,0,0-.54.86,1.42,1.42,0,0,0-.05.22c0,.07,0,.15,0,.23s0,.16,0,.23a1.17,1.17,0,0,0,.05.2,3.14,3.14,0,0,0,.54.86,2.42,2.42,0,0,0,.79.58s0,0,.06-.07A2.46,2.46,0,0,1,22,1a2.37,2.37,0,0,1,.73-.52,2.48,2.48,0,0,0,.78-.58A3,3,0,0,0,24-.93a2.27,2.27,0,0,1,.48-.77,2.08,2.08,0,0,1,.72-.52c.06,0,.09-.1.1-.21a2,2,0,0,0,0-.35,1.63,1.63,0,0,0,0-.33c0-.1,0-.14-.05-.14A2.55,2.55,0,0,0,23.89-1.8a2.77,2.77,0,0,1-.48.77,2.45,2.45,0,0,1-.72.52,2.32,2.32,0,0,0-.76.55,2.69,2.69,0,0,0-.52.8A2.33,2.33,0,0,1,20.46,0a2.28,2.28,0,0,1,1-.85,2.51,2.51,0,0,0,.78-.59,3,3,0,0,0,.54-.86,2.38,2.38,0,0,1,.48-.77A2.22,2.22,0,0,1,24-3.59a2.48,2.48,0,0,0,.78-.58A2.92,2.92,0,0,0,25.27-5a.93.93,0,0,0,.06-.34c0-.13,0-.25,0-.36A.45.45,0,0,0,25.29-5.81Zm0,5.47a.36.36,0,0,0,0-.11.08.08,0,0,0-.05-.06s0,0-.05.07a2.63,2.63,0,0,1-.48.77A2.14,2.14,0,0,1,24,.85a0,0,0,0,0,0,0l0,0a.21.21,0,0,0-.07.14.78.78,0,0,0,0,.22,1.4,1.4,0,0,0,0,.29.6.6,0,0,0,.06.27,2.84,2.84,0,0,0,.53.85,2.56,2.56,0,0,0,.79.59s0,0,.05-.14a1.63,1.63,0,0,0,0-.33,2,2,0,0,0,0-.35c0-.11,0-.18-.1-.21A1.73,1.73,0,0,1,24.78,2a3,3,0,0,1-.37-.35A2.92,2.92,0,0,0,25.27.44a1,1,0,0,0,.06-.35c0-.12,0-.24,0-.35A.45.45,0,0,0,25.29-.34Z" style="fill:#231f20"/><path d="M30.34-5.81s0-.08,0-.11L30.25-6s0,0-.06.07a2.32,2.32,0,0,1-.48.78,2.05,2.05,0,0,1-.72.51,2.48,2.48,0,0,0-.74.54,2.58,2.58,0,0,0-.52.79,2.58,2.58,0,0,0-.52-.79,2.48,2.48,0,0,0-.74-.54,2.05,2.05,0,0,1-.72-.51,2.32,2.32,0,0,1-.48-.78s0-.07-.06-.07l-.05.06s0,.07,0,.11a.28.28,0,0,0,0,.08,2.06,2.06,0,0,0,0,.36.93.93,0,0,0,.06.34,2.89,2.89,0,0,0,.53.86,2.53,2.53,0,0,0,.79.58,2.22,2.22,0,0,1,.72.52,2.56,2.56,0,0,1,.48.77c0,.06,0,.08.06.07s0,0,.06-.07a2.56,2.56,0,0,1,.48-.77A2.45,2.45,0,0,1,29-3.59a2.53,2.53,0,0,0,.79-.58A2.89,2.89,0,0,0,30.31-5a.93.93,0,0,0,.06-.34,2.06,2.06,0,0,0,0-.36A.28.28,0,0,0,30.34-5.81Zm-2.5,8.3a.59.59,0,0,0-.05-.19,2.77,2.77,0,0,0-.53-.86,2.68,2.68,0,0,0-.79-.59,2,2,0,0,1-.72-.52,2.27,2.27,0,0,1-.48-.77s0-.07-.06-.07a.16.16,0,0,0-.05.06s0,.07,0,.11a.28.28,0,0,0,0,.08,2,2,0,0,0,0,.35,1,1,0,0,0,.06.35,2.89,2.89,0,0,0,.53.86,2.53,2.53,0,0,0,.79.58,2.41,2.41,0,0,1,1,.85,2.36,2.36,0,0,1-1,.86,2.53,2.53,0,0,0-.79.58,2.89,2.89,0,0,0-.53.86,1,1,0,0,0-.06.35,2,2,0,0,0,0,.35.28.28,0,0,0,0,.08s0,.08,0,.11a.16.16,0,0,0,.05.06s0,0,.06-.07a2.18,2.18,0,0,1,.48-.77,2,2,0,0,1,.72-.52A2.86,2.86,0,0,0,27.26,4a2.77,2.77,0,0,0,.53-.86A.65.65,0,0,0,27.84,3a1.93,1.93,0,0,0,0-.24A1.77,1.77,0,0,0,27.84,2.49Zm2.52-.08c0-.1-.05-.16-.11-.19a2.28,2.28,0,0,1-.72-.52,2.63,2.63,0,0,1-.48-.77,2.89,2.89,0,0,0-.53-.86,2.65,2.65,0,0,0-.79-.58A2.22,2.22,0,0,1,27-1a2.38,2.38,0,0,1-.48-.77A2.77,2.77,0,0,0,26-2.66a2.68,2.68,0,0,0-.79-.59s0,0-.06.14a2.88,2.88,0,0,0,0,.33,2,2,0,0,0,0,.35.24.24,0,0,0,.11.21,2.28,2.28,0,0,1,.72.52,2.63,2.63,0,0,1,.48.77,2.77,2.77,0,0,0,.53.86,2.65,2.65,0,0,0,.79.58,2.22,2.22,0,0,1,.72.52,2.32,2.32,0,0,1,.48.78,3.48,3.48,0,0,0,.26.51,2.3,2.3,0,0,0,.35.41,2.79,2.79,0,0,0-.35.42,3,3,0,0,0-.26.51,2.18,2.18,0,0,1-.48.77,2,2,0,0,1-.72.52.25.25,0,0,0-.11.22,2,2,0,0,0,0,.35,1.61,1.61,0,0,0,.06.33c0,.09,0,.14.05.13a2.65,2.65,0,0,0,.79-.58,2.89,2.89,0,0,0,.53-.86,2.63,2.63,0,0,1,.48-.77,2.28,2.28,0,0,1,.72-.52c.06,0,.09-.09.11-.19a1.21,1.21,0,0,0,0-.33A1.14,1.14,0,0,0,30.36,2.41Zm0-2.5a1,1,0,0,0-.06-.35,2.89,2.89,0,0,0-.85-1.16,2.38,2.38,0,0,1,.36-.35,1.94,1.94,0,0,1,.43-.27.24.24,0,0,0,.11-.21,2,2,0,0,0,0-.35,2.88,2.88,0,0,0-.05-.33c0-.1,0-.14-.06-.14a2.51,2.51,0,0,0-.78.59,2.79,2.79,0,0,0-.54.86,1.1,1.1,0,0,0-.06.26,1.4,1.4,0,0,0,0,.29A.51.51,0,0,0,29-.9s0,0,0,0h0a2,2,0,0,1,.72.52,2.27,2.27,0,0,1,.48.77s0,.07.06.07,0,0,.05-.06,0-.07,0-.11a.28.28,0,0,0,0-.08A1.94,1.94,0,0,0,30.37-.09Z" style="fill:#231f20"/><path d="M.1-5.81s0-.08,0-.11L0-6S0-6,0-5.91a2.32,2.32,0,0,1-.48.78,2.05,2.05,0,0,1-.72.51A2.48,2.48,0,0,0-2-4.08a2.58,2.58,0,0,0-.52.79A2.58,2.58,0,0,0-3-4.08a2.48,2.48,0,0,0-.74-.54,2.05,2.05,0,0,1-.72-.51A2.32,2.32,0,0,1-5-5.91S-5-6-5-6l0,.06s0,.07,0,.11a.28.28,0,0,0,0,.08,2.06,2.06,0,0,0,0,.36A.93.93,0,0,0-5.09-5a2.89,2.89,0,0,0,.53.86,2.53,2.53,0,0,0,.79.58A2.33,2.33,0,0,1-3-3.07a2.56,2.56,0,0,1,.48.77c0,.06,0,.08.06.07s0,0,.06-.07A2.56,2.56,0,0,1-2-3.07a2.33,2.33,0,0,1,.72-.52,2.53,2.53,0,0,0,.79-.58A2.89,2.89,0,0,0,.07-5a.93.93,0,0,0,.06-.34,2.06,2.06,0,0,0,0-.36A.28.28,0,0,0,.1-5.81Zm-2.5,8.3a.59.59,0,0,0-.05-.19A2.77,2.77,0,0,0-3,1.44,2.68,2.68,0,0,0-3.77.85,2,2,0,0,1-4.49.33,2.27,2.27,0,0,1-5-.44S-5-.51-5-.51a.16.16,0,0,0,0,.06s0,.07,0,.11a.28.28,0,0,0,0,.08,2,2,0,0,0,0,.35,1,1,0,0,0,.06.35,2.89,2.89,0,0,0,.53.86,2.53,2.53,0,0,0,.79.58,2.41,2.41,0,0,1,1,.85,2.36,2.36,0,0,1-1,.86,2.53,2.53,0,0,0-.79.58A2.89,2.89,0,0,0-5.09,5a1,1,0,0,0-.06.35,2,2,0,0,0,0,.35.28.28,0,0,0,0,.08s0,.08,0,.11A.16.16,0,0,0-5,6S-5,6-5,5.91a2.18,2.18,0,0,1,.48-.77,2,2,0,0,1,.72-.52A2.86,2.86,0,0,0-3,4a2.77,2.77,0,0,0,.53-.86A.65.65,0,0,0-2.4,3a1.93,1.93,0,0,0,0-.24A1.77,1.77,0,0,0-2.4,2.49ZM.12,2.41c0-.1,0-.16-.11-.19A2.28,2.28,0,0,1-.71,1.7,2.63,2.63,0,0,1-1.19.93,2.89,2.89,0,0,0-1.72.07a2.65,2.65,0,0,0-.79-.58A2.22,2.22,0,0,1-3.23-1a2.38,2.38,0,0,1-.48-.77,2.77,2.77,0,0,0-.53-.86A2.68,2.68,0,0,0-5-3.25s0,0-.06.14a2.88,2.88,0,0,0,0,.33,2,2,0,0,0,0,.35A.24.24,0,0,0-5-2.22a2.28,2.28,0,0,1,.72.52,2.63,2.63,0,0,1,.48.77,2.77,2.77,0,0,0,.53.86,2.65,2.65,0,0,0,.79.58A2.22,2.22,0,0,1-1.79,1a2.32,2.32,0,0,1,.48.78A2.71,2.71,0,0,0-1,2.32a2.3,2.3,0,0,0,.35.41A2.79,2.79,0,0,0-1,3.15a2.44,2.44,0,0,0-.26.51,2.18,2.18,0,0,1-.48.77A2,2,0,0,1-2.51,5a.25.25,0,0,0-.11.22,2,2,0,0,0,0,.35,2.88,2.88,0,0,0,.05.33c0,.09,0,.14.06.13a2.65,2.65,0,0,0,.79-.58,2.89,2.89,0,0,0,.53-.86,2.63,2.63,0,0,1,.48-.77A2.28,2.28,0,0,1,0,3.25c.06,0,.09-.09.11-.19a1.21,1.21,0,0,0,0-.33A1.14,1.14,0,0,0,.12,2.41Zm0-2.5A1,1,0,0,0,.07-.44,2.89,2.89,0,0,0-.78-1.6a2.38,2.38,0,0,1,.36-.35A1.94,1.94,0,0,1,0-2.22a.24.24,0,0,0,.11-.21,2,2,0,0,0,0-.35,2.88,2.88,0,0,0,0-.33c0-.1,0-.14-.06-.14a2.51,2.51,0,0,0-.78.59,2.79,2.79,0,0,0-.54.86,1.1,1.1,0,0,0-.06.26,1.4,1.4,0,0,0,0,.29.51.51,0,0,0,.09.35s0,0,0,0h0a2,2,0,0,1,.72.52A2.27,2.27,0,0,1,0,.44S0,.51,0,.51s0,0,0-.06S.09.38.1.34a.28.28,0,0,0,0-.08A1.94,1.94,0,0,0,.13-.09Z" style="fill:#231f20"/></pattern></defs><title>pattern2</title><rect width="100%" height="100%" style="fill:url(#mazepattern_drdr)"/></svg>