<svg id="Layer_1" data-name="Layer 1" xmlns="http://www.w3.org/2000/svg" xmlns:xlink="http://www.w3.org/1999/xlink" viewBox="0 0 1147.51 738.66"><defs><pattern id="New_Pattern" data-name="New Pattern" width="12" height="12" patternTransform="translate(-16.35 92.83) rotate(-180)" patternUnits="userSpaceOnUse" viewBox="0 0 12 12"><rect width="12" height="12" style="fill:none"/><rect width="12" height="12" style="fill:none"/><rect width="12" height="12" style="fill:none"/><circle cx="12" cy="9" r="2" style="fill:#949494"/><circle cx="6" cy="12" r="2" style="fill:#949494"/><circle cy="9" r="2" style="fill:#949494"/><circle cx="12" cy="3" r="2" style="fill:#949494"/><circle cx="6" cy="6" r="2" style="fill:#949494"/><circle cy="3" r="2" style="fill:#949494"/><circle cx="6" r="2" style="fill:#949494"/></pattern><pattern id="New_Pattern-3" data-name="New Pattern-3" width="12" height="12" patternTransform="translate(-1.98 101.49) rotate(-180)" patternUnits="userSpaceOnUse" viewBox="0 0 12 12"><rect width="12" height="12" style="fill:none"/><rect width="12" height="12" style="fill:none"/><rect width="12" height="12" style="fill:none"/><circle cx="12" cy="9" r="2" style="fill:#949494"/><circle cx="6" cy="12" r="2" style="fill:#949494"/><circle cy="9" r="2" style="fill:#949494"/><circle cx="12" cy="3" r="2" style="fill:#949494"/><circle cx="6" cy="6" r="2" style="fill:#949494"/><circle cy="3" r="2" style="fill:#949494"/><circle cx="6" r="2" style="fill:#949494"/></pattern><pattern id="New_Pattern-5" data-name="New Pattern-5" width="12" height="12" patternTransform="translate(-3.9 100.94) rotate(-180)" patternUnits="userSpaceOnUse" viewBox="0 0 12 12"><rect width="12" height="12" style="fill:none"/><rect width="12" height="12" style="fill:none"/><rect width="12" height="12" style="fill:none"/><circle cx="12" cy="9" r="2" style="fill:#949494"/><circle cx="6" cy="12" r="2" style="fill:#949494"/><circle cy="9" r="2" style="fill:#949494"/><circle cx="12" cy="3" r="2" style="fill:#949494"/><circle cx="6" cy="6" r="2" style="fill:#949494"/><circle cy="3" r="2" style="fill:#949494"/><circle cx="6" r="2" style="fill:#949494"/></pattern><pattern id="New_Pattern-7" data-name="New Pattern-7" width="12" height="12" patternTransform="translate(-14.52 101.36) rotate(-180)" patternUnits="userSpaceOnUse" viewBox="0 0 12 12"><rect width="12" height="12" style="fill:none"/><rect width="12" height="12" style="fill:none"/><rect width="12" height="12" style="fill:none"/><circle cx="12" cy="9" r="2" style="fill:#949494"/><circle cx="6" cy="12" r="2" style="fill:#949494"/><circle cy="9" r="2" style="fill:#949494"/><circle cx="12" cy="3" r="2" style="fill:#949494"/><circle cx="6" cy="6" r="2" style="fill:#949494"/><circle cy="3" r="2" style="fill:#949494"/><circle cx="6" r="2" style="fill:#949494"/></pattern><pattern id="New_Pattern-3-3" data-name="New Pattern" width="12" height="12" patternTransform="translate(-0.11 111.03) rotate(180) scale(0.86)" patternUnits="userSpaceOnUse" viewBox="0 0 12 12"><rect width="12" height="12" style="fill:none"/><rect width="12" height="12" style="fill:none"/><rect width="12" height="12" style="fill:none"/><circle cx="12" cy="9" r="2" style="fill:#949494"/><circle cx="6" cy="12" r="2" style="fill:#949494"/><circle cy="9" r="2" style="fill:#949494"/><circle cx="12" cy="3" r="2" style="fill:#949494"/><circle cx="6" cy="6" r="2" style="fill:#949494"/><circle cy="3" r="2" style="fill:#949494"/><circle cx="6" r="2" style="fill:#949494"/></pattern></defs><title>thoughts2</title><g id="Layer_1-2" data-name="Layer 1-2"><path d="M478.64,717.22c110.9,30.86,228.92-13.62,293.45-108.94,14.49-21.4,28.38-43,42-63.19,52.35-77,101.93-132.45,109.7-195.53,8-63.31-25.9-134.34-78.25-199.09C793.05,85.72,722,27.27,640.07,16.35S465.26,42.07,382.94,106.81s-154.1,157.61-160,256.4,54.2,203.3,136.52,280.44a512.49,512.49,0,0,0,60.61,48.84S441.23,706.81,478.64,717.22Z" style="fill:#f2f2f2"/><path d="M625.35,298.32c-5.09,1.79-8,4.23-9.57,8.47" style="fill:none;stroke:#ffd98e;stroke-linecap:round;stroke-linejoin:round;stroke-width:2.8299999237060547px"/><path d="M400.65,382.39l47.47-12.05,19.23,75.78-47.46,12.05Z" style="fill:#dfdfdf;fill-rule:evenodd"/><path d="M410.65,390.74l32.66-8.29,2.52,9.93-32.66,8.29Z" style="fill:#ff8364;fill-rule:evenodd"/><path d="M415.91,411.45l32.66-8.29" style="fill:none;stroke:#6bd5e1;stroke-linecap:round;stroke-linejoin:round;stroke-width:3.109999895095825px"/><path d="M418.65,422.23l32.67-8.29" style="fill:none;stroke:#6bd5e1;stroke-linecap:round;stroke-linejoin:round;stroke-width:3.109999895095825px"/><path d="M421.52,433.48l32.69-8.3" style="fill:none;stroke:#6bd5e1;stroke-linecap:round;stroke-linejoin:round;stroke-width:3.109999895095825px"/><path d="M424.26,444.35l12.82-3.26" style="fill:none;stroke:#6bd5e1;stroke-linecap:round;stroke-linejoin:round;stroke-width:3.109999895095825px"/><path d="M451.81,437.35l5.14-1.3" style="fill:none;stroke:#6bd5e1;stroke-linecap:round;stroke-linejoin:round;stroke-width:3.109999895095825px"/><path d="M369.18,210.33,492,151.84l38.39,80.61L407.57,291Z" style="fill:#dfdfdf;fill-rule:evenodd"/><path d="M411.66,273.12l12.22-35.77,22.77,4.25,8.94-44.11,22,3.66L484,170" style="fill:none;stroke:#ff8364;stroke-linecap:round;stroke-linejoin:round;stroke-width:3.109999895095825px"/><path d="M419.57,239.69a6.33,6.33,0,1,1,8.45,3,6.33,6.33,0,0,1-8.45-3Z" style="fill:#ffd98e;fill-rule:evenodd"/><path d="M450.17,201.27a6.34,6.34,0,1,1,8.45,3,6.33,6.33,0,0,1-8.45-3Z" style="fill:#ffd98e;fill-rule:evenodd"/><path d="M682.86,269.25A21.7,21.7,0,1,1,704.52,291a21.69,21.69,0,0,1-21.66-21.75Z" style="fill-rule:evenodd"/><path d="M741.19,265.46a25,25,0,0,1-24,31.76,25.6,25.6,0,0,1-4.87-.47" style="fill:none;stroke:#000;stroke-linecap:round;stroke-linejoin:round;stroke-width:3.109999895095825px"/><path d="M691.4,285.73l-8.32,14.89,34.35,5.53-3.76-17.39" style="fill-rule:evenodd"/><path d="M699.44,269.25a5.12,5.12,0,1,1,5.12,5.12h0A5.12,5.12,0,0,1,699.44,269.25Z" style="fill:#fff;fill-rule:evenodd"/><path d="M734.69,264.13a5.12,5.12,0,1,1,5.12,5.12h0A5.12,5.12,0,0,1,734.69,264.13Z" style="fill-rule:evenodd"/><path d="M654,81.86l121.17,29.26-20,82.61L634,164.47Z" style="fill:#dfdfdf;fill-rule:evenodd"/><path d="M661.11,103.29l95.66,23.1" style="fill:none;stroke:#6bd5e1;stroke-linecap:round;stroke-linejoin:round;stroke-width:3.109999895095825px"/><path d="M655.57,126l57.77,14" style="fill:none;stroke:#6bd5e1;stroke-linecap:round;stroke-linejoin:round;stroke-width:3.109999895095825px"/><path d="M573.76,159.67a9.3,9.3,0,1,1,9.3,9.3h0A9.3,9.3,0,0,1,573.76,159.67Z" style="fill:none;stroke:#ff8364;stroke-linecap:round;stroke-linejoin:round;stroke-width:3.109999895095825px"/><path d="M313.92,315.45a9.3,9.3,0,1,1,9.3,9.3h0A9.3,9.3,0,0,1,313.92,315.45Z" style="fill-rule:evenodd"/><path d="M353.14,474.21a16,16,0,1,1,16,16A16,16,0,0,1,353.14,474.21Z" style="fill:none;stroke:#6bd5e1;stroke-linecap:round;stroke-linejoin:round;stroke-width:3.109999895095825px"/><path d="M707.65,467.47a9.31,9.31,0,1,1,9.32,9.3h0a9.29,9.29,0,0,1-9.31-9.29Z" style="fill:none;stroke:#ff8364;stroke-linecap:round;stroke-linejoin:round;stroke-width:3.109999895095825px"/><path d="M616.33,307.89c-14.76-11.52-18.4,1.35-20.71,9s-2.1,21.11,9.43,20.82c10.14,9.1,19.58-2.67,22.47-8.65S637.52,310.13,616.33,307.89Z" style="fill-rule:evenodd"/><path d="M625.35,299.06c-5.09,1.8-8,4.24-9.57,8.47" style="fill:none;stroke:#000;stroke-linecap:round;stroke-linejoin:round;stroke-width:2.8299999237060547px"/><path d="M497.64,332.58a17.13,17.13,0,1,1,17.13,17.13h0A17.13,17.13,0,0,1,497.64,332.58Z" style="fill-rule:evenodd;fill:url(#New_Pattern)"/><path d="M400.65,383.13l47.47-12.05,19.23,75.78-47.46,12.05Z" style="fill:#dfdfdf;fill-rule:evenodd"/><path d="M410.65,391.48l32.66-8.29,2.52,9.93-32.66,8.29Z" style="fill-rule:evenodd"/><path d="M415.91,412.2l32.66-8.29" style="fill:none;stroke:#383838;stroke-linecap:round;stroke-linejoin:round;stroke-width:3.109999895095825px"/><path d="M418.65,423l32.67-8.3" style="fill:none;stroke:#383838;stroke-linecap:round;stroke-linejoin:round;stroke-width:3.109999895095825px"/><path d="M421.52,434.23l32.69-8.3" style="fill:none;stroke:#383838;stroke-linecap:round;stroke-linejoin:round;stroke-width:3.109999895095825px"/><path d="M424.26,445.09l12.82-3.25" style="fill:none;stroke:#383838;stroke-linecap:round;stroke-linejoin:round;stroke-width:3.109999895095825px"/><path d="M451.81,438.1l5.14-1.31" style="fill:none;stroke:#383838;stroke-linecap:round;stroke-linejoin:round;stroke-width:3.109999895095825px"/><path d="M369.18,211.08,492,152.58l38.39,80.62L407.57,291.69Z" style="fill:#dfdfdf;fill-rule:evenodd"/><path d="M411.66,273.86l12.22-35.76,22.77,4.25,8.94-44.12,22,3.66,6.4-31.11" style="fill:none;stroke:#383838;stroke-linecap:round;stroke-linejoin:round;stroke-width:3.109999895095825px"/><path d="M419.57,240.44a6.34,6.34,0,1,1,8.45,3,6.33,6.33,0,0,1-8.45-3Z" style="fill-rule:evenodd"/><path d="M450.17,202a6.33,6.33,0,1,1,8.45,3,6.33,6.33,0,0,1-8.45-3Z" style="fill-rule:evenodd"/><path d="M323,107.93l32.11,8.67-31.6,117L291.36,225Z" style="fill-rule:evenodd"/><path d="M302,186.13l17.67,4.77" style="fill:none;stroke:#fff;stroke-linecap:round;stroke-linejoin:round;stroke-width:4.230000019073486px"/><path d="M296.42,206.88l17.68,4.77" style="fill:none;stroke:#fff;stroke-linecap:round;stroke-linejoin:round;stroke-width:4.230000019073486px"/><path d="M307.63,165.38l17.68,4.77" style="fill:none;stroke:#fff;stroke-linecap:round;stroke-linejoin:round;stroke-width:4.230000019073486px"/><path d="M313.24,144.63l17.67,4.77" style="fill:none;stroke:#fff;stroke-linecap:round;stroke-linejoin:round;stroke-width:4.230000019073486px"/><path d="M318.84,123.88l17.68,4.77" style="fill:none;stroke:#fff;stroke-linecap:round;stroke-linejoin:round;stroke-width:4.230000019073486px"/><path d="M724.25,176.92a13.06,13.06,0,1,1,9.63,15.76h0a13.06,13.06,0,0,1-9.64-15.74Z" style="fill-rule:evenodd"/><path d="M728.1,187.68l-8.71,22.71,12.13-2.76,7.81,7.25,1.57-24.75" style="fill-rule:evenodd"/><path d="M661.11,104l95.66,23.1" style="fill:none;stroke:#383838;stroke-linecap:round;stroke-linejoin:round;stroke-width:3.109999895095825px"/><path d="M655.57,126.71l57.77,14" style="fill:none;stroke:#383838;stroke-linecap:round;stroke-linejoin:round;stroke-width:3.109999895095825px"/><path d="M478.33,110.35l-13-14.09L484,92l18.71-4.23L497,106.08l-5.69,18.31Z" style="fill-rule:evenodd;fill:url(#New_Pattern-3)"/><path d="M734.69,394.3l-17.8,7.13,2.72-19,2.73-19,15.08,11.85,15.1,11.89Z" style="fill-rule:evenodd;fill:url(#New_Pattern-5)"/><path d="M573.76,160.41a9.3,9.3,0,1,1,9.3,9.3h0A9.3,9.3,0,0,1,573.76,160.41Z" style="fill:none;stroke:#000;stroke-linecap:round;stroke-linejoin:round;stroke-width:3.109999895095825px"/><path d="M652.71,17.13a17.14,17.14,0,1,1,17.15,17.13h0A17.13,17.13,0,0,1,652.71,17.13Z" style="fill-rule:evenodd;fill:url(#New_Pattern-7)"/><path d="M353.14,475a16,16,0,1,1,16,16A16,16,0,0,1,353.14,475Z" style="fill:none;stroke:#000;stroke-linecap:round;stroke-linejoin:round;stroke-width:3.109999895095825px"/><path d="M707.65,468.21a9.31,9.31,0,1,1,9.31,9.31h0A9.31,9.31,0,0,1,707.65,468.21Z" style="fill:none;stroke:#000;stroke-linecap:round;stroke-linejoin:round;stroke-width:3.109999895095825px"/></g><g id="shadow"><path d="M583.83,791.46c-10.35,5.37-9.2,71.44,36.7,81.27l-51.38,34.09-79.38-24.25c-1.72-6.12-9.92-19.08-9.92-19.08l-2.24-1.43-2.4-12.92-3.42-34.83-.86-27.18.12-20.1.79-22,2-27.66L477,689.54l2.08-9.43,5.07,15.78,10.09,19.61,8.45,11.2,5.85,4.24,6.64-1.14,8.93,15.43L539.49,764l16.67,16.52,8.49,6.6,10.23,5,6.46.22Z" style="fill:url(#New_Pattern-3-3)"/><path d="M719,723.18c1.65-5.78,19.08-52.63,26.52-55.85-14.79,6.33-49.89,20.91-49.89,20.91l-5.6,7-18,22.36,2.5,12.86,1.81,12,13.19-5.5Z" style="fill:url(#New_Pattern-3-3)"/><path d="M558.11,569.36c-5.56,1.46-25.17,24.86-14.08,36.38a81.36,81.36,0,0,0-13.79-9.49l-12.07-6.85-13.78-2.15L511,576.11l9.76-13.71,10.72-10,7.66-3.09,1.37,15.93,4.42,2.43Z" style="fill:url(#New_Pattern-3-3)"/></g><g id="vector"><path d="M676.17,742.51c23.45-9.48,104.74-47.46,124.94-64.77,22.79-19.54-4.45-34.64-13-29.61-6.49,3.8-59.15,26.71-92.39,40.11" style="fill:none;stroke:#000;stroke-linecap:round;stroke-miterlimit:10;stroke-width:2.5px"/><line x1="749.2" y1="628.9" x2="758.02" y2="646.81" style="fill:none;stroke:#000;stroke-linecap:round;stroke-linejoin:round;stroke-width:8px"/><line x1="719.73" y1="568.95" x2="731.09" y2="592.07" style="fill:none;stroke:#000;stroke-linecap:round;stroke-linejoin:round;stroke-width:8px"/><path d="M537.1,519.33a64.67,64.67,0,0,1-7.24-13.71" style="fill:none;stroke:#000;stroke-linecap:round;stroke-miterlimit:10;stroke-width:2.5px"/><path d="M580.6,435.56c10.35,9,18.09,24.3,20.06,42.32,3.24,29.65-10.36,55.57-30.53,58.73" style="fill:none;stroke:#000;stroke-linecap:round;stroke-miterlimit:10;stroke-width:2.5px"/><path d="M671.92,717.12c13.37,72.2,13.26,140.35,10.67,142.94C677,865.63,548,891.78,477.73,862.63c-8.47-36.86-9.9-114.76.86-184.12" style="fill:none;stroke:#000;stroke-linecap:round;stroke-miterlimit:10;stroke-width:2.5px"/><path d="M571.27,547.19c42.65,9.43,69.74,56.64,86.64,111.67" style="fill:none;stroke:#000;stroke-linecap:round;stroke-miterlimit:10;stroke-width:2.5px"/><path d="M504.39,587.25c9.31-18.67,20.79-32.41,34.75-38.41" style="fill:none;stroke:#000;stroke-linecap:round;stroke-miterlimit:10;stroke-width:2.5px"/><path d="M514.69,729.89c11.14,21.21,47.41,62.46,62.29,62.46,42.67,0,128.91-115.92,150.78-147,10.22-7.1,28.39-21.31,28.38-35.72,0-7.24-7.72-22.29-19-19.61-7.8,1.83-18.5,17.46-23.14,24.09-15.7,10.83-115,92.95-122.65,100.9-.25-5.18-4.19-14.41-9.54-24.06" style="fill:none;stroke:#000;stroke-linecap:round;stroke-linejoin:round;stroke-width:2.5px"/><path d="M529.86,505.62c-13.31-1.58-32.1-21.37-32.1-50.45,0-16.09,13.06-25.5,17.3-29.9,8.57-8.92,13.72-32.69,31.83-32.69,5.14,0,13.13,3,18.15,3,6.29,0,18.79-12.39,31.4-12.39,21.12,0,25.85,19.44,25.85,25.41,0,21.88-27.25,38.39-30.86,40.36-1.54-2.51-8.57-11.91-10.91-13.33-2.82,5.86-21.78,15.58-36.07,24.29-3.84,2.35-7,12.29-9.23,22.33" style="fill:none;stroke:#000;stroke-linecap:round;stroke-linejoin:round;stroke-width:2.5px"/><path d="M531.88,501.79a10.75,10.75,0,1,1,5.74-17.47" style="fill:none;stroke:#000;stroke-linecap:round;stroke-miterlimit:10;stroke-width:2.5px"/><path d="M570.13,536.61c.38,3.59.77,7.19,1.14,10.58" style="fill:none;stroke:#000;stroke-linecap:round;stroke-miterlimit:10;stroke-width:2.5px"/><path d="M561.86,569.36c-9.49.17-21.42-1.72-21.66-5.07l-3.1-45" style="fill:none;stroke:#000;stroke-linecap:round;stroke-miterlimit:10;stroke-width:2.5px"/><path d="M488.26,591.77c-37.87,20.63-4,127.79,19.9,138.76,27,0,81.58-39.13,81.58-52.34S537.36,565,488.26,591.77Z" style="fill:none;stroke:#000;stroke-linecap:round;stroke-miterlimit:10;stroke-width:2.5px"/><path d="M804.74,599.69c0,17.79,21.15,27.17,24.23,27.17,6.45,0,6.45-19.46,6.45-24.5,0-11.49-11.21-19.9-19.72-19.9S804.74,589.61,804.74,599.69Z" style="fill:none;stroke:#000;stroke-linecap:round;stroke-miterlimit:10;stroke-width:2.5px"/><path d="M829,626.86c-3.08,0-24.24-9.38-24.24-27.17,0-10.08,2.39-17.23,10.93-17.23,4.14,0,8.91,2,12.72,5.33l-4-51.43-73.22,5.71,11,141.43,73.21-5.66-4.08-52.07A3.28,3.28,0,0,1,829,626.86Z"/></g></svg>