<svg id="Layer_1" data-name="Layer 1" xmlns="http://www.w3.org/2000/svg" xmlns:xlink="http://www.w3.org/1999/xlink" viewBox="0 0 25 25"><defs><pattern id="maze_3" data-name="maze_3" width="100%" height="25.26" patternUnits="userSpaceOnUse" viewBox="0 0 25.22 25.26"><rect width="25.22" height="25.26" opacity="0.1" style="fill:none"/><path d="M37.93,31.22a.5.5,0,0,0,0-.13s0-.06-.06-.06,0,0-.07.08a2.55,2.55,0,0,1-.6.88,2.63,2.63,0,0,1-.9.6,2.9,2.9,0,0,0-.92.61,3,3,0,0,0-.65.91,3,3,0,0,0-1-1.19,4.36,4.36,0,0,1,.46-.41,2.61,2.61,0,0,1,.54-.31,3.22,3.22,0,0,0,1-.67,3.34,3.34,0,0,0,.67-1,2.64,2.64,0,0,1,1.5-1.48.32.32,0,0,0,.13-.25,2.67,2.67,0,0,0,0-.4,3.06,3.06,0,0,0-.07-.37c0-.12,0-.17-.06-.16a3,3,0,0,0-1.65,1.65,3,3,0,0,1-.6.89,2.87,2.87,0,0,1-.9.59A3.08,3.08,0,0,0,33,32.68a2.65,2.65,0,0,1-.6.88,2.68,2.68,0,0,1-.9.6,3,3,0,0,0-.94.63,3.22,3.22,0,0,0-.66.92,2.65,2.65,0,0,1-1.47-1.47c0-.05-.05-.08-.08-.07s-.05,0-.07.07a2.69,2.69,0,0,1-.6.89,2.76,2.76,0,0,1-.9.59,3.22,3.22,0,0,0-1,.67,3.26,3.26,0,0,0-.67,1,1,1,0,0,0-.07.39,2.68,2.68,0,0,0,0,.41.78.78,0,0,0,.07.22s0,.06.06.06.05,0,.07-.08a2.81,2.81,0,0,1,.6-.88,2.73,2.73,0,0,1,.9-.6,3.06,3.06,0,0,0,.93-.61,2.87,2.87,0,0,0,.64-.91A3,3,0,0,0,30,36.9s.05,0,.07-.09a2.81,2.81,0,0,1,.6-.88,2.9,2.9,0,0,1,.9-.6,3.09,3.09,0,0,0,.95-.63,3.39,3.39,0,0,0,.65-.92,2.65,2.65,0,0,1,1.47,1.47c0,.06,0,.09.08.07s0,0,.07-.07a3,3,0,0,1,.6-.89,2.87,2.87,0,0,1,.9-.59,3.1,3.1,0,0,0,1-.67,3.26,3.26,0,0,0,.67-1,1,1,0,0,0,.08-.39,2.63,2.63,0,0,0,0-.41A.51.51,0,0,0,37.93,31.22Zm-4.69-.83a2.67,2.67,0,0,0,0-.4,3.7,3.7,0,0,0-.07-.38c0-.11-.05-.16-.07-.15a3,3,0,0,0-.92.6,3.14,3.14,0,0,0-.65.91,3.14,3.14,0,0,0-.65-.91,3,3,0,0,0-.92-.6,2.68,2.68,0,0,1-.9-.6,2.65,2.65,0,0,1-.6-.88c0-.06-.05-.09-.08-.08s-.05,0-.07.08a2.65,2.65,0,0,1-.6.88,2.78,2.78,0,0,1-.9.6,3,3,0,0,0-1,.67,3.22,3.22,0,0,0-.67,1,1,1,0,0,0-.07.4,2.55,2.55,0,0,0,0,.4.84.84,0,0,0,0,.1.61.61,0,0,0,.05.12s0,.06.06.06.05,0,.07-.08a2.81,2.81,0,0,1,.6-.88,2.9,2.9,0,0,1,.9-.6,3.23,3.23,0,0,0,.93-.6,3.11,3.11,0,0,0,.64-.91A3.34,3.34,0,0,0,29,30a3.23,3.23,0,0,0,.93.6,3,3,0,0,1,1.21,1,2.89,2.89,0,0,1-1.19,1,3.19,3.19,0,0,0-.65-.92,3,3,0,0,0-.95-.64,3,3,0,0,0-1.64,1.66,3,3,0,0,1-.6.88,2.9,2.9,0,0,1-.9.6c-.08,0-.12.11-.13.24a1.34,1.34,0,0,0,0,.4,2,2,0,0,0,.06.38c0,.11,0,.16.07.15a3,3,0,0,0,1-.67,3.22,3.22,0,0,0,.67-1,2.78,2.78,0,0,1,.59-.88,2.73,2.73,0,0,1,.9-.6,2.54,2.54,0,0,1,.9.6,2.65,2.65,0,0,1,.6.88s0,.08.08.08h0a3.22,3.22,0,0,0,1-.67,3.26,3.26,0,0,0,.67-1,2.78,2.78,0,0,1,.59-.88,2.9,2.9,0,0,1,.9-.6C33.18,30.6,33.22,30.52,33.24,30.39ZM31.64,25a.43.43,0,0,0-.05-.12.12.12,0,0,0-.07-.07s0,0-.06.08A2.7,2.7,0,0,1,30,26.31a3.19,3.19,0,0,0-.65-.92,3.15,3.15,0,0,0-.95-.63,3,3,0,0,0-1.64,1.65,2.86,2.86,0,0,1-.6.88,2.73,2.73,0,0,1-.9.6c-.08,0-.12.11-.13.24a1.41,1.41,0,0,0,0,.41,2,2,0,0,0,.06.37c0,.11,0,.17.07.16a3.22,3.22,0,0,0,1-.67,3.26,3.26,0,0,0,.67-1,2.78,2.78,0,0,1,.59-.88,3.08,3.08,0,0,1,.9-.6,2.84,2.84,0,0,1,.9.6,2.65,2.65,0,0,1,.6.88c0,.05,0,.08.08.08h0a3.22,3.22,0,0,0,1-.67,3.34,3.34,0,0,0,.67-1,1,1,0,0,0,.07-.4c0-.14,0-.28,0-.41ZM38,35.09a2.67,2.67,0,0,0,0-.4,3.7,3.7,0,0,0-.07-.38q0-.16-.06-.15a3,3,0,0,0-1.65,1.65,3,3,0,0,1-.6.88,2.73,2.73,0,0,1-.9.6,2.54,2.54,0,0,1-.9-.6,2.65,2.65,0,0,1-.6-.88c0-.05,0-.07-.08-.07v0a3.34,3.34,0,0,0-1,.67,3.24,3.24,0,0,0-.66,1,1,1,0,0,0-.08.39,2.63,2.63,0,0,0,0,.41.34.34,0,0,0,0,.09s0,.09,0,.13.05.06.07.06,0,0,.07-.08a2.68,2.68,0,0,1,1.47-1.47,3.39,3.39,0,0,0,.65.92,3.12,3.12,0,0,0,1,.64,3.22,3.22,0,0,0,1-.67,3.26,3.26,0,0,0,.67-1,2.78,2.78,0,0,1,.59-.88,2.83,2.83,0,0,1,.91-.6C37.9,35.3,37.94,35.22,38,35.09Zm0-10.14a.43.43,0,0,0,0-.12.14.14,0,0,0-.06-.07s0,0-.07.08a2.69,2.69,0,0,1-.6.89,2.76,2.76,0,0,1-.9.59,3.08,3.08,0,0,0-.92.61,3.14,3.14,0,0,0-.65.91,3.34,3.34,0,0,0-.65-.91,3,3,0,0,0-.93-.61s-.05,0-.07.09a2.81,2.81,0,0,1-1.5,1.48.26.26,0,0,0-.13.24,2.8,2.8,0,0,0,0,.41,2,2,0,0,0,.06.37c0,.11.05.17.07.16a3.28,3.28,0,0,0,.95-.63,3.61,3.61,0,0,0,.65-.93A2.72,2.72,0,0,1,34.6,29c0,.07,0,.09.08.08s0,0,.07-.08a3,3,0,0,1,.6-.88,2.73,2.73,0,0,1,.9-.6,3.1,3.1,0,0,0,1-.67,3.34,3.34,0,0,0,.67-1,1,1,0,0,0,.08-.4A2.73,2.73,0,0,0,38,25Z" style="fill:#231f20"/><path d="M12.71,31.22a.5.5,0,0,0-.05-.13s0-.06-.06-.06,0,0-.07.08A2.81,2.81,0,0,1,11,32.59a2.9,2.9,0,0,0-.92.61,3,3,0,0,0-.65.91,2.93,2.93,0,0,0-1-1.19,4.36,4.36,0,0,1,.46-.41,2.9,2.9,0,0,1,.54-.31,3.22,3.22,0,0,0,1-.67,3.34,3.34,0,0,0,.67-1,2.69,2.69,0,0,1,.6-.89,2.66,2.66,0,0,1,.9-.59.29.29,0,0,0,.13-.25,2.67,2.67,0,0,0,0-.4,1.87,1.87,0,0,0-.07-.37c0-.12-.05-.17-.06-.16A3,3,0,0,0,11,29.54a3,3,0,0,1-.6.89,2.87,2.87,0,0,1-.9.59,3.08,3.08,0,0,0-1.65,1.66,2.65,2.65,0,0,1-.6.88,2.68,2.68,0,0,1-.9.6,3,3,0,0,0-.94.63,3.22,3.22,0,0,0-.66.92,2.68,2.68,0,0,1-1.47-1.47c0-.05-.05-.08-.07-.07s0,0-.08.07a2.69,2.69,0,0,1-.6.89,2.66,2.66,0,0,1-.9.59,3.22,3.22,0,0,0-1,.67,3.26,3.26,0,0,0-.67,1,1,1,0,0,0-.07.39c0,.15,0,.28,0,.41a.51.51,0,0,0,0,.09.5.5,0,0,0,0,.13s0,.06.07.06,0,0,.06-.08a3,3,0,0,1,.6-.88,2.73,2.73,0,0,1,.9-.6,3.06,3.06,0,0,0,.93-.61,3.06,3.06,0,0,0,.65-.91,2.87,2.87,0,0,0,.64.91,3.06,3.06,0,0,0,.93.61s0,0,.07-.09a3,3,0,0,1,.6-.88,2.9,2.9,0,0,1,.9-.6,3.09,3.09,0,0,0,1-.63,3.39,3.39,0,0,0,.65-.92,2.65,2.65,0,0,1,1.47,1.47c0,.06,0,.09.08.07s0,0,.07-.07a3,3,0,0,1,.6-.89,2.87,2.87,0,0,1,.9-.59,3.1,3.1,0,0,0,1-.67,3.26,3.26,0,0,0,.67-1,1,1,0,0,0,.08-.39,2.63,2.63,0,0,0,0-.41A.18.18,0,0,0,12.71,31.22ZM8,30.39A2.67,2.67,0,0,0,8,30,3.79,3.79,0,0,0,8,29.61c0-.11-.06-.16-.07-.15a3,3,0,0,0-.93.6,3.34,3.34,0,0,0-.65.91,3.14,3.14,0,0,0-.65-.91,3,3,0,0,0-.92-.6,2.68,2.68,0,0,1-.9-.6,2.65,2.65,0,0,1-.6-.88c0-.06-.05-.09-.07-.08s0,0-.08.08a2.65,2.65,0,0,1-.6.88,2.68,2.68,0,0,1-.9.6,3,3,0,0,0-1,.67,3.22,3.22,0,0,0-.67,1,1,1,0,0,0-.07.4c0,.14,0,.28,0,.4a.84.84,0,0,0,0,.1.61.61,0,0,0,0,.12s0,.06.07.06,0,0,.06-.08a3,3,0,0,1,.6-.88,2.9,2.9,0,0,1,.9-.6,3.23,3.23,0,0,0,.93-.6,3.34,3.34,0,0,0,.65-.91,3.11,3.11,0,0,0,.64.91,3.23,3.23,0,0,0,.93.6,3,3,0,0,1,1.21,1,2.83,2.83,0,0,1-1.19,1,3,3,0,0,0-.65-.92A3.07,3.07,0,0,0,3.17,31a3,3,0,0,0-1.65,1.66,3,3,0,0,1-.6.88,2.9,2.9,0,0,1-.9.6c-.08,0-.12.11-.13.24a1.34,1.34,0,0,0,0,.4,2,2,0,0,0,.06.38c0,.11.05.16.07.15a3,3,0,0,0,1-.67,3.22,3.22,0,0,0,.67-1,2.65,2.65,0,0,1,.6-.88,2.54,2.54,0,0,1,.9-.6,2.73,2.73,0,0,1,.9.6,2.78,2.78,0,0,1,.59.88s0,.08.08.08h0a3.22,3.22,0,0,0,1-.67,3.26,3.26,0,0,0,.67-1,2.65,2.65,0,0,1,.6-.88,2.68,2.68,0,0,1,.9-.6A.26.26,0,0,0,8,30.39ZM6.42,25a.43.43,0,0,0,0-.12.14.14,0,0,0-.06-.07s0,0-.07.08a2.7,2.7,0,0,1-1.48,1.47,3,3,0,0,0-.65-.92,3.23,3.23,0,0,0-.94-.63,3,3,0,0,0-1.65,1.65,2.86,2.86,0,0,1-.6.88,2.73,2.73,0,0,1-.9.6c-.08,0-.12.11-.13.24a1.41,1.41,0,0,0,0,.41,2,2,0,0,0,.06.37c0,.11.05.17.07.16a3.22,3.22,0,0,0,1-.67,3.26,3.26,0,0,0,.67-1,2.65,2.65,0,0,1,.6-.88,2.84,2.84,0,0,1,.9-.6,3.08,3.08,0,0,1,.9.6,2.78,2.78,0,0,1,.59.88c0,.05,0,.08.08.08h0a3.22,3.22,0,0,0,1-.67,3.34,3.34,0,0,0,.67-1,1,1,0,0,0,.07-.4c0-.14,0-.28,0-.41Zm6.32,10.14a2.67,2.67,0,0,0,0-.4,2.14,2.14,0,0,0-.07-.38c0-.11-.05-.16-.06-.15A3,3,0,0,0,11,35.81a3,3,0,0,1-.6.88,2.73,2.73,0,0,1-.9.6A2.81,2.81,0,0,1,8,35.81c0-.05,0-.07-.07-.07v0a3.09,3.09,0,0,0-1.65,1.66,1,1,0,0,0-.08.39,2.63,2.63,0,0,0,0,.41.18.18,0,0,0,0,.09.29.29,0,0,0,0,.13s0,.06.06.06,0,0,.07-.08a2.68,2.68,0,0,1,1.47-1.47,3.22,3.22,0,0,0,.66.92,3,3,0,0,0,.94.64,3.22,3.22,0,0,0,1-.67,3.26,3.26,0,0,0,.67-1,2.65,2.65,0,0,1,.6-.88,2.68,2.68,0,0,1,.9-.6A.26.26,0,0,0,12.74,35.09Zm0-10.14a.43.43,0,0,0-.05-.12.14.14,0,0,0-.06-.07s0,0-.07.08a2.69,2.69,0,0,1-.6.89,2.66,2.66,0,0,1-.9.59,3.08,3.08,0,0,0-.92.61,3.14,3.14,0,0,0-.65.91,3.14,3.14,0,0,0-.65-.91,3.08,3.08,0,0,0-.92-.61s0,0-.08.09a2.55,2.55,0,0,1-.6.88,2.54,2.54,0,0,1-.9.6.26.26,0,0,0-.13.24,2.8,2.8,0,0,0,0,.41,2,2,0,0,0,.06.37c0,.11.06.17.07.16a3.28,3.28,0,0,0,1-.63,3.61,3.61,0,0,0,.65-.93A2.72,2.72,0,0,1,9.38,29c0,.07,0,.09.08.08s0,0,.07-.08a3,3,0,0,1,.6-.88,2.73,2.73,0,0,1,.9-.6,3.1,3.1,0,0,0,1-.67,3.34,3.34,0,0,0,.67-1,1,1,0,0,0,.08-.4,2.73,2.73,0,0,0,0-.41A.23.23,0,0,0,12.71,25Z" style="fill:#231f20"/><path d="M25.34,37.77a1,1,0,0,0-.07-.39,3.26,3.26,0,0,0-.67-1,3.22,3.22,0,0,0-1-.67,2.87,2.87,0,0,1-.9-.59,2.69,2.69,0,0,1-.6-.89,3.19,3.19,0,0,0-1.07-1.32,3.55,3.55,0,0,1,.46-.41,2.61,2.61,0,0,1,.54-.31,3.23,3.23,0,0,0,.94-.63,3.37,3.37,0,0,0,.66-.92,2.73,2.73,0,0,1,1.47,1.46c0,.06.05.09.07.08s0,0,.06-.06A.61.61,0,0,0,25.3,32a.84.84,0,0,0,0-.1,2.55,2.55,0,0,0,0-.4,1,1,0,0,0-.07-.4,3.22,3.22,0,0,0-.67-1,3,3,0,0,0-1-.67,2.9,2.9,0,0,1-.9-.6,2.65,2.65,0,0,1-.6-.88c0-.06-.05-.09-.07-.08s-.05,0-.08.08a2.67,2.67,0,0,1-1.47,1.46,3.37,3.37,0,0,0-.66-.92,3.1,3.1,0,0,0-.94-.63,3.1,3.1,0,0,0-.94.63,3.37,3.37,0,0,0-.66.92A2.67,2.67,0,0,1,15.83,28c0-.06-.05-.09-.07-.08s0,0-.06.06a.61.61,0,0,0,0,.12.24.24,0,0,0,0,.1,2.54,2.54,0,0,0,0,.41,1,1,0,0,0,.08.39,3.19,3.19,0,0,0,.66,1,3.09,3.09,0,0,0,1,.67s.05,0,.07-.08a2.69,2.69,0,0,1,.6-.89,2.87,2.87,0,0,1,.9-.59,2.5,2.5,0,0,1,.53.3,3.63,3.63,0,0,1,.46.41,3.38,3.38,0,0,0-1.07,1.33,2.67,2.67,0,0,1-.59.88,2.73,2.73,0,0,1-.9.6,3,3,0,0,0-1.65,1.65,2.72,2.72,0,0,1-1.5,1.48,3.1,3.1,0,0,0-1,.67,3.26,3.26,0,0,0-.67,1,1,1,0,0,0-.07.39,2.68,2.68,0,0,0,0,.41.78.78,0,0,0,.07.22s0,.06.06.06.05,0,.07-.08a2.65,2.65,0,0,1,.6-.88,2.73,2.73,0,0,1,.9-.6,3.22,3.22,0,0,0,1-.67,3.34,3.34,0,0,0,.67-1,2.69,2.69,0,0,1,.6-.89,2.66,2.66,0,0,1,.9-.59,3.34,3.34,0,0,0,1-.67,3.46,3.46,0,0,0,.67-1,2.78,2.78,0,0,1,.59-.88,2.9,2.9,0,0,1,.9-.6,3.1,3.1,0,0,0,.93-.6,3.34,3.34,0,0,0,.65-.91,3,3,0,0,0,1,1.19,3.63,3.63,0,0,1-.46.41,2.5,2.5,0,0,1-.53.3,3.1,3.1,0,0,0-1,.67,3.26,3.26,0,0,0-.67,1,1,1,0,0,0-.08.3,1.93,1.93,0,0,0,0,.34.55.55,0,0,0,.12.4s0,0,0,0h0a2.66,2.66,0,0,1,.9.59,2.69,2.69,0,0,1,.6.89,3.34,3.34,0,0,0,.67,1,3.1,3.1,0,0,0,1,.67,2.73,2.73,0,0,1,.9.6,2.81,2.81,0,0,1,.6.88c0,.06.05.09.07.08s0,0,.06-.06a.78.78,0,0,0,.07-.22A2.68,2.68,0,0,0,25.34,37.77Zm-4.8-10.43a3.06,3.06,0,0,0,.07-.37,2.67,2.67,0,0,0,0-.4.3.3,0,0,0-.14-.25,2.87,2.87,0,0,1-.9-.59,2.82,2.82,0,0,1-.59-.89c0-.05-.06-.08-.08-.07s0,0-.08.07a2.65,2.65,0,0,1-1.47,1.47,3.19,3.19,0,0,0-.65-.92,3.28,3.28,0,0,0-.95-.63,3,3,0,0,0-1.65,1.65,2.67,2.67,0,0,1-.59.88,2.73,2.73,0,0,1-.9.6c-.07,0-.11.11-.14.22a1.15,1.15,0,0,0,0,.37,1.15,1.15,0,0,0,0,.37.33.33,0,0,0,.14.22,2.87,2.87,0,0,1,.9.59,2.82,2.82,0,0,1,.59.89,4.75,4.75,0,0,0,.33.59,3.2,3.2,0,0,0,.43.47,2.83,2.83,0,0,0-.43.48,3.64,3.64,0,0,0-.33.59,2.78,2.78,0,0,1-.59.88,2.9,2.9,0,0,1-.9.6c-.08,0-.12.11-.14.24a2.67,2.67,0,0,0,0,.4,3.25,3.25,0,0,0,.07.38c0,.11.05.16.07.15a3.16,3.16,0,0,0,1-.67,3,3,0,0,0,.66-1,3,3,0,0,1,.6-.88,2.73,2.73,0,0,1,.9-.6c.07,0,.11-.11.14-.22a1.14,1.14,0,0,0,0-.37,1.15,1.15,0,0,0,0-.37.33.33,0,0,0-.14-.22,2.87,2.87,0,0,1-.9-.59,3,3,0,0,1-.6-.89,3.7,3.7,0,0,0-.32-.59,3.2,3.2,0,0,0-.43-.47,2.83,2.83,0,0,0,.43-.48,3,3,0,0,0,.32-.59,3,3,0,0,1,.6-.88,3.08,3.08,0,0,1,.9-.6,2.84,2.84,0,0,1,.9.6,2.65,2.65,0,0,1,.6.88c0,.05,0,.08.08.08h0A3.06,3.06,0,0,0,18.9,26a3.06,3.06,0,0,0,1.57,1.52S20.51,27.46,20.54,27.34Zm1.58,11a2,2,0,0,0,.06-.38,2.67,2.67,0,0,0,0-.4.26.26,0,0,0-.13-.24,2.54,2.54,0,0,1-.9-.6,2.65,2.65,0,0,1-.6-.88,3.22,3.22,0,0,0-.67-1,3,3,0,0,0-1-.67,3,3,0,0,0-1.65,1.65,2.65,2.65,0,0,1-.6.88,2.54,2.54,0,0,1-.9.6.26.26,0,0,0-.13.24,2.67,2.67,0,0,0,0,.4,2,2,0,0,0,.06.38c0,.11.06.17.07.16a3.26,3.26,0,0,0,1-.67,3.43,3.43,0,0,0,.66-1,2.65,2.65,0,0,1,.6-.88,2.9,2.9,0,0,1,.9-.6,2.9,2.9,0,0,1,.9.6,2.65,2.65,0,0,1,.6.88,3.26,3.26,0,0,0,.67,1,3.1,3.1,0,0,0,1,.67S22.09,38.42,22.12,38.31Zm3.14-9.4a3.49,3.49,0,0,0,.07-.37,2.8,2.8,0,0,0,0-.41c0-.13-.06-.21-.14-.24a2.73,2.73,0,0,1-.9-.6,2.67,2.67,0,0,1-.59-.88,3.22,3.22,0,0,0-.67-1,3.16,3.16,0,0,0-1-.67s0,0-.07.15a3.7,3.7,0,0,0-.07.38,2.67,2.67,0,0,0,0,.4c0,.13.06.21.14.24a3.08,3.08,0,0,1,.9.6,2.78,2.78,0,0,1,.59.88,3.26,3.26,0,0,0,.67,1,3.34,3.34,0,0,0,1,.67S25.23,29,25.26,28.91Zm0,6.27a3.25,3.25,0,0,0,.07-.38,2.67,2.67,0,0,0,0-.4c0-.13-.06-.21-.14-.24a2.9,2.9,0,0,1-.9-.6,2.78,2.78,0,0,1-.59-.88c0-.06-.05-.09-.07-.08a.1.1,0,0,0-.07.06l0,.12a.84.84,0,0,0,0,.1c0,.12,0,.26,0,.4a1,1,0,0,0,.07.4,3.22,3.22,0,0,0,.67,1,3.16,3.16,0,0,0,1,.67S25.23,35.29,25.26,35.18Z" style="fill:#231f20"/><path d="M.13,37.77a1,1,0,0,0-.08-.39,3.26,3.26,0,0,0-.67-1,3.1,3.1,0,0,0-1-.67,2.87,2.87,0,0,1-.9-.59,3,3,0,0,1-.6-.89,3.19,3.19,0,0,0-1.07-1.32,4.36,4.36,0,0,1,.46-.41,2.61,2.61,0,0,1,.54-.31,3.23,3.23,0,0,0,.94-.63,3.37,3.37,0,0,0,.66-.92A2.7,2.7,0,0,1-.1,32.11c0,.06.05.09.07.08s0,0,.06-.06A.61.61,0,0,0,.08,32a.84.84,0,0,0,0-.1,2.5,2.5,0,0,0,0-.4,1,1,0,0,0-.08-.4,3.22,3.22,0,0,0-.67-1,2.94,2.94,0,0,0-1-.67,2.9,2.9,0,0,1-.9-.6A3,3,0,0,1-3.1,28c0-.06,0-.09-.07-.08s-.05,0-.08.08a2.67,2.67,0,0,1-1.47,1.46,3.56,3.56,0,0,0-.65-.92,3.28,3.28,0,0,0-1-.63,3.23,3.23,0,0,0-.94.63,3.37,3.37,0,0,0-.66.92A2.67,2.67,0,0,1-9.39,28c0-.06,0-.09-.07-.08s0,0-.06.06a.61.61,0,0,0-.05.12.24.24,0,0,0,0,.1,2.54,2.54,0,0,0,0,.41,1,1,0,0,0,.08.39,3.22,3.22,0,0,0,.67,1,2.94,2.94,0,0,0,1,.67s0,0,.07-.08a3,3,0,0,1,.6-.89,2.87,2.87,0,0,1,.9-.59,2.86,2.86,0,0,1,.54.3,5.87,5.87,0,0,1,.46.41,3.21,3.21,0,0,0-1.07,1.33A2.86,2.86,0,0,1-7,32a2.73,2.73,0,0,1-.9.6,3.07,3.07,0,0,0-1.65,1.65,2.69,2.69,0,0,1-.6.89,2.76,2.76,0,0,1-.9.59,3.22,3.22,0,0,0-1,.67,3.26,3.26,0,0,0-.67,1,1,1,0,0,0-.07.39,2.68,2.68,0,0,0,0,.41.51.51,0,0,0,0,.09.5.5,0,0,0,.05.13s0,.06.06.06,0,0,.07-.08a2.81,2.81,0,0,1,.6-.88,2.73,2.73,0,0,1,.9-.6,3.1,3.1,0,0,0,1-.67,3.34,3.34,0,0,0,.67-1,2.69,2.69,0,0,1,.6-.89,2.66,2.66,0,0,1,.9-.59,3.22,3.22,0,0,0,1-.67,3.26,3.26,0,0,0,.67-1,2.78,2.78,0,0,1,.59-.88,2.9,2.9,0,0,1,.9-.6,3,3,0,0,0,.93-.6,3.34,3.34,0,0,0,.65-.91,3,3,0,0,0,1,1.19,3.63,3.63,0,0,1-.46.41,2.5,2.5,0,0,1-.53.3,3.1,3.1,0,0,0-1,.67,3.26,3.26,0,0,0-.67,1,1,1,0,0,0-.08.3,1.93,1.93,0,0,0,0,.34.55.55,0,0,0,.12.4s0,0,0,0h0a2.66,2.66,0,0,1,.9.59,2.69,2.69,0,0,1,.6.89,3.34,3.34,0,0,0,.67,1,3.22,3.22,0,0,0,1,.67,2.63,2.63,0,0,1,.9.6,2.65,2.65,0,0,1,.6.88c0,.06.05.09.07.08s0,0,.06-.06a.5.5,0,0,0,.05-.13.51.51,0,0,0,0-.09A2.63,2.63,0,0,0,.13,37.77ZM-4.68,27.34A3.06,3.06,0,0,0-4.61,27a2.67,2.67,0,0,0,0-.4.3.3,0,0,0-.14-.25,2.87,2.87,0,0,1-.9-.59,2.82,2.82,0,0,1-.59-.89c0-.05,0-.08-.08-.07s0,0-.07.07a2.7,2.7,0,0,1-1.48,1.47,3,3,0,0,0-.65-.92,3.28,3.28,0,0,0-1-.63,3,3,0,0,0-1.64,1.65,2.86,2.86,0,0,1-.6.88,2.73,2.73,0,0,1-.9.6.27.27,0,0,0-.13.22.91.91,0,0,0,0,.37.91.91,0,0,0,0,.37.29.29,0,0,0,.13.22,2.87,2.87,0,0,1,.9.59,3,3,0,0,1,.6.89,3.7,3.7,0,0,0,.32.59,3.2,3.2,0,0,0,.43.47,2.83,2.83,0,0,0-.43.48,3,3,0,0,0-.32.59,3,3,0,0,1-.6.88,2.9,2.9,0,0,1-.9.6c-.08,0-.12.11-.13.24a1.34,1.34,0,0,0,0,.4,2,2,0,0,0,.06.38c0,.11,0,.16.07.15a3,3,0,0,0,1-.67,3.22,3.22,0,0,0,.67-1,2.78,2.78,0,0,1,.59-.88,2.73,2.73,0,0,1,.9-.6c.07,0,.11-.11.14-.22a1.14,1.14,0,0,0,0-.37,1.15,1.15,0,0,0,0-.37A.33.33,0,0,0-9.47,31a2.87,2.87,0,0,1-.9-.59,2.82,2.82,0,0,1-.59-.89,4.75,4.75,0,0,0-.33-.59,3.2,3.2,0,0,0-.43-.47,2.83,2.83,0,0,0,.43-.48,3.64,3.64,0,0,0,.33-.59,2.78,2.78,0,0,1,.59-.88,3.08,3.08,0,0,1,.9-.6,2.84,2.84,0,0,1,.9.6,2.65,2.65,0,0,1,.6.88c0,.05,0,.08.08.08h0A2.9,2.9,0,0,0-7,26.89,2.89,2.89,0,0,0-6.32,26a2.89,2.89,0,0,0,.65.91,2.9,2.9,0,0,0,.92.61S-4.71,27.46-4.68,27.34Zm1.58,11A2,2,0,0,0-3,37.93a2.67,2.67,0,0,0,0-.4.26.26,0,0,0-.13-.24,2.54,2.54,0,0,1-.9-.6,2.65,2.65,0,0,1-.6-.88,3.22,3.22,0,0,0-.67-1,2.94,2.94,0,0,0-1-.67A3,3,0,0,0-8,35.81a2.65,2.65,0,0,1-.6.88,2.54,2.54,0,0,1-.9.6.26.26,0,0,0-.13.24,2.67,2.67,0,0,0,0,.4,2,2,0,0,0,.07.38c0,.11,0,.17.06.16a3.26,3.26,0,0,0,1-.67,3.43,3.43,0,0,0,.66-1,3,3,0,0,1,.6-.88,2.9,2.9,0,0,1,.9-.6,2.78,2.78,0,0,1,.9.6,2.65,2.65,0,0,1,.6.88,3.26,3.26,0,0,0,.67,1,3.1,3.1,0,0,0,1,.67S-3.13,38.42-3.1,38.31ZM0,28.91a3.49,3.49,0,0,0,.07-.37,2.8,2.8,0,0,0,0-.41c0-.13-.06-.21-.13-.24a2.67,2.67,0,0,1-.91-.6,2.67,2.67,0,0,1-.59-.88,3.22,3.22,0,0,0-.67-1,3,3,0,0,0-1-.67s0,0-.07.15a2.16,2.16,0,0,0-.06.38,1.34,1.34,0,0,0,0,.4c0,.13,0,.21.13.24a3.08,3.08,0,0,1,.9.6,3,3,0,0,1,.6.88,3.24,3.24,0,0,0,.66,1,3.26,3.26,0,0,0,1,.67S0,29,0,28.91Zm0,6.27a3.25,3.25,0,0,0,.07-.38,2.67,2.67,0,0,0,0-.4c0-.13-.06-.21-.13-.24a2.83,2.83,0,0,1-.91-.6,2.78,2.78,0,0,1-.59-.88c0-.06-.05-.09-.07-.08s0,0-.07.06l-.05.12a.84.84,0,0,0,0,.1c0,.12,0,.26,0,.4a.87.87,0,0,0,.08.4,3.19,3.19,0,0,0,.66,1,3.09,3.09,0,0,0,1,.67S0,35.29,0,35.18Z" style="fill:#231f20"/><path d="M37.93,6a.43.43,0,0,0,0-.12.14.14,0,0,0-.06-.07s0,0-.07.08a2.69,2.69,0,0,1-.6.89,2.76,2.76,0,0,1-.9.59,3.08,3.08,0,0,0-.92.61,3.14,3.14,0,0,0-.65.91,3.08,3.08,0,0,0-1-1.19,4.36,4.36,0,0,1,.46-.41,2.58,2.58,0,0,1,.54-.3,3.08,3.08,0,0,0,1-.68,3.1,3.1,0,0,0,.67-1,2.78,2.78,0,0,1,.59-.88,2.67,2.67,0,0,1,.91-.6c.07,0,.11-.11.13-.24a2.67,2.67,0,0,0,0-.4,3.25,3.25,0,0,0-.07-.38c0-.11,0-.16-.06-.16a3,3,0,0,0-1.65,1.66,3,3,0,0,1-.6.88,2.73,2.73,0,0,1-.9.6A3,3,0,0,0,33,7.42a2.69,2.69,0,0,1-.6.89,2.66,2.66,0,0,1-.9.59,3.23,3.23,0,0,0-.94.63,3.37,3.37,0,0,0-.66.92A2.67,2.67,0,0,1,28.46,9c0-.06-.05-.09-.08-.08s-.05,0-.07.08a2.81,2.81,0,0,1-1.5,1.48,3,3,0,0,0-1,.67,3.34,3.34,0,0,0-.67,1,1,1,0,0,0-.07.4,2.55,2.55,0,0,0,0,.4.84.84,0,0,0,0,.1.43.43,0,0,0,.05.12.14.14,0,0,0,.06.07s.05,0,.07-.09a2.93,2.93,0,0,1,.6-.88,2.87,2.87,0,0,1,.9-.59,3.48,3.48,0,0,0,.93-.61,3.11,3.11,0,0,0,.64-.91A3.34,3.34,0,0,0,29,11a3.48,3.48,0,0,0,.93.61s.05,0,.07-.09a2.72,2.72,0,0,1,1.5-1.48,3.28,3.28,0,0,0,.95-.63,3.45,3.45,0,0,0,.65-.93A2.72,2.72,0,0,1,34.6,10c0,.07,0,.09.08.08s0,0,.07-.08a3,3,0,0,1,.6-.88,2.73,2.73,0,0,1,.9-.6,2.94,2.94,0,0,0,1-.67,3.34,3.34,0,0,0,.67-1,1,1,0,0,0,.08-.4,2.5,2.5,0,0,0,0-.4A.84.84,0,0,0,37.93,6Zm-4.69-.83a2.67,2.67,0,0,0,0-.4,3.49,3.49,0,0,0-.07-.37c0-.12-.05-.17-.07-.16a2.9,2.9,0,0,0-.92.61,3,3,0,0,0-.65.91,3,3,0,0,0-.65-.91A2.9,2.9,0,0,0,30,4.2a2.66,2.66,0,0,1-.9-.59,2.69,2.69,0,0,1-.6-.89c0-.06-.05-.08-.08-.07s-.05,0-.07.07a2.69,2.69,0,0,1-.6.89,2.76,2.76,0,0,1-.9.59,3.22,3.22,0,0,0-1,.67,3.34,3.34,0,0,0-.67,1,1,1,0,0,0-.07.4,2.68,2.68,0,0,0,0,.41l0,.09a.5.5,0,0,0,.05.13s0,.06.06.06.05,0,.07-.08a2.72,2.72,0,0,1,1.5-1.48,3.06,3.06,0,0,0,.93-.61,3,3,0,0,0,.64-.91,3.2,3.2,0,0,0,.65.91,3.06,3.06,0,0,0,.93.61,2.9,2.9,0,0,1,1.21,1,3,3,0,0,1-1.19,1,3.19,3.19,0,0,0-.65-.92,3.15,3.15,0,0,0-.95-.63,3,3,0,0,0-1.64,1.65,3,3,0,0,1-.6.89,2.87,2.87,0,0,1-.9.59c-.08,0-.12.12-.13.25a1.34,1.34,0,0,0,0,.4,2,2,0,0,0,.06.37c0,.12,0,.17.07.16a3.22,3.22,0,0,0,1-.67,3.26,3.26,0,0,0,.67-1A2.69,2.69,0,0,1,28.38,7a2.66,2.66,0,0,1,.9.59,2.75,2.75,0,0,1,.6.88c0,.05,0,.08.08.08h0a3,3,0,0,0,1-.67,3.34,3.34,0,0,0,.67-1A2.82,2.82,0,0,1,32.2,6a2.87,2.87,0,0,1,.9-.59C33.18,5.35,33.22,5.26,33.24,5.13ZM31.64-.3a.5.5,0,0,0-.05-.13s0-.06-.07-.06,0,0-.06.08A2.77,2.77,0,0,1,30,1.06a3.24,3.24,0,0,0-.65-.93,3.15,3.15,0,0,0-.95-.63,3,3,0,0,0-1.64,1.66,3.12,3.12,0,0,1-.6.88,2.87,2.87,0,0,1-.9.59.27.27,0,0,0-.13.25,1.34,1.34,0,0,0,0,.4,2.16,2.16,0,0,0,.06.38c0,.11,0,.16.07.15a3,3,0,0,0,1-.67,3.34,3.34,0,0,0,.67-1,2.82,2.82,0,0,1,.59-.89,2.87,2.87,0,0,1,.9-.59,2.66,2.66,0,0,1,.9.59,2.69,2.69,0,0,1,.6.89s0,.07.08.07v0a3.22,3.22,0,0,0,1-.67,3.26,3.26,0,0,0,.67-1A1,1,0,0,0,31.68.2c0-.15,0-.29,0-.41A.51.51,0,0,0,31.64-.3ZM38,9.83a2.67,2.67,0,0,0,0-.4,3.49,3.49,0,0,0-.07-.37c0-.12,0-.17-.06-.16a3,3,0,0,0-1.65,1.66,3.12,3.12,0,0,1-.6.88,2.87,2.87,0,0,1-.9.59,2.66,2.66,0,0,1-.9-.59,2.75,2.75,0,0,1-.6-.88c0-.06,0-.08-.08-.08h0a3.16,3.16,0,0,0-1,.67,3.31,3.31,0,0,0-.66,1,1,1,0,0,0-.08.4,2.5,2.5,0,0,0,0,.4.46.46,0,0,0,0,.1s0,.09,0,.12l.07.07s0,0,.07-.09a2.67,2.67,0,0,1,1.47-1.46,3.39,3.39,0,0,0,.65.92,3.28,3.28,0,0,0,1,.63,3.22,3.22,0,0,0,1-.67,3.34,3.34,0,0,0,.67-1,2.64,2.64,0,0,1,1.5-1.48C37.9,10.05,37.94,10,38,9.83Zm0-10.13a.5.5,0,0,0,0-.13s0-.06-.06-.06,0,0-.07.08a2.65,2.65,0,0,1-.6.88,2.63,2.63,0,0,1-.9.6,2.9,2.9,0,0,0-.92.61,3,3,0,0,0-.65.9,3.15,3.15,0,0,0-.65-.9,2.84,2.84,0,0,0-.93-.61s-.05,0-.07.09a2.75,2.75,0,0,1-.6.88,2.66,2.66,0,0,1-.9.59.29.29,0,0,0-.13.25,2.67,2.67,0,0,0,0,.4,2.16,2.16,0,0,0,.06.38c0,.11.05.16.07.15a3.28,3.28,0,0,0,.95-.63,3.39,3.39,0,0,0,.65-.92A2.67,2.67,0,0,1,34.6,3.72c0,.07,0,.1.08.08s0,0,.07-.08a3.12,3.12,0,0,1,.6-.88,2.87,2.87,0,0,1,.9-.59,3.1,3.1,0,0,0,1-.67,3.26,3.26,0,0,0,.67-1A1,1,0,0,0,38,.2a2.54,2.54,0,0,0,0-.41A.51.51,0,0,0,37.93-.3Z" style="fill:#231f20"/><path d="M25.09,25.47s0,0,0,.09,0,.09.05.13a.19.19,0,0,0,.07.06s0,0,.07-.08a2.64,2.64,0,0,1,1.5-1.48,3.34,3.34,0,0,0,1-.67,3.26,3.26,0,0,0,.67-1,2.75,2.75,0,0,1,.6-.88,2.66,2.66,0,0,1,.9-.59v0a.07.07,0,0,0,0,0,.61.61,0,0,0,.11-.41,1.82,1.82,0,0,0,0-.33A.84.84,0,0,0,30,20a3.31,3.31,0,0,0-.66-1,3.26,3.26,0,0,0-1-.67,2.54,2.54,0,0,1-.53-.31,2.93,2.93,0,0,1-.46-.4,3,3,0,0,0,1-1.19,3.15,3.15,0,0,0,.65.9,2.94,2.94,0,0,0,.93.61,2.73,2.73,0,0,1,.9.6,2.65,2.65,0,0,1,.6.88,3.28,3.28,0,0,0,1.65,1.66,2.75,2.75,0,0,1,1.5,1.47,3.26,3.26,0,0,0,.67,1,3.22,3.22,0,0,0,1,.67,2.66,2.66,0,0,1,.9.59,2.69,2.69,0,0,1,.6.89c0,.06,0,.08.07.08a.17.17,0,0,0,.06-.06.52.52,0,0,0,.06-.13.44.44,0,0,0,0-.09,2.63,2.63,0,0,0,0-.41,1,1,0,0,0-.08-.4,3.31,3.31,0,0,0-.66-1,3.26,3.26,0,0,0-1-.67,2.87,2.87,0,0,1-.9-.59,2.69,2.69,0,0,1-.6-.89,3,3,0,0,0-1.65-1.65,2.78,2.78,0,0,1-.9-.6,2.65,2.65,0,0,1-.6-.88,3.23,3.23,0,0,0-1.07-1.33,3,3,0,0,1,.46-.41,2.5,2.5,0,0,1,.53-.3,2.8,2.8,0,0,1,.91.59,2.89,2.89,0,0,1,.59.88c0,.06,0,.09.08.09a3.1,3.1,0,0,0,1-.67,3.34,3.34,0,0,0,.67-1,1,1,0,0,0,.08-.4,2.5,2.5,0,0,0,0-.4.24.24,0,0,0,0-.1.43.43,0,0,0-.05-.12.14.14,0,0,0-.06-.07s0,0-.07.09a2.7,2.7,0,0,1-1.47,1.46,3.22,3.22,0,0,0-.66-.92,3.15,3.15,0,0,0-.95-.63,3.18,3.18,0,0,0-1.6,1.55,2.67,2.67,0,0,1-1.47-1.46c0-.06-.05-.09-.08-.08s-.05,0-.07.08a3.12,3.12,0,0,1-.6.88,2.87,2.87,0,0,1-.9.59,3.26,3.26,0,0,0-1,.67,3.46,3.46,0,0,0-.67,1,1,1,0,0,0-.07.39c0,.15,0,.29,0,.41a.51.51,0,0,0,0,.09c0,.05,0,.09.05.13a.1.1,0,0,0,.07.06s0,0,.07-.08a2.72,2.72,0,0,1,1.47-1.47,3.27,3.27,0,0,0,.66.93,3.23,3.23,0,0,0,.94.63,2.23,2.23,0,0,1,.54.31,3.47,3.47,0,0,1,.46.4,3.21,3.21,0,0,0-1.07,1.33,3,3,0,0,1-.6.89,2.87,2.87,0,0,1-.9.59,3.26,3.26,0,0,0-1,.67,3.55,3.55,0,0,0-.67,1,1,1,0,0,0-.07.4C25.07,25.21,25.08,25.34,25.09,25.47ZM30,14.79a2.9,2.9,0,0,0,.92-.61,2.85,2.85,0,0,0,.65-.91,3.2,3.2,0,0,0,.65.91,3.06,3.06,0,0,0,.93.61h0s.06,0,.08-.08a2.78,2.78,0,0,1,.59-.88,2.67,2.67,0,0,1,.91-.6,2.73,2.73,0,0,1,.9.6,3,3,0,0,1,.6.88,3.31,3.31,0,0,0,.32.59,3.28,3.28,0,0,0,.43.48,3.2,3.2,0,0,0-.43.47,3.31,3.31,0,0,0-.32.59,3,3,0,0,1-.6.89,2.87,2.87,0,0,1-.9.59c-.07,0-.11.11-.14.22a1.15,1.15,0,0,0,0,.37,1.15,1.15,0,0,0,0,.37c0,.11.07.19.14.22a2.87,2.87,0,0,1,.9.59,3,3,0,0,1,.6.89,3.31,3.31,0,0,0,.66,1,3.26,3.26,0,0,0,1,.67s0,0,.07-.15a2.16,2.16,0,0,0,.06-.38,2.67,2.67,0,0,0,0-.4.29.29,0,0,0-.13-.25,2.66,2.66,0,0,1-.9-.59,2.69,2.69,0,0,1-.6-.89,2.73,2.73,0,0,0-.33-.58,2.83,2.83,0,0,0-.43-.48,2.83,2.83,0,0,0,.43-.48,2.58,2.58,0,0,0,.33-.59,2.75,2.75,0,0,1,.6-.88,2.66,2.66,0,0,1,.9-.59.29.29,0,0,0,.13-.22,1.51,1.51,0,0,0,0-.37,1.48,1.48,0,0,0,0-.37c0-.12-.06-.19-.13-.22a2.54,2.54,0,0,1-.9-.6,2.65,2.65,0,0,1-.6-.88A3.08,3.08,0,0,0,34.68,12a3,3,0,0,0-1,.64,3.22,3.22,0,0,0-.66.92,2.68,2.68,0,0,1-1.47-1.47c0-.06-.05-.08-.08-.07s-.05,0-.07.07a2.69,2.69,0,0,1-.6.89,2.87,2.87,0,0,1-.9.59c-.08,0-.12.12-.13.25a1.34,1.34,0,0,0,0,.4,2,2,0,0,0,.06.37C29.91,14.75,29.93,14.8,30,14.79Zm-1.58,11a3.09,3.09,0,0,0,1-.67,3.19,3.19,0,0,0,.66-1,3,3,0,0,1,.6-.88,2.73,2.73,0,0,1,.9-.6,2.67,2.67,0,0,1,.91.6,2.78,2.78,0,0,1,.59.88,3.41,3.41,0,0,0,.67,1,3.09,3.09,0,0,0,1,.67s0,0,.06-.15a2,2,0,0,0,.07-.38,2.67,2.67,0,0,0,0-.4.26.26,0,0,0-.13-.24,2.83,2.83,0,0,1-.91-.6,2.78,2.78,0,0,1-.59-.88,3.07,3.07,0,0,0-1.66-1.66,3.34,3.34,0,0,0-1,.67,3.26,3.26,0,0,0-.67,1,2.65,2.65,0,0,1-.6.88,2.68,2.68,0,0,1-.9.6.26.26,0,0,0-.13.24,2.67,2.67,0,0,0,0,.4,2,2,0,0,0,.06.38C28.33,25.71,28.36,25.76,28.37,25.75Zm-3.15-9.39a3,3,0,0,0,1-.68,3.22,3.22,0,0,0,.67-1,2.65,2.65,0,0,1,.6-.88,2.73,2.73,0,0,1,.9-.6c.08,0,.12-.11.13-.24a1.34,1.34,0,0,0,0-.4,2,2,0,0,0-.06-.38c0-.11-.05-.16-.07-.16a3.22,3.22,0,0,0-1,.67,3.26,3.26,0,0,0-.67,1,2.65,2.65,0,0,1-.6.88,2.54,2.54,0,0,1-.9.6c-.08,0-.12.11-.13.24a1.34,1.34,0,0,0,0,.4,2,2,0,0,0,.06.38C25.18,16.31,25.2,16.36,25.22,16.36Zm0,6.26a3.1,3.1,0,0,0,1-.67,3.34,3.34,0,0,0,.67-1,1,1,0,0,0,.08-.4,2.5,2.5,0,0,0,0-.4.24.24,0,0,0,0-.1.43.43,0,0,0,0-.12.14.14,0,0,0-.06-.07s0,0-.07.08a2.69,2.69,0,0,1-.6.89,2.66,2.66,0,0,1-.9.59.27.27,0,0,0-.13.25,1.34,1.34,0,0,0,0,.4,2.16,2.16,0,0,0,.06.38C25.18,22.58,25.2,22.63,25.22,22.62Z" style="fill:#231f20"/><path d="M12.71,6a.43.43,0,0,0-.05-.12.14.14,0,0,0-.06-.07s0,0-.07.08a2.69,2.69,0,0,1-.6.89,2.66,2.66,0,0,1-.9.59,3.08,3.08,0,0,0-.92.61,3.14,3.14,0,0,0-.65.91,3,3,0,0,0-1-1.19,4.36,4.36,0,0,1,.46-.41A2.86,2.86,0,0,1,9.46,7a3.08,3.08,0,0,0,1-.68,3.1,3.1,0,0,0,.67-1,2.65,2.65,0,0,1,.6-.88,2.54,2.54,0,0,1,.9-.6.26.26,0,0,0,.13-.24,2.67,2.67,0,0,0,0-.4,2,2,0,0,0-.07-.38c0-.11-.05-.16-.06-.16A3,3,0,0,0,11,4.29a3,3,0,0,1-.6.88,2.73,2.73,0,0,1-.9.6A3,3,0,0,0,7.81,7.42a2.69,2.69,0,0,1-.6.89,2.66,2.66,0,0,1-.9.59,3.23,3.23,0,0,0-.94.63,3.37,3.37,0,0,0-.66.92A2.7,2.7,0,0,1,3.24,9c0-.06-.05-.09-.07-.08s0,0-.08.08a2.65,2.65,0,0,1-.6.88,2.54,2.54,0,0,1-.9.6,3,3,0,0,0-1,.67,3.34,3.34,0,0,0-.67,1,1,1,0,0,0-.07.4c0,.14,0,.28,0,.4a.84.84,0,0,0,0,.1.43.43,0,0,0,0,.12.12.12,0,0,0,.07.07s0,0,.06-.09a3.12,3.12,0,0,1,.6-.88,2.87,2.87,0,0,1,.9-.59A3.48,3.48,0,0,0,2.52,11a3.34,3.34,0,0,0,.65-.91,3.11,3.11,0,0,0,.64.91,3.48,3.48,0,0,0,.93.61s0,0,.07-.09a3,3,0,0,1,.6-.89,2.87,2.87,0,0,1,.9-.59,3.28,3.28,0,0,0,1-.63,3.45,3.45,0,0,0,.65-.93A2.72,2.72,0,0,1,9.38,10c0,.07,0,.09.08.08s0,0,.07-.08a3,3,0,0,1,.6-.88,2.73,2.73,0,0,1,.9-.6,2.94,2.94,0,0,0,1-.67,3.34,3.34,0,0,0,.67-1,1,1,0,0,0,.08-.4,2.5,2.5,0,0,0,0-.4A.24.24,0,0,0,12.71,6ZM8,5.13a2.67,2.67,0,0,0,0-.4A3.58,3.58,0,0,0,8,4.36c0-.12-.06-.17-.07-.16A2.84,2.84,0,0,0,7,4.81a3.2,3.2,0,0,0-.65.91,3,3,0,0,0-.65-.91,2.9,2.9,0,0,0-.92-.61,2.66,2.66,0,0,1-.9-.59,2.69,2.69,0,0,1-.6-.89c0-.06-.05-.08-.07-.07s0,0-.08.07a2.69,2.69,0,0,1-.6.89,2.66,2.66,0,0,1-.9.59,3.22,3.22,0,0,0-1,.67,3.34,3.34,0,0,0-.67,1,1,1,0,0,0-.07.4c0,.15,0,.28,0,.41l0,.09a.5.5,0,0,0,0,.13s0,.06.07.06,0,0,.06-.08A3,3,0,0,1,.69,6a2.87,2.87,0,0,1,.9-.59,3.06,3.06,0,0,0,.93-.61,3.2,3.2,0,0,0,.65-.91,3,3,0,0,0,.64.91,3.06,3.06,0,0,0,.93.61A2.9,2.9,0,0,1,6,6.36a2.89,2.89,0,0,1-1.19,1,3,3,0,0,0-.65-.92,3.23,3.23,0,0,0-.94-.63A3,3,0,0,0,1.52,7.42a3,3,0,0,1-.6.89A2.87,2.87,0,0,1,0,8.9c-.08,0-.12.12-.13.25a1.34,1.34,0,0,0,0,.4A2,2,0,0,0,0,9.92c0,.12.05.17.07.16a3.22,3.22,0,0,0,1-.67,3.26,3.26,0,0,0,.67-1,2.75,2.75,0,0,1,.6-.88A2.66,2.66,0,0,1,3.17,7a2.87,2.87,0,0,1,.9.59,2.89,2.89,0,0,1,.59.88c0,.05,0,.08.08.08h0a3,3,0,0,0,1-.67,3.34,3.34,0,0,0,.67-1A2.69,2.69,0,0,1,7,6a2.66,2.66,0,0,1,.9-.59A.28.28,0,0,0,8,5.13ZM6.42-.3a.5.5,0,0,0,0-.13s0-.06-.06-.06,0,0-.07.08A2.77,2.77,0,0,1,4.76,1.06,3.05,3.05,0,0,0,4.11.13,3.23,3.23,0,0,0,3.17-.5,3,3,0,0,0,1.52,1.16,3.12,3.12,0,0,1,.92,2a2.87,2.87,0,0,1-.9.59.27.27,0,0,0-.13.25,1.34,1.34,0,0,0,0,.4A2.16,2.16,0,0,0,0,3.66c0,.11.05.16.07.15a3,3,0,0,0,1-.67,3.34,3.34,0,0,0,.67-1,2.69,2.69,0,0,1,.6-.89,2.66,2.66,0,0,1,.9-.59,2.87,2.87,0,0,1,.9.59,2.82,2.82,0,0,1,.59.89s0,.07.08.07v0a3.22,3.22,0,0,0,1-.67,3.26,3.26,0,0,0,.67-1A1,1,0,0,0,6.46.2c0-.15,0-.29,0-.41A.51.51,0,0,0,6.42-.3ZM12.74,9.83a2.67,2.67,0,0,0,0-.4,2,2,0,0,0-.07-.37c0-.12-.05-.17-.06-.16A3,3,0,0,0,11,10.56a3.12,3.12,0,0,1-.6.88,2.87,2.87,0,0,1-.9.59A2.75,2.75,0,0,1,8,10.56c0-.06,0-.08-.07-.08h0a3.09,3.09,0,0,0-1,.67,3.31,3.31,0,0,0-.66,1,1,1,0,0,0-.08.4,2.5,2.5,0,0,0,0,.4.24.24,0,0,0,0,.1.26.26,0,0,0,0,.12.14.14,0,0,0,.06.07s0,0,.07-.09a2.67,2.67,0,0,1,1.47-1.46,3.22,3.22,0,0,0,.66.92,3.1,3.1,0,0,0,.94.63,3.22,3.22,0,0,0,1-.67,3.34,3.34,0,0,0,.67-1,2.69,2.69,0,0,1,.6-.89,2.66,2.66,0,0,1,.9-.59A.28.28,0,0,0,12.74,9.83Zm0-10.13a.5.5,0,0,0-.05-.13s0-.06-.06-.06,0,0-.07.08a2.65,2.65,0,0,1-.6.88,2.54,2.54,0,0,1-.9.6,2.9,2.9,0,0,0-.92.61,3,3,0,0,0-.65.9,3,3,0,0,0-.65-.9,2.9,2.9,0,0,0-.92-.61s0,0-.08.09a2.75,2.75,0,0,1-.6.88,2.66,2.66,0,0,1-.9.59.29.29,0,0,0-.13.25,2.67,2.67,0,0,0,0,.4,2.16,2.16,0,0,0,.06.38c0,.11.06.16.07.15a3.28,3.28,0,0,0,1-.63,3.39,3.39,0,0,0,.65-.92A2.67,2.67,0,0,1,9.38,3.72c0,.07,0,.1.08.08s0,0,.07-.08a3.12,3.12,0,0,1,.6-.88,2.87,2.87,0,0,1,.9-.59,3.1,3.1,0,0,0,1-.67,3.26,3.26,0,0,0,.67-1A1,1,0,0,0,12.76.2a2.54,2.54,0,0,0,0-.41A.18.18,0,0,0,12.71-.3Z" style="fill:#231f20"/><path d="M25.34,12.52a1,1,0,0,0-.07-.4,3.34,3.34,0,0,0-.67-1,3,3,0,0,0-1-.67,2.73,2.73,0,0,1-.9-.6,2.65,2.65,0,0,1-.6-.88,3.15,3.15,0,0,0-1.07-1.33,3.55,3.55,0,0,1,.46-.41,2.58,2.58,0,0,1,.54-.3A3.07,3.07,0,0,0,23,6.31a3.22,3.22,0,0,0,.66-.92,2.72,2.72,0,0,1,1.47,1.47c0,.06.05.08.07.08s0,0,.06-.06a.5.5,0,0,0,.05-.13l0-.09a2.68,2.68,0,0,0,0-.41,1,1,0,0,0-.07-.4,3.34,3.34,0,0,0-.67-1,3.22,3.22,0,0,0-1-.67,2.87,2.87,0,0,1-.9-.59,2.69,2.69,0,0,1-.6-.89c0-.06-.05-.08-.07-.07s-.05,0-.08.07A2.65,2.65,0,0,1,20.5,4.19a3.22,3.22,0,0,0-.66-.92,3,3,0,0,0-.94-.64,3,3,0,0,0-.94.64,3.22,3.22,0,0,0-.66.92,2.65,2.65,0,0,1-1.47-1.47c0-.06-.05-.08-.07-.08s0,0-.06.06a.5.5,0,0,0,0,.13.2.2,0,0,0,0,.09,2.63,2.63,0,0,0,0,.41.93.93,0,0,0,.08.39,3.24,3.24,0,0,0,.66,1,3.26,3.26,0,0,0,1,.67s.05,0,.07-.09a2.65,2.65,0,0,1,.6-.88,2.73,2.73,0,0,1,.9-.6,3.07,3.07,0,0,1,.53.31,3,3,0,0,1,.46.41,3.35,3.35,0,0,0-1.07,1.32,2.82,2.82,0,0,1-.59.89,2.87,2.87,0,0,1-.9.59A3,3,0,0,0,15.68,9a2.81,2.81,0,0,1-.6.88,2.73,2.73,0,0,1-.9.6,2.94,2.94,0,0,0-1,.67,3.34,3.34,0,0,0-.67,1,1,1,0,0,0-.07.4,2.55,2.55,0,0,0,0,.4.84.84,0,0,0,0,.1.43.43,0,0,0,.05.12.14.14,0,0,0,.06.07s.05,0,.07-.09a2.75,2.75,0,0,1,.6-.88,2.87,2.87,0,0,1,.9-.59A3.28,3.28,0,0,0,15.83,10a2.65,2.65,0,0,1,.6-.88,2.54,2.54,0,0,1,.9-.6,3.16,3.16,0,0,0,1-.67,3.55,3.55,0,0,0,.67-1A2.82,2.82,0,0,1,19.57,6a2.87,2.87,0,0,1,.9-.59,2.94,2.94,0,0,0,.93-.61,3.2,3.2,0,0,0,.65-.91,3,3,0,0,0,1,1.19,3,3,0,0,1-.46.41,3.07,3.07,0,0,1-.53.31,2.94,2.94,0,0,0-1,.67,3.34,3.34,0,0,0-.67,1,1,1,0,0,0-.08.31,1.82,1.82,0,0,0,0,.33.53.53,0,0,0,.12.4s0,0,0,0h0a2.54,2.54,0,0,1,.9.6A2.65,2.65,0,0,1,22,10a3.22,3.22,0,0,0,.67,1,3.13,3.13,0,0,0,1,.68,2.87,2.87,0,0,1,.9.59,2.93,2.93,0,0,1,.6.88c0,.06.05.09.07.09a.14.14,0,0,0,.06-.07A.43.43,0,0,0,25.3,13a.84.84,0,0,0,0-.1A2.55,2.55,0,0,0,25.34,12.52ZM20.54,2.09a3.25,3.25,0,0,0,.07-.38,2.67,2.67,0,0,0,0-.4c0-.13-.06-.21-.14-.24a2.73,2.73,0,0,1-.9-.6A2.78,2.78,0,0,1,19-.41c0-.06-.06-.08-.08-.08s0,0-.08.08a2.72,2.72,0,0,1-1.47,1.47A3.24,3.24,0,0,0,16.7.13a3.28,3.28,0,0,0-.95-.63A3.08,3.08,0,0,0,14.1,1.16a2.89,2.89,0,0,1-.59.88,2.87,2.87,0,0,1-.9.59.33.33,0,0,0-.14.22,1.15,1.15,0,0,0,0,.37,1.14,1.14,0,0,0,0,.37c0,.12.07.19.14.22a2.73,2.73,0,0,1,.9.6,2.78,2.78,0,0,1,.59.88,4.12,4.12,0,0,0,.33.59,3.28,3.28,0,0,0,.43.48,3.2,3.2,0,0,0-.43.47,4.12,4.12,0,0,0-.33.59,2.82,2.82,0,0,1-.59.89,2.87,2.87,0,0,1-.9.59c-.08,0-.12.12-.14.25a2.67,2.67,0,0,0,0,.4,3.49,3.49,0,0,0,.07.37c0,.12.05.17.07.16a3.34,3.34,0,0,0,1-.67,3.07,3.07,0,0,0,.66-1,3.12,3.12,0,0,1,.6-.88,2.87,2.87,0,0,1,.9-.59.33.33,0,0,0,.14-.22,1.15,1.15,0,0,0,0-.37,1.14,1.14,0,0,0,0-.37c0-.12-.07-.19-.14-.22a2.73,2.73,0,0,1-.9-.6,3,3,0,0,1-.6-.88,3,3,0,0,0-.32-.59,3.28,3.28,0,0,0-.43-.48,3.2,3.2,0,0,0,.43-.47,3.31,3.31,0,0,0,.32-.59,3,3,0,0,1,.6-.89,2.87,2.87,0,0,1,.9-.59,2.66,2.66,0,0,1,.9.59,2.69,2.69,0,0,1,.6.89s0,.07.08.07v0a3.08,3.08,0,0,0,.92-.61A3.14,3.14,0,0,0,18.9.73a3.14,3.14,0,0,0,.65.91,3.08,3.08,0,0,0,.92.61S20.51,2.2,20.54,2.09Zm1.58,11a2.16,2.16,0,0,0,.06-.38,2.67,2.67,0,0,0,0-.4.29.29,0,0,0-.13-.25,2.66,2.66,0,0,1-.9-.59,2.75,2.75,0,0,1-.6-.88,3.26,3.26,0,0,0-.67-1,3.22,3.22,0,0,0-1-.67,3.08,3.08,0,0,0-1.65,1.66,2.75,2.75,0,0,1-.6.88,2.66,2.66,0,0,1-.9.59.29.29,0,0,0-.13.25,2.67,2.67,0,0,0,0,.4,2.16,2.16,0,0,0,.06.38c0,.11.06.16.07.15a3.26,3.26,0,0,0,1-.67,3.52,3.52,0,0,0,.66-1,2.69,2.69,0,0,1,.6-.89,2.87,2.87,0,0,1,.9-.59,2.87,2.87,0,0,1,.9.59,2.69,2.69,0,0,1,.6.89,3.34,3.34,0,0,0,.67,1,3.1,3.1,0,0,0,1,.67S22.09,13.17,22.12,13.06Zm3.14-9.4a3.7,3.7,0,0,0,.07-.38,2.67,2.67,0,0,0,0-.4.3.3,0,0,0-.14-.25,2.87,2.87,0,0,1-.9-.59,2.89,2.89,0,0,1-.59-.88,3.26,3.26,0,0,0-.67-1,3.34,3.34,0,0,0-1-.67s0,0-.07.16a3.49,3.49,0,0,0-.07.37,2.67,2.67,0,0,0,0,.4c0,.13.06.22.14.25a2.87,2.87,0,0,1,.9.59,2.82,2.82,0,0,1,.59.89,3.34,3.34,0,0,0,.67,1,3.16,3.16,0,0,0,1,.67S25.23,3.77,25.26,3.66Zm0,6.26a3.49,3.49,0,0,0,.07-.37,2.67,2.67,0,0,0,0-.4c0-.13-.06-.22-.14-.25a2.87,2.87,0,0,1-.9-.59,2.82,2.82,0,0,1-.59-.89c0-.06-.05-.08-.07-.08s-.05,0-.07.06,0,.08,0,.13l0,.09c0,.13,0,.26,0,.41a.94.94,0,0,0,.07.39,3.26,3.26,0,0,0,.67,1,3.34,3.34,0,0,0,1,.67S25.23,10,25.26,9.92Z" style="fill:#231f20"/><path d="M12.48,18.6c0,.12,0,.26,0,.41a1,1,0,0,0,.07.39,3.1,3.1,0,0,0,.67,1,3.37,3.37,0,0,0,1,.68,2.8,2.8,0,0,1,.91.59,3.12,3.12,0,0,1,.6.88c0,.07.05.1.07.08s.05,0,.08-.08a2.67,2.67,0,0,1,1.47-1.46,3.18,3.18,0,0,0,1.6,1.55,2.54,2.54,0,0,1,.9.6,2.65,2.65,0,0,1,.6.88c0,.06.05.09.08.09a3.06,3.06,0,0,0,.93-.61,3.2,3.2,0,0,0,.65-.91,3,3,0,0,0,.64.91,3.06,3.06,0,0,0,.93.61,2.66,2.66,0,0,1,.9.59,2.69,2.69,0,0,1,.6.89c0,.06.05.08.07.08l.06-.06a.5.5,0,0,0,.05-.13.23.23,0,0,0,0-.09,2.63,2.63,0,0,0,0-.41,1,1,0,0,0-.08-.4,3.34,3.34,0,0,0-.67-1,3.1,3.1,0,0,0-1-.67,2.87,2.87,0,0,1-.9-.59,2.69,2.69,0,0,1-.6-.89c0-.06-.05-.08-.07-.07s-.05,0-.08.07A2.67,2.67,0,0,1,20.51,23a3.15,3.15,0,0,0-1.6-1.56,2.87,2.87,0,0,1-.9-.59,3,3,0,0,1-.6-.89,3,3,0,0,0-1.65-1.65,2.87,2.87,0,0,1-.9-.59,2.69,2.69,0,0,1-.6-.89,3,3,0,0,0-1.65-1.65s0,0-.07.15a2.16,2.16,0,0,0-.06.38,1.34,1.34,0,0,0,0,.4.27.27,0,0,0,.13.25,2.87,2.87,0,0,1,.9.59,2.75,2.75,0,0,1,.6.88,3.26,3.26,0,0,0,.67,1,3.22,3.22,0,0,0,1,.67,2.43,2.43,0,0,1,.54.31,4.25,4.25,0,0,1,.46.4,3.16,3.16,0,0,0-1,1.19,3,3,0,0,0-.65-.9,2.84,2.84,0,0,0-.93-.61,2.9,2.9,0,0,1-.9-.6,2.78,2.78,0,0,1-.59-.88c0-.06,0-.09-.07-.08a.1.1,0,0,0-.07.06.61.61,0,0,0-.05.12A.84.84,0,0,0,12.48,18.6Zm4.86-.68a2.73,2.73,0,0,1,.9.6,2.81,2.81,0,0,1,.6.88,3.28,3.28,0,0,0,1.65,1.66v0s.06,0,.07-.07a3,3,0,0,1,.6-.89,2.8,2.8,0,0,1,.91-.59,2.87,2.87,0,0,1,.9.59,3,3,0,0,1,.6.89,3.31,3.31,0,0,0,.66,1,3.26,3.26,0,0,0,1,.67s0,0,.07-.15a2.16,2.16,0,0,0,.06-.38,2.67,2.67,0,0,0,0-.4.29.29,0,0,0-.13-.25,2.66,2.66,0,0,1-.9-.59,2.69,2.69,0,0,1-.6-.89,3.07,3.07,0,0,0-1.65-1.65,3.15,3.15,0,0,0-.95.63,3.37,3.37,0,0,0-.66.92,2.77,2.77,0,0,1-1.18-1,2.91,2.91,0,0,1,1.21-1,3.06,3.06,0,0,0,.93-.61,3.15,3.15,0,0,0,.65-.9,2.94,2.94,0,0,0,.64.9,3.06,3.06,0,0,0,.93.61,2.54,2.54,0,0,1,.9.6,2.65,2.65,0,0,1,.6.88c0,.06.05.09.07.08s0,0,.06-.06a.5.5,0,0,0,.05-.13.18.18,0,0,0,0-.09,2.54,2.54,0,0,0,0-.41,1,1,0,0,0-.08-.39,3.26,3.26,0,0,0-.67-1,3.1,3.1,0,0,0-1-.67,2.87,2.87,0,0,1-.9-.59,2.75,2.75,0,0,1-.6-.88c0-.06-.05-.09-.07-.08s-.05,0-.08.08a2.75,2.75,0,0,1-.6.88,2.87,2.87,0,0,1-.9.59,3.26,3.26,0,0,0-.93.61,3.34,3.34,0,0,0-.65.91,3,3,0,0,0-.65-.91,3.08,3.08,0,0,0-.92-.61s0,.05-.07.16a3.25,3.25,0,0,0-.07.38,2.67,2.67,0,0,0,0,.4C17.22,17.81,17.26,17.89,17.34,17.92Zm1.45-5.59a2.63,2.63,0,0,0,0,.41.93.93,0,0,0,.08.39,3.26,3.26,0,0,0,.67,1,3.1,3.1,0,0,0,1,.67h0s.06,0,.07-.08a3,3,0,0,1,.6-.88,2.67,2.67,0,0,1,.91-.6,2.73,2.73,0,0,1,.9.6,3,3,0,0,1,.6.88,3.19,3.19,0,0,0,.66,1,3.12,3.12,0,0,0,1,.68s0-.05.07-.16a2,2,0,0,0,.06-.38,2.67,2.67,0,0,0,0-.4.26.26,0,0,0-.13-.24,2.54,2.54,0,0,1-.9-.6,2.65,2.65,0,0,1-.6-.88A3.08,3.08,0,0,0,22.07,12a3,3,0,0,0-.95.64,3.22,3.22,0,0,0-.66.92A2.68,2.68,0,0,1,19,12.13c0-.06,0-.08-.07-.08s0,0-.06.06a.5.5,0,0,0-.05.13A.2.2,0,0,0,18.79,12.33ZM12.61,22.62a2.73,2.73,0,0,1,.9.6,2.65,2.65,0,0,1,.6.88,3.22,3.22,0,0,0,.67,1,3,3,0,0,0,1,.67,2.92,2.92,0,0,0,1-.63,3.19,3.19,0,0,0,.65-.92,2.7,2.7,0,0,1,1.48,1.47c0,.06.05.08.07.08l.06-.06a.5.5,0,0,0,.05-.13s0-.08,0-.09a2.68,2.68,0,0,0,0-.41,1,1,0,0,0-.07-.4,3.34,3.34,0,0,0-.67-1,3.22,3.22,0,0,0-1-.67h0s-.06,0-.08.08a2.65,2.65,0,0,1-.6.88,2.68,2.68,0,0,1-.9.6,2.9,2.9,0,0,1-.9-.6,2.65,2.65,0,0,1-.6-.88,3.08,3.08,0,0,0-1.65-1.66s0,0-.07.16a2,2,0,0,0-.06.38,1.34,1.34,0,0,0,0,.4C12.49,22.51,12.53,22.59,12.61,22.62Zm-.13-10.29c0,.13,0,.26,0,.41a.94.94,0,0,0,.07.39,3.26,3.26,0,0,0,.67,1,3.34,3.34,0,0,0,1,.67,2.8,2.8,0,0,1,.91.59,3,3,0,0,1,.6.89c0,.06.05.09.07.07s.05,0,.08-.07a2.65,2.65,0,0,1,1.47-1.47,3.22,3.22,0,0,0,.66.92,3.07,3.07,0,0,0,.94.64s0-.05.07-.16a3.25,3.25,0,0,0,.07-.38,2.67,2.67,0,0,0,0-.4c0-.13-.06-.21-.14-.24a2.73,2.73,0,0,1-.9-.6,3,3,0,0,1-.6-.88c0-.06-.05-.09-.07-.09a2.94,2.94,0,0,0-.93.61,3.2,3.2,0,0,0-.65.91,3,3,0,0,0-.65-.91,2.84,2.84,0,0,0-.93-.61,2.87,2.87,0,0,1-.9-.59,2.82,2.82,0,0,1-.59-.89c0-.06,0-.08-.07-.08s0,0-.07.06a.5.5,0,0,0-.05.13Z" style="fill:#231f20"/><path d="M-.13,25.47s0,0,0,.09,0,.09.05.13l.07.06s0,0,.07-.08a2.69,2.69,0,0,1,.6-.89,2.66,2.66,0,0,1,.9-.59,3.22,3.22,0,0,0,1-.67,3.26,3.26,0,0,0,.67-1,2.75,2.75,0,0,1,.6-.88,2.66,2.66,0,0,1,.9-.59v0a.07.07,0,0,0,0,0,.61.61,0,0,0,.11-.41,1.82,1.82,0,0,0,0-.33A.84.84,0,0,0,4.8,20a3.31,3.31,0,0,0-.66-1,3.26,3.26,0,0,0-1-.67A2.54,2.54,0,0,1,2.62,18a2.93,2.93,0,0,1-.46-.4,3,3,0,0,0,1-1.19,3.15,3.15,0,0,0,.65.9,3.06,3.06,0,0,0,.93.61,2.73,2.73,0,0,1,.9.6,2.65,2.65,0,0,1,.6.88,3.28,3.28,0,0,0,1.65,1.66,2.66,2.66,0,0,1,.9.59,2.75,2.75,0,0,1,.6.88,3.26,3.26,0,0,0,.67,1,3.22,3.22,0,0,0,1,.67,2.66,2.66,0,0,1,.9.59,2.69,2.69,0,0,1,.6.89c0,.06.05.08.07.08l.07-.06s0-.08.05-.13,0-.08,0-.09,0-.26,0-.41a.87.87,0,0,0-.08-.4,3.31,3.31,0,0,0-.66-1A3.26,3.26,0,0,0,11,23a2.87,2.87,0,0,1-.9-.59,3,3,0,0,1-.6-.89,3,3,0,0,0-1.65-1.65,2.9,2.9,0,0,1-.9-.6,2.65,2.65,0,0,1-.6-.88,3.15,3.15,0,0,0-1.07-1.33,3,3,0,0,1,.46-.41,2.5,2.5,0,0,1,.53-.3,2.8,2.8,0,0,1,.91.59,3.12,3.12,0,0,1,.6.88c0,.06.05.09.07.09a3.1,3.1,0,0,0,1-.67,3.16,3.16,0,0,0,.67-1,1,1,0,0,0,.08-.4,2.5,2.5,0,0,0,0-.4.24.24,0,0,0,0-.1.43.43,0,0,0-.05-.12.14.14,0,0,0-.06-.07s0,0-.07.09a2.67,2.67,0,0,1-1.47,1.46,3.22,3.22,0,0,0-.66-.92,3.15,3.15,0,0,0-1-.63,3.18,3.18,0,0,0-1.6,1.55,2.7,2.7,0,0,1-1.47-1.46c0-.06,0-.09-.08-.08s0,0-.07.08a2.93,2.93,0,0,1-.6.88,2.87,2.87,0,0,1-.9.59A3.09,3.09,0,0,0-.07,18.4a.85.85,0,0,0-.08.39c0,.15,0,.29,0,.41a.51.51,0,0,0,0,.09c0,.05,0,.09.05.13s0,.06.07.06,0,0,.07-.08a2.72,2.72,0,0,1,1.47-1.47,3.27,3.27,0,0,0,.66.93,3.23,3.23,0,0,0,.94.63,2.23,2.23,0,0,1,.54.31,3.47,3.47,0,0,1,.46.4,3.21,3.21,0,0,0-1.07,1.33,2.85,2.85,0,0,1-.6.89,2.87,2.87,0,0,1-.9.59,3.26,3.26,0,0,0-1,.67,3.31,3.31,0,0,0-.66,1,.87.87,0,0,0-.08.4C-.15,25.21-.14,25.34-.13,25.47ZM4.73,14.79a3.06,3.06,0,0,0,.93-.61,3,3,0,0,0,.64-.91,3.2,3.2,0,0,0,.65.91,3.06,3.06,0,0,0,.93.61h0s.06,0,.08-.08a2.65,2.65,0,0,1,.6-.88,2.54,2.54,0,0,1,.9-.6,2.73,2.73,0,0,1,.9.6,2.81,2.81,0,0,1,.6.88,2.81,2.81,0,0,0,.33.59,2.73,2.73,0,0,0,.42.48,2.67,2.67,0,0,0-.42.47,2.81,2.81,0,0,0-.33.59,2.72,2.72,0,0,1-1.5,1.48c-.07,0-.11.11-.14.22a1.15,1.15,0,0,0,0,.37,1.15,1.15,0,0,0,0,.37c0,.11.07.19.14.22A2.72,2.72,0,0,1,11,21a3.34,3.34,0,0,0,.67,1,3.1,3.1,0,0,0,1,.67s0,0,.07-.15a2.16,2.16,0,0,0,.06-.38,2.67,2.67,0,0,0,0-.4.29.29,0,0,0-.13-.25,2.66,2.66,0,0,1-.9-.59,2.69,2.69,0,0,1-.6-.89,2.73,2.73,0,0,0-.33-.58,2.83,2.83,0,0,0-.43-.48,2.83,2.83,0,0,0,.43-.48,2.58,2.58,0,0,0,.33-.59,2.75,2.75,0,0,1,.6-.88,2.66,2.66,0,0,1,.9-.59.29.29,0,0,0,.13-.22,1.51,1.51,0,0,0,0-.37,1.48,1.48,0,0,0,0-.37c0-.12-.06-.19-.13-.22a2.54,2.54,0,0,1-.9-.6,2.65,2.65,0,0,1-.6-.88A3.08,3.08,0,0,0,9.46,12a3.12,3.12,0,0,0-1,.64,3,3,0,0,0-.65.92,2.7,2.7,0,0,1-1.48-1.47c0-.06,0-.08-.08-.07s0,0-.07.07a2.69,2.69,0,0,1-.6.89,2.87,2.87,0,0,1-.9.59c-.08,0-.12.12-.13.25a1.34,1.34,0,0,0,0,.4,2,2,0,0,0,.06.37C4.69,14.75,4.71,14.8,4.73,14.79Zm-1.58,11a3.09,3.09,0,0,0,1-.67,3.19,3.19,0,0,0,.66-1,3,3,0,0,1,.6-.88,2.73,2.73,0,0,1,.9-.6,2.67,2.67,0,0,1,.91.6,3,3,0,0,1,.6.88,3.19,3.19,0,0,0,.66,1,3.09,3.09,0,0,0,1,.67s0,0,.07-.15a2,2,0,0,0,.06-.38,2.67,2.67,0,0,0,0-.4.26.26,0,0,0-.13-.24,2.68,2.68,0,0,1-.9-.6A2.65,2.65,0,0,1,8,23.1,3.07,3.07,0,0,0,6.3,21.44a3.34,3.34,0,0,0-1,.67,3.26,3.26,0,0,0-.67,1,2.65,2.65,0,0,1-.6.88,2.68,2.68,0,0,1-.9.6.26.26,0,0,0-.13.24,2.67,2.67,0,0,0,0,.4,2,2,0,0,0,.06.38C3.11,25.71,3.14,25.76,3.15,25.75ZM0,16.36a3,3,0,0,0,1-.68,3,3,0,0,0,.67-1,3,3,0,0,1,.6-.88,2.73,2.73,0,0,1,.9-.6c.08,0,.12-.11.14-.24a2.67,2.67,0,0,0,0-.4,3.25,3.25,0,0,0-.07-.38c0-.11-.05-.16-.07-.16a3.34,3.34,0,0,0-1,.67,3.26,3.26,0,0,0-.67,1,2.65,2.65,0,0,1-.6.88,2.54,2.54,0,0,1-.9.6.26.26,0,0,0-.13.24,2.67,2.67,0,0,0,0,.4,2,2,0,0,0,.06.38C0,16.31,0,16.36,0,16.36Zm0,6.26A3.1,3.1,0,0,0,1,22a3.16,3.16,0,0,0,.67-1,1,1,0,0,0,.08-.4,2.5,2.5,0,0,0,0-.4.24.24,0,0,0,0-.1A.26.26,0,0,0,1.63,20a.14.14,0,0,0-.06-.07s0,0-.07.08a2.69,2.69,0,0,1-.6.89,2.66,2.66,0,0,1-.9.59.29.29,0,0,0-.13.25,2.67,2.67,0,0,0,0,.4,2.16,2.16,0,0,0,.06.38C0,22.58,0,22.63,0,22.62Z" style="fill:#231f20"/><path d="M.13,12.52a1,1,0,0,0-.08-.4,3.34,3.34,0,0,0-.67-1,2.94,2.94,0,0,0-1-.67,2.73,2.73,0,0,1-.9-.6A3,3,0,0,1-3.1,9,3.15,3.15,0,0,0-4.17,7.66a4.36,4.36,0,0,1,.46-.41A2.58,2.58,0,0,1-3.17,7a3.07,3.07,0,0,0,.94-.64,3.22,3.22,0,0,0,.66-.92A2.68,2.68,0,0,1-.1,6.86c0,.06.05.08.07.08s0,0,.06-.06a.5.5,0,0,0,.05-.13l0-.09a2.63,2.63,0,0,0,0-.41,1,1,0,0,0-.08-.4,3.34,3.34,0,0,0-.67-1,3.1,3.1,0,0,0-1-.67,2.87,2.87,0,0,1-.9-.59,3,3,0,0,1-.6-.89c0-.06,0-.08-.07-.07s-.05,0-.08.07A2.65,2.65,0,0,1-4.72,4.19a3.39,3.39,0,0,0-.65-.92,3.12,3.12,0,0,0-1-.64,3.07,3.07,0,0,0-.94.64,3.22,3.22,0,0,0-.66.92A2.65,2.65,0,0,1-9.39,2.72c0-.06,0-.08-.07-.08s0,0-.06.06a.5.5,0,0,0-.05.13.2.2,0,0,0,0,.09,2.63,2.63,0,0,0,0,.41.93.93,0,0,0,.08.39,3.26,3.26,0,0,0,.67,1,3.1,3.1,0,0,0,1,.67s0,0,.07-.09a3,3,0,0,1,.6-.88,2.73,2.73,0,0,1,.9-.6,3.6,3.6,0,0,1,.54.31,4.36,4.36,0,0,1,.46.41A3.19,3.19,0,0,0-6.39,5.85a3,3,0,0,1-.6.89,2.87,2.87,0,0,1-.9.59A3.08,3.08,0,0,0-9.54,9a2.65,2.65,0,0,1-.6.88,2.63,2.63,0,0,1-.9.6,3,3,0,0,0-1,.67,3.34,3.34,0,0,0-.67,1,1,1,0,0,0-.07.4,2.55,2.55,0,0,0,0,.4.84.84,0,0,0,0,.1.43.43,0,0,0,.05.12.14.14,0,0,0,.06.07s0,0,.07-.09a2.93,2.93,0,0,1,.6-.88,2.87,2.87,0,0,1,.9-.59,3.13,3.13,0,0,0,1-.68,3.22,3.22,0,0,0,.67-1,2.65,2.65,0,0,1,.6-.88,2.54,2.54,0,0,1,.9-.6,3,3,0,0,0,1-.67,3.34,3.34,0,0,0,.67-1A2.82,2.82,0,0,1-5.65,6a2.87,2.87,0,0,1,.9-.59,2.84,2.84,0,0,0,.93-.61,3.2,3.2,0,0,0,.65-.91,3,3,0,0,0,1,1.19,3,3,0,0,1-.46.41,3.07,3.07,0,0,1-.53.31,2.94,2.94,0,0,0-1,.67,3.34,3.34,0,0,0-.67,1,1,1,0,0,0-.08.31,1.82,1.82,0,0,0,0,.33.53.53,0,0,0,.12.4s0,0,0,0h0a2.54,2.54,0,0,1,.9.6,2.65,2.65,0,0,1,.6.88,3.22,3.22,0,0,0,.67,1,3.25,3.25,0,0,0,1,.68,2.76,2.76,0,0,1,.9.59,2.75,2.75,0,0,1,.6.88c0,.06.05.09.07.09A.14.14,0,0,0,0,13.14.43.43,0,0,0,.08,13a.84.84,0,0,0,0-.1A2.5,2.5,0,0,0,.13,12.52ZM-4.68,2.09a3.25,3.25,0,0,0,.07-.38,2.67,2.67,0,0,0,0-.4c0-.13-.06-.21-.14-.24a2.73,2.73,0,0,1-.9-.6,2.78,2.78,0,0,1-.59-.88c0-.06,0-.08-.08-.08s0,0-.07.08A2.77,2.77,0,0,1-7.87,1.06,3.05,3.05,0,0,0-8.52.13a3.28,3.28,0,0,0-1-.63,3,3,0,0,0-1.64,1.66,3.12,3.12,0,0,1-.6.88,2.87,2.87,0,0,1-.9.59.29.29,0,0,0-.13.22.92.92,0,0,0,0,.37.91.91,0,0,0,0,.37c0,.12.06.19.13.22a2.73,2.73,0,0,1,.9.6,3,3,0,0,1,.6.88,3.31,3.31,0,0,0,.32.59,3.28,3.28,0,0,0,.43.48,3.2,3.2,0,0,0-.43.47,3.31,3.31,0,0,0-.32.59,3,3,0,0,1-.6.89,2.87,2.87,0,0,1-.9.59c-.08,0-.12.12-.13.25a1.34,1.34,0,0,0,0,.4,2,2,0,0,0,.06.37c0,.12,0,.17.07.16a3.22,3.22,0,0,0,1-.67,3.26,3.26,0,0,0,.67-1,2.89,2.89,0,0,1,.59-.88A2.87,2.87,0,0,1-9.47,7a.33.33,0,0,0,.14-.22,1.15,1.15,0,0,0,0-.37,1.14,1.14,0,0,0,0-.37c0-.12-.07-.19-.14-.22a2.73,2.73,0,0,1-.9-.6A2.78,2.78,0,0,1-11,4.29a3.64,3.64,0,0,0-.33-.59,3.28,3.28,0,0,0-.43-.48,3.2,3.2,0,0,0,.43-.47A4.12,4.12,0,0,0-11,2.16a2.82,2.82,0,0,1,.59-.89,2.87,2.87,0,0,1,.9-.59,2.66,2.66,0,0,1,.9.59,2.69,2.69,0,0,1,.6.89s0,.07.08.07v0A3.08,3.08,0,0,0-7,1.64,3.14,3.14,0,0,0-6.32.73a3.14,3.14,0,0,0,.65.91,3.08,3.08,0,0,0,.92.61S-4.71,2.2-4.68,2.09Zm1.58,11A2.16,2.16,0,0,0-3,12.68a2.67,2.67,0,0,0,0-.4A.29.29,0,0,0-3.17,12a2.66,2.66,0,0,1-.9-.59,2.75,2.75,0,0,1-.6-.88,3.26,3.26,0,0,0-.67-1,3.1,3.1,0,0,0-1-.67A3.08,3.08,0,0,0-8,10.56a2.75,2.75,0,0,1-.6.88,2.66,2.66,0,0,1-.9.59.29.29,0,0,0-.13.25,2.67,2.67,0,0,0,0,.4,2.14,2.14,0,0,0,.07.38c0,.11,0,.16.06.15a3.26,3.26,0,0,0,1-.67,3.52,3.52,0,0,0,.66-1,3,3,0,0,1,.6-.89,2.87,2.87,0,0,1,.9-.59,2.76,2.76,0,0,1,.9.59,2.69,2.69,0,0,1,.6.89,3.34,3.34,0,0,0,.67,1,3.1,3.1,0,0,0,1,.67S-3.13,13.17-3.1,13.06ZM0,3.66a3.7,3.7,0,0,0,.07-.38,2.67,2.67,0,0,0,0-.4A.32.32,0,0,0,0,2.63,2.8,2.8,0,0,1-.93,2a2.89,2.89,0,0,1-.59-.88,3.26,3.26,0,0,0-.67-1,3.22,3.22,0,0,0-1-.67s0,0-.07.16A2,2,0,0,0-3.3,0a1.34,1.34,0,0,0,0,.4c0,.13,0,.22.13.25a2.87,2.87,0,0,1,.9.59,3,3,0,0,1,.6.89,3.31,3.31,0,0,0,.66,1,3.09,3.09,0,0,0,1,.67S0,3.77,0,3.66ZM0,9.92a3.49,3.49,0,0,0,.07-.37,2.67,2.67,0,0,0,0-.4C.09,9,.05,8.93,0,8.9a2.8,2.8,0,0,1-.91-.59,2.82,2.82,0,0,1-.59-.89c0-.06-.05-.08-.07-.08s0,0-.07.06,0,.08-.05.13l0,.09c0,.13,0,.26,0,.41a.8.8,0,0,0,.08.39,3.24,3.24,0,0,0,.66,1,3.26,3.26,0,0,0,1,.67S0,10,0,9.92Z" style="fill:#231f20"/><path d="M-12.74,18.6c0,.12,0,.26,0,.41a1,1,0,0,0,.07.39,3.27,3.27,0,0,0,.67,1,3.29,3.29,0,0,0,1,.68,2.87,2.87,0,0,1,.9.59,3.12,3.12,0,0,1,.6.88c0,.07,0,.1.07.08s.05,0,.08-.08a2.67,2.67,0,0,1,1.47-1.46,3.22,3.22,0,0,0,.66.92,3.23,3.23,0,0,0,.94.63,2.67,2.67,0,0,1,.91.6,2.78,2.78,0,0,1,.59.88c0,.06.06.09.08.09a3.06,3.06,0,0,0,.93-.61,3.2,3.2,0,0,0,.65-.91,2.85,2.85,0,0,0,.65.91,2.9,2.9,0,0,0,.92.61,2.66,2.66,0,0,1,.9.59,2.69,2.69,0,0,1,.6.89c0,.06.05.08.07.08l.07-.06s0-.08.05-.13a.44.44,0,0,0,0-.09,2.63,2.63,0,0,0,0-.41,1,1,0,0,0-.08-.4,3.31,3.31,0,0,0-.66-1,3.26,3.26,0,0,0-1-.67,2.87,2.87,0,0,1-.9-.59,2.85,2.85,0,0,1-.6-.89c0-.06,0-.08-.07-.07s-.05,0-.08.07A2.65,2.65,0,0,1-4.7,23a3.22,3.22,0,0,0-.66-.92,3,3,0,0,0-.95-.64,2.87,2.87,0,0,1-.9-.59,3,3,0,0,1-.6-.89,3,3,0,0,0-1.65-1.65,2.87,2.87,0,0,1-.9-.59,3,3,0,0,1-.6-.89,3,3,0,0,0-1.65-1.65s0,0-.07.15a2.16,2.16,0,0,0-.06.38,2.67,2.67,0,0,0,0,.4.27.27,0,0,0,.13.25,2.66,2.66,0,0,1,.9.59,2.75,2.75,0,0,1,.6.88,3.26,3.26,0,0,0,.67,1,3.22,3.22,0,0,0,1,.67,2.23,2.23,0,0,1,.54.31,3.47,3.47,0,0,1,.46.4,3.16,3.16,0,0,0-1,1.19,3,3,0,0,0-.65-.9,2.9,2.9,0,0,0-.92-.61,2.68,2.68,0,0,1-.9-.6,2.65,2.65,0,0,1-.6-.88c0-.06-.05-.09-.07-.08a.1.1,0,0,0-.07.06l-.05.12A.84.84,0,0,0-12.74,18.6Zm4.86-.68a2.73,2.73,0,0,1,.9.6,2.65,2.65,0,0,1,.6.88,3.1,3.1,0,0,0,.67,1,3.13,3.13,0,0,0,1,.68v0s.06,0,.08-.07a2.82,2.82,0,0,1,.59-.89,2.8,2.8,0,0,1,.91-.59,2.87,2.87,0,0,1,.9.59,3,3,0,0,1,.6.89A3.34,3.34,0,0,0-1,22a3.1,3.1,0,0,0,1,.67s0,0,.07-.15a2.16,2.16,0,0,0,.06-.38,2.67,2.67,0,0,0,0-.4A.29.29,0,0,0,0,21.44a2.66,2.66,0,0,1-.9-.59A2.69,2.69,0,0,1-1.5,20a3.07,3.07,0,0,0-1.65-1.65,3.28,3.28,0,0,0-.95.63,3.14,3.14,0,0,0-.65.92,2.74,2.74,0,0,1-1.19-1,2.91,2.91,0,0,1,1.21-1,3.06,3.06,0,0,0,.93-.61,3.15,3.15,0,0,0,.65-.9,2.81,2.81,0,0,0,.65.9,2.9,2.9,0,0,0,.92.61,2.54,2.54,0,0,1,.9.6,2.65,2.65,0,0,1,.6.88c0,.06.05.09.07.08s0,0,.07-.06,0-.08.05-.13a.34.34,0,0,0,0-.09,2.54,2.54,0,0,0,0-.41,1,1,0,0,0-.08-.39,3.24,3.24,0,0,0-.66-1,3.26,3.26,0,0,0-1-.67,2.87,2.87,0,0,1-.9-.59,2.93,2.93,0,0,1-.6-.88c0-.06,0-.09-.07-.08s-.05,0-.08.08a2.75,2.75,0,0,1-.6.88,2.66,2.66,0,0,1-.9.59,3.26,3.26,0,0,0-.93.61,3.34,3.34,0,0,0-.65.91,3.11,3.11,0,0,0-.64-.91,3.26,3.26,0,0,0-.93-.61s0,.05-.07.16a2,2,0,0,0-.06.38,1.34,1.34,0,0,0,0,.4C-8,17.81-8,17.89-7.88,17.92Zm1.45-5.59a2.63,2.63,0,0,0,0,.41.93.93,0,0,0,.08.39,3.26,3.26,0,0,0,.67,1,3.1,3.1,0,0,0,1,.67h0s.06,0,.08-.08a2.78,2.78,0,0,1,.59-.88,2.67,2.67,0,0,1,.91-.6,2.73,2.73,0,0,1,.9.6,3,3,0,0,1,.6.88,3.22,3.22,0,0,0,.67,1,3,3,0,0,0,1,.68s0-.05.07-.16a2,2,0,0,0,.06-.38,2.67,2.67,0,0,0,0-.4A.26.26,0,0,0,0,15.18a2.54,2.54,0,0,1-.9-.6,2.65,2.65,0,0,1-.6-.88A3.08,3.08,0,0,0-3.15,12a3.12,3.12,0,0,0-.95.64,3,3,0,0,0-.65.92,2.67,2.67,0,0,1-1.48-1.47c0-.06,0-.08-.07-.08s0,0-.06.06a.5.5,0,0,0,0,.13A.2.2,0,0,0-6.43,12.33Zm-6.18,10.29a2.54,2.54,0,0,1,.9.6,2.65,2.65,0,0,1,.6.88,3.22,3.22,0,0,0,.67,1,3,3,0,0,0,1,.67,2.92,2.92,0,0,0,1-.63,3,3,0,0,0,.65-.92,2.67,2.67,0,0,1,1.48,1.47c0,.06,0,.08.07.08l.06-.06a.5.5,0,0,0,0-.13s0-.08,0-.09a2.63,2.63,0,0,0,0-.41,1,1,0,0,0-.08-.4,3.34,3.34,0,0,0-.67-1,3.22,3.22,0,0,0-1-.67h0s-.06,0-.08.08a2.65,2.65,0,0,1-.6.88,2.68,2.68,0,0,1-.9.6,2.9,2.9,0,0,1-.9-.6,3,3,0,0,1-.6-.88,3.08,3.08,0,0,0-1.65-1.66s0,0-.07.16a2,2,0,0,0-.06.38,2.67,2.67,0,0,0,0,.4C-12.73,22.51-12.69,22.59-12.61,22.62Zm-.13-10.29c0,.13,0,.26,0,.41a.94.94,0,0,0,.07.39,3.46,3.46,0,0,0,.67,1,3.26,3.26,0,0,0,1,.67,2.87,2.87,0,0,1,.9.59,3,3,0,0,1,.6.89c0,.06,0,.09.07.07s.05,0,.08-.07A2.65,2.65,0,0,1-7.91,14.8a3.22,3.22,0,0,0,.66.92,3.07,3.07,0,0,0,.94.64s0-.05.07-.16a3.25,3.25,0,0,0,.07-.38,2.67,2.67,0,0,0,0-.4c0-.13-.06-.21-.14-.24a2.73,2.73,0,0,1-.9-.6,3,3,0,0,1-.6-.88c0-.06-.05-.09-.07-.09a3.06,3.06,0,0,0-.93.61,3.2,3.2,0,0,0-.65.91,3,3,0,0,0-.65-.91,2.9,2.9,0,0,0-.92-.61,2.66,2.66,0,0,1-.9-.59,2.69,2.69,0,0,1-.6-.89c0-.06-.05-.08-.07-.08s-.05,0-.07.06,0,.08-.05.13Z" style="fill:#231f20"/><path d="M25.09.21a.84.84,0,0,0,0,.1l.05.12a.1.1,0,0,0,.07.06s0,0,.07-.08a2.78,2.78,0,0,1,.59-.88,2.67,2.67,0,0,1,.91-.6,3.16,3.16,0,0,0,1-.67,3.34,3.34,0,0,0,.67-1,2.69,2.69,0,0,1,.6-.89A2.66,2.66,0,0,1,30-4.2h0l0,0a.6.6,0,0,0,.11-.4,1.82,1.82,0,0,0,0-.33A.75.75,0,0,0,30-5.29a3.19,3.19,0,0,0-.66-1,3.09,3.09,0,0,0-1-.67,3.07,3.07,0,0,1-.53-.31,3,3,0,0,1-.46-.41,3,3,0,0,0,1-1.19,3.34,3.34,0,0,0,.65.91,3.13,3.13,0,0,0,.93.61,2.87,2.87,0,0,1,.9.59,2.69,2.69,0,0,1,.6.89,3.34,3.34,0,0,0,.67,1,3.1,3.1,0,0,0,1,.67,2.76,2.76,0,0,1,.9.59,2.69,2.69,0,0,1,.6.89,3.34,3.34,0,0,0,.67,1,3,3,0,0,0,1,.67,2.54,2.54,0,0,1,.9.6,2.65,2.65,0,0,1,.6.88c0,.06,0,.09.07.08s0,0,.06-.06a.67.67,0,0,0,.06-.12.46.46,0,0,0,0-.1A2.54,2.54,0,0,0,38-.2a1,1,0,0,0-.08-.39,3.08,3.08,0,0,0-.66-1,3.29,3.29,0,0,0-1-.68,2.87,2.87,0,0,1-.9-.59,2.75,2.75,0,0,1-.6-.88A3.08,3.08,0,0,0,33.1-5.38,2.76,2.76,0,0,1,32.2-6a2.69,2.69,0,0,1-.6-.89,3.36,3.36,0,0,0-1.07-1.33,2.93,2.93,0,0,1,.46-.4,2.54,2.54,0,0,1,.53-.31,2.8,2.8,0,0,1,.91.59,2.82,2.82,0,0,1,.59.89c0,.06,0,.09.08.09a3.1,3.1,0,0,0,1-.67,3.26,3.26,0,0,0,.67-1,1,1,0,0,0,.08-.39,2.63,2.63,0,0,0,0-.41.18.18,0,0,0,0-.09.5.5,0,0,0-.05-.13s0-.06-.06-.06,0,0-.07.08a2.75,2.75,0,0,1-1.47,1.47,3.27,3.27,0,0,0-.66-.93,3.15,3.15,0,0,0-.95-.63,3.23,3.23,0,0,0-.94.63,3.27,3.27,0,0,0-.66.93A2.72,2.72,0,0,1,28.45-10c0-.06-.05-.08-.08-.08s-.05,0-.07.08a3,3,0,0,1-.6.88,2.73,2.73,0,0,1-.9.6,3.26,3.26,0,0,0-1,.67,3.55,3.55,0,0,0-.67,1,1,1,0,0,0-.07.4c0,.14,0,.28,0,.4a.84.84,0,0,0,0,.1s0,.09.05.12a.15.15,0,0,0,.07.07s0,0,.07-.08a2.65,2.65,0,0,1,1.47-1.47,3.22,3.22,0,0,0,.66.92,3.23,3.23,0,0,0,.94.63,3.16,3.16,0,0,1,.54.31,3.55,3.55,0,0,1,.46.41A3.15,3.15,0,0,0,28.3-3.72a3.12,3.12,0,0,1-.6.88,2.87,2.87,0,0,1-.9.59,3.29,3.29,0,0,0-1,.68,3.27,3.27,0,0,0-.67,1,1,1,0,0,0-.07.39C25.07,0,25.08.09,25.09.21ZM30-10.47a3,3,0,0,0,.92-.6,3,3,0,0,0,.65-.91,3.34,3.34,0,0,0,.65.91,3.23,3.23,0,0,0,.93.6h0s.06,0,.08-.07a2.82,2.82,0,0,1,.59-.89,2.8,2.8,0,0,1,.91-.59,2.87,2.87,0,0,1,.9.59,3,3,0,0,1,.6.89,3.22,3.22,0,0,0,.32.58,2.83,2.83,0,0,0,.43.48A2.83,2.83,0,0,0,36.5-9a3,3,0,0,0-.32.59,3.12,3.12,0,0,1-.6.88,3.08,3.08,0,0,1-.9.6c-.07,0-.11.1-.14.21a1.15,1.15,0,0,0,0,.37,1.14,1.14,0,0,0,0,.37c0,.12.07.19.14.22a2.9,2.9,0,0,1,.9.6,3,3,0,0,1,.6.88,3.24,3.24,0,0,0,.66,1,3.26,3.26,0,0,0,1,.67s0-.05.07-.16A2,2,0,0,0,38-3.17a2.67,2.67,0,0,0,0-.4.26.26,0,0,0-.13-.24,2.54,2.54,0,0,1-.9-.6,2.65,2.65,0,0,1-.6-.88A2.81,2.81,0,0,0,36-5.88a3.28,3.28,0,0,0-.43-.48A3.2,3.2,0,0,0,36-6.83a2.81,2.81,0,0,0,.33-.59,2.69,2.69,0,0,1,.6-.89,2.66,2.66,0,0,1,.9-.59A.27.27,0,0,0,38-9.12a1.5,1.5,0,0,0,0-.37,1.5,1.5,0,0,0,0-.37.29.29,0,0,0-.13-.22,2.66,2.66,0,0,1-.9-.59,2.69,2.69,0,0,1-.6-.89,3,3,0,0,0-1.65-1.65,3.15,3.15,0,0,0-1,.63,3.22,3.22,0,0,0-.66.92,2.7,2.7,0,0,1-1.47-1.46c0-.06-.05-.09-.08-.08s-.05,0-.07.08a2.65,2.65,0,0,1-.6.88,2.87,2.87,0,0,1-.9.59.27.27,0,0,0-.13.25,1.34,1.34,0,0,0,0,.4,2.16,2.16,0,0,0,.06.38C29.91-10.51,29.93-10.46,30-10.47ZM28.37.5a3.26,3.26,0,0,0,1-.67,3.31,3.31,0,0,0,.66-1,3,3,0,0,1,.6-.89,2.87,2.87,0,0,1,.9-.59,2.8,2.8,0,0,1,.91.59,2.82,2.82,0,0,1,.59.89,3.55,3.55,0,0,0,.67,1,3.26,3.26,0,0,0,1,.67s0,0,.06-.16A2,2,0,0,0,34.81,0a2.67,2.67,0,0,0,0-.4.28.28,0,0,0-.13-.25,2.8,2.8,0,0,1-.91-.59,2.82,2.82,0,0,1-.59-.89,3,3,0,0,0-1.66-1.65,3.34,3.34,0,0,0-1,.67,3.34,3.34,0,0,0-.67,1,2.69,2.69,0,0,1-.6.89,2.66,2.66,0,0,1-.9.59.28.28,0,0,0-.13.25,2.67,2.67,0,0,0,0,.4,2,2,0,0,0,.06.37C28.33.46,28.36.51,28.37.5ZM25.22-8.9a3.1,3.1,0,0,0,1-.67,3.34,3.34,0,0,0,.67-1,2.69,2.69,0,0,1,.6-.89,2.87,2.87,0,0,1,.9-.59.27.27,0,0,0,.13-.25,1.34,1.34,0,0,0,0-.4,2.16,2.16,0,0,0-.06-.38c0-.11-.05-.16-.07-.15a3.22,3.22,0,0,0-1,.67,3.34,3.34,0,0,0-.67,1,2.69,2.69,0,0,1-.6.89,2.66,2.66,0,0,1-.9.59.27.27,0,0,0-.13.25,1.34,1.34,0,0,0,0,.4,1.91,1.91,0,0,0,.06.37C25.18-8.94,25.2-8.89,25.22-8.9Zm0,6.27a3.1,3.1,0,0,0,1-.67,3.26,3.26,0,0,0,.67-1A1,1,0,0,0,27-4.68a2.63,2.63,0,0,0,0-.41.18.18,0,0,0,0-.09.5.5,0,0,0,0-.13s0-.06-.06-.06,0,0-.07.08a2.65,2.65,0,0,1-.6.88,2.54,2.54,0,0,1-.9.6c-.08,0-.12.11-.13.24a1.34,1.34,0,0,0,0,.4,2,2,0,0,0,.06.38C25.18-2.68,25.2-2.63,25.22-2.63Z" style="fill:#231f20"/><path d="M12.48-6.66c0,.13,0,.26,0,.41a1,1,0,0,0,.07.4,3.34,3.34,0,0,0,.67,1,3.34,3.34,0,0,0,1,.67,2.8,2.8,0,0,1,.91.59,3,3,0,0,1,.6.89c0,.07.05.09.07.07s.05,0,.08-.07a2.65,2.65,0,0,1,1.47-1.47,3.22,3.22,0,0,0,.66.92,3.07,3.07,0,0,0,.94.64,2.66,2.66,0,0,1,.9.59,2.69,2.69,0,0,1,.6.89s.05.08.08.08a3.06,3.06,0,0,0,.93-.61,3.15,3.15,0,0,0,.65-.9,2.94,2.94,0,0,0,.64.9,3.06,3.06,0,0,0,.93.61,2.54,2.54,0,0,1,.9.6,2.65,2.65,0,0,1,.6.88c0,.06.05.09.07.08s0,0,.06-.06a.61.61,0,0,0,.05-.12.24.24,0,0,0,0-.1,2.54,2.54,0,0,0,0-.41,1,1,0,0,0-.08-.39,3.1,3.1,0,0,0-.67-1,3.13,3.13,0,0,0-1-.68,2.87,2.87,0,0,1-.9-.59,2.75,2.75,0,0,1-.6-.88c0-.06-.05-.09-.07-.08s-.05,0-.08.08a2.68,2.68,0,0,1-1.48,1.46,3,3,0,0,0-.65-.92,3.15,3.15,0,0,0-.95-.63,2.73,2.73,0,0,1-.9-.6,3,3,0,0,1-.6-.88,3,3,0,0,0-1.65-1.65,3.08,3.08,0,0,1-.9-.6,2.75,2.75,0,0,1-.6-.88,3.08,3.08,0,0,0-1.65-1.66s0,.05-.07.16a2,2,0,0,0-.06.37,1.41,1.41,0,0,0,0,.41c0,.12,0,.21.13.24a2.87,2.87,0,0,1,.9.59,2.69,2.69,0,0,1,.6.89,3.34,3.34,0,0,0,.67,1,3,3,0,0,0,1,.67,3.6,3.6,0,0,1,.54.31,4.36,4.36,0,0,1,.46.41,3.08,3.08,0,0,0-1,1.19,3,3,0,0,0-.65-.91,2.84,2.84,0,0,0-.93-.61,2.87,2.87,0,0,1-.9-.59,2.82,2.82,0,0,1-.59-.89c0-.06,0-.08-.07-.08a.19.19,0,0,0-.07.06.5.5,0,0,0-.05.13Zm4.86-.67a2.87,2.87,0,0,1,.9.59,2.85,2.85,0,0,1,.6.89,3.34,3.34,0,0,0,.67,1,3.1,3.1,0,0,0,1,.67h0s.06,0,.07-.08a3,3,0,0,1,.6-.88,2.83,2.83,0,0,1,.91-.6,2.9,2.9,0,0,1,.9.6,3,3,0,0,1,.6.88,3.24,3.24,0,0,0,.66,1,3.26,3.26,0,0,0,1,.67s0-.05.07-.16a2,2,0,0,0,.06-.38,2.67,2.67,0,0,0,0-.4.26.26,0,0,0-.13-.24,2.54,2.54,0,0,1-.9-.6,2.65,2.65,0,0,1-.6-.88,3,3,0,0,0-1.65-1.65,2.82,2.82,0,0,0-.95.63,3.22,3.22,0,0,0-.66.92,2.86,2.86,0,0,1-1.18-1,2.81,2.81,0,0,1,1.21-1,3.26,3.26,0,0,0,.93-.61,3.34,3.34,0,0,0,.65-.91,3.11,3.11,0,0,0,.64.91,3.26,3.26,0,0,0,.93.61,2.66,2.66,0,0,1,.9.59,2.69,2.69,0,0,1,.6.89s.05.08.07.08a.14.14,0,0,0,.06-.07A.43.43,0,0,0,25.32-6a.24.24,0,0,0,0-.1,2.5,2.5,0,0,0,0-.4,1,1,0,0,0-.08-.4,3.34,3.34,0,0,0-.67-1,3.1,3.1,0,0,0-1-.67,2.73,2.73,0,0,1-.9-.6,2.65,2.65,0,0,1-.6-.88c0-.06-.05-.08-.07-.08S22-10,22-10a2.65,2.65,0,0,1-.6.88,2.73,2.73,0,0,1-.9.6,3.06,3.06,0,0,0-.93.61,3.15,3.15,0,0,0-.65.9,2.81,2.81,0,0,0-.65-.9,2.9,2.9,0,0,0-.92-.61s0,0-.07.16A3.06,3.06,0,0,0,17.2-8a2.67,2.67,0,0,0,0,.4A.3.3,0,0,0,17.34-7.33Zm1.45-5.59a2.5,2.5,0,0,0,0,.4,1,1,0,0,0,.08.4,3.34,3.34,0,0,0,.67,1,2.94,2.94,0,0,0,1,.67h0s.06,0,.07-.07a3,3,0,0,1,.6-.89,2.8,2.8,0,0,1,.91-.59,2.87,2.87,0,0,1,.9.59,3,3,0,0,1,.6.89,3.31,3.31,0,0,0,.66,1,3.26,3.26,0,0,0,1,.67s0,0,.07-.16a1.91,1.91,0,0,0,.06-.37,2.67,2.67,0,0,0,0-.4.29.29,0,0,0-.13-.25,2.66,2.66,0,0,1-.9-.59,2.69,2.69,0,0,1-.6-.89,3,3,0,0,0-1.65-1.65,3.15,3.15,0,0,0-.95.63,3.22,3.22,0,0,0-.66.92A2.7,2.7,0,0,1,19-13.12c0-.06,0-.09-.07-.09a.14.14,0,0,0-.06.07.61.61,0,0,0-.05.12A.24.24,0,0,0,18.79-12.92ZM12.61-2.63a2.87,2.87,0,0,1,.9.59,2.69,2.69,0,0,1,.6.89,3.34,3.34,0,0,0,.67,1,3.22,3.22,0,0,0,1,.67,3.28,3.28,0,0,0,1-.63A3.33,3.33,0,0,0,17.36-1,2.72,2.72,0,0,1,18.84.41c0,.06.05.09.07.08s0,0,.06-.06A.61.61,0,0,0,19,.31a.84.84,0,0,0,0-.1,2.62,2.62,0,0,0,0-.41A1,1,0,0,0,19-.59a3.1,3.1,0,0,0-.67-1,3.25,3.25,0,0,0-1-.68v0s-.06,0-.08.07a2.69,2.69,0,0,1-.6.89,2.66,2.66,0,0,1-.9.59,2.87,2.87,0,0,1-.9-.59,2.69,2.69,0,0,1-.6-.89,3,3,0,0,0-1.65-1.65s0,0-.07.15a2.16,2.16,0,0,0-.06.38,1.34,1.34,0,0,0,0,.4A.27.27,0,0,0,12.61-2.63Zm-.13-10.29c0,.12,0,.26,0,.4a1,1,0,0,0,.07.4,3.34,3.34,0,0,0,.67,1,3.16,3.16,0,0,0,1,.67,2.83,2.83,0,0,1,.91.6,3,3,0,0,1,.6.88c0,.07.05.09.07.08s.05,0,.08-.08a2.67,2.67,0,0,1,1.47-1.46,3.37,3.37,0,0,0,.66.92,3.23,3.23,0,0,0,.94.63s0,0,.07-.16a3.06,3.06,0,0,0,.07-.37,2.67,2.67,0,0,0,0-.4.3.3,0,0,0-.14-.25,2.87,2.87,0,0,1-.9-.59,3,3,0,0,1-.6-.89c0-.06-.05-.09-.07-.09a3.33,3.33,0,0,0-.93.61,3.34,3.34,0,0,0-.65.91,3.14,3.14,0,0,0-.65-.91,3.19,3.19,0,0,0-.93-.61,2.87,2.87,0,0,1-.9-.59,2.78,2.78,0,0,1-.59-.88c0-.06,0-.09-.07-.09a.15.15,0,0,0-.07.07.61.61,0,0,0-.05.12A.84.84,0,0,0,12.48-12.92Z" style="fill:#231f20"/><path d="M-.13.21a.84.84,0,0,0,0,.1l.05.12S0,.49,0,.49s0,0,.07-.08a2.65,2.65,0,0,1,.6-.88,2.54,2.54,0,0,1,.9-.6,3,3,0,0,0,1-.67,3.34,3.34,0,0,0,.67-1,2.69,2.69,0,0,1,.6-.89,2.66,2.66,0,0,1,.9-.59h0l0,0a.6.6,0,0,0,.11-.4,1.82,1.82,0,0,0,0-.33.75.75,0,0,0-.08-.31,3.19,3.19,0,0,0-.66-1,3.09,3.09,0,0,0-1-.67,3.07,3.07,0,0,1-.53-.31,3,3,0,0,1-.46-.41,3,3,0,0,0,1-1.19,3.34,3.34,0,0,0,.65.91,3.26,3.26,0,0,0,.93.61,2.87,2.87,0,0,1,.9.59,2.69,2.69,0,0,1,.6.89,3.34,3.34,0,0,0,.67,1,3.1,3.1,0,0,0,1,.67,2.66,2.66,0,0,1,.9.59,2.69,2.69,0,0,1,.6.89,3.34,3.34,0,0,0,.67,1,3,3,0,0,0,1,.67,2.54,2.54,0,0,1,.9.6,2.65,2.65,0,0,1,.6.88c0,.06.05.09.07.08s0,0,.07-.06l.05-.12a.84.84,0,0,0,0-.1c0-.12,0-.26,0-.41a.85.85,0,0,0-.08-.39,3.08,3.08,0,0,0-.66-1,3.29,3.29,0,0,0-1-.68,2.87,2.87,0,0,1-.9-.59,3.12,3.12,0,0,1-.6-.88A3.05,3.05,0,0,0,7.88-5.38,2.87,2.87,0,0,1,7-6a2.69,2.69,0,0,1-.6-.89A3.28,3.28,0,0,0,5.31-8.19a2.93,2.93,0,0,1,.46-.4A2.54,2.54,0,0,1,6.3-8.9a2.8,2.8,0,0,1,.91.59,3,3,0,0,1,.6.89c0,.06.05.09.07.09a3.1,3.1,0,0,0,1-.67,3.09,3.09,0,0,0,.67-1,1,1,0,0,0,.08-.39,2.63,2.63,0,0,0,0-.41.18.18,0,0,0,0-.09A.5.5,0,0,0,9.51-10s0-.06-.06-.06,0,0-.07.08A2.72,2.72,0,0,1,7.91-8.52a3.27,3.27,0,0,0-.66-.93,3.15,3.15,0,0,0-1-.63,3.23,3.23,0,0,0-.94.63,3.27,3.27,0,0,0-.66.93A2.75,2.75,0,0,1,3.23-10c0-.06,0-.08-.08-.08s0,0-.07.08a2.81,2.81,0,0,1-.6.88,2.73,2.73,0,0,1-.9.6,3.26,3.26,0,0,0-1,.67,3.31,3.31,0,0,0-.66,1,.87.87,0,0,0-.08.4c0,.14,0,.28,0,.4a.84.84,0,0,0,0,.1s0,.09.05.12L0-5.77s0,0,.07-.08A2.65,2.65,0,0,1,1.55-7.32a3.22,3.22,0,0,0,.66.92,3.23,3.23,0,0,0,.94.63,3.16,3.16,0,0,1,.54.31A3.55,3.55,0,0,1,4.15-5,3.15,3.15,0,0,0,3.08-3.72a2.93,2.93,0,0,1-.6.88,2.87,2.87,0,0,1-.9.59,3.29,3.29,0,0,0-1,.68,3.08,3.08,0,0,0-.66,1A.85.85,0,0,0-.15-.2C-.15,0-.14.09-.13.21ZM4.73-10.47a3.23,3.23,0,0,0,.93-.6A3.11,3.11,0,0,0,6.3-12a3.34,3.34,0,0,0,.65.91,3.23,3.23,0,0,0,.93.6h0s.06,0,.08-.07a2.69,2.69,0,0,1,.6-.89,2.66,2.66,0,0,1,.9-.59,2.87,2.87,0,0,1,.9.59,2.85,2.85,0,0,1,.6.89,2.73,2.73,0,0,0,.33.58,2.41,2.41,0,0,0,.42.48,2.41,2.41,0,0,0-.42.48,2.58,2.58,0,0,0-.33.59,2.93,2.93,0,0,1-.6.88,3.08,3.08,0,0,1-.9.6c-.07,0-.11.1-.14.21a1.15,1.15,0,0,0,0,.37,1.14,1.14,0,0,0,0,.37c0,.12.07.19.14.22a2.9,2.9,0,0,1,.9.6,2.81,2.81,0,0,1,.6.88,3.26,3.26,0,0,0,.67,1,3.1,3.1,0,0,0,1,.67s0-.05.07-.16a2,2,0,0,0,.06-.38,2.67,2.67,0,0,0,0-.4.26.26,0,0,0-.13-.24,2.54,2.54,0,0,1-.9-.6,2.65,2.65,0,0,1-.6-.88,2.81,2.81,0,0,0-.33-.59,3.28,3.28,0,0,0-.43-.48,3.2,3.2,0,0,0,.43-.47,2.81,2.81,0,0,0,.33-.59,2.69,2.69,0,0,1,.6-.89,2.66,2.66,0,0,1,.9-.59.27.27,0,0,0,.13-.22,1.5,1.5,0,0,0,0-.37,1.5,1.5,0,0,0,0-.37.29.29,0,0,0-.13-.22,2.66,2.66,0,0,1-.9-.59,2.69,2.69,0,0,1-.6-.89,3,3,0,0,0-1.65-1.65,3.28,3.28,0,0,0-1,.63,3,3,0,0,0-.65.92,2.72,2.72,0,0,1-1.48-1.46c0-.06,0-.09-.08-.08s0,0-.07.08a2.65,2.65,0,0,1-.6.88,2.87,2.87,0,0,1-.9.59.27.27,0,0,0-.13.25,1.34,1.34,0,0,0,0,.4,2.16,2.16,0,0,0,.06.38C4.69-10.51,4.71-10.46,4.73-10.47ZM3.15.5a3.26,3.26,0,0,0,1-.67,3.31,3.31,0,0,0,.66-1A3,3,0,0,1,5.4-2a2.87,2.87,0,0,1,.9-.59A2.8,2.8,0,0,1,7.21-2a3,3,0,0,1,.6.89,3.31,3.31,0,0,0,.66,1,3.26,3.26,0,0,0,1,.67s0,0,.07-.16A2,2,0,0,0,9.59,0a2.67,2.67,0,0,0,0-.4.28.28,0,0,0-.13-.25,2.66,2.66,0,0,1-.9-.59A2.69,2.69,0,0,1,8-2.16,3,3,0,0,0,6.3-3.81a3.34,3.34,0,0,0-1,.67,3.34,3.34,0,0,0-.67,1,2.69,2.69,0,0,1-.6.89,2.66,2.66,0,0,1-.9.59A.28.28,0,0,0,3-.43,2.67,2.67,0,0,0,3,0a2,2,0,0,0,.06.37C3.11.46,3.14.51,3.15.5ZM0-8.9a3.1,3.1,0,0,0,1-.67,3.16,3.16,0,0,0,.67-1,3,3,0,0,1,.6-.89,2.87,2.87,0,0,1,.9-.59.3.3,0,0,0,.14-.25,2.67,2.67,0,0,0,0-.4,3.7,3.7,0,0,0-.07-.38c0-.11-.05-.16-.07-.15a3.34,3.34,0,0,0-1,.67,3.34,3.34,0,0,0-.67,1,2.69,2.69,0,0,1-.6.89,2.66,2.66,0,0,1-.9.59.29.29,0,0,0-.13.25,2.67,2.67,0,0,0,0,.4,1.91,1.91,0,0,0,.06.37C0-8.94,0-8.89,0-8.9ZM0-2.63A3.1,3.1,0,0,0,1-3.3a3.09,3.09,0,0,0,.67-1,1,1,0,0,0,.08-.39,2.63,2.63,0,0,0,0-.41.18.18,0,0,0,0-.09.29.29,0,0,0-.05-.13s0-.06-.06-.06,0,0-.07.08a2.65,2.65,0,0,1-.6.88,2.54,2.54,0,0,1-.9.6.26.26,0,0,0-.13.24,2.67,2.67,0,0,0,0,.4,2,2,0,0,0,.06.38C0-2.68,0-2.63,0-2.63Z" style="fill:#231f20"/><path d="M-12.74-6.66c0,.13,0,.26,0,.41a1,1,0,0,0,.07.4,3.55,3.55,0,0,0,.67,1,3.26,3.26,0,0,0,1,.67,2.87,2.87,0,0,1,.9.59,3,3,0,0,1,.6.89c0,.07,0,.09.07.07s.05,0,.08-.07A2.65,2.65,0,0,1-7.91-4.19a3.22,3.22,0,0,0,.66.92,3.07,3.07,0,0,0,.94.64A2.8,2.8,0,0,1-5.4-2a2.82,2.82,0,0,1,.59.89s.06.08.08.08a3.06,3.06,0,0,0,.93-.61,3.15,3.15,0,0,0,.65-.9,2.81,2.81,0,0,0,.65.9,2.9,2.9,0,0,0,.92.61,2.54,2.54,0,0,1,.9.6,2.65,2.65,0,0,1,.6.88C0,.47,0,.5,0,.49S0,.47.06.43L.11.31a.46.46,0,0,0,0-.1,2.54,2.54,0,0,0,0-.41A1,1,0,0,0,.07-.59a3.08,3.08,0,0,0-.66-1,3.29,3.29,0,0,0-1-.68,2.87,2.87,0,0,1-.9-.59,2.93,2.93,0,0,1-.6-.88c0-.06,0-.09-.07-.08s-.05,0-.08.08A2.67,2.67,0,0,1-4.7-2.26a3.22,3.22,0,0,0-.66-.92,3.15,3.15,0,0,0-.95-.63,2.73,2.73,0,0,1-.9-.6,3,3,0,0,1-.6-.88A3,3,0,0,0-9.46-6.94a3.08,3.08,0,0,1-.9-.6,3.12,3.12,0,0,1-.6-.88,3.08,3.08,0,0,0-1.65-1.66s0,.05-.07.16a2,2,0,0,0-.06.37,2.8,2.8,0,0,0,0,.41c0,.12.05.21.13.24a2.66,2.66,0,0,1,.9.59,2.69,2.69,0,0,1,.6.89,3.34,3.34,0,0,0,.67,1,3,3,0,0,0,1,.67,3.16,3.16,0,0,1,.54.31A3.55,3.55,0,0,1-8.46-5a3.08,3.08,0,0,0-1,1.19,3,3,0,0,0-.65-.91A2.9,2.9,0,0,0-11-5.38a2.66,2.66,0,0,1-.9-.59,2.69,2.69,0,0,1-.6-.89c0-.06-.05-.08-.07-.08a.19.19,0,0,0-.07.06s0,.08-.05.13Zm4.86-.67a2.87,2.87,0,0,1,.9.59,2.69,2.69,0,0,1,.6.89,3.34,3.34,0,0,0,.67,1,3.1,3.1,0,0,0,1,.67h0s.06,0,.08-.08a2.78,2.78,0,0,1,.59-.88,2.83,2.83,0,0,1,.91-.6,2.9,2.9,0,0,1,.9.6,3,3,0,0,1,.6.88A3.26,3.26,0,0,0-1-3.3a3.1,3.1,0,0,0,1,.67s0-.05.07-.16a2,2,0,0,0,.06-.38,2.67,2.67,0,0,0,0-.4A.26.26,0,0,0,0-3.81a2.54,2.54,0,0,1-.9-.6,2.65,2.65,0,0,1-.6-.88A3,3,0,0,0-3.15-6.94a2.92,2.92,0,0,0-.95.63,3,3,0,0,0-.65.92,2.83,2.83,0,0,1-1.19-1,2.81,2.81,0,0,1,1.21-1,3.26,3.26,0,0,0,.93-.61,3.34,3.34,0,0,0,.65-.91,3,3,0,0,0,.65.91,3.08,3.08,0,0,0,.92.61,2.66,2.66,0,0,1,.9.59,2.69,2.69,0,0,1,.6.89s.05.08.07.08l.07-.07s0-.08.05-.12a.46.46,0,0,0,0-.1,2.5,2.5,0,0,0,0-.4,1,1,0,0,0-.08-.4,3.31,3.31,0,0,0-.66-1,3.26,3.26,0,0,0-1-.67,2.73,2.73,0,0,1-.9-.6,2.81,2.81,0,0,1-.6-.88c0-.06,0-.08-.07-.08s-.05,0-.08.08a2.65,2.65,0,0,1-.6.88,2.54,2.54,0,0,1-.9.6,3.06,3.06,0,0,0-.93.61,3.15,3.15,0,0,0-.65.9,2.94,2.94,0,0,0-.64-.9,3.06,3.06,0,0,0-.93-.61s0,0-.07.16A1.91,1.91,0,0,0-8-8a1.34,1.34,0,0,0,0,.4A.27.27,0,0,0-7.88-7.33Zm1.45-5.59a2.5,2.5,0,0,0,0,.4,1,1,0,0,0,.08.4,3.34,3.34,0,0,0,.67,1,2.94,2.94,0,0,0,1,.67h0s.06,0,.08-.07a2.82,2.82,0,0,1,.59-.89A2.8,2.8,0,0,1-3.15-12a2.87,2.87,0,0,1,.9.59,3,3,0,0,1,.6.89,3.34,3.34,0,0,0,.67,1A3.1,3.1,0,0,0,0-8.9s0,0,.07-.16a1.91,1.91,0,0,0,.06-.37,2.67,2.67,0,0,0,0-.4A.29.29,0,0,0,0-10.08a2.66,2.66,0,0,1-.9-.59,2.69,2.69,0,0,1-.6-.89,3,3,0,0,0-1.65-1.65,3.28,3.28,0,0,0-.95.63,3,3,0,0,0-.65.92,2.68,2.68,0,0,1-1.48-1.46c0-.06,0-.09-.07-.09a.14.14,0,0,0-.06.07.61.61,0,0,0,0,.12A.24.24,0,0,0-6.43-12.92ZM-12.61-2.63a2.66,2.66,0,0,1,.9.59,2.69,2.69,0,0,1,.6.89,3.34,3.34,0,0,0,.67,1,3.22,3.22,0,0,0,1,.67,3.28,3.28,0,0,0,1-.63A3.14,3.14,0,0,0-7.86-1,2.68,2.68,0,0,1-6.38.41c0,.06,0,.09.07.08s0,0,.06-.06a.61.61,0,0,0,0-.12.84.84,0,0,0,0-.1,2.54,2.54,0,0,0,0-.41,1,1,0,0,0-.08-.39,3.1,3.1,0,0,0-.67-1,3.25,3.25,0,0,0-1-.68v0s-.06,0-.08.07a2.69,2.69,0,0,1-.6.89,2.66,2.66,0,0,1-.9.59,2.87,2.87,0,0,1-.9-.59,3,3,0,0,1-.6-.89,3,3,0,0,0-1.65-1.65s0,0-.07.15a2.16,2.16,0,0,0-.06.38,2.67,2.67,0,0,0,0,.4A.27.27,0,0,0-12.61-2.63Zm-.13-10.29c0,.12,0,.26,0,.4a1,1,0,0,0,.07.4,3.55,3.55,0,0,0,.67,1,3.09,3.09,0,0,0,1,.67,2.9,2.9,0,0,1,.9.6,3,3,0,0,1,.6.88c0,.07,0,.09.07.08s.05,0,.08-.08a2.67,2.67,0,0,1,1.47-1.46,3.37,3.37,0,0,0,.66.92,3.23,3.23,0,0,0,.94.63s0,0,.07-.16a3.06,3.06,0,0,0,.07-.37,2.67,2.67,0,0,0,0-.4.3.3,0,0,0-.14-.25,2.87,2.87,0,0,1-.9-.59,3,3,0,0,1-.6-.89c0-.06-.05-.09-.07-.09a3.48,3.48,0,0,0-.93.61,3.34,3.34,0,0,0-.65.91,3.14,3.14,0,0,0-.65-.91,3.28,3.28,0,0,0-.92-.61,2.66,2.66,0,0,1-.9-.59,2.65,2.65,0,0,1-.6-.88c0-.06-.05-.09-.07-.09a.15.15,0,0,0-.07.07l-.05.12A.84.84,0,0,0-12.74-12.92Z" style="fill:#231f20;"/></pattern></defs><title>pattern3</title><rect width="100%" opacity="0.03" height="100%" style="fill:url(#maze_3)"/></svg>